<svg xmlns="http://www.w3.org/2000/svg" xmlns:xlink="http://www.w3.org/1999/xlink" contentStyleType="text/css" data-diagram-type="SEQUENCE" height="1229px" preserveAspectRatio="none" style="width:1526px;height:1229px;background:#FFFFFF;" version="1.1" viewBox="0 0 1526 1229" width="1526px" zoomAndPan="magnify"><title>Discover Sources (Parallel Scan)</title><defs/><g><text fill="#000000" font-family="sans-serif" font-size="14" font-weight="bold" lengthAdjust="spacing" textLength="229.2705" x="649.5986" y="28.5352">Discover Sources (Parallel Scan)</text><g><title>Source_Scanner</title><rect fill="#FFFFFF" height="818.6289" style="stroke:#181818;stroke-width:1;" width="10" x="436.1768" y="214.9082"/></g><g><title>Task_Pool</title><rect fill="#FFFFFF" height="760.0078" style="stroke:#181818;stroke-width:1;" width="10" x="840.7593" y="244.2188"/></g><g><title>Validator</title><rect fill="#FFFFFF" height="289.7949" style="stroke:#181818;stroke-width:1;" width="10" x="1182.6606" y="297.8398"/></g><g><title>Validator</title><rect fill="#FFFFFF" height="71.6211" style="stroke:#181818;stroke-width:1;" width="10" x="1182.6606" y="631.9004"/></g><g><title>Validator</title><rect fill="#FFFFFF" height="87.9316" style="stroke:#181818;stroke-width:1;" width="10" x="1182.6606" y="747.7871"/></g><g><title>Validator</title><rect fill="#FFFFFF" height="87.9316" style="stroke:#181818;stroke-width:1;" width="10" x="1182.6606" y="879.9844"/></g><g><title>File_System</title><rect fill="#FFFFFF" height="29.3105" style="stroke:#181818;stroke-width:1;" width="10" x="1379.2007" y="369.4609"/></g><g><title>File_System</title><rect fill="#FFFFFF" height="29.3105" style="stroke:#181818;stroke-width:1;" width="10" x="1379.2007" y="428.082"/></g><g><title>File_System</title><rect fill="#FFFFFF" height="29.3105" style="stroke:#181818;stroke-width:1;" width="10" x="1379.2007" y="486.7031"/></g><g><title>File_System</title><rect fill="#FFFFFF" height="29.3105" style="stroke:#181818;stroke-width:1;" width="10" x="1379.2007" y="777.0977"/></g><g><title>File_System</title><rect fill="#FFFFFF" height="29.3105" style="stroke:#181818;stroke-width:1;" width="10" x="1379.2007" y="909.2949"/></g><g><title>Lib</title><rect fill="#FFFFFF" height="910.8711" style="stroke:#181818;stroke-width:1;" width="10" x="1452.6108" y="185.5977"/></g><rect fill="none" height="716.6973" style="stroke:#000000;stroke-width:1.5;" width="724.6523" x="794.8154" y="259.2188"/><g><title>Consumer</title><rect fill="#000000" fill-opacity="0.00000" height="1029.1133" width="8" x="38.6992" y="118.9766"/><line style="stroke:#181818;stroke-width:0.5;stroke-dasharray:5,5;" x1="42" x2="42" y1="118.9766" y2="1148.0898"/></g><g><title>TZif.API</title><rect fill="#000000" fill-opacity="0.00000" height="1029.1133" width="8" x="302.0503" y="118.9766"/><line style="stroke:#181818;stroke-width:0.5;stroke-dasharray:5,5;" x1="305.8652" x2="305.8652" y1="118.9766" y2="1148.0898"/></g><g><title>Source_Scanner</title><rect fill="#000000" fill-opacity="0.00000" height="1029.1133" width="8" x="437.1768" y="118.9766"/><line style="stroke:#181818;stroke-width:0.5;stroke-dasharray:5,5;" x1="440.2393" x2="440.2393" y1="118.9766" y2="1148.0898"/></g><g><title>Task_Pool</title><rect fill="#000000" fill-opacity="0.00000" height="1029.1133" width="8" x="841.7593" y="118.9766"/><line style="stroke:#181818;stroke-width:0.5;stroke-dasharray:5,5;" x1="844.8154" x2="844.8154" y1="118.9766" y2="1148.0898"/></g><g><title>Validator</title><rect fill="#000000" fill-opacity="0.00000" height="1029.1133" width="8" x="1183.6606" y="118.9766"/><line style="stroke:#181818;stroke-width:0.5;stroke-dasharray:5,5;" x1="1187.1177" x2="1187.1177" y1="118.9766" y2="1148.0898"/></g><g><title>File_System</title><rect fill="#000000" fill-opacity="0.00000" height="1029.1133" width="8" x="1380.2007" y="118.9766"/><line style="stroke:#181818;stroke-width:0.5;stroke-dasharray:5,5;" x1="1383.9521" x2="1383.9521" y1="118.9766" y2="1148.0898"/></g><g><title>Lib</title><rect fill="#000000" fill-opacity="0.00000" height="1029.1133" width="8" x="1453.6108" y="118.9766"/><line style="stroke:#181818;stroke-width:0.5;stroke-dasharray:5,5;" x1="1457.4492" x2="1457.4492" y1="118.9766" y2="1148.0898"/></g><g class="participant participant-head" data-participant="Consumer"><text fill="#000000" font-family="sans-serif" font-size="14" lengthAdjust="spacing" textLength="69.3984" x="5" y="116.0234">Consumer</text><ellipse cx="42.6992" cy="50.9883" fill="#E2E2F0" rx="8" ry="8" style="stroke:#181818;stroke-width:0.5;"/><path d="M42.6992,58.9883 L42.6992,85.9883 M29.6992,66.9883 L55.6992,66.9883 M42.6992,85.9883 L29.6992,100.9883 M42.6992,85.9883 L55.6992,100.9883" fill="none" style="stroke:#181818;stroke-width:0.5;"/></g><g class="participant participant-tail" data-participant="Consumer"><text fill="#000000" font-family="sans-serif" font-size="14" lengthAdjust="spacing" textLength="69.3984" x="5" y="1160.625">Consumer</text><ellipse cx="42.6992" cy="1172.0781" fill="#E2E2F0" rx="8" ry="8" style="stroke:#181818;stroke-width:0.5;"/><path d="M42.6992,1180.0781 L42.6992,1207.0781 M29.6992,1188.0781 L55.6992,1188.0781 M42.6992,1207.0781 L29.6992,1222.0781 M42.6992,1207.0781 L55.6992,1222.0781" fill="none" style="stroke:#181818;stroke-width:0.5;"/></g><g class="participant participant-head" data-participant="API"><rect fill="#E2E2F0" height="30.4883" rx="2.5" ry="2.5" style="stroke:#181818;stroke-width:0.5;" width="66.3701" x="272.8652" y="87.4883"/><text fill="#000000" font-family="sans-serif" font-size="14" lengthAdjust="spacing" textLength="52.3701" x="279.8652" y="108.0234">TZif.API</text></g><g class="participant participant-tail" data-participant="API"><rect fill="#E2E2F0" height="30.4883" rx="2.5" ry="2.5" style="stroke:#181818;stroke-width:0.5;" width="66.3701" x="272.8652" y="1147.0898"/><text fill="#000000" font-family="sans-serif" font-size="14" lengthAdjust="spacing" textLength="52.3701" x="279.8652" y="1167.625">TZif.API</text></g><g class="participant participant-head" data-participant="Scanner"><rect fill="#E2E2F0" height="30.4883" rx="2.5" ry="2.5" style="stroke:#181818;stroke-width:0.5;" width="119.875" x="381.2393" y="87.4883"/><text fill="#000000" font-family="sans-serif" font-size="14" lengthAdjust="spacing" textLength="105.875" x="388.2393" y="108.0234">Source_Scanner</text></g><g class="participant participant-tail" data-participant="Scanner"><rect fill="#E2E2F0" height="30.4883" rx="2.5" ry="2.5" style="stroke:#181818;stroke-width:0.5;" width="119.875" x="381.2393" y="1147.0898"/><text fill="#000000" font-family="sans-serif" font-size="14" lengthAdjust="spacing" textLength="105.875" x="388.2393" y="1167.625">Source_Scanner</text></g><g class="participant participant-head" data-participant="Pool"><rect fill="#E2E2F0" height="30.4883" rx="2.5" ry="2.5" style="stroke:#181818;stroke-width:0.5;" width="81.8877" x="804.8154" y="87.4883"/><text fill="#000000" font-family="sans-serif" font-size="14" lengthAdjust="spacing" textLength="67.8877" x="811.8154" y="108.0234">Task_Pool</text></g><g class="participant participant-tail" data-participant="Pool"><rect fill="#E2E2F0" height="30.4883" rx="2.5" ry="2.5" style="stroke:#181818;stroke-width:0.5;" width="81.8877" x="804.8154" y="1147.0898"/><text fill="#000000" font-family="sans-serif" font-size="14" lengthAdjust="spacing" textLength="67.8877" x="811.8154" y="1167.625">Task_Pool</text></g><g class="participant participant-head" data-participant="Val"><rect fill="#E2E2F0" height="30.4883" rx="2.5" ry="2.5" style="stroke:#181818;stroke-width:0.5;" width="75.0859" x="1150.1177" y="87.4883"/><text fill="#000000" font-family="sans-serif" font-size="14" lengthAdjust="spacing" textLength="61.0859" x="1157.1177" y="108.0234">Validator</text></g><g class="participant participant-tail" data-participant="Val"><rect fill="#E2E2F0" height="30.4883" rx="2.5" ry="2.5" style="stroke:#181818;stroke-width:0.5;" width="75.0859" x="1150.1177" y="1147.0898"/><text fill="#000000" font-family="sans-serif" font-size="14" lengthAdjust="spacing" textLength="61.0859" x="1157.1177" y="1167.625">Validator</text></g><g class="participant participant-head" data-participant="FS"><rect fill="#E2E2F0" height="30.4883" rx="2.5" ry="2.5" style="stroke:#181818;stroke-width:0.5;" width="92.4971" x="1337.9521" y="87.4883"/><text fill="#000000" font-family="sans-serif" font-size="14" lengthAdjust="spacing" textLength="78.4971" x="1344.9521" y="108.0234">File_System</text></g><g class="participant participant-tail" data-participant="FS"><rect fill="#E2E2F0" height="30.4883" rx="2.5" ry="2.5" style="stroke:#181818;stroke-width:0.5;" width="92.4971" x="1337.9521" y="1147.0898"/><text fill="#000000" font-family="sans-serif" font-size="14" lengthAdjust="spacing" textLength="78.4971" x="1344.9521" y="1167.625">File_System</text></g><g class="participant participant-head" data-participant="Lib"><rect fill="#E2E2F0" height="30.4883" rx="2.5" ry="2.5" style="stroke:#181818;stroke-width:0.5;" width="34.3232" x="1440.4492" y="87.4883"/><text fill="#000000" font-family="sans-serif" font-size="14" lengthAdjust="spacing" textLength="20.3232" x="1447.4492" y="108.0234">Lib</text></g><g class="participant participant-tail" data-participant="Lib"><rect fill="#E2E2F0" height="30.4883" rx="2.5" ry="2.5" style="stroke:#181818;stroke-width:0.5;" width="34.3232" x="1440.4492" y="1147.0898"/><text fill="#000000" font-family="sans-serif" font-size="14" lengthAdjust="spacing" textLength="20.3232" x="1447.4492" y="1167.625">Lib</text></g><g><title>Source_Scanner</title><rect fill="#FFFFFF" height="818.6289" style="stroke:#181818;stroke-width:1;" width="10" x="436.1768" y="214.9082"/></g><g><title>Task_Pool</title><rect fill="#FFFFFF" height="760.0078" style="stroke:#181818;stroke-width:1;" width="10" x="840.7593" y="244.2188"/></g><g><title>Validator</title><rect fill="#FFFFFF" height="289.7949" style="stroke:#181818;stroke-width:1;" width="10" x="1182.6606" y="297.8398"/></g><g><title>Validator</title><rect fill="#FFFFFF" height="71.6211" style="stroke:#181818;stroke-width:1;" width="10" x="1182.6606" y="631.9004"/></g><g><title>Validator</title><rect fill="#FFFFFF" height="87.9316" style="stroke:#181818;stroke-width:1;" width="10" x="1182.6606" y="747.7871"/></g><g><title>Validator</title><rect fill="#FFFFFF" height="87.9316" style="stroke:#181818;stroke-width:1;" width="10" x="1182.6606" y="879.9844"/></g><g><title>File_System</title><rect fill="#FFFFFF" height="29.3105" style="stroke:#181818;stroke-width:1;" width="10" x="1379.2007" y="369.4609"/></g><g><title>File_System</title><rect fill="#FFFFFF" height="29.3105" style="stroke:#181818;stroke-width:1;" width="10" x="1379.2007" y="428.082"/></g><g><title>File_System</title><rect fill="#FFFFFF" height="29.3105" style="stroke:#181818;stroke-width:1;" width="10" x="1379.2007" y="486.7031"/></g><g><title>File_System</title><rect fill="#FFFFFF" height="29.3105" style="stroke:#181818;stroke-width:1;" width="10" x="1379.2007" y="777.0977"/></g><g><title>File_System</title><rect fill="#FFFFFF" height="29.3105" style="stroke:#181818;stroke-width:1;" width="10" x="1379.2007" y="909.2949"/></g><g><title>Lib</title><rect fill="#FFFFFF" height="910.8711" style="stroke:#181818;stroke-width:1;" width="10" x="1452.6108" y="185.5977"/></g><path d="M311,133.9766 L311,158.9766 L441,158.9766 L441,143.9766 L431,133.9766 L311,133.9766" fill="#FEFFDD" style="stroke:#181818;stroke-width:0.5;"/><path d="M431,133.9766 L431,143.9766 L441,143.9766 L431,133.9766" fill="#FEFFDD" style="stroke:#181818;stroke-width:0.5;"/><text fill="#000000" font-family="sans-serif" font-size="13" lengthAdjust="spacing" textLength="109.1479" x="317" y="151.5449">Public API Facade</text><g class="message" data-participant-1="Consumer" data-participant-2="API"><polygon fill="#181818" points="294.0503,181.5977,304.0503,185.5977,294.0503,189.5977,298.0503,185.5977" style="stroke:#181818;stroke-width:1;"/><line style="stroke:#181818;stroke-width:1;" x1="42.6992" x2="300.0503" y1="185.5977" y2="185.5977"/><text fill="#000000" font-family="sans-serif" font-size="13" lengthAdjust="spacing" textLength="239.3511" x="49.6992" y="180.8555">Discover_Sources(In_Parallel =&gt; True)</text></g><g class="message" data-participant-1="Lib" data-participant-2="Scanner"><polygon fill="#181818" points="457.1768,210.9082,447.1768,214.9082,457.1768,218.9082,453.1768,214.9082" style="stroke:#181818;stroke-width:1;"/><line style="stroke:#181818;stroke-width:1;" x1="451.1768" x2="1451.6108" y1="214.9082" y2="214.9082"/><text fill="#000000" font-family="sans-serif" font-size="13" lengthAdjust="spacing" textLength="140.2578" x="463.1768" y="210.166">Scan_Standard_Paths()</text></g><g class="message" data-participant-1="Scanner" data-participant-2="Pool"><polygon fill="#181818" points="828.7593,240.2188,838.7593,244.2188,828.7593,248.2188,832.7593,244.2188" style="stroke:#181818;stroke-width:1;"/><line style="stroke:#181818;stroke-width:1;" x1="446.1768" x2="834.7593" y1="244.2188" y2="244.2188"/><text fill="#000000" font-family="sans-serif" font-size="13" lengthAdjust="spacing" textLength="181.0288" x="453.1768" y="239.4766">Create_Task_Pool(size =&gt; 4)</text></g><path d="M794.8154,259.2188 L861.9814,259.2188 L861.9814,266.5293 L851.9814,276.5293 L794.8154,276.5293 L794.8154,259.2188" fill="#EEEEEE" style="stroke:#000000;stroke-width:1.5;"/><rect fill="none" height="716.6973" style="stroke:#000000;stroke-width:1.5;" width="724.6523" x="794.8154" y="259.2188"/><text fill="#000000" font-family="sans-serif" font-size="13" font-weight="bold" lengthAdjust="spacing" textLength="22.166" x="809.8154" y="272.7871">par</text><text fill="#000000" font-family="sans-serif" font-size="11" font-weight="bold" lengthAdjust="spacing" textLength="168.314" x="876.9814" y="271.8535">[Path 1: /usr/share/zoneinfo]</text><g class="message" data-participant-1="Pool" data-participant-2="Val"><polygon fill="#181818" points="1170.6606,293.8398,1180.6606,297.8398,1170.6606,301.8398,1174.6606,297.8398" style="stroke:#181818;stroke-width:1;"/><line style="stroke:#181818;stroke-width:1;" x1="850.7593" x2="1176.6606" y1="297.8398" y2="297.8398"/><text fill="#000000" font-family="sans-serif" font-size="13" lengthAdjust="spacing" textLength="266.1953" x="857.7593" y="293.0977">Validate_And_Scan("/usr/share/zoneinfo")</text></g><g class="message" data-participant-1="Val" data-participant-2="Val"><line style="stroke:#181818;stroke-width:1;" x1="1192.6606" x2="1234.6606" y1="327.1504" y2="327.1504"/><line style="stroke:#181818;stroke-width:1;" x1="1234.6606" x2="1234.6606" y1="327.1504" y2="340.1504"/><line style="stroke:#181818;stroke-width:1;" x1="1193.6606" x2="1234.6606" y1="340.1504" y2="340.1504"/><polygon fill="#181818" points="1203.6606,336.1504,1193.6606,340.1504,1203.6606,344.1504,1199.6606,340.1504" style="stroke:#181818;stroke-width:1;"/><text fill="#000000" font-family="sans-serif" font-size="13" lengthAdjust="spacing" textLength="131.5806" x="1199.6606" y="322.4082">Check_Not_Symlink()</text></g><g class="message" data-participant-1="Val" data-participant-2="FS"><polygon fill="#181818" points="1367.2007,365.4609,1377.2007,369.4609,1367.2007,373.4609,1371.2007,369.4609" style="stroke:#181818;stroke-width:1;"/><line style="stroke:#181818;stroke-width:1;" x1="1192.6606" x2="1373.2007" y1="369.4609" y2="369.4609"/><text fill="#000000" font-family="sans-serif" font-size="13" lengthAdjust="spacing" textLength="154.5845" x="1199.6606" y="364.7188">Check_Directory_Exists()</text></g><g class="message" data-participant-1="FS" data-participant-2="Val"><polygon fill="#181818" points="1203.6606,394.7715,1193.6606,398.7715,1203.6606,402.7715,1199.6606,398.7715" style="stroke:#181818;stroke-width:1;"/><line style="stroke:#181818;stroke-width:1;stroke-dasharray:2,2;" x1="1197.6606" x2="1383.2007" y1="398.7715" y2="398.7715"/><text fill="#000000" font-family="sans-serif" font-size="13" lengthAdjust="spacing" textLength="18.5859" x="1209.6606" y="394.0293">OK</text></g><g class="message" data-participant-1="Val" data-participant-2="FS"><polygon fill="#181818" points="1367.2007,424.082,1377.2007,428.082,1367.2007,432.082,1371.2007,428.082" style="stroke:#181818;stroke-width:1;"/><line style="stroke:#181818;stroke-width:1;" x1="1192.6606" x2="1373.2007" y1="428.082" y2="428.082"/><text fill="#000000" font-family="sans-serif" font-size="13" lengthAdjust="spacing" textLength="167.54" x="1199.6606" y="423.3398">Read_Version("+VERSION")</text></g><g class="message" data-participant-1="FS" data-participant-2="Val"><polygon fill="#181818" points="1203.6606,453.3926,1193.6606,457.3926,1203.6606,461.3926,1199.6606,457.3926" style="stroke:#181818;stroke-width:1;"/><line style="stroke:#181818;stroke-width:1;stroke-dasharray:2,2;" x1="1197.6606" x2="1383.2007" y1="457.3926" y2="457.3926"/><text fill="#000000" font-family="sans-serif" font-size="13" lengthAdjust="spacing" textLength="50.7749" x="1209.6606" y="452.6504">"2024b"</text></g><g class="message" data-participant-1="Val" data-participant-2="FS"><polygon fill="#181818" points="1367.2007,482.7031,1377.2007,486.7031,1367.2007,490.7031,1371.2007,486.7031" style="stroke:#181818;stroke-width:1;"/><line style="stroke:#181818;stroke-width:1;" x1="1192.6606" x2="1373.2007" y1="486.7031" y2="486.7031"/><text fill="#000000" font-family="sans-serif" font-size="13" lengthAdjust="spacing" textLength="90.7144" x="1199.6606" y="481.9609">Count_Zones()</text></g><g class="message" data-participant-1="FS" data-participant-2="Val"><polygon fill="#181818" points="1203.6606,512.0137,1193.6606,516.0137,1203.6606,520.0137,1199.6606,516.0137" style="stroke:#181818;stroke-width:1;"/><line style="stroke:#181818;stroke-width:1;stroke-dasharray:2,2;" x1="1197.6606" x2="1383.2007" y1="516.0137" y2="516.0137"/><text fill="#000000" font-family="sans-serif" font-size="13" lengthAdjust="spacing" textLength="24.6606" x="1209.6606" y="511.2715">599</text></g><g class="message" data-participant-1="Val" data-participant-2="Val"><line style="stroke:#181818;stroke-width:1;" x1="1192.6606" x2="1234.6606" y1="545.3242" y2="545.3242"/><line style="stroke:#181818;stroke-width:1;" x1="1234.6606" x2="1234.6606" y1="545.3242" y2="558.3242"/><line style="stroke:#181818;stroke-width:1;" x1="1193.6606" x2="1234.6606" y1="558.3242" y2="558.3242"/><polygon fill="#181818" points="1203.6606,554.3242,1193.6606,558.3242,1203.6606,562.3242,1199.6606,558.3242" style="stroke:#181818;stroke-width:1;"/><text fill="#000000" font-family="sans-serif" font-size="13" lengthAdjust="spacing" textLength="100.9277" x="1199.6606" y="540.582">Generate_ULID()</text></g><g class="message" data-participant-1="Val" data-participant-2="Pool"><polygon fill="#181818" points="861.7593,583.6348,851.7593,587.6348,861.7593,591.6348,857.7593,587.6348" style="stroke:#181818;stroke-width:1;"/><line style="stroke:#181818;stroke-width:1;stroke-dasharray:2,2;" x1="855.7593" x2="1186.6606" y1="587.6348" y2="587.6348"/><text fill="#000000" font-family="sans-serif" font-size="13" lengthAdjust="spacing" textLength="245.5718" x="867.7593" y="582.8926">Source_Info(ULID, path, version, count)</text></g><line style="stroke:#000000;stroke-width:1;stroke-dasharray:2,2;" x1="794.8154" x2="1519.4678" y1="596.6348" y2="596.6348"/><text fill="#000000" font-family="sans-serif" font-size="11" font-weight="bold" lengthAdjust="spacing" textLength="209.6445" x="799.8154" y="607.2695">[Path 2: /var/db/timezone/zoneinfo]</text><g class="message" data-participant-1="Pool" data-participant-2="Val"><polygon fill="#181818" points="1170.6606,627.9004,1180.6606,631.9004,1170.6606,635.9004,1174.6606,631.9004" style="stroke:#181818;stroke-width:1;"/><line style="stroke:#181818;stroke-width:1;" x1="850.7593" x2="1176.6606" y1="631.9004" y2="631.9004"/><text fill="#000000" font-family="sans-serif" font-size="13" lengthAdjust="spacing" textLength="312.9014" x="857.7593" y="627.1582">Validate_And_Scan("/var/db/timezone/zoneinfo")</text></g><g class="message" data-participant-1="Val" data-participant-2="Val"><line style="stroke:#181818;stroke-width:1;" x1="1192.6606" x2="1234.6606" y1="661.2109" y2="661.2109"/><line style="stroke:#181818;stroke-width:1;" x1="1234.6606" x2="1234.6606" y1="661.2109" y2="674.2109"/><line style="stroke:#181818;stroke-width:1;" x1="1193.6606" x2="1234.6606" y1="674.2109" y2="674.2109"/><polygon fill="#181818" points="1203.6606,670.2109,1193.6606,674.2109,1203.6606,678.2109,1199.6606,674.2109" style="stroke:#181818;stroke-width:1;"/><text fill="#000000" font-family="sans-serif" font-size="13" lengthAdjust="spacing" textLength="131.5806" x="1199.6606" y="656.4688">Check_Not_Symlink()</text></g><path d="M1352.5806,648.4004 L1352.5806,673.4004 L1498.5806,673.4004 L1498.5806,658.4004 L1488.5806,648.4004 L1352.5806,648.4004" fill="#FEFFDD" style="stroke:#181818;stroke-width:0.5;"/><path d="M1488.5806,648.4004 L1488.5806,658.4004 L1498.5806,658.4004 L1488.5806,648.4004" fill="#FEFFDD" style="stroke:#181818;stroke-width:0.5;"/><text fill="#000000" font-family="sans-serif" font-size="13" lengthAdjust="spacing" textLength="125.2266" x="1358.5806" y="665.9688">SYMLINK DETECTED</text><g class="message" data-participant-1="Val" data-participant-2="Pool"><polygon fill="#181818" points="861.7593,699.5215,851.7593,703.5215,861.7593,707.5215,857.7593,703.5215" style="stroke:#181818;stroke-width:1;"/><line style="stroke:#181818;stroke-width:1;stroke-dasharray:2,2;" x1="855.7593" x2="1186.6606" y1="703.5215" y2="703.5215"/><text fill="#000000" font-family="sans-serif" font-size="13" lengthAdjust="spacing" textLength="155.0923" x="867.7593" y="698.7793">Error("Path is a symlink")</text></g><line style="stroke:#000000;stroke-width:1;stroke-dasharray:2,2;" x1="794.8154" x2="1519.4678" y1="712.5215" y2="712.5215"/><text fill="#000000" font-family="sans-serif" font-size="11" font-weight="bold" lengthAdjust="spacing" textLength="151.4004" x="799.8154" y="723.1563">[Path 3: /usr/lib/zoneinfo]</text><g class="message" data-participant-1="Pool" data-participant-2="Val"><polygon fill="#181818" points="1170.6606,743.7871,1180.6606,747.7871,1170.6606,751.7871,1174.6606,747.7871" style="stroke:#181818;stroke-width:1;"/><line style="stroke:#181818;stroke-width:1;" x1="850.7593" x2="1176.6606" y1="747.7871" y2="747.7871"/><text fill="#000000" font-family="sans-serif" font-size="13" lengthAdjust="spacing" textLength="247.457" x="857.7593" y="743.0449">Validate_And_Scan("/usr/lib/zoneinfo")</text></g><g class="message" data-participant-1="Val" data-participant-2="FS"><polygon fill="#181818" points="1367.2007,773.0977,1377.2007,777.0977,1367.2007,781.0977,1371.2007,777.0977" style="stroke:#181818;stroke-width:1;"/><line style="stroke:#181818;stroke-width:1;" x1="1192.6606" x2="1373.2007" y1="777.0977" y2="777.0977"/><text fill="#000000" font-family="sans-serif" font-size="13" lengthAdjust="spacing" textLength="154.5845" x="1199.6606" y="772.3555">Check_Directory_Exists()</text></g><g class="message" data-participant-1="FS" data-participant-2="Val"><polygon fill="#181818" points="1203.6606,802.4082,1193.6606,806.4082,1203.6606,810.4082,1199.6606,806.4082" style="stroke:#181818;stroke-width:1;"/><line style="stroke:#181818;stroke-width:1;stroke-dasharray:2,2;" x1="1197.6606" x2="1383.2007" y1="806.4082" y2="806.4082"/><text fill="#000000" font-family="sans-serif" font-size="13" lengthAdjust="spacing" textLength="79.8408" x="1209.6606" y="801.666">NOT_FOUND</text></g><g class="message" data-participant-1="Val" data-participant-2="Pool"><polygon fill="#181818" points="861.7593,831.7188,851.7593,835.7188,861.7593,839.7188,857.7593,835.7188" style="stroke:#181818;stroke-width:1;"/><line style="stroke:#181818;stroke-width:1;stroke-dasharray:2,2;" x1="855.7593" x2="1186.6606" y1="835.7188" y2="835.7188"/><text fill="#000000" font-family="sans-serif" font-size="13" lengthAdjust="spacing" textLength="170.2061" x="867.7593" y="830.9766">Error("Path does not exist")</text></g><line style="stroke:#000000;stroke-width:1;stroke-dasharray:2,2;" x1="794.8154" x2="1519.4678" y1="844.7188" y2="844.7188"/><text fill="#000000" font-family="sans-serif" font-size="11" font-weight="bold" lengthAdjust="spacing" textLength="129.0513" x="799.8154" y="855.3535">[Path 4: /etc/zoneinfo]</text><g class="message" data-participant-1="Pool" data-participant-2="Val"><polygon fill="#181818" points="1170.6606,875.9844,1180.6606,879.9844,1170.6606,883.9844,1174.6606,879.9844" style="stroke:#181818;stroke-width:1;"/><line style="stroke:#181818;stroke-width:1;" x1="850.7593" x2="1176.6606" y1="879.9844" y2="879.9844"/><text fill="#000000" font-family="sans-serif" font-size="13" lengthAdjust="spacing" textLength="223.6914" x="857.7593" y="875.2422">Validate_And_Scan("/etc/zoneinfo")</text></g><g class="message" data-participant-1="Val" data-participant-2="FS"><polygon fill="#181818" points="1367.2007,905.2949,1377.2007,909.2949,1367.2007,913.2949,1371.2007,909.2949" style="stroke:#181818;stroke-width:1;"/><line style="stroke:#181818;stroke-width:1;" x1="1192.6606" x2="1373.2007" y1="909.2949" y2="909.2949"/><text fill="#000000" font-family="sans-serif" font-size="13" lengthAdjust="spacing" textLength="154.5845" x="1199.6606" y="904.5527">Check_Directory_Exists()</text></g><g class="message" data-participant-1="FS" data-participant-2="Val"><polygon fill="#181818" points="1203.6606,934.6055,1193.6606,938.6055,1203.6606,942.6055,1199.6606,938.6055" style="stroke:#181818;stroke-width:1;"/><line style="stroke:#181818;stroke-width:1;stroke-dasharray:2,2;" x1="1197.6606" x2="1383.2007" y1="938.6055" y2="938.6055"/><text fill="#000000" font-family="sans-serif" font-size="13" lengthAdjust="spacing" textLength="79.8408" x="1209.6606" y="933.8633">NOT_FOUND</text></g><g class="message" data-participant-1="Val" data-participant-2="Pool"><polygon fill="#181818" points="861.7593,963.916,851.7593,967.916,861.7593,971.916,857.7593,967.916" style="stroke:#181818;stroke-width:1;"/><line style="stroke:#181818;stroke-width:1;stroke-dasharray:2,2;" x1="855.7593" x2="1186.6606" y1="967.916" y2="967.916"/><text fill="#000000" font-family="sans-serif" font-size="13" lengthAdjust="spacing" textLength="170.2061" x="867.7593" y="963.1738">Error("Path does not exist")</text></g><g class="message" data-participant-1="Pool" data-participant-2="Scanner"><polygon fill="#181818" points="457.1768,1000.2266,447.1768,1004.2266,457.1768,1008.2266,453.1768,1004.2266" style="stroke:#181818;stroke-width:1;"/><line style="stroke:#181818;stroke-width:1;stroke-dasharray:2,2;" x1="451.1768" x2="844.7593" y1="1004.2266" y2="1004.2266"/><text fill="#000000" font-family="sans-serif" font-size="13" lengthAdjust="spacing" textLength="370.5825" x="463.1768" y="999.4844">Results(sources=[Source1], errors=[Error1, Error2, Error3])</text></g><g class="message" data-participant-1="Scanner" data-participant-2="API"><polygon fill="#181818" points="317.0503,1029.5371,307.0503,1033.5371,317.0503,1037.5371,313.0503,1033.5371" style="stroke:#181818;stroke-width:1;"/><line style="stroke:#181818;stroke-width:1;stroke-dasharray:2,2;" x1="311.0503" x2="440.1768" y1="1033.5371" y2="1033.5371"/><text fill="#000000" font-family="sans-serif" font-size="13" lengthAdjust="spacing" textLength="106.1265" x="323.0503" y="1028.7949">Discovery_Result</text></g><g class="message" data-participant-1="API" data-participant-2="Consumer"><polygon fill="#181818" points="53.6992,1092.4688,43.6992,1096.4688,53.6992,1100.4688,49.6992,1096.4688" style="stroke:#181818;stroke-width:1;"/><line style="stroke:#181818;stroke-width:1;stroke-dasharray:2,2;" x1="47.6992" x2="305.0503" y1="1096.4688" y2="1096.4688"/><text fill="#000000" font-family="sans-serif" font-size="13" lengthAdjust="spacing" textLength="231.9243" x="59.6992" y="1091.7266">Result(valid_sources=[1], errors=[3])</text></g><path d="M311,1046.5371 L311,1132.5371 L586,1132.5371 L586,1056.5371 L576,1046.5371 L311,1046.5371" fill="#FEFFDD" style="stroke:#181818;stroke-width:0.5;"/><path d="M576,1046.5371 L576,1056.5371 L586,1056.5371 L576,1046.5371" fill="#FEFFDD" style="stroke:#181818;stroke-width:0.5;"/><text fill="#000000" font-family="sans-serif" font-size="13" lengthAdjust="spacing" textLength="169.8442" x="317" y="1064.1055">Valid: /usr/share/zoneinfo</text><text fill="#000000" font-family="sans-serif" font-size="13" lengthAdjust="spacing" textLength="41.7295" x="317" y="1079.416">Errors:</text><text fill="#000000" font-family="sans-serif" font-size="13" lengthAdjust="spacing" textLength="249.8882" x="321.1133" y="1094.7266">- /var/db/timezone/zoneinfo (symlink)</text><text fill="#000000" font-family="sans-serif" font-size="13" lengthAdjust="spacing" textLength="197.8184" x="321.1133" y="1110.0371">- /usr/lib/zoneinfo (not found)</text><text fill="#000000" font-family="sans-serif" font-size="13" lengthAdjust="spacing" textLength="174.0527" x="321.1133" y="1125.3477">- /etc/zoneinfo (not found)</text><!--SRC=[rLLRJzim57xthpZAKwALTHJsG2MGK2zJ1MihKf36X2mtELqjqXZPJZNuzVDnqf1MGCTusalYoxbztxdOIfiXzAL9r1ernAhG2He8fqABBCCCuaJa4MCYiKf3J-McMA5c3q9RcSW7aLi8PhToyVbyEWf0671_bYkBeEMlfGMry2S0qsAUoOGsC1I9I95XdW99RXih8-3aDaVjJLRh7QV2tFEfKfaNeSNs_Ot8P2fSqFxUxRQlXp9pJXwDnPKN6CQCRT31mHd5sQrfuHKjuIZdDJ6dPp3J1KP4ZLmBX_XIpXbp7zAlOkxw1O-jo5EXKwTjboPiw6omiMf1kWIc2psDJe3NE4CZdv2y7ZVKFMv21cGP3hlGBenkcwNGs7vIESfyeHpxu2N9k6EY2nKvoC_pr5CT1Y_e1P7Nh9qHYNJW_hMbtXAJUpvMrf6vocH-7qPDcM6y4UbBZLH3ZtpmMnfhmXtZBW6q7yPmiB4zkV17AUuADOnVeKZv3MeZbGFnwMPm5Oycus2_yQ3pfNCy3_PxwAaYj_pMSV8tCNyzENdRf9VwXYxLnF_rvQZVPApEVjK68vU6a8HQyE0It89r2RK52OKLxVgY565ci2o7ZYk7jT3jTDwsSeMKrtSMnMlQ7ocDv-dWOFxuVZaQNq1_C1lqPeF-2qmCj5Ow33mWQK20AQq5Uy0VLRsGoVa_T49JQm_O3zNuU3BZmydrkFzMrRp8HQhSd7PS0fAlVMmSEpRG9kzaegdn7xEGfuoLM9kJ-GfDaRdmJ3dSJt-MFNTurm8a3-x4UpfibHuxrV_eBc8D3-K8hiVtxjlno4i_JPLwwDDhI1gRbsSJLBYcPF0wicPCvFwvXHYKYNjjyFk8JPTeENXz641ODLLK2Uws08J4ySBDd7GZqgoDhUlwNMyWfgVn3m00]--></g></svg>