<svg xmlns="http://www.w3.org/2000/svg" xmlns:xlink="http://www.w3.org/1999/xlink" contentStyleType="text/css" data-diagram-type="SEQUENCE" height="922px" preserveAspectRatio="none" style="width:1260px;height:922px;background:#FFFFFF;" version="1.1" viewBox="0 0 1260 922" width="1260px" zoomAndPan="magnify"><title>Export Cache to File</title><defs/><g><text fill="#000000" font-family="sans-serif" font-size="14" font-weight="bold" lengthAdjust="spacing" textLength="143.7939" x="562.5544" y="28.5352">Export Cache to File</text><g><title>TZif.API</title><rect fill="#FFFFFF" height="587.4531" style="stroke:#181818;stroke-width:1;" width="10" x="400.9609" y="185.5977"/></g><g><title>Cache_Manager</title><rect fill="#FFFFFF" height="528.832" style="stroke:#181818;stroke-width:1;" width="10" x="554.0386" y="214.9082"/></g><g><title>Source_Cache</title><rect fill="#FFFFFF" height="29.3105" style="stroke:#181818;stroke-width:1;" width="10" x="691.3804" y="244.2188"/></g><g><title>Zone_Cache</title><rect fill="#FFFFFF" height="32.3105" style="stroke:#181818;stroke-width:1;" width="10" x="802.9966" y="302.8398"/></g><g><title>Serializer</title><rect fill="#FFFFFF" height="288.3477" style="stroke:#181818;stroke-width:1;" width="10" x="899.0576" y="367.4609"/></g><g><title>File_System</title><rect fill="#FFFFFF" height="29.3105" style="stroke:#181818;stroke-width:1;" width="10" x="1096.624" y="685.1191"/></g><g><title>Consumer</title><rect fill="#000000" fill-opacity="0.00000" height="722.6953" width="8" x="110.6992" y="118.9766"/><line style="stroke:#181818;stroke-width:0.5;stroke-dasharray:5,5;" x1="114" x2="114" y1="118.9766" y2="841.6719"/></g><g><title>TZif.API</title><rect fill="#000000" fill-opacity="0.00000" height="722.6953" width="8" x="401.9609" y="118.9766"/><line style="stroke:#181818;stroke-width:0.5;stroke-dasharray:5,5;" x1="405.7759" x2="405.7759" y1="118.9766" y2="841.6719"/></g><g><title>Cache_Manager</title><rect fill="#000000" fill-opacity="0.00000" height="722.6953" width="8" x="555.0386" y="118.9766"/><line style="stroke:#181818;stroke-width:0.5;stroke-dasharray:5,5;" x1="558.7661" x2="558.7661" y1="118.9766" y2="841.6719"/></g><g><title>Source_Cache</title><rect fill="#000000" fill-opacity="0.00000" height="722.6953" width="8" x="692.3804" y="118.9766"/><line style="stroke:#181818;stroke-width:0.5;stroke-dasharray:5,5;" x1="695.5781" x2="695.5781" y1="118.9766" y2="841.6719"/></g><g><title>Zone_Cache</title><rect fill="#000000" fill-opacity="0.00000" height="722.6953" width="8" x="803.9966" y="118.9766"/><line style="stroke:#181818;stroke-width:0.5;stroke-dasharray:5,5;" x1="807.1826" x2="807.1826" y1="118.9766" y2="841.6719"/></g><g><title>Serializer</title><rect fill="#000000" fill-opacity="0.00000" height="722.6953" width="8" x="900.0576" y="118.9766"/><line style="stroke:#181818;stroke-width:0.5;stroke-dasharray:5,5;" x1="903.8105" x2="903.8105" y1="118.9766" y2="841.6719"/></g><g><title>File_System</title><rect fill="#000000" fill-opacity="0.00000" height="722.6953" width="8" x="1097.624" y="118.9766"/><line style="stroke:#181818;stroke-width:0.5;stroke-dasharray:5,5;" x1="1101.3755" x2="1101.3755" y1="118.9766" y2="841.6719"/></g><g class="participant participant-head" data-participant="Consumer"><text fill="#000000" font-family="sans-serif" font-size="14" lengthAdjust="spacing" textLength="69.3984" x="77" y="116.0234">Consumer</text><ellipse cx="114.6992" cy="50.9883" fill="#E2E2F0" rx="8" ry="8" style="stroke:#181818;stroke-width:0.5;"/><path d="M114.6992,58.9883 L114.6992,85.9883 M101.6992,66.9883 L127.6992,66.9883 M114.6992,85.9883 L101.6992,100.9883 M114.6992,85.9883 L127.6992,100.9883" fill="none" style="stroke:#181818;stroke-width:0.5;"/></g><g class="participant participant-tail" data-participant="Consumer"><text fill="#000000" font-family="sans-serif" font-size="14" lengthAdjust="spacing" textLength="69.3984" x="77" y="854.207">Consumer</text><ellipse cx="114.6992" cy="865.6602" fill="#E2E2F0" rx="8" ry="8" style="stroke:#181818;stroke-width:0.5;"/><path d="M114.6992,873.6602 L114.6992,900.6602 M101.6992,881.6602 L127.6992,881.6602 M114.6992,900.6602 L101.6992,915.6602 M114.6992,900.6602 L127.6992,915.6602" fill="none" style="stroke:#181818;stroke-width:0.5;"/></g><g class="participant participant-head" data-participant="API"><rect fill="#E2E2F0" height="30.4883" rx="2.5" ry="2.5" style="stroke:#181818;stroke-width:0.5;" width="66.3701" x="372.7759" y="87.4883"/><text fill="#000000" font-family="sans-serif" font-size="14" lengthAdjust="spacing" textLength="52.3701" x="379.7759" y="108.0234">TZif.API</text></g><g class="participant participant-tail" data-participant="API"><rect fill="#E2E2F0" height="30.4883" rx="2.5" ry="2.5" style="stroke:#181818;stroke-width:0.5;" width="66.3701" x="372.7759" y="840.6719"/><text fill="#000000" font-family="sans-serif" font-size="14" lengthAdjust="spacing" textLength="52.3701" x="379.7759" y="861.207">TZif.API</text></g><g class="participant participant-head" data-participant="Cache"><rect fill="#E2E2F0" height="30.4883" rx="2.5" ry="2.5" style="stroke:#181818;stroke-width:0.5;" width="120.5449" x="498.7661" y="87.4883"/><text fill="#000000" font-family="sans-serif" font-size="14" lengthAdjust="spacing" textLength="106.5449" x="505.7661" y="108.0234">Cache_Manager</text></g><g class="participant participant-tail" data-participant="Cache"><rect fill="#E2E2F0" height="30.4883" rx="2.5" ry="2.5" style="stroke:#181818;stroke-width:0.5;" width="120.5449" x="498.7661" y="840.6719"/><text fill="#000000" font-family="sans-serif" font-size="14" lengthAdjust="spacing" textLength="106.5449" x="505.7661" y="861.207">Cache_Manager</text></g><g class="participant participant-head" data-participant="SCache"><rect fill="#E2E2F0" height="30.4883" rx="2.5" ry="2.5" style="stroke:#181818;stroke-width:0.5;" width="107.6045" x="642.5781" y="87.4883"/><text fill="#000000" font-family="sans-serif" font-size="14" lengthAdjust="spacing" textLength="93.6045" x="649.5781" y="108.0234">Source_Cache</text></g><g class="participant participant-tail" data-participant="SCache"><rect fill="#E2E2F0" height="30.4883" rx="2.5" ry="2.5" style="stroke:#181818;stroke-width:0.5;" width="107.6045" x="642.5781" y="840.6719"/><text fill="#000000" font-family="sans-serif" font-size="14" lengthAdjust="spacing" textLength="93.6045" x="649.5781" y="861.207">Source_Cache</text></g><g class="participant participant-head" data-participant="ZCache"><rect fill="#E2E2F0" height="30.4883" rx="2.5" ry="2.5" style="stroke:#181818;stroke-width:0.5;" width="95.6279" x="760.1826" y="87.4883"/><text fill="#000000" font-family="sans-serif" font-size="14" lengthAdjust="spacing" textLength="81.6279" x="767.1826" y="108.0234">Zone_Cache</text></g><g class="participant participant-tail" data-participant="ZCache"><rect fill="#E2E2F0" height="30.4883" rx="2.5" ry="2.5" style="stroke:#181818;stroke-width:0.5;" width="95.6279" x="760.1826" y="840.6719"/><text fill="#000000" font-family="sans-serif" font-size="14" lengthAdjust="spacing" textLength="81.6279" x="767.1826" y="861.207">Zone_Cache</text></g><g class="participant participant-head" data-participant="Ser"><rect fill="#E2E2F0" height="30.4883" rx="2.5" ry="2.5" style="stroke:#181818;stroke-width:0.5;" width="76.4941" x="865.8105" y="87.4883"/><text fill="#000000" font-family="sans-serif" font-size="14" lengthAdjust="spacing" textLength="62.4941" x="872.8105" y="108.0234">Serializer</text></g><g class="participant participant-tail" data-participant="Ser"><rect fill="#E2E2F0" height="30.4883" rx="2.5" ry="2.5" style="stroke:#181818;stroke-width:0.5;" width="76.4941" x="865.8105" y="840.6719"/><text fill="#000000" font-family="sans-serif" font-size="14" lengthAdjust="spacing" textLength="62.4941" x="872.8105" y="861.207">Serializer</text></g><g class="participant participant-head" data-participant="FS"><rect fill="#E2E2F0" height="30.4883" rx="2.5" ry="2.5" style="stroke:#181818;stroke-width:0.5;" width="92.4971" x="1055.3755" y="87.4883"/><text fill="#000000" font-family="sans-serif" font-size="14" lengthAdjust="spacing" textLength="78.4971" x="1062.3755" y="108.0234">File_System</text></g><g class="participant participant-tail" data-participant="FS"><rect fill="#E2E2F0" height="30.4883" rx="2.5" ry="2.5" style="stroke:#181818;stroke-width:0.5;" width="92.4971" x="1055.3755" y="840.6719"/><text fill="#000000" font-family="sans-serif" font-size="14" lengthAdjust="spacing" textLength="78.4971" x="1062.3755" y="861.207">File_System</text></g><g><title>TZif.API</title><rect fill="#FFFFFF" height="587.4531" style="stroke:#181818;stroke-width:1;" width="10" x="400.9609" y="185.5977"/></g><g><title>Cache_Manager</title><rect fill="#FFFFFF" height="528.832" style="stroke:#181818;stroke-width:1;" width="10" x="554.0386" y="214.9082"/></g><g><title>Source_Cache</title><rect fill="#FFFFFF" height="29.3105" style="stroke:#181818;stroke-width:1;" width="10" x="691.3804" y="244.2188"/></g><g><title>Zone_Cache</title><rect fill="#FFFFFF" height="32.3105" style="stroke:#181818;stroke-width:1;" width="10" x="802.9966" y="302.8398"/></g><g><title>Serializer</title><rect fill="#FFFFFF" height="288.3477" style="stroke:#181818;stroke-width:1;" width="10" x="899.0576" y="367.4609"/></g><g><title>File_System</title><rect fill="#FFFFFF" height="29.3105" style="stroke:#181818;stroke-width:1;" width="10" x="1096.624" y="685.1191"/></g><path d="M410,133.9766 L410,158.9766 L540,158.9766 L540,143.9766 L530,133.9766 L410,133.9766" fill="#FEFFDD" style="stroke:#181818;stroke-width:0.5;"/><path d="M530,133.9766 L530,143.9766 L540,143.9766 L530,133.9766" fill="#FEFFDD" style="stroke:#181818;stroke-width:0.5;"/><text fill="#000000" font-family="sans-serif" font-size="13" lengthAdjust="spacing" textLength="109.1479" x="416" y="151.5449">Public API Facade</text><g class="message" data-participant-1="Consumer" data-participant-2="API"><polygon fill="#181818" points="388.9609,181.5977,398.9609,185.5977,388.9609,189.5977,392.9609,185.5977" style="stroke:#181818;stroke-width:1;"/><line style="stroke:#181818;stroke-width:1;" x1="114.6992" x2="394.9609" y1="185.5977" y2="185.5977"/><text fill="#000000" font-family="sans-serif" font-size="13" lengthAdjust="spacing" textLength="267.2617" x="121.6992" y="180.8555">Export_Cache("/var/cache/tzif/cache.bin")</text></g><g class="message" data-participant-1="API" data-participant-2="Cache"><polygon fill="#181818" points="542.0386,210.9082,552.0386,214.9082,542.0386,218.9082,546.0386,214.9082" style="stroke:#181818;stroke-width:1;"/><line style="stroke:#181818;stroke-width:1;" x1="410.9609" x2="548.0386" y1="214.9082" y2="214.9082"/><text fill="#000000" font-family="sans-serif" font-size="13" lengthAdjust="spacing" textLength="124.0776" x="417.9609" y="210.166">Export_All_Caches()</text></g><g class="message" data-participant-1="Cache" data-participant-2="SCache"><polygon fill="#181818" points="679.3804,240.2188,689.3804,244.2188,679.3804,248.2188,683.3804,244.2188" style="stroke:#181818;stroke-width:1;"/><line style="stroke:#181818;stroke-width:1;" x1="564.0386" x2="685.3804" y1="244.2188" y2="244.2188"/><text fill="#000000" font-family="sans-serif" font-size="13" lengthAdjust="spacing" textLength="108.3418" x="571.0386" y="239.4766">Get_All_Sources()</text></g><g class="message" data-participant-1="SCache" data-participant-2="Cache"><polygon fill="#181818" points="575.0386,269.5293,565.0386,273.5293,575.0386,277.5293,571.0386,273.5293" style="stroke:#181818;stroke-width:1;"/><line style="stroke:#181818;stroke-width:1;stroke-dasharray:2,2;" x1="569.0386" x2="695.3804" y1="273.5293" y2="273.5293"/><text fill="#000000" font-family="sans-serif" font-size="13" lengthAdjust="spacing" textLength="102.0322" x="581.0386" y="268.7871">Source_Info_List</text></g><g class="message" data-participant-1="Cache" data-participant-2="ZCache"><polygon fill="#181818" points="790.9966,298.8398,800.9966,302.8398,790.9966,306.8398,794.9966,302.8398" style="stroke:#181818;stroke-width:1;"/><line style="stroke:#181818;stroke-width:1;" x1="564.0386" x2="796.9966" y1="302.8398" y2="302.8398"/><text fill="#000000" font-family="sans-serif" font-size="13" lengthAdjust="spacing" textLength="150.0459" x="571.0386" y="298.0977">Get_All_Cached_Zones()</text></g><g class="message" data-participant-1="ZCache" data-participant-2="Cache"><polygon fill="#181818" points="575.0386,331.1504,565.0386,335.1504,575.0386,339.1504,571.0386,335.1504" style="stroke:#181818;stroke-width:1;"/><line style="stroke:#181818;stroke-width:1;stroke-dasharray:2,2;" x1="569.0386" x2="806.9966" y1="335.1504" y2="335.1504"/><text fill="#000000" font-family="sans-serif" font-size="13" lengthAdjust="spacing" textLength="99.6709" x="581.0386" y="330.4082">Zone_Data_Map</text></g><path d="M817,315.8398 L817,340.8398 L1054,340.8398 L1054,325.8398 L1044,315.8398 L817,315.8398" fill="#FEFFDD" style="stroke:#181818;stroke-width:0.5;"/><path d="M1044,315.8398 L1044,325.8398 L1054,325.8398 L1044,315.8398" fill="#FEFFDD" style="stroke:#181818;stroke-width:0.5;"/><text fill="#000000" font-family="sans-serif" font-size="13" lengthAdjust="spacing" textLength="216.6265" x="823" y="333.4082">Map: (ULID, Zone_Id) -&gt; TZif_Data</text><g class="message" data-participant-1="Cache" data-participant-2="Ser"><polygon fill="#181818" points="887.0576,363.4609,897.0576,367.4609,887.0576,371.4609,891.0576,367.4609" style="stroke:#181818;stroke-width:1;"/><line style="stroke:#181818;stroke-width:1;" x1="564.0386" x2="893.0576" y1="367.4609" y2="367.4609"/><text fill="#000000" font-family="sans-serif" font-size="13" lengthAdjust="spacing" textLength="155.2954" x="571.0386" y="362.7188">Serialize(sources, zones)</text></g><g class="message" data-participant-1="Ser" data-participant-2="Ser"><line style="stroke:#181818;stroke-width:1;" x1="909.0576" x2="951.0576" y1="416.2373" y2="416.2373"/><line style="stroke:#181818;stroke-width:1;" x1="951.0576" x2="951.0576" y1="416.2373" y2="429.2373"/><line style="stroke:#181818;stroke-width:1;" x1="910.0576" x2="951.0576" y1="429.2373" y2="429.2373"/><polygon fill="#181818" points="920.0576,425.2373,910.0576,429.2373,920.0576,433.2373,916.0576,429.2373" style="stroke:#181818;stroke-width:1;"/><text fill="#000000" font-family="sans-serif" font-size="13" lengthAdjust="spacing" textLength="91.9775" x="916.0576" y="411.4951">Write_Header()</text></g><path d="M1029.9775,380.4609 L1029.9775,451.4609 L1253.9775,451.4609 L1253.9775,390.4609 L1243.9775,380.4609 L1029.9775,380.4609" fill="#FEFFDD" style="stroke:#181818;stroke-width:0.5;"/><path d="M1243.9775,380.4609 L1243.9775,390.4609 L1253.9775,390.4609 L1243.9775,380.4609" fill="#FEFFDD" style="stroke:#181818;stroke-width:0.5;"/><text fill="#000000" font-family="sans-serif" font-size="13" lengthAdjust="spacing" textLength="131.6885" x="1035.9775" y="398.0293">Magic: "TZIF_CACHE"</text><text fill="#000000" font-family="sans-serif" font-size="13" lengthAdjust="spacing" textLength="63.9463" x="1035.9775" y="413.3398">Version: 1</text><text fill="#000000" font-family="sans-serif" font-size="13" lengthAdjust="spacing" textLength="124.2363" x="1035.9775" y="428.6504">Created: timestamp</text><text fill="#000000" font-family="sans-serif" font-size="13" lengthAdjust="spacing" textLength="203.8677" x="1035.9775" y="443.9609">Platform: darwin/linux/windows</text><g class="message" data-participant-1="Ser" data-participant-2="Ser"><line style="stroke:#181818;stroke-width:1;" x1="909.0576" x2="951.0576" y1="505.1348" y2="505.1348"/><line style="stroke:#181818;stroke-width:1;" x1="951.0576" x2="951.0576" y1="505.1348" y2="518.1348"/><line style="stroke:#181818;stroke-width:1;" x1="910.0576" x2="951.0576" y1="518.1348" y2="518.1348"/><polygon fill="#181818" points="920.0576,514.1348,910.0576,518.1348,920.0576,522.1348,916.0576,518.1348" style="stroke:#181818;stroke-width:1;"/><text fill="#000000" font-family="sans-serif" font-size="13" lengthAdjust="spacing" textLength="163.5664" x="916.0576" y="500.3926">Write_Sources(source_list)</text></g><path d="M1101.5664,461.7031 L1101.5664,547.7031 L1225.5664,547.7031 L1225.5664,471.7031 L1215.5664,461.7031 L1101.5664,461.7031" fill="#FEFFDD" style="stroke:#181818;stroke-width:0.5;"/><path d="M1215.5664,461.7031 L1215.5664,471.7031 L1225.5664,471.7031 L1215.5664,461.7031" fill="#FEFFDD" style="stroke:#181818;stroke-width:0.5;"/><text fill="#000000" font-family="sans-serif" font-size="13" lengthAdjust="spacing" textLength="103.6636" x="1107.5664" y="479.2715">For each source:</text><text fill="#000000" font-family="sans-serif" font-size="13" lengthAdjust="spacing" textLength="41.0566" x="1107.5664" y="494.582">- ULID</text><text fill="#000000" font-family="sans-serif" font-size="13" lengthAdjust="spacing" textLength="38.9302" x="1107.5664" y="509.8926">- Path</text><text fill="#000000" font-family="sans-serif" font-size="13" lengthAdjust="spacing" textLength="59.1348" x="1107.5664" y="525.2031">- Version</text><text fill="#000000" font-family="sans-serif" font-size="13" lengthAdjust="spacing" textLength="87.2676" x="1107.5664" y="540.5137">- Zone_Count</text><g class="message" data-participant-1="Ser" data-participant-2="Ser"><line style="stroke:#181818;stroke-width:1;" x1="909.0576" x2="951.0576" y1="594.0322" y2="594.0322"/><line style="stroke:#181818;stroke-width:1;" x1="951.0576" x2="951.0576" y1="594.0322" y2="607.0322"/><line style="stroke:#181818;stroke-width:1;" x1="910.0576" x2="951.0576" y1="607.0322" y2="607.0322"/><polygon fill="#181818" points="920.0576,603.0322,910.0576,607.0322,920.0576,611.0322,916.0576,607.0322" style="stroke:#181818;stroke-width:1;"/><text fill="#000000" font-family="sans-serif" font-size="13" lengthAdjust="spacing" textLength="149.7856" x="916.0576" y="589.29">Write_Zones(zone_map)</text></g><path d="M1087.7856,558.2559 L1087.7856,629.2559 L1231.7856,629.2559 L1231.7856,568.2559 L1221.7856,558.2559 L1087.7856,558.2559" fill="#FEFFDD" style="stroke:#181818;stroke-width:0.5;"/><path d="M1221.7856,558.2559 L1221.7856,568.2559 L1231.7856,568.2559 L1221.7856,558.2559" fill="#FEFFDD" style="stroke:#181818;stroke-width:0.5;"/><text fill="#000000" font-family="sans-serif" font-size="13" lengthAdjust="spacing" textLength="92.5107" x="1093.7856" y="575.8242">For each zone:</text><text fill="#000000" font-family="sans-serif" font-size="13" lengthAdjust="spacing" textLength="89.832" x="1093.7856" y="591.1348">- Source_ULID</text><text fill="#000000" font-family="sans-serif" font-size="13" lengthAdjust="spacing" textLength="61.2168" x="1093.7856" y="606.4453">- Zone_Id</text><text fill="#000000" font-family="sans-serif" font-size="13" lengthAdjust="spacing" textLength="123.5762" x="1093.7856" y="621.7559">- TZif_Data (binary)</text><g class="message" data-participant-1="Ser" data-participant-2="Cache"><polygon fill="#181818" points="575.0386,651.8086,565.0386,655.8086,575.0386,659.8086,571.0386,655.8086" style="stroke:#181818;stroke-width:1;"/><line style="stroke:#181818;stroke-width:1;stroke-dasharray:2,2;" x1="569.0386" x2="903.0576" y1="655.8086" y2="655.8086"/><text fill="#000000" font-family="sans-serif" font-size="13" lengthAdjust="spacing" textLength="74.0518" x="581.0386" y="651.0664">Binary_Data</text></g><g class="message" data-participant-1="Cache" data-participant-2="FS"><polygon fill="#181818" points="1084.624,681.1191,1094.624,685.1191,1084.624,689.1191,1088.624,685.1191" style="stroke:#181818;stroke-width:1;"/><line style="stroke:#181818;stroke-width:1;" x1="564.0386" x2="1090.624" y1="685.1191" y2="685.1191"/><text fill="#000000" font-family="sans-serif" font-size="13" lengthAdjust="spacing" textLength="277.4116" x="571.0386" y="680.377">Write_File("/var/cache/tzif/cache.bin", data)</text></g><g class="message" data-participant-1="FS" data-participant-2="Cache"><polygon fill="#181818" points="575.0386,710.4297,565.0386,714.4297,575.0386,718.4297,571.0386,714.4297" style="stroke:#181818;stroke-width:1;"/><line style="stroke:#181818;stroke-width:1;stroke-dasharray:2,2;" x1="569.0386" x2="1100.624" y1="714.4297" y2="714.4297"/><text fill="#000000" font-family="sans-serif" font-size="13" lengthAdjust="spacing" textLength="18.5859" x="581.0386" y="709.6875">OK</text></g><g class="message" data-participant-1="Cache" data-participant-2="API"><polygon fill="#181818" points="421.9609,739.7402,411.9609,743.7402,421.9609,747.7402,417.9609,743.7402" style="stroke:#181818;stroke-width:1;"/><line style="stroke:#181818;stroke-width:1;stroke-dasharray:2,2;" x1="415.9609" x2="558.0386" y1="743.7402" y2="743.7402"/><text fill="#000000" font-family="sans-serif" font-size="13" lengthAdjust="spacing" textLength="48.8833" x="427.9609" y="738.998">Success</text></g><g class="message" data-participant-1="API" data-participant-2="Consumer"><polygon fill="#181818" points="125.6992,769.0508,115.6992,773.0508,125.6992,777.0508,121.6992,773.0508" style="stroke:#181818;stroke-width:1;"/><line style="stroke:#181818;stroke-width:1;stroke-dasharray:2,2;" x1="119.6992" x2="404.9609" y1="773.0508" y2="773.0508"/><text fill="#000000" font-family="sans-serif" font-size="13" lengthAdjust="spacing" textLength="18.5859" x="131.6992" y="768.3086">OK</text></g><path d="M5,786.0508 L5,826.0508 L224,826.0508 L224,796.0508 L214,786.0508 L5,786.0508" fill="#FEFFDD" style="stroke:#181818;stroke-width:0.5;"/><path d="M214,786.0508 L214,796.0508 L224,796.0508 L214,786.0508" fill="#FEFFDD" style="stroke:#181818;stroke-width:0.5;"/><text fill="#000000" font-family="sans-serif" font-size="13" lengthAdjust="spacing" textLength="198.5356" x="11" y="803.6191">Next session: Import this cache</text><text fill="#000000" font-family="sans-serif" font-size="13" lengthAdjust="spacing" textLength="118.9487" x="11" y="818.9297">for instant startup!</text><!--SRC=[VLJ1Rjim3BtxAxYS4g1jiAiF0xAqNerrMm1l7U2BeTfA8i2M34bEqtpzA4gn7JVh9Q5baezwxz5Ms9h3mx5LsiAQbNiELa4YQXv5hBHAmrf9qpLSHotJLfIYPTB2x7SkjdUhJJe3PW3_8wai1orsUmjgIoS0c-wb5gLxW8ILhE8HbnMupCjcX5lyO9BjkAQET7APbAbEbxoWDvIJNKdAbHodvDVwS2rOBKu1APlUpDszoDwCvGqb95aKdJc0so_kDd4Wp2FDPyi3qylInKjx4biVthq8ELiu4iM18JUEaiXHWJsehk-ogclVoSn7-Nxqo6k2DLae-iPzXUVZeYGmaeMQ0IXmbygjAfw4iL75fqK3K3u1eiUgSDHUe0LoytTe9C8zimmbRKV6G4VWGGppFq_f_OrFIwk5mtHsefB18QCHytTSS1r3B-JSU2fkuEHc71E2uaQPrurg_cfXUV78qOiQxpAPRIVAs5axJOhrQltuCCFJPwwDK3A6p_YmrXpRLZ5OqN1ZMTCwbzVCRfLkOgYOVXLoMGlP7PSOLUhL31UwCiXPGt-1eaPf9aCbk858n1vyIen7j-3ues33x9w2C2N5VWTK9-s7s5vFnrZHiFP_iEwz1mqUwh63V1Jtyi4SNS_qss8AFRZZAoLuiSSsT5Br0YVPUKotZXzjs0soRjb8SzpN91i3_le-ng5rxXrBovnr9OfWnbd1SBIkhbFO_sapscaYJXtuw5C9y9CVBHZiIjv96_g-shqmGADZ1be6X4GJuKS7VxNjsay3Q_y0]--></g></svg>