<svg xmlns="http://www.w3.org/2000/svg" xmlns:xlink="http://www.w3.org/1999/xlink" contentStyleType="text/css" data-diagram-type="SEQUENCE" height="1344px" preserveAspectRatio="none" style="width:1177px;height:1344px;background:#FFFFFF;" version="1.1" viewBox="0 0 1177 1344" width="1177px" zoomAndPan="magnify"><title>Find Zone By ID</title><defs/><g><text fill="#000000" font-family="sans-serif" font-size="14" font-weight="bold" lengthAdjust="spacing" textLength="112.9912" x="533.1492" y="28.5352">Find Zone By ID</text><g><title>TZif.API</title><rect fill="#FFFFFF" height="1029.1582" style="stroke:#181818;stroke-width:1;" width="10" x="209.3677" y="160.9424"/></g><g><title>Source_Handle</title><rect fill="#FFFFFF" height="1052.4688" style="stroke:#181818;stroke-width:1;" width="10" x="431.0698" y="200.9082"/></g><g><title>Zone_Repository</title><rect fill="#FFFFFF" height="530.9238" style="stroke:#181818;stroke-width:1;" width="10" x="679.4575" y="458.3477"/></g><g><title>Zone_Cache</title><rect fill="#FFFFFF" height="198.8184" style="stroke:#181818;stroke-width:1;" width="10" x="800.6099" y="230.2188"/></g><g><title>Zone_Cache</title><rect fill="#FFFFFF" height="29.3105" style="stroke:#181818;stroke-width:1;" width="10" x="800.6099" y="1018.582"/></g><g><title>TZif_Parser</title><rect fill="#FFFFFF" height="257.1738" style="stroke:#181818;stroke-width:1;" width="10" x="903.1104" y="702.7871"/></g><g><title>File_System</title><rect fill="#FFFFFF" height="185.8184" style="stroke:#181818;stroke-width:1;" width="10" x="1099.041" y="487.6582"/></g><g><title>File_System</title><rect fill="#FFFFFF" height="29.3105" style="stroke:#181818;stroke-width:1;" width="10" x="1099.041" y="732.0977"/></g><rect fill="none" height="1001.1582" style="stroke:#000000;stroke-width:1.5;" width="1160.2896" x="10" y="245.2188"/><rect fill="none" height="736.7188" style="stroke:#000000;stroke-width:1.5;" width="1140.2896" x="20" y="502.6582"/><g><title>Consumer</title><rect fill="#000000" fill-opacity="0.00000" height="1144.4004" width="8" x="63.6992" y="118.9766"/><line style="stroke:#181818;stroke-width:0.5;stroke-dasharray:5,5;" x1="67" x2="67" y1="118.9766" y2="1263.377"/></g><g><title>TZif.API</title><rect fill="#000000" fill-opacity="0.00000" height="1144.4004" width="8" x="210.3677" y="118.9766"/><line style="stroke:#181818;stroke-width:0.5;stroke-dasharray:5,5;" x1="214.1826" x2="214.1826" y1="118.9766" y2="1263.377"/></g><g><title>Source_Handle</title><rect fill="#000000" fill-opacity="0.00000" height="1144.4004" width="8" x="432.0698" y="118.9766"/><line style="stroke:#181818;stroke-width:0.5;stroke-dasharray:5,5;" x1="435.123" x2="435.123" y1="118.9766" y2="1263.377"/></g><g><title>Zone_Repository</title><rect fill="#000000" fill-opacity="0.00000" height="1144.4004" width="8" x="680.4575" y="118.9766"/><line style="stroke:#181818;stroke-width:0.5;stroke-dasharray:5,5;" x1="684.1191" x2="684.1191" y1="118.9766" y2="1263.377"/></g><g><title>Zone_Cache</title><rect fill="#000000" fill-opacity="0.00000" height="1144.4004" width="8" x="801.6099" y="118.9766"/><line style="stroke:#181818;stroke-width:0.5;stroke-dasharray:5,5;" x1="804.7959" x2="804.7959" y1="118.9766" y2="1263.377"/></g><g><title>TZif_Parser</title><rect fill="#000000" fill-opacity="0.00000" height="1144.4004" width="8" x="904.1104" y="118.9766"/><line style="stroke:#181818;stroke-width:0.5;stroke-dasharray:5,5;" x1="907.4238" x2="907.4238" y1="118.9766" y2="1263.377"/></g><g><title>File_System</title><rect fill="#000000" fill-opacity="0.00000" height="1144.4004" width="8" x="1100.041" y="118.9766"/><line style="stroke:#181818;stroke-width:0.5;stroke-dasharray:5,5;" x1="1103.7925" x2="1103.7925" y1="118.9766" y2="1263.377"/></g><g class="participant participant-head" data-participant="Consumer"><text fill="#000000" font-family="sans-serif" font-size="14" lengthAdjust="spacing" textLength="69.3984" x="30" y="116.0234">Consumer</text><ellipse cx="67.6992" cy="50.9883" fill="#E2E2F0" rx="8" ry="8" style="stroke:#181818;stroke-width:0.5;"/><path d="M67.6992,58.9883 L67.6992,85.9883 M54.6992,66.9883 L80.6992,66.9883 M67.6992,85.9883 L54.6992,100.9883 M67.6992,85.9883 L80.6992,100.9883" fill="none" style="stroke:#181818;stroke-width:0.5;"/></g><g class="participant participant-tail" data-participant="Consumer"><text fill="#000000" font-family="sans-serif" font-size="14" lengthAdjust="spacing" textLength="69.3984" x="30" y="1275.9121">Consumer</text><ellipse cx="67.6992" cy="1287.3652" fill="#E2E2F0" rx="8" ry="8" style="stroke:#181818;stroke-width:0.5;"/><path d="M67.6992,1295.3652 L67.6992,1322.3652 M54.6992,1303.3652 L80.6992,1303.3652 M67.6992,1322.3652 L54.6992,1337.3652 M67.6992,1322.3652 L80.6992,1337.3652" fill="none" style="stroke:#181818;stroke-width:0.5;"/></g><g class="participant participant-head" data-participant="API"><rect fill="#E2E2F0" height="30.4883" rx="2.5" ry="2.5" style="stroke:#181818;stroke-width:0.5;" width="66.3701" x="181.1826" y="87.4883"/><text fill="#000000" font-family="sans-serif" font-size="14" lengthAdjust="spacing" textLength="52.3701" x="188.1826" y="108.0234">TZif.API</text></g><g class="participant participant-tail" data-participant="API"><rect fill="#E2E2F0" height="30.4883" rx="2.5" ry="2.5" style="stroke:#181818;stroke-width:0.5;" width="66.3701" x="181.1826" y="1262.377"/><text fill="#000000" font-family="sans-serif" font-size="14" lengthAdjust="spacing" textLength="52.3701" x="188.1826" y="1282.9121">TZif.API</text></g><g class="participant participant-head" data-participant="Handle"><rect fill="#E2E2F0" height="30.4883" rx="2.5" ry="2.5" style="stroke:#181818;stroke-width:0.5;" width="113.8936" x="379.123" y="87.4883"/><text fill="#000000" font-family="sans-serif" font-size="14" lengthAdjust="spacing" textLength="99.8936" x="386.123" y="108.0234">Source_Handle</text></g><g class="participant participant-tail" data-participant="Handle"><rect fill="#E2E2F0" height="30.4883" rx="2.5" ry="2.5" style="stroke:#181818;stroke-width:0.5;" width="113.8936" x="379.123" y="1262.377"/><text fill="#000000" font-family="sans-serif" font-size="14" lengthAdjust="spacing" textLength="99.8936" x="386.123" y="1282.9121">Source_Handle</text></g><g class="participant participant-head" data-participant="Repo"><rect fill="#E2E2F0" height="30.4883" rx="2.5" ry="2.5" style="stroke:#181818;stroke-width:0.5;" width="126.6768" x="621.1191" y="87.4883"/><text fill="#000000" font-family="sans-serif" font-size="14" lengthAdjust="spacing" textLength="112.6768" x="628.1191" y="108.0234">Zone_Repository</text></g><g class="participant participant-tail" data-participant="Repo"><rect fill="#E2E2F0" height="30.4883" rx="2.5" ry="2.5" style="stroke:#181818;stroke-width:0.5;" width="126.6768" x="621.1191" y="1262.377"/><text fill="#000000" font-family="sans-serif" font-size="14" lengthAdjust="spacing" textLength="112.6768" x="628.1191" y="1282.9121">Zone_Repository</text></g><g class="participant participant-head" data-participant="Cache"><rect fill="#E2E2F0" height="30.4883" rx="2.5" ry="2.5" style="stroke:#181818;stroke-width:0.5;" width="95.6279" x="757.7959" y="87.4883"/><text fill="#000000" font-family="sans-serif" font-size="14" lengthAdjust="spacing" textLength="81.6279" x="764.7959" y="108.0234">Zone_Cache</text></g><g class="participant participant-tail" data-participant="Cache"><rect fill="#E2E2F0" height="30.4883" rx="2.5" ry="2.5" style="stroke:#181818;stroke-width:0.5;" width="95.6279" x="757.7959" y="1262.377"/><text fill="#000000" font-family="sans-serif" font-size="14" lengthAdjust="spacing" textLength="81.6279" x="764.7959" y="1282.9121">Zone_Cache</text></g><g class="participant participant-head" data-participant="Parser"><rect fill="#E2E2F0" height="30.4883" rx="2.5" ry="2.5" style="stroke:#181818;stroke-width:0.5;" width="89.373" x="863.4238" y="87.4883"/><text fill="#000000" font-family="sans-serif" font-size="14" lengthAdjust="spacing" textLength="75.373" x="870.4238" y="108.0234">TZif_Parser</text></g><g class="participant participant-tail" data-participant="Parser"><rect fill="#E2E2F0" height="30.4883" rx="2.5" ry="2.5" style="stroke:#181818;stroke-width:0.5;" width="89.373" x="863.4238" y="1262.377"/><text fill="#000000" font-family="sans-serif" font-size="14" lengthAdjust="spacing" textLength="75.373" x="870.4238" y="1282.9121">TZif_Parser</text></g><g class="participant participant-head" data-participant="FS"><rect fill="#E2E2F0" height="30.4883" rx="2.5" ry="2.5" style="stroke:#181818;stroke-width:0.5;" width="92.4971" x="1057.7925" y="87.4883"/><text fill="#000000" font-family="sans-serif" font-size="14" lengthAdjust="spacing" textLength="78.4971" x="1064.7925" y="108.0234">File_System</text></g><g class="participant participant-tail" data-participant="FS"><rect fill="#E2E2F0" height="30.4883" rx="2.5" ry="2.5" style="stroke:#181818;stroke-width:0.5;" width="92.4971" x="1057.7925" y="1262.377"/><text fill="#000000" font-family="sans-serif" font-size="14" lengthAdjust="spacing" textLength="78.4971" x="1064.7925" y="1282.9121">File_System</text></g><g><title>TZif.API</title><rect fill="#FFFFFF" height="1029.1582" style="stroke:#181818;stroke-width:1;" width="10" x="209.3677" y="160.9424"/></g><g><title>Source_Handle</title><rect fill="#FFFFFF" height="1052.4688" style="stroke:#181818;stroke-width:1;" width="10" x="431.0698" y="200.9082"/></g><g><title>Zone_Repository</title><rect fill="#FFFFFF" height="530.9238" style="stroke:#181818;stroke-width:1;" width="10" x="679.4575" y="458.3477"/></g><g><title>Zone_Cache</title><rect fill="#FFFFFF" height="198.8184" style="stroke:#181818;stroke-width:1;" width="10" x="800.6099" y="230.2188"/></g><g><title>Zone_Cache</title><rect fill="#FFFFFF" height="29.3105" style="stroke:#181818;stroke-width:1;" width="10" x="800.6099" y="1018.582"/></g><g><title>TZif_Parser</title><rect fill="#FFFFFF" height="257.1738" style="stroke:#181818;stroke-width:1;" width="10" x="903.1104" y="702.7871"/></g><g><title>File_System</title><rect fill="#FFFFFF" height="185.8184" style="stroke:#181818;stroke-width:1;" width="10" x="1099.041" y="487.6582"/></g><g><title>File_System</title><rect fill="#FFFFFF" height="29.3105" style="stroke:#181818;stroke-width:1;" width="10" x="1099.041" y="732.0977"/></g><g class="message" data-participant-1="Consumer" data-participant-2="API"><polygon fill="#181818" points="197.3677,156.9424,207.3677,160.9424,197.3677,164.9424,201.3677,160.9424" style="stroke:#181818;stroke-width:1;"/><line style="stroke:#181818;stroke-width:1;" x1="67.6992" x2="203.3677" y1="160.9424" y2="160.9424"/><text fill="#000000" font-family="sans-serif" font-size="13" lengthAdjust="spacing" textLength="122.6685" x="74.6992" y="156.2002">Find_Zone(Zone_Id)</text></g><path d="M224,133.9766 L224,173.9766 L398,173.9766 L398,143.9766 L388,133.9766 L224,133.9766" fill="#FEFFDD" style="stroke:#181818;stroke-width:0.5;"/><path d="M388,133.9766 L388,143.9766 L398,143.9766 L388,133.9766" fill="#FEFFDD" style="stroke:#181818;stroke-width:0.5;"/><text fill="#000000" font-family="sans-serif" font-size="13" lengthAdjust="spacing" textLength="109.1479" x="230" y="151.5449">Public API Facade</text><text fill="#000000" font-family="sans-serif" font-size="13" lengthAdjust="spacing" textLength="153.0674" x="230" y="166.8555">Shields internal changes</text><g class="message" data-participant-1="API" data-participant-2="Handle"><polygon fill="#181818" points="419.0698,196.9082,429.0698,200.9082,419.0698,204.9082,423.0698,200.9082" style="stroke:#181818;stroke-width:1;"/><line style="stroke:#181818;stroke-width:1;" x1="219.3677" x2="425.0698" y1="200.9082" y2="200.9082"/><text fill="#000000" font-family="sans-serif" font-size="13" lengthAdjust="spacing" textLength="192.7021" x="226.3677" y="196.166">Find_By_Id("America/Phoenix")</text></g><g class="message" data-participant-1="Handle" data-participant-2="Cache"><polygon fill="#181818" points="788.6099,226.2188,798.6099,230.2188,788.6099,234.2188,792.6099,230.2188" style="stroke:#181818;stroke-width:1;"/><line style="stroke:#181818;stroke-width:1;" x1="441.0698" x2="794.6099" y1="230.2188" y2="230.2188"/><text fill="#000000" font-family="sans-serif" font-size="13" lengthAdjust="spacing" textLength="276.1548" x="448.0698" y="225.4766">Get_Cached_Zone(ULID, "America/Phoenix")</text></g><path d="M10,245.2188 L72.1387,245.2188 L72.1387,252.5293 L62.1387,262.5293 L10,262.5293 L10,245.2188" fill="#EEEEEE" style="stroke:#000000;stroke-width:1.5;"/><rect fill="none" height="1001.1582" style="stroke:#000000;stroke-width:1.5;" width="1160.2896" x="10" y="245.2188"/><text fill="#000000" font-family="sans-serif" font-size="13" font-weight="bold" lengthAdjust="spacing" textLength="17.1387" x="25" y="258.7871">alt</text><text fill="#000000" font-family="sans-serif" font-size="11" font-weight="bold" lengthAdjust="spacing" textLength="65.4253" x="87.1387" y="257.8535">[Cache HIT]</text><g class="message" data-participant-1="Cache" data-participant-2="Handle"><polygon fill="#181818" points="452.0698,279.8398,442.0698,283.8398,452.0698,287.8398,448.0698,283.8398" style="stroke:#181818;stroke-width:1;"/><line style="stroke:#181818;stroke-width:1;stroke-dasharray:2,2;" x1="446.0698" x2="799.6099" y1="283.8398" y2="283.8398"/><text fill="#000000" font-family="sans-serif" font-size="13" lengthAdjust="spacing" textLength="60.0742" x="458.0698" y="279.0977">TZif_Data</text></g><g class="message" data-participant-1="Handle" data-participant-2="Handle"><line style="stroke:#181818;stroke-width:1;" x1="441.0698" x2="483.0698" y1="313.1504" y2="313.1504"/><line style="stroke:#181818;stroke-width:1;" x1="483.0698" x2="483.0698" y1="313.1504" y2="326.1504"/><line style="stroke:#181818;stroke-width:1;" x1="442.0698" x2="483.0698" y1="326.1504" y2="326.1504"/><polygon fill="#181818" points="452.0698,322.1504,442.0698,326.1504,452.0698,330.1504,448.0698,326.1504" style="stroke:#181818;stroke-width:1;"/><text fill="#000000" font-family="sans-serif" font-size="13" lengthAdjust="spacing" textLength="128.8384" x="448.0698" y="308.4082">Create_Zone_Entity()</text></g><g class="message" data-participant-1="Handle" data-participant-2="API"><polygon fill="#181818" points="230.3677,351.4609,220.3677,355.4609,230.3677,359.4609,226.3677,355.4609" style="stroke:#181818;stroke-width:1;"/><line style="stroke:#181818;stroke-width:1;stroke-dasharray:2,2;" x1="224.3677" x2="430.0698" y1="355.4609" y2="355.4609"/><text fill="#000000" font-family="sans-serif" font-size="13" lengthAdjust="spacing" textLength="62.2324" x="236.3677" y="350.7188">Zone_Info</text></g><g class="message" data-participant-1="API" data-participant-2="Consumer"><polygon fill="#181818" points="78.6992,380.7715,68.6992,384.7715,78.6992,388.7715,74.6992,384.7715" style="stroke:#181818;stroke-width:1;"/><line style="stroke:#181818;stroke-width:1;stroke-dasharray:2,2;" x1="72.6992" x2="208.3677" y1="384.7715" y2="384.7715"/><text fill="#000000" font-family="sans-serif" font-size="13" lengthAdjust="spacing" textLength="106.6978" x="84.6992" y="380.0293">Zone_Result (Ok)</text></g><line style="stroke:#000000;stroke-width:1;stroke-dasharray:2,2;" x1="10" x2="1170.2896" y1="393.7715" y2="393.7715"/><text fill="#000000" font-family="sans-serif" font-size="11" font-weight="bold" lengthAdjust="spacing" textLength="71.8062" x="15" y="404.4063">[Cache MISS]</text><g class="message" data-participant-1="Cache" data-participant-2="Handle"><polygon fill="#181818" points="452.0698,425.0371,442.0698,429.0371,452.0698,433.0371,448.0698,429.0371" style="stroke:#181818;stroke-width:1;"/><line style="stroke:#181818;stroke-width:1;stroke-dasharray:2,2;" x1="446.0698" x2="804.6099" y1="429.0371" y2="429.0371"/><text fill="#000000" font-family="sans-serif" font-size="13" lengthAdjust="spacing" textLength="79.8408" x="458.0698" y="424.2949">NOT_FOUND</text></g><g class="message" data-participant-1="Handle" data-participant-2="Repo"><polygon fill="#181818" points="667.4575,454.3477,677.4575,458.3477,667.4575,462.3477,671.4575,458.3477" style="stroke:#181818;stroke-width:1;"/><line style="stroke:#181818;stroke-width:1;" x1="441.0698" x2="673.4575" y1="458.3477" y2="458.3477"/><text fill="#000000" font-family="sans-serif" font-size="13" lengthAdjust="spacing" textLength="219.3877" x="448.0698" y="453.6055">Find_Zone_File("America/Phoenix")</text></g><g class="message" data-participant-1="Repo" data-participant-2="FS"><polygon fill="#181818" points="1087.041,483.6582,1097.041,487.6582,1087.041,491.6582,1091.041,487.6582" style="stroke:#181818;stroke-width:1;"/><line style="stroke:#181818;stroke-width:1;" x1="689.4575" x2="1093.041" y1="487.6582" y2="487.6582"/><text fill="#000000" font-family="sans-serif" font-size="13" lengthAdjust="spacing" textLength="242.4678" x="696.4575" y="482.916">Locate_File(path + "America/Phoenix")</text></g><path d="M20,502.6582 L82.1387,502.6582 L82.1387,509.9688 L72.1387,519.9688 L20,519.9688 L20,502.6582" fill="#EEEEEE" style="stroke:#000000;stroke-width:1.5;"/><rect fill="none" height="736.7188" style="stroke:#000000;stroke-width:1.5;" width="1140.2896" x="20" y="502.6582"/><text fill="#000000" font-family="sans-serif" font-size="13" font-weight="bold" lengthAdjust="spacing" textLength="17.1387" x="35" y="516.2266">alt</text><text fill="#000000" font-family="sans-serif" font-size="11" font-weight="bold" lengthAdjust="spacing" textLength="87.3501" x="97.1387" y="515.293">[File not found]</text><g class="message" data-participant-1="FS" data-participant-2="Repo"><polygon fill="#181818" points="700.4575,537.2793,690.4575,541.2793,700.4575,545.2793,696.4575,541.2793" style="stroke:#181818;stroke-width:1;"/><line style="stroke:#181818;stroke-width:1;stroke-dasharray:2,2;" x1="694.4575" x2="1098.041" y1="541.2793" y2="541.2793"/><text fill="#000000" font-family="sans-serif" font-size="13" lengthAdjust="spacing" textLength="79.8408" x="706.4575" y="536.5371">NOT_FOUND</text></g><g class="message" data-participant-1="Repo" data-participant-2="Handle"><polygon fill="#181818" points="452.0698,566.5898,442.0698,570.5898,452.0698,574.5898,448.0698,570.5898" style="stroke:#181818;stroke-width:1;"/><line style="stroke:#181818;stroke-width:1;stroke-dasharray:2,2;" x1="446.0698" x2="678.4575" y1="570.5898" y2="570.5898"/><text fill="#000000" font-family="sans-serif" font-size="13" lengthAdjust="spacing" textLength="146.5356" x="458.0698" y="565.8477">Error("Zone not found")</text></g><g class="message" data-participant-1="Handle" data-participant-2="API"><polygon fill="#181818" points="230.3677,595.9004,220.3677,599.9004,230.3677,603.9004,226.3677,599.9004" style="stroke:#181818;stroke-width:1;"/><line style="stroke:#181818;stroke-width:1;stroke-dasharray:2,2;" x1="224.3677" x2="430.0698" y1="599.9004" y2="599.9004"/><text fill="#000000" font-family="sans-serif" font-size="13" lengthAdjust="spacing" textLength="30.9893" x="236.3677" y="595.1582">Error</text></g><g class="message" data-participant-1="API" data-participant-2="Consumer"><polygon fill="#181818" points="78.6992,625.2109,68.6992,629.2109,78.6992,633.2109,74.6992,629.2109" style="stroke:#181818;stroke-width:1;"/><line style="stroke:#181818;stroke-width:1;stroke-dasharray:2,2;" x1="72.6992" x2="208.3677" y1="629.2109" y2="629.2109"/><text fill="#000000" font-family="sans-serif" font-size="13" lengthAdjust="spacing" textLength="106.6851" x="84.6992" y="624.4688">Zone_Result (Err)</text></g><line style="stroke:#000000;stroke-width:1;stroke-dasharray:2,2;" x1="20" x2="1160.2896" y1="638.2109" y2="638.2109"/><text fill="#000000" font-family="sans-serif" font-size="11" font-weight="bold" lengthAdjust="spacing" textLength="65.0171" x="25" y="648.8457">[File found]</text><g class="message" data-participant-1="FS" data-participant-2="Repo"><polygon fill="#181818" points="700.4575,669.4766,690.4575,673.4766,700.4575,677.4766,696.4575,673.4766" style="stroke:#181818;stroke-width:1;"/><line style="stroke:#181818;stroke-width:1;stroke-dasharray:2,2;" x1="694.4575" x2="1103.041" y1="673.4766" y2="673.4766"/><text fill="#000000" font-family="sans-serif" font-size="13" lengthAdjust="spacing" textLength="55.5229" x="706.4575" y="668.7344">File_Path</text></g><g class="message" data-participant-1="Repo" data-participant-2="Parser"><polygon fill="#181818" points="891.1104,698.7871,901.1104,702.7871,891.1104,706.7871,895.1104,702.7871" style="stroke:#181818;stroke-width:1;"/><line style="stroke:#181818;stroke-width:1;" x1="689.4575" x2="897.1104" y1="702.7871" y2="702.7871"/><text fill="#000000" font-family="sans-serif" font-size="13" lengthAdjust="spacing" textLength="155.6826" x="696.4575" y="698.0449">Parse_TZif_File(file_path)</text></g><g class="message" data-participant-1="Parser" data-participant-2="FS"><polygon fill="#181818" points="1087.041,728.0977,1097.041,732.0977,1087.041,736.0977,1091.041,732.0977" style="stroke:#181818;stroke-width:1;"/><line style="stroke:#181818;stroke-width:1;" x1="913.1104" x2="1093.041" y1="732.0977" y2="732.0977"/><text fill="#000000" font-family="sans-serif" font-size="13" lengthAdjust="spacing" textLength="166.9307" x="920.1104" y="727.3555">Read_Binary_File(file_path)</text></g><g class="message" data-participant-1="FS" data-participant-2="Parser"><polygon fill="#181818" points="924.1104,757.4082,914.1104,761.4082,924.1104,765.4082,920.1104,761.4082" style="stroke:#181818;stroke-width:1;"/><line style="stroke:#181818;stroke-width:1;stroke-dasharray:2,2;" x1="918.1104" x2="1103.041" y1="761.4082" y2="761.4082"/><text fill="#000000" font-family="sans-serif" font-size="13" lengthAdjust="spacing" textLength="64.9175" x="930.1104" y="756.666">Raw_Bytes</text></g><g class="message" data-participant-1="Parser" data-participant-2="Parser"><line style="stroke:#181818;stroke-width:1;" x1="913.1104" x2="955.1104" y1="790.7188" y2="790.7188"/><line style="stroke:#181818;stroke-width:1;" x1="955.1104" x2="955.1104" y1="790.7188" y2="803.7188"/><line style="stroke:#181818;stroke-width:1;" x1="914.1104" x2="955.1104" y1="803.7188" y2="803.7188"/><polygon fill="#181818" points="924.1104,799.7188,914.1104,803.7188,924.1104,807.7188,920.1104,803.7188" style="stroke:#181818;stroke-width:1;"/><text fill="#000000" font-family="sans-serif" font-size="13" lengthAdjust="spacing" textLength="93.228" x="920.1104" y="785.9766">Parse_Header()</text></g><g class="message" data-participant-1="Parser" data-participant-2="Parser"><line style="stroke:#181818;stroke-width:1;" x1="913.1104" x2="955.1104" y1="833.0293" y2="833.0293"/><line style="stroke:#181818;stroke-width:1;" x1="955.1104" x2="955.1104" y1="833.0293" y2="846.0293"/><line style="stroke:#181818;stroke-width:1;" x1="914.1104" x2="955.1104" y1="846.0293" y2="846.0293"/><polygon fill="#181818" points="924.1104,842.0293,914.1104,846.0293,924.1104,850.0293,920.1104,846.0293" style="stroke:#181818;stroke-width:1;"/><text fill="#000000" font-family="sans-serif" font-size="13" lengthAdjust="spacing" textLength="118.9805" x="920.1104" y="828.2871">Parse_Transitions()</text></g><g class="message" data-participant-1="Parser" data-participant-2="Parser"><line style="stroke:#181818;stroke-width:1;" x1="913.1104" x2="955.1104" y1="875.3398" y2="875.3398"/><line style="stroke:#181818;stroke-width:1;" x1="955.1104" x2="955.1104" y1="875.3398" y2="888.3398"/><line style="stroke:#181818;stroke-width:1;" x1="914.1104" x2="955.1104" y1="888.3398" y2="888.3398"/><polygon fill="#181818" points="924.1104,884.3398,914.1104,888.3398,924.1104,892.3398,920.1104,888.3398" style="stroke:#181818;stroke-width:1;"/><text fill="#000000" font-family="sans-serif" font-size="13" lengthAdjust="spacing" textLength="85.5728" x="920.1104" y="870.5977">Parse_Types()</text></g><g class="message" data-participant-1="Parser" data-participant-2="Parser"><line style="stroke:#181818;stroke-width:1;" x1="913.1104" x2="955.1104" y1="917.6504" y2="917.6504"/><line style="stroke:#181818;stroke-width:1;" x1="955.1104" x2="955.1104" y1="917.6504" y2="930.6504"/><line style="stroke:#181818;stroke-width:1;" x1="914.1104" x2="955.1104" y1="930.6504" y2="930.6504"/><polygon fill="#181818" points="924.1104,926.6504,914.1104,930.6504,924.1104,934.6504,920.1104,930.6504" style="stroke:#181818;stroke-width:1;"/><text fill="#000000" font-family="sans-serif" font-size="13" lengthAdjust="spacing" textLength="130.5269" x="920.1104" y="912.9082">Parse_Designations()</text></g><g class="message" data-participant-1="Parser" data-participant-2="Repo"><polygon fill="#181818" points="700.4575,955.9609,690.4575,959.9609,700.4575,963.9609,696.4575,959.9609" style="stroke:#181818;stroke-width:1;"/><line style="stroke:#181818;stroke-width:1;stroke-dasharray:2,2;" x1="694.4575" x2="907.1104" y1="959.9609" y2="959.9609"/><text fill="#000000" font-family="sans-serif" font-size="13" lengthAdjust="spacing" textLength="60.0742" x="706.4575" y="955.2188">TZif_Data</text></g><g class="message" data-participant-1="Repo" data-participant-2="Handle"><polygon fill="#181818" points="452.0698,985.2715,442.0698,989.2715,452.0698,993.2715,448.0698,989.2715" style="stroke:#181818;stroke-width:1;"/><line style="stroke:#181818;stroke-width:1;stroke-dasharray:2,2;" x1="446.0698" x2="683.4575" y1="989.2715" y2="989.2715"/><text fill="#000000" font-family="sans-serif" font-size="13" lengthAdjust="spacing" textLength="60.0742" x="458.0698" y="984.5293">TZif_Data</text></g><g class="message" data-participant-1="Handle" data-participant-2="Cache"><polygon fill="#181818" points="788.6099,1014.582,798.6099,1018.582,788.6099,1022.582,792.6099,1018.582" style="stroke:#181818;stroke-width:1;"/><line style="stroke:#181818;stroke-width:1;" x1="441.0698" x2="794.6099" y1="1018.582" y2="1018.582"/><text fill="#000000" font-family="sans-serif" font-size="13" lengthAdjust="spacing" textLength="275.6025" x="448.0698" y="1013.8398">Cache_Zone(ULID, "America/Phoenix", data)</text></g><g class="message" data-participant-1="Cache" data-participant-2="Handle"><polygon fill="#181818" points="452.0698,1043.8926,442.0698,1047.8926,452.0698,1051.8926,448.0698,1047.8926" style="stroke:#181818;stroke-width:1;"/><line style="stroke:#181818;stroke-width:1;stroke-dasharray:2,2;" x1="446.0698" x2="804.6099" y1="1047.8926" y2="1047.8926"/><text fill="#000000" font-family="sans-serif" font-size="13" lengthAdjust="spacing" textLength="18.5859" x="458.0698" y="1043.1504">OK</text></g><g class="message" data-participant-1="Handle" data-participant-2="Handle"><line style="stroke:#181818;stroke-width:1;" x1="441.0698" x2="483.0698" y1="1077.2031" y2="1077.2031"/><line style="stroke:#181818;stroke-width:1;" x1="483.0698" x2="483.0698" y1="1077.2031" y2="1090.2031"/><line style="stroke:#181818;stroke-width:1;" x1="442.0698" x2="483.0698" y1="1090.2031" y2="1090.2031"/><polygon fill="#181818" points="452.0698,1086.2031,442.0698,1090.2031,452.0698,1094.2031,448.0698,1090.2031" style="stroke:#181818;stroke-width:1;"/><text fill="#000000" font-family="sans-serif" font-size="13" lengthAdjust="spacing" textLength="128.8384" x="448.0698" y="1072.4609">Create_Zone_Entity()</text></g><g class="message" data-participant-1="Handle" data-participant-2="API"><polygon fill="#181818" points="230.3677,1115.5137,220.3677,1119.5137,230.3677,1123.5137,226.3677,1119.5137" style="stroke:#181818;stroke-width:1;"/><line style="stroke:#181818;stroke-width:1;stroke-dasharray:2,2;" x1="224.3677" x2="430.0698" y1="1119.5137" y2="1119.5137"/><text fill="#000000" font-family="sans-serif" font-size="13" lengthAdjust="spacing" textLength="62.2324" x="236.3677" y="1114.7715">Zone_Info</text></g><g class="message" data-participant-1="API" data-participant-2="Consumer"><polygon fill="#181818" points="78.6992,1186.1006,68.6992,1190.1006,78.6992,1194.1006,74.6992,1190.1006" style="stroke:#181818;stroke-width:1;"/><line style="stroke:#181818;stroke-width:1;stroke-dasharray:2,2;" x1="72.6992" x2="213.3677" y1="1190.1006" y2="1190.1006"/><text fill="#000000" font-family="sans-serif" font-size="13" lengthAdjust="spacing" textLength="106.6978" x="84.6992" y="1185.3584">Zone_Result (Ok)</text></g><path d="M224,1132.5137 L224,1233.5137 L382,1233.5137 L382,1142.5137 L372,1132.5137 L224,1132.5137" fill="#FEFFDD" style="stroke:#181818;stroke-width:0.5;"/><path d="M372,1132.5137 L372,1142.5137 L382,1142.5137 L372,1132.5137" fill="#FEFFDD" style="stroke:#181818;stroke-width:0.5;"/><text fill="#000000" font-family="sans-serif" font-size="13" lengthAdjust="spacing" textLength="137.8647" x="230" y="1150.082">Zone_Result contains:</text><text fill="#000000" font-family="sans-serif" font-size="13" lengthAdjust="spacing" textLength="61.2168" x="230" y="1165.3926">- Zone_Id</text><text fill="#000000" font-family="sans-serif" font-size="13" lengthAdjust="spacing" textLength="89.832" x="230" y="1180.7031">- Source_ULID</text><text fill="#000000" font-family="sans-serif" font-size="13" lengthAdjust="spacing" textLength="59.1348" x="230" y="1196.0137">- Version</text><text fill="#000000" font-family="sans-serif" font-size="13" lengthAdjust="spacing" textLength="82.1069" x="230" y="1211.3242">- Transitions</text><text fill="#000000" font-family="sans-serif" font-size="13" lengthAdjust="spacing" textLength="48.6992" x="230" y="1226.6348">- Types</text><!--SRC=[bLN1ajem3BtxApoSOBgqTmuximkRmdIxC8JTmruoRYA8frc7SKpR_7qjsGanf41pYIt9qjEJP1jf2k2HL1b_BnNmnvelPeo9r9IQJqjL7Jv0ixtGHgPoBvJXWysxt7v-M2q6N5JS_aDjN1vq2ibSgAm0Cd7Bq0fZ9MlObvMqWMgomssFrLIakND4gtCioKhe2ZIPk6Le4ya2ahYk37oGJHGprcJ6n_UOmeGOI33Ua88kiX5o87y90vIZAkr2orrk6EUhmuz2fYZdaKX51bOMvnAAhE9I6T1A53pDXTf1nS1IYwSPGtiRp_7XGpxMDjPmy62no5HyMUKbAFbdq8dkwMFkZmw8Xmd_2iQHuu6_FYzcT_oIAqSW4uLnIpvVR2nqxdVZ3ZWYTYQC8FqnTgEVQh0UAN3of8mqzN0Kc3R4EZhLjYGjKO0fUFwzVWtLmO8QBd-E61ILHyg_B-Bu7_XUbfiaMhw-p4YVmMcE8MfihKwD4so9FjBnLEk9-f54k48tKJpXpsMAYPE7lJ0v_yIlEOfS4aWx7iDkuDloe38IunV5b9o36QPsZD_9_adhKWzfFexUVDY-8f1zgxrI16liF54b2F45j3HTAqj4g-uK0qSjJEBUZ-Z4_HFgCo9pYuwGqMCQhHy_rgt2xPkIh47OGP9AwFgwAr-CJXuDeBNuRSVHs96zaianUfZBtE80FHnTDTneeUp59ot_jrZNUxZ5RWQLt2dHk3spRqiMplP9egTKd_NUnTF7cGa7q5zPzBjuMztnpBhkgPkRwqPyVY4il_NXwTm6_tcFNR_BRhpFUb3XWzA8WuUb-RfEqb8P8LKrwUZ77aeMoFpJYym6yZVGbMsAGDPfmL2EpTPAshVBR_0nOwoJYN-S_W80]--></g></svg>