<svg xmlns="http://www.w3.org/2000/svg" xmlns:xlink="http://www.w3.org/1999/xlink" contentStyleType="text/css" data-diagram-type="SEQUENCE" height="1398px" preserveAspectRatio="none" style="width:1551px;height:1398px;background:#FFFFFF;" version="1.1" viewBox="0 0 1551 1398" width="1551px" zoomAndPan="magnify"><title>Import Cache from File</title><defs/><g><text fill="#000000" font-family="sans-serif" font-size="14" font-weight="bold" lengthAdjust="spacing" textLength="165.4023" x="694.0105" y="28.5352">Import Cache from File</text><g><title>TZif.API</title><rect fill="#FFFFFF" height="1123.2871" style="stroke:#181818;stroke-width:1;" width="10" x="354.8242" y="185.5977"/></g><g><title>Cache_Manager</title><rect fill="#FFFFFF" height="989.7344" style="stroke:#181818;stroke-width:1;" width="10" x="638.3506" y="214.9082"/></g><g><title>File_System</title><rect fill="#FFFFFF" height="156.5078" style="stroke:#181818;stroke-width:1;" width="10" x="907.6538" y="244.2188"/></g><g><title>File_System</title><rect fill="#FFFFFF" height="118.8867" style="stroke:#181818;stroke-width:1;" width="10" x="907.6538" y="889.582"/></g><g><title>Deserializer</title><rect fill="#FFFFFF" height="376.6133" style="stroke:#181818;stroke-width:1;" width="10" x="1011.0908" y="430.0371"/></g><g><title>Validator</title><rect fill="#FFFFFF" height="200.8184" style="stroke:#181818;stroke-width:1;" width="10" x="1139.7725" y="835.9609"/></g><g><title>Source_Cache</title><rect fill="#FFFFFF" height="29.3105" style="stroke:#181818;stroke-width:1;" width="10" x="1241.1177" y="1066.0898"/></g><g><title>Zone_Cache</title><rect fill="#FFFFFF" height="39.9658" style="stroke:#181818;stroke-width:1;" width="10" x="1352.7339" y="1135.3662"/></g><rect fill="none" height="1041.666" style="stroke:#000000;stroke-width:1.5;" width="1534.4233" x="10" y="259.2188"/><rect fill="none" height="806.5371" style="stroke:#000000;stroke-width:1.5;" width="1514.4233" x="20" y="487.3477"/><rect fill="none" height="157.5078" style="stroke:#000000;stroke-width:1.5;" width="457.3218" x="846.4053" y="850.9609"/><rect fill="none" height="96.8867" style="stroke:#000000;stroke-width:1.5;" width="437.3218" x="856.4053" y="904.582"/><g><title>Consumer</title><rect fill="#000000" fill-opacity="0.00000" height="1198.9082" width="8" x="63.6992" y="118.9766"/><line style="stroke:#181818;stroke-width:0.5;stroke-dasharray:5,5;" x1="67" x2="67" y1="118.9766" y2="1317.8848"/></g><g><title>TZif.API</title><rect fill="#000000" fill-opacity="0.00000" height="1198.9082" width="8" x="355.8242" y="118.9766"/><line style="stroke:#181818;stroke-width:0.5;stroke-dasharray:5,5;" x1="359.6392" x2="359.6392" y1="118.9766" y2="1317.8848"/></g><g><title>Cache_Manager</title><rect fill="#000000" fill-opacity="0.00000" height="1198.9082" width="8" x="639.3506" y="118.9766"/><line style="stroke:#181818;stroke-width:0.5;stroke-dasharray:5,5;" x1="643.0781" x2="643.0781" y1="118.9766" y2="1317.8848"/></g><g><title>File_System</title><rect fill="#000000" fill-opacity="0.00000" height="1198.9082" width="8" x="908.6538" y="118.9766"/><line style="stroke:#181818;stroke-width:0.5;stroke-dasharray:5,5;" x1="912.4053" x2="912.4053" y1="118.9766" y2="1317.8848"/></g><g><title>Deserializer</title><rect fill="#000000" fill-opacity="0.00000" height="1198.9082" width="8" x="1012.0908" y="118.9766"/><line style="stroke:#181818;stroke-width:0.5;stroke-dasharray:5,5;" x1="1015.9023" x2="1015.9023" y1="118.9766" y2="1317.8848"/></g><g><title>Validator</title><rect fill="#000000" fill-opacity="0.00000" height="1198.9082" width="8" x="1140.7725" y="118.9766"/><line style="stroke:#181818;stroke-width:0.5;stroke-dasharray:5,5;" x1="1144.2295" x2="1144.2295" y1="118.9766" y2="1317.8848"/></g><g><title>Source_Cache</title><rect fill="#000000" fill-opacity="0.00000" height="1198.9082" width="8" x="1242.1177" y="118.9766"/><line style="stroke:#181818;stroke-width:0.5;stroke-dasharray:5,5;" x1="1245.3154" x2="1245.3154" y1="118.9766" y2="1317.8848"/></g><g><title>Zone_Cache</title><rect fill="#000000" fill-opacity="0.00000" height="1198.9082" width="8" x="1353.7339" y="118.9766"/><line style="stroke:#181818;stroke-width:0.5;stroke-dasharray:5,5;" x1="1356.9199" x2="1356.9199" y1="118.9766" y2="1317.8848"/></g><g><title>Lib</title><rect fill="#000000" fill-opacity="0.00000" height="1198.9082" width="8" x="1428.7095" y="118.9766"/><line style="stroke:#181818;stroke-width:0.5;stroke-dasharray:5,5;" x1="1432.5479" x2="1432.5479" y1="118.9766" y2="1317.8848"/></g><g class="participant participant-head" data-participant="Consumer"><text fill="#000000" font-family="sans-serif" font-size="14" lengthAdjust="spacing" textLength="69.3984" x="30" y="116.0234">Consumer</text><ellipse cx="67.6992" cy="50.9883" fill="#E2E2F0" rx="8" ry="8" style="stroke:#181818;stroke-width:0.5;"/><path d="M67.6992,58.9883 L67.6992,85.9883 M54.6992,66.9883 L80.6992,66.9883 M67.6992,85.9883 L54.6992,100.9883 M67.6992,85.9883 L80.6992,100.9883" fill="none" style="stroke:#181818;stroke-width:0.5;"/></g><g class="participant participant-tail" data-participant="Consumer"><text fill="#000000" font-family="sans-serif" font-size="14" lengthAdjust="spacing" textLength="69.3984" x="30" y="1330.4199">Consumer</text><ellipse cx="67.6992" cy="1341.873" fill="#E2E2F0" rx="8" ry="8" style="stroke:#181818;stroke-width:0.5;"/><path d="M67.6992,1349.873 L67.6992,1376.873 M54.6992,1357.873 L80.6992,1357.873 M67.6992,1376.873 L54.6992,1391.873 M67.6992,1376.873 L80.6992,1391.873" fill="none" style="stroke:#181818;stroke-width:0.5;"/></g><g class="participant participant-head" data-participant="API"><rect fill="#E2E2F0" height="30.4883" rx="2.5" ry="2.5" style="stroke:#181818;stroke-width:0.5;" width="66.3701" x="326.6392" y="87.4883"/><text fill="#000000" font-family="sans-serif" font-size="14" lengthAdjust="spacing" textLength="52.3701" x="333.6392" y="108.0234">TZif.API</text></g><g class="participant participant-tail" data-participant="API"><rect fill="#E2E2F0" height="30.4883" rx="2.5" ry="2.5" style="stroke:#181818;stroke-width:0.5;" width="66.3701" x="326.6392" y="1316.8848"/><text fill="#000000" font-family="sans-serif" font-size="14" lengthAdjust="spacing" textLength="52.3701" x="333.6392" y="1337.4199">TZif.API</text></g><g class="participant participant-head" data-participant="Cache"><rect fill="#E2E2F0" height="30.4883" rx="2.5" ry="2.5" style="stroke:#181818;stroke-width:0.5;" width="120.5449" x="583.0781" y="87.4883"/><text fill="#000000" font-family="sans-serif" font-size="14" lengthAdjust="spacing" textLength="106.5449" x="590.0781" y="108.0234">Cache_Manager</text></g><g class="participant participant-tail" data-participant="Cache"><rect fill="#E2E2F0" height="30.4883" rx="2.5" ry="2.5" style="stroke:#181818;stroke-width:0.5;" width="120.5449" x="583.0781" y="1316.8848"/><text fill="#000000" font-family="sans-serif" font-size="14" lengthAdjust="spacing" textLength="106.5449" x="590.0781" y="1337.4199">Cache_Manager</text></g><g class="participant participant-head" data-participant="FS"><rect fill="#E2E2F0" height="30.4883" rx="2.5" ry="2.5" style="stroke:#181818;stroke-width:0.5;" width="92.4971" x="866.4053" y="87.4883"/><text fill="#000000" font-family="sans-serif" font-size="14" lengthAdjust="spacing" textLength="78.4971" x="873.4053" y="108.0234">File_System</text></g><g class="participant participant-tail" data-participant="FS"><rect fill="#E2E2F0" height="30.4883" rx="2.5" ry="2.5" style="stroke:#181818;stroke-width:0.5;" width="92.4971" x="866.4053" y="1316.8848"/><text fill="#000000" font-family="sans-serif" font-size="14" lengthAdjust="spacing" textLength="78.4971" x="873.4053" y="1337.4199">File_System</text></g><g class="participant participant-head" data-participant="Deser"><rect fill="#E2E2F0" height="30.4883" rx="2.5" ry="2.5" style="stroke:#181818;stroke-width:0.5;" width="94.377" x="968.9023" y="87.4883"/><text fill="#000000" font-family="sans-serif" font-size="14" lengthAdjust="spacing" textLength="80.377" x="975.9023" y="108.0234">Deserializer</text></g><g class="participant participant-tail" data-participant="Deser"><rect fill="#E2E2F0" height="30.4883" rx="2.5" ry="2.5" style="stroke:#181818;stroke-width:0.5;" width="94.377" x="968.9023" y="1316.8848"/><text fill="#000000" font-family="sans-serif" font-size="14" lengthAdjust="spacing" textLength="80.377" x="975.9023" y="1337.4199">Deserializer</text></g><g class="participant participant-head" data-participant="Val"><rect fill="#E2E2F0" height="30.4883" rx="2.5" ry="2.5" style="stroke:#181818;stroke-width:0.5;" width="75.0859" x="1107.2295" y="87.4883"/><text fill="#000000" font-family="sans-serif" font-size="14" lengthAdjust="spacing" textLength="61.0859" x="1114.2295" y="108.0234">Validator</text></g><g class="participant participant-tail" data-participant="Val"><rect fill="#E2E2F0" height="30.4883" rx="2.5" ry="2.5" style="stroke:#181818;stroke-width:0.5;" width="75.0859" x="1107.2295" y="1316.8848"/><text fill="#000000" font-family="sans-serif" font-size="14" lengthAdjust="spacing" textLength="61.0859" x="1114.2295" y="1337.4199">Validator</text></g><g class="participant participant-head" data-participant="SCache"><rect fill="#E2E2F0" height="30.4883" rx="2.5" ry="2.5" style="stroke:#181818;stroke-width:0.5;" width="107.6045" x="1192.3154" y="87.4883"/><text fill="#000000" font-family="sans-serif" font-size="14" lengthAdjust="spacing" textLength="93.6045" x="1199.3154" y="108.0234">Source_Cache</text></g><g class="participant participant-tail" data-participant="SCache"><rect fill="#E2E2F0" height="30.4883" rx="2.5" ry="2.5" style="stroke:#181818;stroke-width:0.5;" width="107.6045" x="1192.3154" y="1316.8848"/><text fill="#000000" font-family="sans-serif" font-size="14" lengthAdjust="spacing" textLength="93.6045" x="1199.3154" y="1337.4199">Source_Cache</text></g><g class="participant participant-head" data-participant="ZCache"><rect fill="#E2E2F0" height="30.4883" rx="2.5" ry="2.5" style="stroke:#181818;stroke-width:0.5;" width="95.6279" x="1309.9199" y="87.4883"/><text fill="#000000" font-family="sans-serif" font-size="14" lengthAdjust="spacing" textLength="81.6279" x="1316.9199" y="108.0234">Zone_Cache</text></g><g class="participant participant-tail" data-participant="ZCache"><rect fill="#E2E2F0" height="30.4883" rx="2.5" ry="2.5" style="stroke:#181818;stroke-width:0.5;" width="95.6279" x="1309.9199" y="1316.8848"/><text fill="#000000" font-family="sans-serif" font-size="14" lengthAdjust="spacing" textLength="81.6279" x="1316.9199" y="1337.4199">Zone_Cache</text></g><g class="participant participant-head" data-participant="Lib"><rect fill="#E2E2F0" height="30.4883" rx="2.5" ry="2.5" style="stroke:#181818;stroke-width:0.5;" width="34.3232" x="1415.5479" y="87.4883"/><text fill="#000000" font-family="sans-serif" font-size="14" lengthAdjust="spacing" textLength="20.3232" x="1422.5479" y="108.0234">Lib</text></g><g class="participant participant-tail" data-participant="Lib"><rect fill="#E2E2F0" height="30.4883" rx="2.5" ry="2.5" style="stroke:#181818;stroke-width:0.5;" width="34.3232" x="1415.5479" y="1316.8848"/><text fill="#000000" font-family="sans-serif" font-size="14" lengthAdjust="spacing" textLength="20.3232" x="1422.5479" y="1337.4199">Lib</text></g><g><title>TZif.API</title><rect fill="#FFFFFF" height="1123.2871" style="stroke:#181818;stroke-width:1;" width="10" x="354.8242" y="185.5977"/></g><g><title>Cache_Manager</title><rect fill="#FFFFFF" height="989.7344" style="stroke:#181818;stroke-width:1;" width="10" x="638.3506" y="214.9082"/></g><g><title>File_System</title><rect fill="#FFFFFF" height="156.5078" style="stroke:#181818;stroke-width:1;" width="10" x="907.6538" y="244.2188"/></g><g><title>File_System</title><rect fill="#FFFFFF" height="118.8867" style="stroke:#181818;stroke-width:1;" width="10" x="907.6538" y="889.582"/></g><g><title>Deserializer</title><rect fill="#FFFFFF" height="376.6133" style="stroke:#181818;stroke-width:1;" width="10" x="1011.0908" y="430.0371"/></g><g><title>Validator</title><rect fill="#FFFFFF" height="200.8184" style="stroke:#181818;stroke-width:1;" width="10" x="1139.7725" y="835.9609"/></g><g><title>Source_Cache</title><rect fill="#FFFFFF" height="29.3105" style="stroke:#181818;stroke-width:1;" width="10" x="1241.1177" y="1066.0898"/></g><g><title>Zone_Cache</title><rect fill="#FFFFFF" height="39.9658" style="stroke:#181818;stroke-width:1;" width="10" x="1352.7339" y="1135.3662"/></g><path d="M364,133.9766 L364,158.9766 L494,158.9766 L494,143.9766 L484,133.9766 L364,133.9766" fill="#FEFFDD" style="stroke:#181818;stroke-width:0.5;"/><path d="M484,133.9766 L484,143.9766 L494,143.9766 L484,133.9766" fill="#FEFFDD" style="stroke:#181818;stroke-width:0.5;"/><text fill="#000000" font-family="sans-serif" font-size="13" lengthAdjust="spacing" textLength="109.1479" x="370" y="151.5449">Public API Facade</text><g class="message" data-participant-1="Consumer" data-participant-2="API"><polygon fill="#181818" points="342.8242,181.5977,352.8242,185.5977,342.8242,189.5977,346.8242,185.5977" style="stroke:#181818;stroke-width:1;"/><line style="stroke:#181818;stroke-width:1;" x1="67.6992" x2="348.8242" y1="185.5977" y2="185.5977"/><text fill="#000000" font-family="sans-serif" font-size="13" lengthAdjust="spacing" textLength="268.125" x="74.6992" y="180.8555">Import_Cache("/var/cache/tzif/cache.bin")</text></g><g class="message" data-participant-1="Lib" data-participant-2="Cache"><polygon fill="#181818" points="659.3506,210.9082,649.3506,214.9082,659.3506,218.9082,655.3506,214.9082" style="stroke:#181818;stroke-width:1;"/><line style="stroke:#181818;stroke-width:1;" x1="653.3506" x2="1431.7095" y1="214.9082" y2="214.9082"/><text fill="#000000" font-family="sans-serif" font-size="13" lengthAdjust="spacing" textLength="124.9409" x="665.3506" y="210.166">Import_All_Caches()</text></g><g class="message" data-participant-1="Cache" data-participant-2="FS"><polygon fill="#181818" points="895.6538,240.2188,905.6538,244.2188,895.6538,248.2188,899.6538,244.2188" style="stroke:#181818;stroke-width:1;"/><line style="stroke:#181818;stroke-width:1;" x1="648.3506" x2="901.6538" y1="244.2188" y2="244.2188"/><text fill="#000000" font-family="sans-serif" font-size="13" lengthAdjust="spacing" textLength="240.3032" x="655.3506" y="239.4766">Read_File("/var/cache/tzif/cache.bin")</text></g><path d="M10,259.2188 L72.1387,259.2188 L72.1387,266.5293 L62.1387,276.5293 L10,276.5293 L10,259.2188" fill="#EEEEEE" style="stroke:#000000;stroke-width:1.5;"/><rect fill="none" height="1041.666" style="stroke:#000000;stroke-width:1.5;" width="1534.4233" x="10" y="259.2188"/><text fill="#000000" font-family="sans-serif" font-size="13" font-weight="bold" lengthAdjust="spacing" textLength="17.1387" x="25" y="272.7871">alt</text><text fill="#000000" font-family="sans-serif" font-size="11" font-weight="bold" lengthAdjust="spacing" textLength="87.3501" x="87.1387" y="271.8535">[File not found]</text><g class="message" data-participant-1="FS" data-participant-2="Cache"><polygon fill="#181818" points="659.3506,293.8398,649.3506,297.8398,659.3506,301.8398,655.3506,297.8398" style="stroke:#181818;stroke-width:1;"/><line style="stroke:#181818;stroke-width:1;stroke-dasharray:2,2;" x1="653.3506" x2="906.6538" y1="297.8398" y2="297.8398"/><text fill="#000000" font-family="sans-serif" font-size="13" lengthAdjust="spacing" textLength="79.8408" x="665.3506" y="293.0977">NOT_FOUND</text></g><g class="message" data-participant-1="Cache" data-participant-2="API"><polygon fill="#181818" points="375.8242,323.1504,365.8242,327.1504,375.8242,331.1504,371.8242,327.1504" style="stroke:#181818;stroke-width:1;"/><line style="stroke:#181818;stroke-width:1;stroke-dasharray:2,2;" x1="369.8242" x2="637.3506" y1="327.1504" y2="327.1504"/><text fill="#000000" font-family="sans-serif" font-size="13" lengthAdjust="spacing" textLength="177.1758" x="381.8242" y="322.4082">Error("Cache file not found")</text></g><g class="message" data-participant-1="API" data-participant-2="Consumer"><polygon fill="#181818" points="78.6992,352.4609,68.6992,356.4609,78.6992,360.4609,74.6992,356.4609" style="stroke:#181818;stroke-width:1;"/><line style="stroke:#181818;stroke-width:1;stroke-dasharray:2,2;" x1="72.6992" x2="353.8242" y1="356.4609" y2="356.4609"/><text fill="#000000" font-family="sans-serif" font-size="13" lengthAdjust="spacing" textLength="30.9893" x="84.6992" y="351.7188">Error</text></g><line style="stroke:#000000;stroke-width:1;stroke-dasharray:2,2;" x1="10" x2="1544.4233" y1="365.4609" y2="365.4609"/><text fill="#000000" font-family="sans-serif" font-size="11" font-weight="bold" lengthAdjust="spacing" textLength="65.1138" x="15" y="376.0957">[File exists]</text><g class="message" data-participant-1="FS" data-participant-2="Cache"><polygon fill="#181818" points="659.3506,396.7266,649.3506,400.7266,659.3506,404.7266,655.3506,400.7266" style="stroke:#181818;stroke-width:1;"/><line style="stroke:#181818;stroke-width:1;stroke-dasharray:2,2;" x1="653.3506" x2="911.6538" y1="400.7266" y2="400.7266"/><text fill="#000000" font-family="sans-serif" font-size="13" lengthAdjust="spacing" textLength="74.0518" x="665.3506" y="395.9844">Binary_Data</text></g><g class="message" data-participant-1="Cache" data-participant-2="Deser"><polygon fill="#181818" points="999.0908,426.0371,1009.0908,430.0371,999.0908,434.0371,1003.0908,430.0371" style="stroke:#181818;stroke-width:1;"/><line style="stroke:#181818;stroke-width:1;" x1="648.3506" x2="1005.0908" y1="430.0371" y2="430.0371"/><text fill="#000000" font-family="sans-serif" font-size="13" lengthAdjust="spacing" textLength="150.9727" x="655.3506" y="425.2949">Deserialize(binary_data)</text></g><g class="message" data-participant-1="Deser" data-participant-2="Deser"><line style="stroke:#181818;stroke-width:1;" x1="1021.0908" x2="1063.0908" y1="459.3477" y2="459.3477"/><line style="stroke:#181818;stroke-width:1;" x1="1063.0908" x2="1063.0908" y1="459.3477" y2="472.3477"/><line style="stroke:#181818;stroke-width:1;" x1="1022.0908" x2="1063.0908" y1="472.3477" y2="472.3477"/><polygon fill="#181818" points="1032.0908,468.3477,1022.0908,472.3477,1032.0908,476.3477,1028.0908,472.3477" style="stroke:#181818;stroke-width:1;"/><text fill="#000000" font-family="sans-serif" font-size="13" lengthAdjust="spacing" textLength="90.4985" x="1028.0908" y="454.6055">Read_Header()</text></g><path d="M20,487.3477 L82.1387,487.3477 L82.1387,494.6582 L72.1387,504.6582 L20,504.6582 L20,487.3477" fill="#EEEEEE" style="stroke:#000000;stroke-width:1.5;"/><rect fill="none" height="806.5371" style="stroke:#000000;stroke-width:1.5;" width="1514.4233" x="20" y="487.3477"/><text fill="#000000" font-family="sans-serif" font-size="13" font-weight="bold" lengthAdjust="spacing" textLength="17.1387" x="35" y="500.916">alt</text><text fill="#000000" font-family="sans-serif" font-size="11" font-weight="bold" lengthAdjust="spacing" textLength="145.2021" x="97.1387" y="499.9824">[Invalid magic or version]</text><g class="message" data-participant-1="Deser" data-participant-2="Cache"><polygon fill="#181818" points="659.3506,521.9688,649.3506,525.9688,659.3506,529.9688,655.3506,525.9688" style="stroke:#181818;stroke-width:1;"/><line style="stroke:#181818;stroke-width:1;stroke-dasharray:2,2;" x1="653.3506" x2="1010.0908" y1="525.9688" y2="525.9688"/><text fill="#000000" font-family="sans-serif" font-size="13" lengthAdjust="spacing" textLength="176.8711" x="665.3506" y="521.2266">Error("Invalid cache format")</text></g><g class="message" data-participant-1="Cache" data-participant-2="API"><polygon fill="#181818" points="375.8242,551.2793,365.8242,555.2793,375.8242,559.2793,371.8242,555.2793" style="stroke:#181818;stroke-width:1;"/><line style="stroke:#181818;stroke-width:1;stroke-dasharray:2,2;" x1="369.8242" x2="637.3506" y1="555.2793" y2="555.2793"/><text fill="#000000" font-family="sans-serif" font-size="13" lengthAdjust="spacing" textLength="30.9893" x="381.8242" y="550.5371">Error</text></g><g class="message" data-participant-1="API" data-participant-2="Consumer"><polygon fill="#181818" points="78.6992,580.5898,68.6992,584.5898,78.6992,588.5898,74.6992,584.5898" style="stroke:#181818;stroke-width:1;"/><line style="stroke:#181818;stroke-width:1;stroke-dasharray:2,2;" x1="72.6992" x2="353.8242" y1="584.5898" y2="584.5898"/><text fill="#000000" font-family="sans-serif" font-size="13" lengthAdjust="spacing" textLength="30.9893" x="84.6992" y="579.8477">Error</text></g><line style="stroke:#000000;stroke-width:1;stroke-dasharray:2,2;" x1="20" x2="1534.4233" y1="593.5898" y2="593.5898"/><text fill="#000000" font-family="sans-serif" font-size="11" font-weight="bold" lengthAdjust="spacing" textLength="79.2451" x="25" y="604.2246">[Valid header]</text><g class="message" data-participant-1="Deser" data-participant-2="Deser"><line style="stroke:#181818;stroke-width:1;" x1="1021.0908" x2="1063.0908" y1="655.9766" y2="655.9766"/><line style="stroke:#181818;stroke-width:1;" x1="1063.0908" x2="1063.0908" y1="655.9766" y2="668.9766"/><line style="stroke:#181818;stroke-width:1;" x1="1022.0908" x2="1063.0908" y1="668.9766" y2="668.9766"/><polygon fill="#181818" points="1032.0908,664.9766,1022.0908,668.9766,1032.0908,672.9766,1028.0908,668.9766" style="stroke:#181818;stroke-width:1;"/><text fill="#000000" font-family="sans-serif" font-size="13" lengthAdjust="spacing" textLength="94.6816" x="1028.0908" y="651.2344">Read_Sources()</text></g><path d="M1144.6816,612.5449 L1144.6816,698.5449 L1252.6816,698.5449 L1252.6816,622.5449 L1242.6816,612.5449 L1144.6816,612.5449" fill="#FEFFDD" style="stroke:#181818;stroke-width:0.5;"/><path d="M1242.6816,612.5449 L1242.6816,622.5449 L1252.6816,622.5449 L1242.6816,612.5449" fill="#FEFFDD" style="stroke:#181818;stroke-width:0.5;"/><text fill="#000000" font-family="sans-serif" font-size="13" lengthAdjust="spacing" textLength="48.0137" x="1150.6816" y="630.1133">Extract:</text><text fill="#000000" font-family="sans-serif" font-size="13" lengthAdjust="spacing" textLength="41.0566" x="1150.6816" y="645.4238">- ULID</text><text fill="#000000" font-family="sans-serif" font-size="13" lengthAdjust="spacing" textLength="38.9302" x="1150.6816" y="660.7344">- Path</text><text fill="#000000" font-family="sans-serif" font-size="13" lengthAdjust="spacing" textLength="59.1348" x="1150.6816" y="676.0449">- Version</text><text fill="#000000" font-family="sans-serif" font-size="13" lengthAdjust="spacing" textLength="87.2676" x="1150.6816" y="691.3555">- Zone_Count</text><g class="message" data-participant-1="Deser" data-participant-2="Deser"><line style="stroke:#181818;stroke-width:1;" x1="1021.0908" x2="1063.0908" y1="744.874" y2="744.874"/><line style="stroke:#181818;stroke-width:1;" x1="1063.0908" x2="1063.0908" y1="744.874" y2="757.874"/><line style="stroke:#181818;stroke-width:1;" x1="1022.0908" x2="1063.0908" y1="757.874" y2="757.874"/><polygon fill="#181818" points="1032.0908,753.874,1022.0908,757.874,1032.0908,761.874,1028.0908,757.874" style="stroke:#181818;stroke-width:1;"/><text fill="#000000" font-family="sans-serif" font-size="13" lengthAdjust="spacing" textLength="83.5605" x="1028.0908" y="740.1318">Read_Zones()</text></g><path d="M1133.5605,709.0977 L1133.5605,780.0977 L1243.5605,780.0977 L1243.5605,719.0977 L1233.5605,709.0977 L1133.5605,709.0977" fill="#FEFFDD" style="stroke:#181818;stroke-width:0.5;"/><path d="M1233.5605,709.0977 L1233.5605,719.0977 L1243.5605,719.0977 L1233.5605,709.0977" fill="#FEFFDD" style="stroke:#181818;stroke-width:0.5;"/><text fill="#000000" font-family="sans-serif" font-size="13" lengthAdjust="spacing" textLength="48.0137" x="1139.5605" y="726.666">Extract:</text><text fill="#000000" font-family="sans-serif" font-size="13" lengthAdjust="spacing" textLength="89.832" x="1139.5605" y="741.9766">- Source_ULID</text><text fill="#000000" font-family="sans-serif" font-size="13" lengthAdjust="spacing" textLength="61.2168" x="1139.5605" y="757.2871">- Zone_Id</text><text fill="#000000" font-family="sans-serif" font-size="13" lengthAdjust="spacing" textLength="71.7095" x="1139.5605" y="772.5977">- TZif_Data</text><g class="message" data-participant-1="Deser" data-participant-2="Cache"><polygon fill="#181818" points="659.3506,802.6504,649.3506,806.6504,659.3506,810.6504,655.3506,806.6504" style="stroke:#181818;stroke-width:1;"/><line style="stroke:#181818;stroke-width:1;stroke-dasharray:2,2;" x1="653.3506" x2="1015.0908" y1="806.6504" y2="806.6504"/><text fill="#000000" font-family="sans-serif" font-size="13" lengthAdjust="spacing" textLength="151.8486" x="665.3506" y="801.9082">(Source_List, Zone_Map)</text></g><g class="message" data-participant-1="Cache" data-participant-2="Val"><polygon fill="#181818" points="1127.7725,831.9609,1137.7725,835.9609,1127.7725,839.9609,1131.7725,835.9609" style="stroke:#181818;stroke-width:1;"/><line style="stroke:#181818;stroke-width:1;" x1="648.3506" x2="1133.7725" y1="835.9609" y2="835.9609"/><text fill="#000000" font-family="sans-serif" font-size="13" lengthAdjust="spacing" textLength="181.9238" x="655.3506" y="831.2188">Validate_Sources(source_list)</text></g><path d="M846.4053,850.9609 L920.8521,850.9609 L920.8521,858.2715 L910.8521,868.2715 L846.4053,868.2715 L846.4053,850.9609" fill="#EEEEEE" style="stroke:#000000;stroke-width:1.5;"/><rect fill="none" height="157.5078" style="stroke:#000000;stroke-width:1.5;" width="457.3218" x="846.4053" y="850.9609"/><text fill="#000000" font-family="sans-serif" font-size="13" font-weight="bold" lengthAdjust="spacing" textLength="29.4468" x="861.4053" y="864.5293">loop</text><text fill="#000000" font-family="sans-serif" font-size="11" font-weight="bold" lengthAdjust="spacing" textLength="97.5068" x="935.8521" y="863.5957">[For each source]</text><g class="message" data-participant-1="Val" data-participant-2="FS"><polygon fill="#181818" points="928.6538,885.582,918.6538,889.582,928.6538,893.582,924.6538,889.582" style="stroke:#181818;stroke-width:1;"/><line style="stroke:#181818;stroke-width:1;" x1="922.6538" x2="1138.7725" y1="889.582" y2="889.582"/><text fill="#000000" font-family="sans-serif" font-size="13" lengthAdjust="spacing" textLength="152.4961" x="934.6538" y="884.8398">Check_Path_Exists(path)</text></g><path d="M856.4053,904.582 L918.5439,904.582 L918.5439,911.8926 L908.5439,921.8926 L856.4053,921.8926 L856.4053,904.582" fill="#EEEEEE" style="stroke:#000000;stroke-width:1.5;"/><rect fill="none" height="96.8867" style="stroke:#000000;stroke-width:1.5;" width="437.3218" x="856.4053" y="904.582"/><text fill="#000000" font-family="sans-serif" font-size="13" font-weight="bold" lengthAdjust="spacing" textLength="17.1387" x="871.4053" y="918.1504">alt</text><text fill="#000000" font-family="sans-serif" font-size="11" font-weight="bold" lengthAdjust="spacing" textLength="81.415" x="933.5439" y="917.2168">[Path missing]</text><g class="message" data-participant-1="FS" data-participant-2="Val"><polygon fill="#181818" points="1127.7725,942.2031,1137.7725,946.2031,1127.7725,950.2031,1131.7725,946.2031" style="stroke:#181818;stroke-width:1;"/><line style="stroke:#181818;stroke-width:1;stroke-dasharray:2,2;" x1="917.6538" x2="1133.7725" y1="946.2031" y2="946.2031"/><text fill="#000000" font-family="sans-serif" font-size="13" lengthAdjust="spacing" textLength="79.8408" x="924.6538" y="941.4609">NOT_FOUND</text></g><path d="M1154,926.8926 L1154,951.8926 L1282,951.8926 L1282,936.8926 L1272,926.8926 L1154,926.8926" fill="#FEFFDD" style="stroke:#181818;stroke-width:0.5;"/><path d="M1272,926.8926 L1272,936.8926 L1282,936.8926 L1272,926.8926" fill="#FEFFDD" style="stroke:#181818;stroke-width:0.5;"/><text fill="#000000" font-family="sans-serif" font-size="13" lengthAdjust="spacing" textLength="107.9546" x="1160" y="944.4609">Mark for removal</text><line style="stroke:#000000;stroke-width:1;stroke-dasharray:2,2;" x1="856.4053" x2="1293.7271" y1="958.2031" y2="958.2031"/><text fill="#000000" font-family="sans-serif" font-size="11" font-weight="bold" lengthAdjust="spacing" textLength="70.0928" x="861.4053" y="968.8379">[Path exists]</text><g class="message" data-participant-1="FS" data-participant-2="Val"><polygon fill="#181818" points="1127.7725,989.4688,1137.7725,993.4688,1127.7725,997.4688,1131.7725,993.4688" style="stroke:#181818;stroke-width:1;"/><line style="stroke:#181818;stroke-width:1;stroke-dasharray:2,2;" x1="917.6538" x2="1133.7725" y1="993.4688" y2="993.4688"/><text fill="#000000" font-family="sans-serif" font-size="13" lengthAdjust="spacing" textLength="41.1519" x="924.6538" y="988.7266">EXISTS</text></g><g class="message" data-participant-1="Val" data-participant-2="Cache"><polygon fill="#181818" points="659.3506,1032.7793,649.3506,1036.7793,659.3506,1040.7793,655.3506,1036.7793" style="stroke:#181818;stroke-width:1;"/><line style="stroke:#181818;stroke-width:1;stroke-dasharray:2,2;" x1="653.3506" x2="1143.7725" y1="1036.7793" y2="1036.7793"/><text fill="#000000" font-family="sans-serif" font-size="13" lengthAdjust="spacing" textLength="86.7788" x="665.3506" y="1032.0371">Valid_Sources</text></g><g class="message" data-participant-1="Cache" data-participant-2="SCache"><polygon fill="#181818" points="1229.1177,1062.0898,1239.1177,1066.0898,1229.1177,1070.0898,1233.1177,1066.0898" style="stroke:#181818;stroke-width:1;"/><line style="stroke:#181818;stroke-width:1;" x1="648.3506" x2="1235.1177" y1="1066.0898" y2="1066.0898"/><text fill="#000000" font-family="sans-serif" font-size="13" lengthAdjust="spacing" textLength="180.9019" x="655.3506" y="1061.3477">Store_Sources(valid_sources)</text></g><g class="message" data-participant-1="SCache" data-participant-2="Cache"><polygon fill="#181818" points="659.3506,1091.4004,649.3506,1095.4004,659.3506,1099.4004,655.3506,1095.4004" style="stroke:#181818;stroke-width:1;"/><line style="stroke:#181818;stroke-width:1;stroke-dasharray:2,2;" x1="653.3506" x2="1245.1177" y1="1095.4004" y2="1095.4004"/><text fill="#000000" font-family="sans-serif" font-size="13" lengthAdjust="spacing" textLength="18.5859" x="665.3506" y="1090.6582">OK</text></g><g class="message" data-participant-1="Cache" data-participant-2="ZCache"><polygon fill="#181818" points="1340.7339,1131.3662,1350.7339,1135.3662,1340.7339,1139.3662,1344.7339,1135.3662" style="stroke:#181818;stroke-width:1;"/><line style="stroke:#181818;stroke-width:1;" x1="648.3506" x2="1346.7339" y1="1135.3662" y2="1135.3662"/><text fill="#000000" font-family="sans-serif" font-size="13" lengthAdjust="spacing" textLength="149.8936" x="655.3506" y="1130.624">Store_Zones(zone_map)</text></g><path d="M1367,1108.4004 L1367,1148.4004 L1528,1148.4004 L1528,1118.4004 L1518,1108.4004 L1367,1108.4004" fill="#FEFFDD" style="stroke:#181818;stroke-width:0.5;"/><path d="M1518,1108.4004 L1518,1118.4004 L1528,1118.4004 L1518,1108.4004" fill="#FEFFDD" style="stroke:#181818;stroke-width:0.5;"/><text fill="#000000" font-family="sans-serif" font-size="13" lengthAdjust="spacing" textLength="140.6895" x="1373" y="1125.9688">Only store zones from</text><text fill="#000000" font-family="sans-serif" font-size="13" lengthAdjust="spacing" textLength="82.2466" x="1373" y="1141.2793">valid sources</text><g class="message" data-participant-1="ZCache" data-participant-2="Cache"><polygon fill="#181818" points="659.3506,1171.332,649.3506,1175.332,659.3506,1179.332,655.3506,1175.332" style="stroke:#181818;stroke-width:1;"/><line style="stroke:#181818;stroke-width:1;stroke-dasharray:2,2;" x1="653.3506" x2="1356.7339" y1="1175.332" y2="1175.332"/><text fill="#000000" font-family="sans-serif" font-size="13" lengthAdjust="spacing" textLength="18.5859" x="665.3506" y="1170.5898">OK</text></g><g class="message" data-participant-1="Cache" data-participant-2="API"><polygon fill="#181818" points="375.8242,1200.6426,365.8242,1204.6426,375.8242,1208.6426,371.8242,1204.6426" style="stroke:#181818;stroke-width:1;"/><line style="stroke:#181818;stroke-width:1;stroke-dasharray:2,2;" x1="369.8242" x2="642.3506" y1="1204.6426" y2="1204.6426"/><text fill="#000000" font-family="sans-serif" font-size="13" lengthAdjust="spacing" textLength="249.5264" x="381.8242" y="1199.9004">Success(loaded_sources, loaded_zones)</text></g><g class="message" data-participant-1="API" data-participant-2="Consumer"><polygon fill="#181818" points="78.6992,1255.9189,68.6992,1259.9189,78.6992,1263.9189,74.6992,1259.9189" style="stroke:#181818;stroke-width:1;"/><line style="stroke:#181818;stroke-width:1;stroke-dasharray:2,2;" x1="72.6992" x2="353.8242" y1="1259.9189" y2="1259.9189"/><text fill="#000000" font-family="sans-serif" font-size="13" lengthAdjust="spacing" textLength="87.5088" x="84.6992" y="1255.1768">Import_Result</text></g><path d="M369,1217.6426 L369,1288.6426 L622,1288.6426 L622,1227.6426 L612,1217.6426 L369,1217.6426" fill="#FEFFDD" style="stroke:#181818;stroke-width:0.5;"/><path d="M612,1217.6426 L612,1227.6426 L622,1227.6426 L612,1217.6426" fill="#FEFFDD" style="stroke:#181818;stroke-width:0.5;"/><text fill="#000000" font-family="sans-serif" font-size="13" lengthAdjust="spacing" textLength="86.3281" x="375" y="1235.2109">Result shows:</text><text fill="#000000" font-family="sans-serif" font-size="13" lengthAdjust="spacing" textLength="107.1802" x="375" y="1250.5215">- Sources loaded</text><text fill="#000000" font-family="sans-serif" font-size="13" lengthAdjust="spacing" textLength="96.0591" x="375" y="1265.832">- Zones loaded</text><text fill="#000000" font-family="sans-serif" font-size="13" lengthAdjust="spacing" textLength="232.8193" x="375" y="1281.1426">- Sources removed (if paths missing)</text><!--SRC=[dLPBJ-Cm4BxdLunw2XAFUmz8B6srrG9515QhNY8tSLkB9Avijmly-lMCdSHk0qAB12Jp-6RccqThXAaupEkTL0PkMR7bi5QoXfceU9AmmaW5jxBH-vghPCUK4ONOiSR0w7afrfStZ_CHC0tsVz98mq69pTQ0N9C4u76_gaI1Bp1Z1IjvmfiIq386eyZvFMlOXYj294biX3dbsRisl2QJMHRh9rnp9LWbFZm62MARtrPTCbiL6TYtM9t9lIfuJi798Xl8OocRq6JfJ9AM9hYuneB7dbLdcOwk3anT5VXyPJx4sZrUhaGpEaEUnO5P-f2rv4wi48FyEfIRgd98EWtisz3KEEipoyRmn5cP8rVVZ6bfP9MXZcDdO2ttJMbx1rO35tqY3uldVBPuUPYGpeTiQvqg9LKwyXCKGTbOw80pG6YU9k-Jy4fp5vo_2MtqGEGVec7gFPymmqXRyZ3vC9rhr_Cn1BEGhfoxRJjpgNJURa18Hey10B7uq_xXAlLUbgHvSy01Wffjx5ZRtJXmfOLio220wNFtnBIEXID8gfePJyndR7RApvX37R57GmrRIlOuaxWWDzywxIFtMzk90APlHbcIne7e0bxkvfD8yCZCDXByFY83PMvPx1pq-Dq9-3fNzFo_JFqMdoHCkSpBI8Pdh9-iBzFhcvhw27TsOCyTx3tRzQa60ngCM3IdjcTZyDU8TttH3hUok3rQXuNdgXLMKkvWPYVGXjg2ymiA0pHkByBjbXUlEROhdzAEfJlxV1QPXniLoUtKeoVKGclHR29biAfKJtmYmf- -UMEuP-eLLm0Kh-KXgAaRQ0eOd8FFuat_pBFdE5_UbD5xV2k6h8YelhVKaxOXGnt5BfpsC_FkcVriwVj9Iv-xxkY1ZlgFbrQUzNV0mor-3QNWtKwpM4PPk0twmF6im_7iS9Pn-C4DMpJLEsZ40qJIzFqWqBkxfe_uwfQe5Io_MTfokBJsCcRxmeRHQINjiUkOFGV_JXaExk4HxEbDzP-pJrplA_Cr9Su6z5R-rKENH_jqJexFeABreMtW9QHY3RYVkbsvis5MSORnDmcgj5yTady0]--></g></svg>