<svg xmlns="http://www.w3.org/2000/svg" xmlns:xlink="http://www.w3.org/1999/xlink" contentStyleType="text/css" data-diagram-type="SEQUENCE" height="984px" preserveAspectRatio="none" style="width:1017px;height:984px;background:#FFFFFF;" version="1.1" viewBox="0 0 1017 984" width="1017px" zoomAndPan="magnify"><title>Select Source and List Zones</title><defs/><g><text fill="#000000" font-family="sans-serif" font-size="14" font-weight="bold" lengthAdjust="spacing" textLength="204.9551" x="405.1113" y="28.5352">Select Source and List Zones</text><g><title>Source_Handle</title><rect fill="#FFFFFF" height="574.166" style="stroke:#181818;stroke-width:1;" width="10" x="473.8105" y="312.7949"/></g><g><title>Zone_Repository</title><rect fill="#FFFFFF" height="226.7949" style="stroke:#181818;stroke-width:1;" width="10" x="632.6392" y="557.2344"/></g><g><title>Zone_Cache</title><rect fill="#FFFFFF" height="127.1973" style="stroke:#181818;stroke-width:1;" width="10" x="811.5435" y="400.7266"/></g><g><title>Zone_Cache</title><rect fill="#FFFFFF" height="29.3105" style="stroke:#181818;stroke-width:1;" width="10" x="811.5435" y="813.3398"/></g><g><title>File_System</title><rect fill="#FFFFFF" height="29.3105" style="stroke:#181818;stroke-width:1;" width="10" x="915.606" y="586.5449"/></g><g><title>Lib</title><rect fill="#FFFFFF" height="156.5078" style="stroke:#181818;stroke-width:1;" width="10" x="989.0161" y="185.5977"/></g><rect fill="none" height="657.0527" style="stroke:#000000;stroke-width:1.5;" width="976.8545" x="10" y="229.9082"/><rect fill="none" height="464.2344" style="stroke:#000000;stroke-width:1.5;" width="956.8545" x="20" y="415.7266"/><g><title>Consumer</title><rect fill="#000000" fill-opacity="0.00000" height="784.9844" width="8" x="63.6992" y="118.9766"/><line style="stroke:#181818;stroke-width:0.5;stroke-dasharray:5,5;" x1="67" x2="67" y1="118.9766" y2="903.9609"/></g><g><title>TZif.API</title><rect fill="#000000" fill-opacity="0.00000" height="784.9844" width="8" x="285.0923" y="118.9766"/><line style="stroke:#181818;stroke-width:0.5;stroke-dasharray:5,5;" x1="288.9072" x2="288.9072" y1="118.9766" y2="903.9609"/></g><g><title>Source_Handle</title><rect fill="#000000" fill-opacity="0.00000" height="784.9844" width="8" x="474.8105" y="118.9766"/><line style="stroke:#181818;stroke-width:0.5;stroke-dasharray:5,5;" x1="477.8638" x2="477.8638" y1="118.9766" y2="903.9609"/></g><g><title>Zone_Repository</title><rect fill="#000000" fill-opacity="0.00000" height="784.9844" width="8" x="633.6392" y="118.9766"/><line style="stroke:#181818;stroke-width:0.5;stroke-dasharray:5,5;" x1="637.3008" x2="637.3008" y1="118.9766" y2="903.9609"/></g><g><title>Zone_Cache</title><rect fill="#000000" fill-opacity="0.00000" height="784.9844" width="8" x="812.5435" y="118.9766"/><line style="stroke:#181818;stroke-width:0.5;stroke-dasharray:5,5;" x1="815.7295" x2="815.7295" y1="118.9766" y2="903.9609"/></g><g><title>File_System</title><rect fill="#000000" fill-opacity="0.00000" height="784.9844" width="8" x="916.606" y="118.9766"/><line style="stroke:#181818;stroke-width:0.5;stroke-dasharray:5,5;" x1="920.3574" x2="920.3574" y1="118.9766" y2="903.9609"/></g><g><title>Lib</title><rect fill="#000000" fill-opacity="0.00000" height="784.9844" width="8" x="990.0161" y="118.9766"/><line style="stroke:#181818;stroke-width:0.5;stroke-dasharray:5,5;" x1="993.8545" x2="993.8545" y1="118.9766" y2="903.9609"/></g><g class="participant participant-head" data-participant="Consumer"><text fill="#000000" font-family="sans-serif" font-size="14" lengthAdjust="spacing" textLength="69.3984" x="30" y="116.0234">Consumer</text><ellipse cx="67.6992" cy="50.9883" fill="#E2E2F0" rx="8" ry="8" style="stroke:#181818;stroke-width:0.5;"/><path d="M67.6992,58.9883 L67.6992,85.9883 M54.6992,66.9883 L80.6992,66.9883 M67.6992,85.9883 L54.6992,100.9883 M67.6992,85.9883 L80.6992,100.9883" fill="none" style="stroke:#181818;stroke-width:0.5;"/></g><g class="participant participant-tail" data-participant="Consumer"><text fill="#000000" font-family="sans-serif" font-size="14" lengthAdjust="spacing" textLength="69.3984" x="30" y="916.4961">Consumer</text><ellipse cx="67.6992" cy="927.9492" fill="#E2E2F0" rx="8" ry="8" style="stroke:#181818;stroke-width:0.5;"/><path d="M67.6992,935.9492 L67.6992,962.9492 M54.6992,943.9492 L80.6992,943.9492 M67.6992,962.9492 L54.6992,977.9492 M67.6992,962.9492 L80.6992,977.9492" fill="none" style="stroke:#181818;stroke-width:0.5;"/></g><g class="participant participant-head" data-participant="API"><rect fill="#E2E2F0" height="30.4883" rx="2.5" ry="2.5" style="stroke:#181818;stroke-width:0.5;" width="66.3701" x="255.9072" y="87.4883"/><text fill="#000000" font-family="sans-serif" font-size="14" lengthAdjust="spacing" textLength="52.3701" x="262.9072" y="108.0234">TZif.API</text></g><g class="participant participant-tail" data-participant="API"><rect fill="#E2E2F0" height="30.4883" rx="2.5" ry="2.5" style="stroke:#181818;stroke-width:0.5;" width="66.3701" x="255.9072" y="902.9609"/><text fill="#000000" font-family="sans-serif" font-size="14" lengthAdjust="spacing" textLength="52.3701" x="262.9072" y="923.4961">TZif.API</text></g><g class="participant participant-head" data-participant="Handle"><rect fill="#E2E2F0" height="30.4883" rx="2.5" ry="2.5" style="stroke:#181818;stroke-width:0.5;" width="113.8936" x="421.8638" y="87.4883"/><text fill="#000000" font-family="sans-serif" font-size="14" lengthAdjust="spacing" textLength="99.8936" x="428.8638" y="108.0234">Source_Handle</text></g><g class="participant participant-tail" data-participant="Handle"><rect fill="#E2E2F0" height="30.4883" rx="2.5" ry="2.5" style="stroke:#181818;stroke-width:0.5;" width="113.8936" x="421.8638" y="902.9609"/><text fill="#000000" font-family="sans-serif" font-size="14" lengthAdjust="spacing" textLength="99.8936" x="428.8638" y="923.4961">Source_Handle</text></g><g class="participant participant-head" data-participant="Repo"><rect fill="#E2E2F0" height="30.4883" rx="2.5" ry="2.5" style="stroke:#181818;stroke-width:0.5;" width="126.6768" x="574.3008" y="87.4883"/><text fill="#000000" font-family="sans-serif" font-size="14" lengthAdjust="spacing" textLength="112.6768" x="581.3008" y="108.0234">Zone_Repository</text></g><g class="participant participant-tail" data-participant="Repo"><rect fill="#E2E2F0" height="30.4883" rx="2.5" ry="2.5" style="stroke:#181818;stroke-width:0.5;" width="126.6768" x="574.3008" y="902.9609"/><text fill="#000000" font-family="sans-serif" font-size="14" lengthAdjust="spacing" textLength="112.6768" x="581.3008" y="923.4961">Zone_Repository</text></g><g class="participant participant-head" data-participant="Cache"><rect fill="#E2E2F0" height="30.4883" rx="2.5" ry="2.5" style="stroke:#181818;stroke-width:0.5;" width="95.6279" x="768.7295" y="87.4883"/><text fill="#000000" font-family="sans-serif" font-size="14" lengthAdjust="spacing" textLength="81.6279" x="775.7295" y="108.0234">Zone_Cache</text></g><g class="participant participant-tail" data-participant="Cache"><rect fill="#E2E2F0" height="30.4883" rx="2.5" ry="2.5" style="stroke:#181818;stroke-width:0.5;" width="95.6279" x="768.7295" y="902.9609"/><text fill="#000000" font-family="sans-serif" font-size="14" lengthAdjust="spacing" textLength="81.6279" x="775.7295" y="923.4961">Zone_Cache</text></g><g class="participant participant-head" data-participant="FS"><rect fill="#E2E2F0" height="30.4883" rx="2.5" ry="2.5" style="stroke:#181818;stroke-width:0.5;" width="92.4971" x="874.3574" y="87.4883"/><text fill="#000000" font-family="sans-serif" font-size="14" lengthAdjust="spacing" textLength="78.4971" x="881.3574" y="108.0234">File_System</text></g><g class="participant participant-tail" data-participant="FS"><rect fill="#E2E2F0" height="30.4883" rx="2.5" ry="2.5" style="stroke:#181818;stroke-width:0.5;" width="92.4971" x="874.3574" y="902.9609"/><text fill="#000000" font-family="sans-serif" font-size="14" lengthAdjust="spacing" textLength="78.4971" x="881.3574" y="923.4961">File_System</text></g><g class="participant participant-head" data-participant="Lib"><rect fill="#E2E2F0" height="30.4883" rx="2.5" ry="2.5" style="stroke:#181818;stroke-width:0.5;" width="34.3232" x="976.8545" y="87.4883"/><text fill="#000000" font-family="sans-serif" font-size="14" lengthAdjust="spacing" textLength="20.3232" x="983.8545" y="108.0234">Lib</text></g><g class="participant participant-tail" data-participant="Lib"><rect fill="#E2E2F0" height="30.4883" rx="2.5" ry="2.5" style="stroke:#181818;stroke-width:0.5;" width="34.3232" x="976.8545" y="902.9609"/><text fill="#000000" font-family="sans-serif" font-size="14" lengthAdjust="spacing" textLength="20.3232" x="983.8545" y="923.4961">Lib</text></g><g><title>Source_Handle</title><rect fill="#FFFFFF" height="574.166" style="stroke:#181818;stroke-width:1;" width="10" x="473.8105" y="312.7949"/></g><g><title>Zone_Repository</title><rect fill="#FFFFFF" height="226.7949" style="stroke:#181818;stroke-width:1;" width="10" x="632.6392" y="557.2344"/></g><g><title>Zone_Cache</title><rect fill="#FFFFFF" height="127.1973" style="stroke:#181818;stroke-width:1;" width="10" x="811.5435" y="400.7266"/></g><g><title>Zone_Cache</title><rect fill="#FFFFFF" height="29.3105" style="stroke:#181818;stroke-width:1;" width="10" x="811.5435" y="813.3398"/></g><g><title>File_System</title><rect fill="#FFFFFF" height="29.3105" style="stroke:#181818;stroke-width:1;" width="10" x="915.606" y="586.5449"/></g><g><title>Lib</title><rect fill="#FFFFFF" height="156.5078" style="stroke:#181818;stroke-width:1;" width="10" x="989.0161" y="185.5977"/></g><path d="M294,133.9766 L294,158.9766 L424,158.9766 L424,143.9766 L414,133.9766 L294,133.9766" fill="#FEFFDD" style="stroke:#181818;stroke-width:0.5;"/><path d="M414,133.9766 L414,143.9766 L424,143.9766 L414,133.9766" fill="#FEFFDD" style="stroke:#181818;stroke-width:0.5;"/><text fill="#000000" font-family="sans-serif" font-size="13" lengthAdjust="spacing" textLength="109.1479" x="300" y="151.5449">Public API Facade</text><g class="message" data-participant-1="Consumer" data-participant-2="API"><polygon fill="#181818" points="277.0923,181.5977,287.0923,185.5977,277.0923,189.5977,281.0923,185.5977" style="stroke:#181818;stroke-width:1;"/><line style="stroke:#181818;stroke-width:1;" x1="67.6992" x2="283.0923" y1="185.5977" y2="185.5977"/><text fill="#000000" font-family="sans-serif" font-size="13" lengthAdjust="spacing" textLength="123.4175" x="74.6992" y="180.8555">Select_Source(ULID)</text></g><g class="message" data-participant-1="Lib" data-participant-2="API"><polygon fill="#181818" points="300.0923,210.9082,290.0923,214.9082,300.0923,218.9082,296.0923,214.9082" style="stroke:#181818;stroke-width:1;"/><line style="stroke:#181818;stroke-width:1;" x1="294.0923" x2="988.0161" y1="214.9082" y2="214.9082"/><text fill="#000000" font-family="sans-serif" font-size="13" lengthAdjust="spacing" textLength="180.7051" x="306.0923" y="210.166">Validate_Source_Exists(ULID)</text></g><path d="M10,229.9082 L72.1387,229.9082 L72.1387,237.2188 L62.1387,247.2188 L10,247.2188 L10,229.9082" fill="#EEEEEE" style="stroke:#000000;stroke-width:1.5;"/><rect fill="none" height="657.0527" style="stroke:#000000;stroke-width:1.5;" width="976.8545" x="10" y="229.9082"/><text fill="#000000" font-family="sans-serif" font-size="13" font-weight="bold" lengthAdjust="spacing" textLength="17.1387" x="25" y="243.4766">alt</text><text fill="#000000" font-family="sans-serif" font-size="11" font-weight="bold" lengthAdjust="spacing" textLength="105.2681" x="87.1387" y="242.543">[Source not found]</text><g class="message" data-participant-1="API" data-participant-2="Consumer"><polygon fill="#181818" points="78.6992,264.5293,68.6992,268.5293,78.6992,272.5293,74.6992,268.5293" style="stroke:#181818;stroke-width:1;"/><line style="stroke:#181818;stroke-width:1;stroke-dasharray:2,2;" x1="72.6992" x2="288.0923" y1="268.5293" y2="268.5293"/><text fill="#000000" font-family="sans-serif" font-size="13" lengthAdjust="spacing" textLength="197.3931" x="84.6992" y="263.7871">Error("Source no longer exists")</text></g><line style="stroke:#000000;stroke-width:1;stroke-dasharray:2,2;" x1="10" x2="986.8545" y1="277.5293" y2="277.5293"/><text fill="#000000" font-family="sans-serif" font-size="11" font-weight="bold" lengthAdjust="spacing" textLength="77.0483" x="15" y="288.1641">[Source valid]</text><g class="message" data-participant-1="API" data-participant-2="Handle"><polygon fill="#181818" points="461.8105,308.7949,471.8105,312.7949,461.8105,316.7949,465.8105,312.7949" style="stroke:#181818;stroke-width:1;"/><line style="stroke:#181818;stroke-width:1;" x1="289.0923" x2="467.8105" y1="312.7949" y2="312.7949"/><text fill="#000000" font-family="sans-serif" font-size="13" lengthAdjust="spacing" textLength="165.7183" x="296.0923" y="308.0527">Create_Handle(ULID, path)</text></g><g class="message" data-participant-1="API" data-participant-2="Consumer"><polygon fill="#181818" points="78.6992,338.1055,68.6992,342.1055,78.6992,346.1055,74.6992,342.1055" style="stroke:#181818;stroke-width:1;"/><line style="stroke:#181818;stroke-width:1;stroke-dasharray:2,2;" x1="72.6992" x2="288.0923" y1="342.1055" y2="342.1055"/><text fill="#000000" font-family="sans-serif" font-size="13" lengthAdjust="spacing" textLength="92.7583" x="84.6992" y="337.3633">Source_Handle</text></g><g class="message" data-participant-1="Consumer" data-participant-2="Handle"><polygon fill="#181818" points="461.8105,367.416,471.8105,371.416,461.8105,375.416,465.8105,371.416" style="stroke:#181818;stroke-width:1;"/><line style="stroke:#181818;stroke-width:1;" x1="67.6992" x2="467.8105" y1="371.416" y2="371.416"/><text fill="#000000" font-family="sans-serif" font-size="13" lengthAdjust="spacing" textLength="260.3047" x="74.6992" y="366.6738">List_All_Zones(Sort_Order =&gt; Ascending)</text></g><g class="message" data-participant-1="Handle" data-participant-2="Cache"><polygon fill="#181818" points="799.5435,396.7266,809.5435,400.7266,799.5435,404.7266,803.5435,400.7266" style="stroke:#181818;stroke-width:1;"/><line style="stroke:#181818;stroke-width:1;" x1="483.8105" x2="805.5435" y1="400.7266" y2="400.7266"/><text fill="#000000" font-family="sans-serif" font-size="13" lengthAdjust="spacing" textLength="156.4824" x="490.8105" y="395.9844">Get_Cached_Zones(ULID)</text></g><path d="M20,415.7266 L82.1387,415.7266 L82.1387,423.0371 L72.1387,433.0371 L20,433.0371 L20,415.7266" fill="#EEEEEE" style="stroke:#000000;stroke-width:1.5;"/><rect fill="none" height="464.2344" style="stroke:#000000;stroke-width:1.5;" width="956.8545" x="20" y="415.7266"/><text fill="#000000" font-family="sans-serif" font-size="13" font-weight="bold" lengthAdjust="spacing" textLength="17.1387" x="35" y="429.2949">alt</text><text fill="#000000" font-family="sans-serif" font-size="11" font-weight="bold" lengthAdjust="spacing" textLength="65.4253" x="97.1387" y="428.3613">[Cache HIT]</text><g class="message" data-participant-1="Cache" data-participant-2="Handle"><polygon fill="#181818" points="494.8105,450.3477,484.8105,454.3477,494.8105,458.3477,490.8105,454.3477" style="stroke:#181818;stroke-width:1;"/><line style="stroke:#181818;stroke-width:1;stroke-dasharray:2,2;" x1="488.8105" x2="810.5435" y1="454.3477" y2="454.3477"/><text fill="#000000" font-family="sans-serif" font-size="13" lengthAdjust="spacing" textLength="78.2603" x="500.8105" y="449.6055">Zone_Id_List</text></g><g class="message" data-participant-1="Handle" data-participant-2="Consumer"><polygon fill="#181818" points="78.6992,479.6582,68.6992,483.6582,78.6992,487.6582,74.6992,483.6582" style="stroke:#181818;stroke-width:1;"/><line style="stroke:#181818;stroke-width:1;stroke-dasharray:2,2;" x1="72.6992" x2="472.8105" y1="483.6582" y2="483.6582"/><text fill="#000000" font-family="sans-serif" font-size="13" lengthAdjust="spacing" textLength="78.2603" x="84.6992" y="478.916">Zone_Id_List</text></g><line style="stroke:#000000;stroke-width:1;stroke-dasharray:2,2;" x1="20" x2="976.8545" y1="492.6582" y2="492.6582"/><text fill="#000000" font-family="sans-serif" font-size="11" font-weight="bold" lengthAdjust="spacing" textLength="71.8062" x="25" y="503.293">[Cache MISS]</text><g class="message" data-participant-1="Cache" data-participant-2="Handle"><polygon fill="#181818" points="494.8105,523.9238,484.8105,527.9238,494.8105,531.9238,490.8105,527.9238" style="stroke:#181818;stroke-width:1;"/><line style="stroke:#181818;stroke-width:1;stroke-dasharray:2,2;" x1="488.8105" x2="815.5435" y1="527.9238" y2="527.9238"/><text fill="#000000" font-family="sans-serif" font-size="13" lengthAdjust="spacing" textLength="79.8408" x="500.8105" y="523.1816">NOT_FOUND</text></g><g class="message" data-participant-1="Handle" data-participant-2="Repo"><polygon fill="#181818" points="620.6392,553.2344,630.6392,557.2344,620.6392,561.2344,624.6392,557.2344" style="stroke:#181818;stroke-width:1;"/><line style="stroke:#181818;stroke-width:1;" x1="483.8105" x2="626.6392" y1="557.2344" y2="557.2344"/><text fill="#000000" font-family="sans-serif" font-size="13" lengthAdjust="spacing" textLength="129.8286" x="490.8105" y="552.4922">Scan_Directory(path)</text></g><g class="message" data-participant-1="Repo" data-participant-2="FS"><polygon fill="#181818" points="903.606,582.5449,913.606,586.5449,903.606,590.5449,907.606,586.5449" style="stroke:#181818;stroke-width:1;"/><line style="stroke:#181818;stroke-width:1;" x1="642.6392" x2="909.606" y1="586.5449" y2="586.5449"/><text fill="#000000" font-family="sans-serif" font-size="13" lengthAdjust="spacing" textLength="132.0186" x="649.6392" y="581.8027">Recursive_Scan(path)</text></g><g class="message" data-participant-1="FS" data-participant-2="Repo"><polygon fill="#181818" points="653.6392,611.8555,643.6392,615.8555,653.6392,619.8555,649.6392,615.8555" style="stroke:#181818;stroke-width:1;"/><line style="stroke:#181818;stroke-width:1;stroke-dasharray:2,2;" x1="647.6392" x2="919.606" y1="615.8555" y2="615.8555"/><text fill="#000000" font-family="sans-serif" font-size="13" lengthAdjust="spacing" textLength="60.271" x="659.6392" y="611.1133">Raw_Files</text></g><g class="message" data-participant-1="Repo" data-participant-2="Repo"><line style="stroke:#181818;stroke-width:1;" x1="642.6392" x2="684.6392" y1="672.2871" y2="672.2871"/><line style="stroke:#181818;stroke-width:1;" x1="684.6392" x2="684.6392" y1="672.2871" y2="685.2871"/><line style="stroke:#181818;stroke-width:1;" x1="643.6392" x2="684.6392" y1="685.2871" y2="685.2871"/><polygon fill="#181818" points="653.6392,681.2871,643.6392,685.2871,653.6392,689.2871,649.6392,685.2871" style="stroke:#181818;stroke-width:1;"/><text fill="#000000" font-family="sans-serif" font-size="13" lengthAdjust="spacing" textLength="139.604" x="649.6392" y="667.5449">Filter_Metadata_Files()</text></g><path d="M810.604,628.8555 L810.604,714.8555 L920.604,714.8555 L920.604,638.8555 L910.604,628.8555 L810.604,628.8555" fill="#FEFFDD" style="stroke:#181818;stroke-width:0.5;"/><path d="M910.604,628.8555 L910.604,638.8555 L920.604,638.8555 L910.604,628.8555" fill="#FEFFDD" style="stroke:#181818;stroke-width:0.5;"/><text fill="#000000" font-family="sans-serif" font-size="13" lengthAdjust="spacing" textLength="53.041" x="816.604" y="646.4238">Exclude:</text><text fill="#000000" font-family="sans-serif" font-size="13" lengthAdjust="spacing" textLength="76.1846" x="816.604" y="661.7344">- +VERSION</text><text fill="#000000" font-family="sans-serif" font-size="13" lengthAdjust="spacing" textLength="66.7202" x="816.604" y="677.0449">- zone.tab</text><text fill="#000000" font-family="sans-serif" font-size="13" lengthAdjust="spacing" textLength="89.3877" x="816.604" y="692.3555">- leapseconds</text><text fill="#000000" font-family="sans-serif" font-size="13" lengthAdjust="spacing" textLength="34.5122" x="816.604" y="707.666">- etc.</text><g class="message" data-participant-1="Repo" data-participant-2="Repo"><line style="stroke:#181818;stroke-width:1;" x1="642.6392" x2="684.6392" y1="741.7188" y2="741.7188"/><line style="stroke:#181818;stroke-width:1;" x1="684.6392" x2="684.6392" y1="741.7188" y2="754.7188"/><line style="stroke:#181818;stroke-width:1;" x1="643.6392" x2="684.6392" y1="754.7188" y2="754.7188"/><polygon fill="#181818" points="653.6392,750.7188,643.6392,754.7188,653.6392,758.7188,649.6392,754.7188" style="stroke:#181818;stroke-width:1;"/><text fill="#000000" font-family="sans-serif" font-size="13" lengthAdjust="spacing" textLength="144.9043" x="649.6392" y="736.9766">Sort(zones, Ascending)</text></g><g class="message" data-participant-1="Repo" data-participant-2="Handle"><polygon fill="#181818" points="494.8105,780.0293,484.8105,784.0293,494.8105,788.0293,490.8105,784.0293" style="stroke:#181818;stroke-width:1;"/><line style="stroke:#181818;stroke-width:1;stroke-dasharray:2,2;" x1="488.8105" x2="636.6392" y1="784.0293" y2="784.0293"/><text fill="#000000" font-family="sans-serif" font-size="13" lengthAdjust="spacing" textLength="78.2603" x="500.8105" y="779.2871">Zone_Id_List</text></g><g class="message" data-participant-1="Handle" data-participant-2="Cache"><polygon fill="#181818" points="799.5435,809.3398,809.5435,813.3398,799.5435,817.3398,803.5435,813.3398" style="stroke:#181818;stroke-width:1;"/><line style="stroke:#181818;stroke-width:1;" x1="483.8105" x2="805.5435" y1="813.3398" y2="813.3398"/><text fill="#000000" font-family="sans-serif" font-size="13" lengthAdjust="spacing" textLength="165.9023" x="490.8105" y="808.5977">Cache_Zones(ULID, zones)</text></g><g class="message" data-participant-1="Cache" data-participant-2="Handle"><polygon fill="#181818" points="494.8105,838.6504,484.8105,842.6504,494.8105,846.6504,490.8105,842.6504" style="stroke:#181818;stroke-width:1;"/><line style="stroke:#181818;stroke-width:1;stroke-dasharray:2,2;" x1="488.8105" x2="815.5435" y1="842.6504" y2="842.6504"/><text fill="#000000" font-family="sans-serif" font-size="13" lengthAdjust="spacing" textLength="18.5859" x="500.8105" y="837.9082">OK</text></g><g class="message" data-participant-1="Handle" data-participant-2="Consumer"><polygon fill="#181818" points="78.6992,867.9609,68.6992,871.9609,78.6992,875.9609,74.6992,871.9609" style="stroke:#181818;stroke-width:1;"/><line style="stroke:#181818;stroke-width:1;stroke-dasharray:2,2;" x1="72.6992" x2="472.8105" y1="871.9609" y2="871.9609"/><text fill="#000000" font-family="sans-serif" font-size="13" lengthAdjust="spacing" textLength="78.2603" x="84.6992" y="867.2188">Zone_Id_List</text></g><!--SRC=[bLJRRk8m47tFLunu0Ytm0P4MgGAoZPP2HMWV-c8PPm1BRe9iXotxzUjBRbxeLlj2uk7Cp9apnz5S2uGC1J8DMLb9Xa2B75PSQNWh2rHHH9ak9SpBGbNlAACpbPepVgQ5Xi7kZH-c3y_f0AW2yuoAKYD8VZnfA0yk0l1SxGLdzW09PJJ724qBYmoB-VxaqH0Gw2hwrn1bMP4jdal53Q-hmzdZ7TISifClvDv2HC85akogDBuxI995KJCaJ6QMRbmhGpopuSigNOoi7ln2pPWhleyYyzEYNwdWkVcdnfFbXv5HDMcYLTYC3eUoAd8Z3ZXT9gP4qpo6fPIb70vQD8YoE1fMwEeDHX4AXKsnYstQ5PhLeiKmbsYv-ACZCOOprQUH0xTJr1hVPnAin65o3EUtiRviJNVh8F8W174k6cQbr6GZSmFwRjHIp5Y05yUHB-2JRBfRL0m_KFljvNM-rp0WxdVgGaPQTuB7TESYZfMBJ7gSd2dId5XkBQpf7SnzWtIA-ufFQPRzeybwioF9vcMzQ34zoJpdczupvs0ZDwC5MN29zifTXzssWi6TszkmFTaAIHQRTrP9nI_6WQRIP_b9Hp_977VVVKj_4Nihr3tczdhytTAdcHIDaZoXfiRyr9SOTdsxJq8R0bX-C57b6FT24_ZskjncwMOT17-RLKmrtGT1WVIia9L5he8uQZPj0-rNvXFYrfD3MrwDRnpPeR_oJq-ZS34tfdQFdf_7RZPrPqETjUzxRFFpFyprXR7hhr2lJdtRxJz_0000]--></g></svg>