<svg xmlns="http://www.w3.org/2000/svg" xmlns:xlink="http://www.w3.org/1999/xlink" contentStyleType="text/css" data-diagram-type="SEQUENCE" height="662px" preserveAspectRatio="none" style="width:844px;height:662px;background:#FFFFFF;" version="1.1" viewBox="0 0 844 662" width="844px" zoomAndPan="magnify"><title>Startup with Cache Import</title><defs/><g><text fill="#000000" font-family="sans-serif" font-size="14" font-weight="bold" lengthAdjust="spacing" textLength="189.2803" x="327.5537" y="28.5352">Startup with Cache Import</text><g><title>TZif_Builder</title><rect fill="#FFFFFF" height="263.1055" style="stroke:#181818;stroke-width:1;" width="10" x="150.2661" y="150.2871"/></g><g><title>Cache_Manager</title><rect fill="#FFFFFF" height="138.5527" style="stroke:#181818;stroke-width:1;" width="10" x="344.2354" y="179.5977"/></g><g><title>File_System</title><rect fill="#FFFFFF" height="29.3105" style="stroke:#181818;stroke-width:1;" width="10" x="510.3828" y="208.9082"/></g><g><title>Background_Scanner</title><rect fill="#FFFFFF" height="55.6211" style="stroke:#FFFFFF;stroke-width:1;" width="10" x="643.9971" y="365.7715"/><line style="stroke:#181818;stroke-width:1;" x1="643.9971" x2="643.9971" y1="365.7715" y2="421.3926"/><line style="stroke:#181818;stroke-width:1;" x1="653.9971" x2="653.9971" y1="365.7715" y2="421.3926"/><line style="stroke:#181818;stroke-width:1;" x1="643.9971" x2="653.9971" y1="365.7715" y2="365.7715"/></g><g><title>Background_Scanner</title><rect fill="#FFFFFF" height="90.5869" style="stroke:#FFFFFF;stroke-width:1;" width="10" x="643.9971" y="462.3477"/><line style="stroke:#181818;stroke-width:1;" x1="643.9971" x2="643.9971" y1="462.3477" y2="552.9346"/><line style="stroke:#181818;stroke-width:1;" x1="653.9971" x2="653.9971" y1="462.3477" y2="552.9346"/><line style="stroke:#181818;stroke-width:1;" x1="643.9971" x2="653.9971" y1="552.9346" y2="552.9346"/></g><g><title>Consumer</title><rect fill="#000000" fill-opacity="0.00000" height="302.416" width="8" x="38.6992" y="118.9766"/><line style="stroke:#181818;stroke-width:0.5;stroke-dasharray:5,5;" x1="42" x2="42" y1="118.9766" y2="421.3926"/></g><line style="stroke:#181818;stroke-width:0.5;stroke-dasharray:1,4;" x1="42" x2="42" y1="421.3926" y2="462.3477"/><g><title>Consumer</title><rect fill="#000000" fill-opacity="0.00000" height="119.2422" width="8" x="38.6992" y="462.3477"/><line style="stroke:#181818;stroke-width:0.5;stroke-dasharray:5,5;" x1="42" x2="42" y1="462.3477" y2="581.5898"/></g><g><title>TZif_Builder</title><rect fill="#000000" fill-opacity="0.00000" height="302.416" width="8" x="151.2661" y="118.9766"/><line style="stroke:#181818;stroke-width:0.5;stroke-dasharray:5,5;" x1="154.9238" x2="154.9238" y1="118.9766" y2="421.3926"/></g><line style="stroke:#181818;stroke-width:0.5;stroke-dasharray:1,4;" x1="154.9238" x2="154.9238" y1="421.3926" y2="462.3477"/><g><title>TZif_Builder</title><rect fill="#000000" fill-opacity="0.00000" height="119.2422" width="8" x="151.2661" y="462.3477"/><line style="stroke:#181818;stroke-width:0.5;stroke-dasharray:5,5;" x1="154.9238" x2="154.9238" y1="462.3477" y2="581.5898"/></g><g><title>Cache_Manager</title><rect fill="#000000" fill-opacity="0.00000" height="302.416" width="8" x="345.2354" y="118.9766"/><line style="stroke:#181818;stroke-width:0.5;stroke-dasharray:5,5;" x1="348.9629" x2="348.9629" y1="118.9766" y2="421.3926"/></g><line style="stroke:#181818;stroke-width:0.5;stroke-dasharray:1,4;" x1="348.9629" x2="348.9629" y1="421.3926" y2="462.3477"/><g><title>Cache_Manager</title><rect fill="#000000" fill-opacity="0.00000" height="119.2422" width="8" x="345.2354" y="462.3477"/><line style="stroke:#181818;stroke-width:0.5;stroke-dasharray:5,5;" x1="348.9629" x2="348.9629" y1="462.3477" y2="581.5898"/></g><g><title>File_System</title><rect fill="#000000" fill-opacity="0.00000" height="302.416" width="8" x="511.3828" y="118.9766"/><line style="stroke:#181818;stroke-width:0.5;stroke-dasharray:5,5;" x1="515.1343" x2="515.1343" y1="118.9766" y2="421.3926"/></g><line style="stroke:#181818;stroke-width:0.5;stroke-dasharray:1,4;" x1="515.1343" x2="515.1343" y1="421.3926" y2="462.3477"/><g><title>File_System</title><rect fill="#000000" fill-opacity="0.00000" height="119.2422" width="8" x="511.3828" y="462.3477"/><line style="stroke:#181818;stroke-width:0.5;stroke-dasharray:5,5;" x1="515.1343" x2="515.1343" y1="462.3477" y2="581.5898"/></g><g><title>Background_Scanner</title><rect fill="#000000" fill-opacity="0.00000" height="302.416" width="8" x="644.9971" y="118.9766"/><line style="stroke:#181818;stroke-width:0.5;stroke-dasharray:5,5;" x1="648.6313" x2="648.6313" y1="118.9766" y2="421.3926"/></g><line style="stroke:#181818;stroke-width:0.5;stroke-dasharray:1,4;" x1="648.6313" x2="648.6313" y1="421.3926" y2="462.3477"/><g><title>Background_Scanner</title><rect fill="#000000" fill-opacity="0.00000" height="119.2422" width="8" x="644.9971" y="462.3477"/><line style="stroke:#181818;stroke-width:0.5;stroke-dasharray:5,5;" x1="648.6313" x2="648.6313" y1="462.3477" y2="581.5898"/></g><g class="participant participant-head" data-participant="Consumer"><text fill="#000000" font-family="sans-serif" font-size="14" lengthAdjust="spacing" textLength="69.3984" x="5" y="116.0234">Consumer</text><ellipse cx="42.6992" cy="50.9883" fill="#E2E2F0" rx="8" ry="8" style="stroke:#181818;stroke-width:0.5;"/><path d="M42.6992,58.9883 L42.6992,85.9883 M29.6992,66.9883 L55.6992,66.9883 M42.6992,85.9883 L29.6992,100.9883 M42.6992,85.9883 L55.6992,100.9883" fill="none" style="stroke:#181818;stroke-width:0.5;"/></g><g class="participant participant-tail" data-participant="Consumer"><text fill="#000000" font-family="sans-serif" font-size="14" lengthAdjust="spacing" textLength="69.3984" x="5" y="594.125">Consumer</text><ellipse cx="42.6992" cy="605.5781" fill="#E2E2F0" rx="8" ry="8" style="stroke:#181818;stroke-width:0.5;"/><path d="M42.6992,613.5781 L42.6992,640.5781 M29.6992,621.5781 L55.6992,621.5781 M42.6992,640.5781 L29.6992,655.5781 M42.6992,640.5781 L55.6992,655.5781" fill="none" style="stroke:#181818;stroke-width:0.5;"/></g><g class="participant participant-head" data-participant="Builder"><rect fill="#E2E2F0" height="30.4883" rx="2.5" ry="2.5" style="stroke:#181818;stroke-width:0.5;" width="94.6846" x="107.9238" y="87.4883"/><text fill="#000000" font-family="sans-serif" font-size="14" lengthAdjust="spacing" textLength="80.6846" x="114.9238" y="108.0234">TZif_Builder</text></g><g class="participant participant-tail" data-participant="Builder"><rect fill="#E2E2F0" height="30.4883" rx="2.5" ry="2.5" style="stroke:#181818;stroke-width:0.5;" width="94.6846" x="107.9238" y="580.5898"/><text fill="#000000" font-family="sans-serif" font-size="14" lengthAdjust="spacing" textLength="80.6846" x="114.9238" y="601.125">TZif_Builder</text></g><g class="participant participant-head" data-participant="Cache"><rect fill="#E2E2F0" height="30.4883" rx="2.5" ry="2.5" style="stroke:#181818;stroke-width:0.5;" width="120.5449" x="288.9629" y="87.4883"/><text fill="#000000" font-family="sans-serif" font-size="14" lengthAdjust="spacing" textLength="106.5449" x="295.9629" y="108.0234">Cache_Manager</text></g><g class="participant participant-tail" data-participant="Cache"><rect fill="#E2E2F0" height="30.4883" rx="2.5" ry="2.5" style="stroke:#181818;stroke-width:0.5;" width="120.5449" x="288.9629" y="580.5898"/><text fill="#000000" font-family="sans-serif" font-size="14" lengthAdjust="spacing" textLength="106.5449" x="295.9629" y="601.125">Cache_Manager</text></g><g class="participant participant-head" data-participant="FS"><rect fill="#E2E2F0" height="30.4883" rx="2.5" ry="2.5" style="stroke:#181818;stroke-width:0.5;" width="92.4971" x="469.1343" y="87.4883"/><text fill="#000000" font-family="sans-serif" font-size="14" lengthAdjust="spacing" textLength="78.4971" x="476.1343" y="108.0234">File_System</text></g><g class="participant participant-tail" data-participant="FS"><rect fill="#E2E2F0" height="30.4883" rx="2.5" ry="2.5" style="stroke:#181818;stroke-width:0.5;" width="92.4971" x="469.1343" y="580.5898"/><text fill="#000000" font-family="sans-serif" font-size="14" lengthAdjust="spacing" textLength="78.4971" x="476.1343" y="601.125">File_System</text></g><g class="participant participant-head" data-participant="Scanner"><rect fill="#E2E2F0" height="30.4883" rx="2.5" ry="2.5" style="stroke:#181818;stroke-width:0.5;" width="154.7314" x="571.6313" y="87.4883"/><text fill="#000000" font-family="sans-serif" font-size="14" lengthAdjust="spacing" textLength="140.7314" x="578.6313" y="108.0234">Background_Scanner</text></g><g class="participant participant-tail" data-participant="Scanner"><rect fill="#E2E2F0" height="30.4883" rx="2.5" ry="2.5" style="stroke:#181818;stroke-width:0.5;" width="154.7314" x="571.6313" y="580.5898"/><text fill="#000000" font-family="sans-serif" font-size="14" lengthAdjust="spacing" textLength="140.7314" x="578.6313" y="601.125">Background_Scanner</text></g><g><title>TZif_Builder</title><rect fill="#FFFFFF" height="263.1055" style="stroke:#181818;stroke-width:1;" width="10" x="150.2661" y="150.2871"/></g><g><title>Cache_Manager</title><rect fill="#FFFFFF" height="138.5527" style="stroke:#181818;stroke-width:1;" width="10" x="344.2354" y="179.5977"/></g><g><title>File_System</title><rect fill="#FFFFFF" height="29.3105" style="stroke:#181818;stroke-width:1;" width="10" x="510.3828" y="208.9082"/></g><g><title>Background_Scanner</title><rect fill="#FFFFFF" height="55.6211" style="stroke:#FFFFFF;stroke-width:1;" width="10" x="643.9971" y="365.7715"/><line style="stroke:#181818;stroke-width:1;" x1="643.9971" x2="643.9971" y1="365.7715" y2="421.3926"/><line style="stroke:#181818;stroke-width:1;" x1="653.9971" x2="653.9971" y1="365.7715" y2="421.3926"/><line style="stroke:#181818;stroke-width:1;" x1="643.9971" x2="653.9971" y1="365.7715" y2="365.7715"/></g><g><title>Background_Scanner</title><rect fill="#FFFFFF" height="90.5869" style="stroke:#FFFFFF;stroke-width:1;" width="10" x="643.9971" y="462.3477"/><line style="stroke:#181818;stroke-width:1;" x1="643.9971" x2="643.9971" y1="462.3477" y2="552.9346"/><line style="stroke:#181818;stroke-width:1;" x1="653.9971" x2="653.9971" y1="462.3477" y2="552.9346"/><line style="stroke:#181818;stroke-width:1;" x1="643.9971" x2="653.9971" y1="552.9346" y2="552.9346"/></g><g class="message" data-participant-1="Consumer" data-participant-2="Builder"><polygon fill="#181818" points="138.2661,146.2871,148.2661,150.2871,138.2661,154.2871,142.2661,150.2871" style="stroke:#181818;stroke-width:1;"/><line style="stroke:#181818;stroke-width:1;" x1="42.6992" x2="144.2661" y1="150.2871" y2="150.2871"/><text fill="#000000" font-family="sans-serif" font-size="13" lengthAdjust="spacing" textLength="39.6982" x="49.6992" y="145.5449">Build()</text></g><g class="message" data-participant-1="Builder" data-participant-2="Cache"><polygon fill="#181818" points="332.2354,175.5977,342.2354,179.5977,332.2354,183.5977,336.2354,179.5977" style="stroke:#181818;stroke-width:1;"/><line style="stroke:#181818;stroke-width:1;" x1="160.2661" x2="338.2354" y1="179.5977" y2="179.5977"/><text fill="#000000" font-family="sans-serif" font-size="13" lengthAdjust="spacing" textLength="164.9692" x="167.2661" y="174.8555">Import_Cache("cache.bin")</text></g><g class="message" data-participant-1="Cache" data-participant-2="FS"><polygon fill="#181818" points="498.3828,204.9082,508.3828,208.9082,498.3828,212.9082,502.3828,208.9082" style="stroke:#181818;stroke-width:1;"/><line style="stroke:#181818;stroke-width:1;" x1="354.2354" x2="504.3828" y1="208.9082" y2="208.9082"/><text fill="#000000" font-family="sans-serif" font-size="13" lengthAdjust="spacing" textLength="137.1475" x="361.2354" y="204.166">Read_File("cache.bin")</text></g><g class="message" data-participant-1="FS" data-participant-2="Cache"><polygon fill="#181818" points="365.2354,234.2188,355.2354,238.2188,365.2354,242.2188,361.2354,238.2188" style="stroke:#181818;stroke-width:1;"/><line style="stroke:#181818;stroke-width:1;stroke-dasharray:2,2;" x1="359.2354" x2="514.3828" y1="238.2188" y2="238.2188"/><text fill="#000000" font-family="sans-serif" font-size="13" lengthAdjust="spacing" textLength="73.6011" x="371.2354" y="233.4766">Cache_Data</text></g><g class="message" data-participant-1="Cache" data-participant-2="Cache"><line style="stroke:#181818;stroke-width:1;" x1="354.2354" x2="396.2354" y1="271.6846" y2="271.6846"/><line style="stroke:#181818;stroke-width:1;" x1="396.2354" x2="396.2354" y1="271.6846" y2="284.6846"/><line style="stroke:#181818;stroke-width:1;" x1="355.2354" x2="396.2354" y1="284.6846" y2="284.6846"/><polygon fill="#181818" points="365.2354,280.6846,355.2354,284.6846,365.2354,288.6846,361.2354,284.6846" style="stroke:#181818;stroke-width:1;"/><text fill="#000000" font-family="sans-serif" font-size="13" lengthAdjust="spacing" textLength="103.7588" x="361.2354" y="266.9424">Validate_Cache()</text></g><path d="M486.7588,251.2188 L486.7588,291.2188 L642.7588,291.2188 L642.7588,261.2188 L632.7588,251.2188 L486.7588,251.2188" fill="#FEFFDD" style="stroke:#181818;stroke-width:0.5;"/><path d="M632.7588,251.2188 L632.7588,261.2188 L642.7588,261.2188 L632.7588,251.2188" fill="#FEFFDD" style="stroke:#181818;stroke-width:0.5;"/><text fill="#000000" font-family="sans-serif" font-size="13" lengthAdjust="spacing" textLength="128.3242" x="492.7588" y="268.7871">Check cache version</text><text fill="#000000" font-family="sans-serif" font-size="13" lengthAdjust="spacing" textLength="135.7065" x="492.7588" y="284.0977">Validate source paths</text><g class="message" data-participant-1="Cache" data-participant-2="Builder"><polygon fill="#181818" points="171.2661,314.1504,161.2661,318.1504,171.2661,322.1504,167.2661,318.1504" style="stroke:#181818;stroke-width:1;"/><line style="stroke:#181818;stroke-width:1;stroke-dasharray:2,2;" x1="165.2661" x2="348.2354" y1="318.1504" y2="318.1504"/><text fill="#000000" font-family="sans-serif" font-size="13" lengthAdjust="spacing" textLength="101.7275" x="177.2661" y="313.4082">Cached_Sources</text></g><g class="message" data-participant-1="Builder" data-participant-2="Scanner"><polygon fill="#181818" points="631.9971,361.7715,641.9971,365.7715,631.9971,369.7715,635.9971,365.7715" style="stroke:#181818;stroke-width:1;"/><line style="stroke:#181818;stroke-width:1;" x1="160.2661" x2="637.9971" y1="365.7715" y2="365.7715"/><text fill="#000000" font-family="sans-serif" font-size="13" lengthAdjust="spacing" textLength="174.8589" x="167.2661" y="361.0293">Start_Background_Scanner()</text></g><path d="M658,331.1504 L658,386.1504 L837,386.1504 L837,341.1504 L827,331.1504 L658,331.1504" fill="#FEFFDD" style="stroke:#181818;stroke-width:0.5;"/><path d="M827,331.1504 L827,341.1504 L837,341.1504 L827,331.1504" fill="#FEFFDD" style="stroke:#181818;stroke-width:0.5;"/><text fill="#000000" font-family="sans-serif" font-size="13" lengthAdjust="spacing" textLength="89.8003" x="664" y="348.7188">LOW PRIORITY</text><text fill="#000000" font-family="sans-serif" font-size="13" lengthAdjust="spacing" textLength="158.0313" x="664" y="364.0293">Validates cached sources</text><text fill="#000000" font-family="sans-serif" font-size="13" lengthAdjust="spacing" textLength="142.7651" x="664" y="379.3398">Discovers new sources</text><g class="message" data-participant-1="Builder" data-participant-2="Consumer"><polygon fill="#181818" points="53.6992,409.3926,43.6992,413.3926,53.6992,417.3926,49.6992,413.3926" style="stroke:#181818;stroke-width:1;"/><line style="stroke:#181818;stroke-width:1;stroke-dasharray:2,2;" x1="47.6992" x2="154.2661" y1="413.3926" y2="413.3926"/><text fill="#000000" font-family="sans-serif" font-size="13" lengthAdjust="spacing" textLength="83.5669" x="59.6992" y="408.6504">TZif_Instance</text></g><text fill="#000000" font-family="sans-serif" font-size="11" lengthAdjust="spacing" textLength="67.2085" x="312.2439" y="446.0273">Later (async)</text><g class="message" data-participant-1="Scanner" data-participant-2="FS"><polygon fill="#181818" points="526.3828,479.6582,516.3828,483.6582,526.3828,487.6582,522.3828,483.6582" style="stroke:#181818;stroke-width:1;"/><line style="stroke:#181818;stroke-width:1;" x1="520.3828" x2="642.9971" y1="483.6582" y2="483.6582"/><text fill="#000000" font-family="sans-serif" font-size="13" lengthAdjust="spacing" textLength="77.7842" x="532.3828" y="478.916">Scan_Paths()</text></g><g class="message" data-participant-1="FS" data-participant-2="Scanner"><polygon fill="#181818" points="631.9971,508.9688,641.9971,512.9688,631.9971,516.9688,635.9971,512.9688" style="stroke:#181818;stroke-width:1;"/><line style="stroke:#181818;stroke-width:1;stroke-dasharray:2,2;" x1="515.3828" x2="637.9971" y1="512.9688" y2="512.9688"/><text fill="#000000" font-family="sans-serif" font-size="13" lengthAdjust="spacing" textLength="82.2656" x="522.3828" y="508.2266">New_Sources</text></g><g class="message" data-participant-1="Scanner" data-participant-2="Cache"><polygon fill="#181818" points="360.2354,548.9346,350.2354,552.9346,360.2354,556.9346,356.2354,552.9346" style="stroke:#181818;stroke-width:1;"/><line style="stroke:#181818;stroke-width:1;" x1="354.2354" x2="647.9971" y1="552.9346" y2="552.9346"/><text fill="#000000" font-family="sans-serif" font-size="13" lengthAdjust="spacing" textLength="178.1089" x="366.2354" y="548.1924">Update_Cache(new_sources)</text></g><path d="M658,525.9688 L658,565.9688 L834,565.9688 L834,535.9688 L824,525.9688 L658,525.9688" fill="#FEFFDD" style="stroke:#181818;stroke-width:0.5;"/><path d="M824,525.9688 L824,535.9688 L834,535.9688 L824,525.9688" fill="#FEFFDD" style="stroke:#181818;stroke-width:0.5;"/><text fill="#000000" font-family="sans-serif" font-size="13" lengthAdjust="spacing" textLength="107.415" x="664" y="543.5371">Add new sources</text><text fill="#000000" font-family="sans-serif" font-size="13" lengthAdjust="spacing" textLength="155.3906" x="664" y="558.8477">Remove missing sources</text><!--SRC=[TLBDRW8X4Bxp51DFUj07s4EJgZ4niTMujarx8LEWBj5bDy1gVFi2owviJKyCmpVm_M2bFGl8BMhRr72Lje05iaB0kgmhRGb1PYiDYqgPfXIQr0uecQnHMHWTlkGFdJVop8KU0Hg8zH0LxgClgF0OOQ4p1AtaMT3yPgme0sIL3y_do4v7NJMAqvoXKl6cM1FI4OJfKySYQulnn6kG5xIYvqTYuT61J1Rrqh0RZvXVPjzIZPBfbZPf_N6Jgpo3lK1EFVb_PfoELGxJ-pkj6qkqIBX8OVTx8_8TpvAxmyXfGbJba5eU2qi05eLW9mXlmaLe8olbkjqCcAhHJ42DjZ14A0v-k7yZDIcqdAjXmAIaejx4gsXtrduO-XXAQdQNpO3sPli1k_rwkryVFXE-fbN28s_ZZfRIiCeh0oMkVVykfQVb7OlfPn2-v5ePYug9L4mV_MmsWuthQ1YZkIas0TSX9BBjSlLRklFkEKanmLxzgxZsVgM3CRYtEedDaQUH_9y4dpaVI0FtcKgd64ffZ5J7Hys9dCxSNm00]--></g></svg>