<svg xmlns="http://www.w3.org/2000/svg" xmlns:xlink="http://www.w3.org/1999/xlink" contentStyleType="text/css" data-diagram-type="DESCRIPTION" height="1217px" preserveAspectRatio="none" style="width:2905px;height:1217px;background:#FFFFFF;" version="1.1" viewBox="0 0 2905 1217" width="2905px" zoomAndPan="magnify"><title>Hybrid Architecture - Generics-Based Layer Dependencies</title><defs/><g><g class="title" data-source-line="13"><text fill="#000000" font-family="Arial" font-size="14" font-weight="bold" lengthAdjust="spacing" textLength="389.8057" x="1250.909" y="23.1318">Hybrid Architecture - Generics-Based Layer Dependencies</text></g><!--cluster Shared--><g class="cluster" data-entity="Shared" data-source-line="15" data-uid="ent0002" id="cluster_Shared"><rect fill="#9E9E9E" height="172.85" rx="2.5" ry="2.5" style="stroke:#181818;stroke-width:1;" width="392" x="68" y="269.1486"/><text fill="#000000" font-family="Arial" font-size="14" font-weight="bold" lengthAdjust="spacing" textLength="88.71" x="219.645" y="284.2805">Shared Layer</text><text fill="#000000" font-family="Arial" font-size="14" font-weight="bold" lengthAdjust="spacing" textLength="121.3926" x="203.3037" y="300.3791">(Parent Packages)</text></g><!--cluster Bootstrap--><g class="cluster" data-entity="Bootstrap" data-source-line="24" data-uid="ent0007" id="cluster_Bootstrap"><rect fill="#E3F2FD" height="393.52" rx="2.5" ry="2.5" style="stroke:#181818;stroke-width:1;" width="454" x="519" y="44.0986"/><text fill="#000000" font-family="Arial" font-size="14" font-weight="bold" lengthAdjust="spacing" textLength="66.1104" x="712.9448" y="59.2305">Bootstrap</text><text fill="#000000" font-family="Arial" font-size="14" font-weight="bold" lengthAdjust="spacing" textLength="130.6348" x="680.6826" y="75.3291">(Composition Root)</text></g><!--cluster Presentation--><g class="cluster" data-entity="Presentation" data-source-line="31" data-uid="ent0012" id="cluster_Presentation"><rect fill="#4CAF50" height="202.75" rx="2.5" ry="2.5" style="stroke:#181818;stroke-width:1;" width="488" x="1183" y="254.1986"/><text fill="#000000" font-family="Arial" font-size="14" font-weight="bold" lengthAdjust="spacing" textLength="126.0479" x="1363.9761" y="269.3305">Presentation Layer</text><text fill="#000000" font-family="Arial" font-size="14" font-weight="bold" lengthAdjust="spacing" textLength="108.1035" x="1372.9482" y="285.4291">(Input Adapters)</text></g><!--cluster Application--><g class="cluster" data-entity="Application" data-source-line="43" data-uid="ent0018" id="cluster_Application"><rect fill="#2196F3" height="187.79" rx="2.5" ry="2.5" style="stroke:#181818;stroke-width:1;" width="722" x="949" y="520.9486"/><text fill="#000000" font-family="Arial" font-size="14" font-weight="bold" lengthAdjust="spacing" textLength="117.4688" x="1251.2656" y="536.0805">Application Layer</text><text fill="#000000" font-family="Arial" font-size="14" font-weight="bold" lengthAdjust="spacing" textLength="133.8271" x="1243.0864" y="552.1791">(Use Cases &amp; Ports)</text></g><!--cluster Infrastructure--><g class="cluster" data-entity="Infrastructure" data-source-line="54" data-uid="ent0024" id="cluster_Infrastructure"><rect fill="#FF9800" height="302.32" rx="2.5" ry="2.5" style="stroke:#181818;stroke-width:1;" width="937" x="7" y="787.7386"/><text fill="#000000" font-family="Arial" font-size="14" font-weight="bold" lengthAdjust="spacing" textLength="132.2686" x="409.3657" y="802.8705">Infrastructure Layer</text><text fill="#000000" font-family="Arial" font-size="14" font-weight="bold" lengthAdjust="spacing" textLength="119.7656" x="415.6172" y="818.9691">(Output Adapters)</text></g><!--cluster Domain--><g class="cluster" data-entity="Domain" data-source-line="66" data-uid="ent0032" id="cluster_Domain"><rect fill="#9C27B0" height="172.85" rx="2.5" ry="2.5" style="stroke:#181818;stroke-width:1;" width="924" x="1237" y="787.7386"/><text fill="#000000" font-family="Arial" font-size="14" font-weight="bold" lengthAdjust="spacing" textLength="92.5859" x="1652.707" y="802.8705">Domain Layer</text><text fill="#000000" font-family="Arial" font-size="14" font-weight="bold" lengthAdjust="spacing" textLength="112.793" x="1642.6035" y="818.9691">(Business Logic)</text></g><!--cluster Functional--><g class="cluster" data-entity="Functional" data-source-line="77" data-uid="ent0039" id="cluster_Functional"><rect fill="#00BCD4" height="140.85" rx="2.5" ry="2.5" style="stroke:#181818;stroke-width:1;" width="690" x="2201" y="819.7386"/><text fill="#000000" font-family="Arial" font-size="14" font-weight="bold" lengthAdjust="spacing" textLength="185.9238" x="2453.0381" y="834.8705">External: Functional Library</text></g><!--entity Hybrid.*--><g class="entity" data-entity="Hybrid.." data-source-line="16" data-uid="ent0003" id="entity_Hybrid.."><rect fill="#F1F1F1" height="46.0986" rx="2.5" ry="2.5" style="stroke:#181818;stroke-width:0.5;" width="89.793" x="92.1" y="367.5286"/><rect fill="#F1F1F1" height="10" style="stroke:#181818;stroke-width:0.5;" width="15" x="161.893" y="372.5286"/><rect fill="#F1F1F1" height="2" style="stroke:#181818;stroke-width:0.5;" width="4" x="159.893" y="374.5286"/><rect fill="#F1F1F1" height="2" style="stroke:#181818;stroke-width:0.5;" width="4" x="159.893" y="378.5286"/><text fill="#000000" font-family="Arial" font-size="14" lengthAdjust="spacing" textLength="49.793" x="107.1" y="400.6605">Hybrid.*</text></g><g class="entity" data-entity="GMN4" data-source-line="18" data-uid="ent0005" id="entity_GMN4"><path d="M217.26,363.1486 L217.26,386.5686 L182.35,390.5686 L217.26,394.5686 L217.26,417.9948 A0,0 0 0 0 217.26,417.9948 L416.7434,417.9948 A0,0 0 0 0 416.7434,417.9948 L416.7434,373.1486 L406.7434,363.1486 L217.26,363.1486 A0,0 0 0 0 217.26,363.1486" fill="#FEFFDD" style="stroke:#181818;stroke-width:0.5;"/><path d="M406.7434,363.1486 L406.7434,373.1486 L416.7434,373.1486 L406.7434,363.1486" fill="#FEFFDD" style="stroke:#181818;stroke-width:0.5;"/><text fill="#000000" font-family="Arial" font-size="13" font-weight="bold" lengthAdjust="spacing" textLength="178.4834" x="223.26" y="380.3425">Namespace parent packages</text><text fill="#000000" font-family="Arial" font-size="13" lengthAdjust="spacing" textLength="140.188" x="223.26" y="395.2912">No implementation code</text><text fill="#000000" font-family="Arial" font-size="13" lengthAdjust="spacing" textLength="130.7871" x="223.26" y="410.2399">Just package structure</text></g><!--entity Main Entry Point--><g class="entity" data-entity="Main Entry Point" data-source-line="25" data-uid="ent0008" id="entity_Main Entry Point"><rect fill="#F1F1F1" height="46.0986" rx="2.5" ry="2.5" style="stroke:#181818;stroke-width:0.5;" width="142.71" x="542.65" y="138.0986"/><rect fill="#F1F1F1" height="10" style="stroke:#181818;stroke-width:0.5;" width="15" x="665.36" y="143.0986"/><rect fill="#F1F1F1" height="2" style="stroke:#181818;stroke-width:0.5;" width="4" x="663.36" y="145.0986"/><rect fill="#F1F1F1" height="2" style="stroke:#181818;stroke-width:0.5;" width="4" x="663.36" y="149.0986"/><text fill="#000000" font-family="Arial" font-size="14" lengthAdjust="spacing" textLength="102.71" x="557.65" y="171.2305">Main Entry Point</text></g><!--entity Generic Instantiation Chain--><g class="entity" data-entity="Generic Instantiation Chain" data-source-line="26" data-uid="ent0009" id="entity_Generic Instantiation Chain"><rect fill="#F1F1F1" height="46.0986" rx="2.5" ry="2.5" style="stroke:#181818;stroke-width:0.5;" width="208.875" x="720.56" y="138.0986"/><rect fill="#F1F1F1" height="10" style="stroke:#181818;stroke-width:0.5;" width="15" x="909.435" y="143.0986"/><rect fill="#F1F1F1" height="2" style="stroke:#181818;stroke-width:0.5;" width="4" x="907.435" y="145.0986"/><rect fill="#F1F1F1" height="2" style="stroke:#181818;stroke-width:0.5;" width="4" x="907.435" y="149.0986"/><text fill="#000000" font-family="Arial" font-size="14" lengthAdjust="spacing" textLength="168.875" x="735.56" y="171.2305">Generic Instantiation Chain</text></g><!--entity Dependency Wiring--><g class="entity" data-entity="Dependency Wiring" data-source-line="27" data-uid="ent0010" id="entity_Dependency Wiring"><rect fill="#F1F1F1" height="46.0986" rx="2.5" ry="2.5" style="stroke:#181818;stroke-width:0.5;" width="162.1719" x="542.91" y="367.5286"/><rect fill="#F1F1F1" height="10" style="stroke:#181818;stroke-width:0.5;" width="15" x="685.0819" y="372.5286"/><rect fill="#F1F1F1" height="2" style="stroke:#181818;stroke-width:0.5;" width="4" x="683.0819" y="374.5286"/><rect fill="#F1F1F1" height="2" style="stroke:#181818;stroke-width:0.5;" width="4" x="683.0819" y="378.5286"/><text fill="#000000" font-family="Arial" font-size="14" lengthAdjust="spacing" textLength="122.1719" x="557.91" y="400.6605">Dependency Wiring</text></g><!--entity Signal Handling--><g class="entity" data-entity="Signal Handling" data-source-line="28" data-uid="ent0011" id="entity_Signal Handling"><rect fill="#F1F1F1" height="46.0986" rx="2.5" ry="2.5" style="stroke:#181818;stroke-width:0.5;" width="138.0684" x="739.97" y="367.5286"/><rect fill="#F1F1F1" height="10" style="stroke:#181818;stroke-width:0.5;" width="15" x="858.0384" y="372.5286"/><rect fill="#F1F1F1" height="2" style="stroke:#181818;stroke-width:0.5;" width="4" x="856.0384" y="374.5286"/><rect fill="#F1F1F1" height="2" style="stroke:#181818;stroke-width:0.5;" width="4" x="856.0384" y="378.5286"/><text fill="#000000" font-family="Arial" font-size="14" lengthAdjust="spacing" textLength="98.0684" x="754.97" y="400.6605">Signal Handling</text></g><!--entity CLI (generic)--><g class="entity" data-entity="CLI .generic." data-source-line="32" data-uid="ent0013" id="entity_CLI .generic."><rect fill="#F1F1F1" height="46.0986" rx="2.5" ry="2.5" style="stroke:#181818;stroke-width:0.5;" width="120.917" x="1506.54" y="367.5286"/><rect fill="#F1F1F1" height="10" style="stroke:#181818;stroke-width:0.5;" width="15" x="1607.457" y="372.5286"/><rect fill="#F1F1F1" height="2" style="stroke:#181818;stroke-width:0.5;" width="4" x="1605.457" y="374.5286"/><rect fill="#F1F1F1" height="2" style="stroke:#181818;stroke-width:0.5;" width="4" x="1605.457" y="378.5286"/><text fill="#000000" font-family="Arial" font-size="14" lengthAdjust="spacing" textLength="80.917" x="1521.54" y="400.6605">CLI (generic)</text></g><!--entity Exit Codes--><g class="entity" data-entity="Exit Codes" data-source-line="33" data-uid="ent0014" id="entity_Exit Codes"><rect fill="#F1F1F1" height="46.0986" rx="2.5" ry="2.5" style="stroke:#181818;stroke-width:0.5;" width="107.6963" x="1207.15" y="367.5286"/><rect fill="#F1F1F1" height="10" style="stroke:#181818;stroke-width:0.5;" width="15" x="1294.8463" y="372.5286"/><rect fill="#F1F1F1" height="2" style="stroke:#181818;stroke-width:0.5;" width="4" x="1292.8463" y="374.5286"/><rect fill="#F1F1F1" height="2" style="stroke:#181818;stroke-width:0.5;" width="4" x="1292.8463" y="378.5286"/><text fill="#000000" font-family="Arial" font-size="14" lengthAdjust="spacing" textLength="67.6963" x="1222.15" y="400.6605">Exit Codes</text></g><g class="entity" data-entity="GMN15" data-source-line="35" data-uid="ent0016" id="entity_GMN15"><path d="M1350.28,348.1986 L1350.28,386.5686 L1315.2,390.5686 L1350.28,394.5686 L1350.28,432.9423 A0,0 0 0 0 1350.28,432.9423 L1471.7126,432.9423 A0,0 0 0 0 1471.7126,432.9423 L1471.7126,358.1986 L1461.7126,348.1986 L1350.28,348.1986 A0,0 0 0 0 1350.28,348.1986" fill="#FEFFDD" style="stroke:#181818;stroke-width:0.5;"/><path d="M1461.7126,348.1986 L1461.7126,358.1986 L1471.7126,358.1986 L1461.7126,348.1986" fill="#FEFFDD" style="stroke:#181818;stroke-width:0.5;"/><text fill="#000000" font-family="Arial" font-size="13" font-weight="bold" lengthAdjust="spacing" textLength="83.8145" x="1356.28" y="365.3925">Generic over:</text><text fill="#000000" font-family="Arial" font-size="13" lengthAdjust="spacing" textLength="95.3735" x="1356.28" y="380.3412">- App_Error type</text><text fill="#000000" font-family="Arial" font-size="13" lengthAdjust="spacing" textLength="97.5508" x="1356.28" y="395.2899">- Result package</text><text fill="#000000" font-family="Arial" font-size="13" lengthAdjust="spacing" textLength="100.4326" x="1356.28" y="410.2387">- Service function</text><text fill="#000000" font-family="Arial" font-size="13" lengthAdjust="spacing" textLength="96.1099" x="1356.28" y="425.1874">- Output function</text></g><!--entity Services (generic)--><g class="entity" data-entity="Services .generic." data-source-line="44" data-uid="ent0019" id="entity_Services .generic."><rect fill="#F1F1F1" height="46.0986" rx="2.5" ry="2.5" style="stroke:#181818;stroke-width:0.5;" width="152.8135" x="1474.59" y="626.7886"/><rect fill="#F1F1F1" height="10" style="stroke:#181818;stroke-width:0.5;" width="15" x="1607.4035" y="631.7886"/><rect fill="#F1F1F1" height="2" style="stroke:#181818;stroke-width:0.5;" width="4" x="1605.4035" y="633.7886"/><rect fill="#F1F1F1" height="2" style="stroke:#181818;stroke-width:0.5;" width="4" x="1605.4035" y="637.7886"/><text fill="#000000" font-family="Arial" font-size="14" lengthAdjust="spacing" textLength="112.8135" x="1489.59" y="659.9205">Services (generic)</text></g><!--entity Port Signatures (generic)--><g class="entity" data-entity="Port Signatures .generic." data-source-line="45" data-uid="ent0020" id="entity_Port Signatures .generic."><rect fill="#F1F1F1" height="46.0986" rx="2.5" ry="2.5" style="stroke:#181818;stroke-width:0.5;" width="195.627" x="973.19" y="626.7886"/><rect fill="#F1F1F1" height="10" style="stroke:#181818;stroke-width:0.5;" width="15" x="1148.817" y="631.7886"/><rect fill="#F1F1F1" height="2" style="stroke:#181818;stroke-width:0.5;" width="4" x="1146.817" y="633.7886"/><rect fill="#F1F1F1" height="2" style="stroke:#181818;stroke-width:0.5;" width="4" x="1146.817" y="637.7886"/><text fill="#000000" font-family="Arial" font-size="14" lengthAdjust="spacing" textLength="155.627" x="988.19" y="659.9205">Port Signatures (generic)</text></g><g class="entity" data-entity="GMN21" data-source-line="47" data-uid="ent0022" id="entity_GMN21"><path d="M1204.2,614.9486 L1204.2,645.8386 L1169.05,649.8386 L1204.2,653.8386 L1204.2,684.7436 A0,0 0 0 0 1204.2,684.7436 L1439.7952,684.7436 A0,0 0 0 0 1439.7952,684.7436 L1439.7952,624.9486 L1429.7952,614.9486 L1204.2,614.9486 A0,0 0 0 0 1204.2,614.9486" fill="#FEFFDD" style="stroke:#181818;stroke-width:0.5;"/><path d="M1429.7952,614.9486 L1429.7952,624.9486 L1439.7952,624.9486 L1429.7952,614.9486" fill="#FEFFDD" style="stroke:#181818;stroke-width:0.5;"/><text fill="#000000" font-family="Arial" font-size="13" font-weight="bold" lengthAdjust="spacing" textLength="150.979" x="1210.2" y="632.1425">Port Signature Example:</text><text fill="#000000" font-family="Arial" font-size="13" lengthAdjust="spacing" textLength="42.6372" x="1210.2" y="647.0912">generic</text><text fill="#000000" font-family="Arial" font-size="13" lengthAdjust="spacing" textLength="207.3716" x="1217.4236" y="662.0399">with function Send(...) return Result;</text><text fill="#000000" font-family="Arial" font-size="13" lengthAdjust="spacing" textLength="143.7998" x="1210.2" y="676.9887">package Output.API is ...</text></g><!--entity Console Output (generic)--><g class="entity" data-entity="Console Output .generic." data-source-line="55" data-uid="ent0025" id="entity_Console Output .generic."><rect fill="#F1F1F1" height="46.0986" rx="2.5" ry="2.5" style="stroke:#181818;stroke-width:0.5;" width="196.4131" x="525.79" y="886.1186"/><rect fill="#F1F1F1" height="10" style="stroke:#181818;stroke-width:0.5;" width="15" x="702.2031" y="891.1186"/><rect fill="#F1F1F1" height="2" style="stroke:#181818;stroke-width:0.5;" width="4" x="700.2031" y="893.1186"/><rect fill="#F1F1F1" height="2" style="stroke:#181818;stroke-width:0.5;" width="4" x="700.2031" y="897.1186"/><text fill="#000000" font-family="Arial" font-size="14" lengthAdjust="spacing" textLength="156.4131" x="540.79" y="919.2505">Console Output (generic)</text></g><!--entity Logger (generic)--><g class="entity" data-entity="Logger .generic." data-source-line="56" data-uid="ent0026" id="entity_Logger .generic."><rect fill="#F1F1F1" height="46.0986" rx="2.5" ry="2.5" style="stroke:#181818;stroke-width:0.5;" width="142.7236" x="757.64" y="886.1186"/><rect fill="#F1F1F1" height="10" style="stroke:#181818;stroke-width:0.5;" width="15" x="880.3636" y="891.1186"/><rect fill="#F1F1F1" height="2" style="stroke:#181818;stroke-width:0.5;" width="4" x="878.3636" y="893.1186"/><rect fill="#F1F1F1" height="2" style="stroke:#181818;stroke-width:0.5;" width="4" x="878.3636" y="897.1186"/><text fill="#000000" font-family="Arial" font-size="14" lengthAdjust="spacing" textLength="102.7236" x="772.64" y="919.2505">Logger (generic)</text></g><!--entity Result Adapter (generic)--><g class="entity" data-entity="Result Adapter .generic." data-source-line="57" data-uid="ent0027" id="entity_Result Adapter .generic."><rect fill="#F1F1F1" height="46.0986" rx="2.5" ry="2.5" style="stroke:#181818;stroke-width:0.5;" width="191.7373" x="528.13" y="1019.9586"/><rect fill="#F1F1F1" height="10" style="stroke:#181818;stroke-width:0.5;" width="15" x="699.8673" y="1024.9586"/><rect fill="#F1F1F1" height="2" style="stroke:#181818;stroke-width:0.5;" width="4" x="697.8673" y="1026.9586"/><rect fill="#F1F1F1" height="2" style="stroke:#181818;stroke-width:0.5;" width="4" x="697.8673" y="1030.9586"/><text fill="#000000" font-family="Arial" font-size="14" lengthAdjust="spacing" textLength="151.7373" x="543.13" y="1053.0905">Result Adapter (generic)</text></g><!--entity Functional Library Bridge--><g class="entity" data-entity="Functional Library Bridge" data-source-line="58" data-uid="ent0028" id="entity_Functional Library Bridge"><rect fill="#F1F1F1" height="46.0986" rx="2.5" ry="2.5" style="stroke:#181818;stroke-width:0.5;" width="195.6338" x="31.18" y="886.1186"/><rect fill="#F1F1F1" height="10" style="stroke:#181818;stroke-width:0.5;" width="15" x="206.8138" y="891.1186"/><rect fill="#F1F1F1" height="2" style="stroke:#181818;stroke-width:0.5;" width="4" x="204.8138" y="893.1186"/><rect fill="#F1F1F1" height="2" style="stroke:#181818;stroke-width:0.5;" width="4" x="204.8138" y="897.1186"/><text fill="#000000" font-family="Arial" font-size="14" lengthAdjust="spacing" textLength="155.6338" x="46.18" y="919.2505">Functional Library Bridge</text></g><g class="entity" data-entity="GMN29" data-source-line="60" data-uid="ent0030" id="entity_GMN29"><path d="M261.45,881.7386 L261.45,905.1586 L226.93,909.1586 L261.45,913.1586 L261.45,936.5848 A0,0 0 0 0 261.45,936.5848 L490.5452,936.5848 A0,0 0 0 0 490.5452,936.5848 L490.5452,891.7386 L480.5452,881.7386 L261.45,881.7386 A0,0 0 0 0 261.45,881.7386" fill="#FEFFDD" style="stroke:#181818;stroke-width:0.5;"/><path d="M480.5452,881.7386 L480.5452,891.7386 L490.5452,891.7386 L480.5452,881.7386" fill="#FEFFDD" style="stroke:#181818;stroke-width:0.5;"/><text fill="#000000" font-family="Arial" font-size="13" font-weight="bold" lengthAdjust="spacing" textLength="208.0952" x="267.45" y="898.9325">Adapters are themselves generic!</text><text fill="#000000" font-family="Arial" font-size="13" lengthAdjust="spacing" textLength="187.167" x="267.45" y="913.8812">Instantiated with Result package</text><text fill="#000000" font-family="Arial" font-size="13" lengthAdjust="spacing" textLength="141.6479" x="267.45" y="928.8299">Bound to port signatures</text></g><!--entity Value Objects (generic)--><g class="entity" data-entity="Value Objects .generic." data-source-line="67" data-uid="ent0033" id="entity_Value Objects .generic."><rect fill="#F1F1F1" height="46.0986" rx="2.5" ry="2.5" style="stroke:#181818;stroke-width:0.5;" width="186.2891" x="1690.86" y="886.1186"/><rect fill="#F1F1F1" height="10" style="stroke:#181818;stroke-width:0.5;" width="15" x="1857.1491" y="891.1186"/><rect fill="#F1F1F1" height="2" style="stroke:#181818;stroke-width:0.5;" width="4" x="1855.1491" y="893.1186"/><rect fill="#F1F1F1" height="2" style="stroke:#181818;stroke-width:0.5;" width="4" x="1855.1491" y="897.1186"/><text fill="#000000" font-family="Arial" font-size="14" lengthAdjust="spacing" textLength="146.2891" x="1705.86" y="919.2505">Value Objects (generic)</text></g><!--entity Domain Services (generic)--><g class="entity" data-entity="Domain Services .generic." data-source-line="68" data-uid="ent0034" id="entity_Domain Services .generic."><rect fill="#F1F1F1" height="46.0986" rx="2.5" ry="2.5" style="stroke:#181818;stroke-width:0.5;" width="204.9443" x="1912.53" y="886.1186"/><rect fill="#F1F1F1" height="10" style="stroke:#181818;stroke-width:0.5;" width="15" x="2097.4743" y="891.1186"/><rect fill="#F1F1F1" height="2" style="stroke:#181818;stroke-width:0.5;" width="4" x="2095.4743" y="893.1186"/><rect fill="#F1F1F1" height="2" style="stroke:#181818;stroke-width:0.5;" width="4" x="2095.4743" y="897.1186"/><text fill="#000000" font-family="Arial" font-size="14" lengthAdjust="spacing" textLength="164.9443" x="1927.53" y="919.2505">Domain Services (generic)</text></g><!--entity Port Interfaces (generic)--><g class="entity" data-entity="Port Interfaces .generic." data-source-line="69" data-uid="ent0035" id="entity_Port Interfaces .generic."><rect fill="#F1F1F1" height="46.0986" rx="2.5" ry="2.5" style="stroke:#181818;stroke-width:0.5;" width="190.1719" x="1260.91" y="886.1186"/><rect fill="#F1F1F1" height="10" style="stroke:#181818;stroke-width:0.5;" width="15" x="1431.0819" y="891.1186"/><rect fill="#F1F1F1" height="2" style="stroke:#181818;stroke-width:0.5;" width="4" x="1429.0819" y="893.1186"/><rect fill="#F1F1F1" height="2" style="stroke:#181818;stroke-width:0.5;" width="4" x="1429.0819" y="897.1186"/><text fill="#000000" font-family="Arial" font-size="14" lengthAdjust="spacing" textLength="150.1719" x="1275.91" y="919.2505">Port Interfaces (generic)</text></g><g class="entity" data-entity="GMN36" data-source-line="71" data-uid="ent0037" id="entity_GMN36"><path d="M1485.72,881.7386 L1485.72,905.1586 L1451.32,909.1586 L1485.72,913.1586 L1485.72,936.5848 A0,0 0 0 0 1485.72,936.5848 L1656.2835,936.5848 A0,0 0 0 0 1656.2835,936.5848 L1656.2835,891.7386 L1646.2835,881.7386 L1485.72,881.7386 A0,0 0 0 0 1485.72,881.7386" fill="#FEFFDD" style="stroke:#181818;stroke-width:0.5;"/><path d="M1646.2835,881.7386 L1646.2835,891.7386 L1656.2835,891.7386 L1646.2835,881.7386" fill="#FEFFDD" style="stroke:#181818;stroke-width:0.5;"/><text fill="#000000" font-family="Arial" font-size="13" font-weight="bold" lengthAdjust="spacing" textLength="118.479" x="1491.72" y="898.9325">Zero dependencies</text><text fill="#000000" font-family="Arial" font-size="13" lengthAdjust="spacing" textLength="149.5635" x="1491.72" y="913.8812">Generic over Result types</text><text fill="#000000" font-family="Arial" font-size="13" lengthAdjust="spacing" textLength="112.728" x="1491.72" y="928.8299">Pure business logic</text></g><!--entity Result<T,E>--><g class="entity" data-entity="Result.T.E." data-source-line="78" data-uid="ent0040" id="entity_Result.T.E."><rect fill="#F1F1F1" height="46.0986" rx="2.5" ry="2.5" style="stroke:#181818;stroke-width:0.5;" width="117.8135" x="2589.09" y="886.1186"/><rect fill="#F1F1F1" height="10" style="stroke:#181818;stroke-width:0.5;" width="15" x="2686.9035" y="891.1186"/><rect fill="#F1F1F1" height="2" style="stroke:#181818;stroke-width:0.5;" width="4" x="2684.9035" y="893.1186"/><rect fill="#F1F1F1" height="2" style="stroke:#181818;stroke-width:0.5;" width="4" x="2684.9035" y="897.1186"/><text fill="#000000" font-family="Arial" font-size="14" lengthAdjust="spacing" textLength="77.8135" x="2604.09" y="919.2505">Result&lt;T,E&gt;</text></g><!--entity Option<T>--><g class="entity" data-entity="Option.T." data-source-line="79" data-uid="ent0041" id="entity_Option.T."><rect fill="#F1F1F1" height="46.0986" rx="2.5" ry="2.5" style="stroke:#181818;stroke-width:0.5;" width="106.1514" x="2741.92" y="886.1186"/><rect fill="#F1F1F1" height="10" style="stroke:#181818;stroke-width:0.5;" width="15" x="2828.0714" y="891.1186"/><rect fill="#F1F1F1" height="2" style="stroke:#181818;stroke-width:0.5;" width="4" x="2826.0714" y="893.1186"/><rect fill="#F1F1F1" height="2" style="stroke:#181818;stroke-width:0.5;" width="4" x="2826.0714" y="897.1186"/><text fill="#000000" font-family="Arial" font-size="14" lengthAdjust="spacing" textLength="66.1514" x="2756.92" y="919.2505">Option&lt;T&gt;</text></g><!--entity Either<L,R>--><g class="entity" data-entity="Either.L.R." data-source-line="80" data-uid="ent0042" id="entity_Either.L.R."><rect fill="#F1F1F1" height="46.0986" rx="2.5" ry="2.5" style="stroke:#181818;stroke-width:0.5;" width="114.71" x="2224.65" y="886.1186"/><rect fill="#F1F1F1" height="10" style="stroke:#181818;stroke-width:0.5;" width="15" x="2319.36" y="891.1186"/><rect fill="#F1F1F1" height="2" style="stroke:#181818;stroke-width:0.5;" width="4" x="2317.36" y="893.1186"/><rect fill="#F1F1F1" height="2" style="stroke:#181818;stroke-width:0.5;" width="4" x="2317.36" y="897.1186"/><text fill="#000000" font-family="Arial" font-size="14" lengthAdjust="spacing" textLength="74.71" x="2239.65" y="919.2505">Either&lt;L,R&gt;</text></g><g class="entity" data-entity="GMN43" data-source-line="82" data-uid="ent0044" id="entity_GMN43"><path d="M2374.02,881.7386 L2374.02,905.1586 L2339.59,909.1586 L2374.02,913.1586 L2374.02,936.5848 A0,0 0 0 0 2374.02,936.5848 L2553.978,936.5848 A0,0 0 0 0 2553.978,936.5848 L2553.978,891.7386 L2543.978,881.7386 L2374.02,881.7386 A0,0 0 0 0 2374.02,881.7386" fill="#FEFFDD" style="stroke:#181818;stroke-width:0.5;"/><path d="M2543.978,881.7386 L2543.978,891.7386 L2553.978,891.7386 L2543.978,881.7386" fill="#FEFFDD" style="stroke:#181818;stroke-width:0.5;"/><text fill="#000000" font-family="Arial" font-size="13" font-weight="bold" lengthAdjust="spacing" textLength="148.0781" x="2380.02" y="898.9325">Third-party dependency</text><text fill="#000000" font-family="Arial" font-size="13" lengthAdjust="spacing" textLength="150.2871" x="2380.02" y="913.8812">Wrapped by Infrastructure</text><text fill="#000000" font-family="Arial" font-size="13" lengthAdjust="spacing" textLength="158.958" x="2380.02" y="928.8299">Not used directly in Domain</text></g><g class="entity" data-entity="GMN60" data-source-line="108" data-uid="ent0061" id="entity_GMN60"><path d="M2022.33,355.6786 L2022.33,425.4736 L2245.6615,425.4736 L2245.6615,365.6786 L2235.6615,355.6786 L2022.33,355.6786" fill="#FEFFDD" style="stroke:#181818;stroke-width:0.5;"/><path d="M2235.6615,355.6786 L2235.6615,365.6786 L2245.6615,365.6786 L2235.6615,355.6786" fill="#FEFFDD" style="stroke:#181818;stroke-width:1;"/><text fill="#000000" font-family="Arial" font-size="13" font-weight="bold" lengthAdjust="spacing" textLength="200.8462" x="2028.33" y="372.8725">Only layer with all dependencies</text><text fill="#000000" font-family="Arial" font-size="13" lengthAdjust="spacing" textLength="195.0889" x="2028.33" y="387.8212">Performs all generic instantiations</text><text fill="#000000" font-family="Arial" font-size="13" lengthAdjust="spacing" textLength="134.3862" x="2028.33" y="402.7699">Wires adapters to ports</text><text fill="#000000" font-family="Arial" font-size="13" lengthAdjust="spacing" textLength="202.3315" x="2028.33" y="417.7187">Compile-time dependency injection</text></g><g class="entity" data-entity="GMN63" data-source-line="115" data-uid="ent0064" id="entity_GMN63"><path d="M2034.65,1015.5886 L2034.65,1070.4348 L2271.3561,1070.4348 L2271.3561,1025.5886 L2261.3561,1015.5886 L2034.65,1015.5886" fill="#FEFFDD" style="stroke:#181818;stroke-width:0.5;"/><path d="M2261.3561,1015.5886 L2261.3561,1025.5886 L2271.3561,1025.5886 L2261.3561,1015.5886" fill="#FEFFDD" style="stroke:#181818;stroke-width:1;"/><text fill="#000000" font-family="Arial" font-size="13" font-weight="bold" lengthAdjust="spacing" textLength="203.7725" x="2040.65" y="1032.7825">No "with" clauses to other layers</text><text fill="#000000" font-family="Arial" font-size="13" lengthAdjust="spacing" textLength="210.2534" x="2040.65" y="1047.7312">Defines port interfaces (Result_Port)</text><text fill="#000000" font-family="Arial" font-size="13" lengthAdjust="spacing" textLength="215.7061" x="2040.65" y="1062.6799">Pure business logic + type signatures</text></g><g class="entity" data-entity="GMN66" data-source-line="121" data-uid="ent0067" id="entity_GMN66"><path d="M971.32,874.2686 L971.32,944.0636 L1212.6725,944.0636 L1212.6725,884.2686 L1202.6725,874.2686 L971.32,874.2686" fill="#FEFFDD" style="stroke:#181818;stroke-width:0.5;"/><path d="M1202.6725,874.2686 L1202.6725,884.2686 L1212.6725,884.2686 L1202.6725,874.2686" fill="#FEFFDD" style="stroke:#181818;stroke-width:1;"/><text fill="#000000" font-family="Arial" font-size="13" font-weight="bold" lengthAdjust="spacing" textLength="220.3525" x="977.32" y="891.4625">Defines port signatures as generics</text><text fill="#000000" font-family="Arial" font-size="13" lengthAdjust="spacing" textLength="179.9116" x="977.32" y="906.4112">Services are generic over ports</text><text fill="#000000" font-family="Arial" font-size="13" lengthAdjust="spacing" textLength="168.3589" x="977.32" y="921.3599">No concrete implementations</text><text fill="#000000" font-family="Arial" font-size="13" lengthAdjust="spacing" textLength="202.3379" x="977.32" y="936.3087">Dependency Inversion via generics</text></g><!--link Bootstrap to Shared--><g class="link" data-entity-1="Bootstrap" data-entity-2="Shared" data-source-line="89" data-uid="lnk46" id="link_Bootstrap_Shared"><path d="M518.8372,244.6272 C517.963,245.3833 517.0996,246.1527 516.247,246.9348 C512.8363,250.063 509.5967,253.3941 506.5204,256.888 C500.3679,263.8758 494.8687,271.5149 489.9605,279.4849 C480.1441,295.4249 472.6919,312.6886 467.1063,328.7136 C464.3134,336.7261 463.5605,338.6389 461.6387,345.7117" fill="none" id="Bootstrap-to-Shared" style="stroke:#181818;stroke-width:1;"/><polygon fill="#181818" points="460.0655,351.5018,466.2854,343.8654,461.3765,346.6767,458.5653,341.7678,460.0655,351.5018" style="stroke:#181818;stroke-width:1;"/><text fill="#000000" font-family="Arial" font-size="13" lengthAdjust="spacing" textLength="65.7617" x="563.64" y="227.3925">instantiates</text></g><!--link Bootstrap to Presentation--><g class="link" data-entity-1="Bootstrap" data-entity-2="Presentation" data-source-line="90" data-uid="lnk47" id="link_Bootstrap_Presentation"><path d="M973.7151,162.4917 C978.7569,162.6925 985.8774,162.9835 994.7918,163.3666 C1012.6206,164.1327 1037.6253,165.2667 1067.5288,166.7822 C1127.3356,169.8133 1206.7375,174.3705 1287.5175,180.5624 C1449.0775,192.9461 1616.15,211.8686 1643,238.1986 C1666.85,261.5836 1672.0675,298.6186 1671.2163,330.2024 C1671.1896,331.1894 1671.1571,332.171 1671.119,333.1468 C1671.1,333.6347 1671.0796,334.1211 1671.0578,334.6059 C1671.047,334.8484 1671.322,329.0972 1671.3105,329.3389" fill="none" id="Bootstrap-to-Presentation" style="stroke:#181818;stroke-width:1;"/><polygon fill="#181818" points="1671.0242,335.3321,1675.4491,326.5332,1671.2628,330.3378,1667.4582,326.1515,1671.0242,335.3321" style="stroke:#181818;stroke-width:1;"/><text fill="#000000" font-family="Arial" font-size="13" lengthAdjust="spacing" textLength="65.7617" x="1628.36" y="227.3925">instantiates</text></g><!--link Bootstrap to Application--><g class="link" data-entity-1="Bootstrap" data-entity-2="Application" data-source-line="91" data-uid="lnk48" id="link_Bootstrap_Application"><path d="M973.0748,174.5375 C973.1616,174.6728 973.2489,174.809 973.3367,174.946 C973.6878,175.494 974.0466,176.0552 974.4125,176.6286 C975.1442,177.7754 975.9039,178.9711 976.6863,180.2086 C982.945,190.1086 990.65,202.6786 997,214.1986 C1058.84,326.3886 1017.41,401.8786 1124,472.9486 C1220.14,537.0486 1558.23,426.4186 1643,504.9486 C1645.9144,507.648 1648.5459,510.5599 1650.9182,513.6479 C1652.1044,515.1919 1653.2258,516.7799 1654.2854,518.4075 C1654.8152,519.2212 1652.2448,514.8986 1652.7441,515.7315" fill="none" id="Bootstrap-to-Application" style="stroke:#181818;stroke-width:1;"/><polygon fill="#181818" points="1655.8288,520.8778,1654.6326,511.1019,1653.2582,516.5892,1647.7709,515.2148,1655.8288,520.8778" style="stroke:#181818;stroke-width:1;"/><text fill="#000000" font-family="Arial" font-size="13" lengthAdjust="spacing" textLength="65.7617" x="1125" y="395.7625">instantiates</text></g><!--link Bootstrap to Infrastructure--><g class="link" data-entity-1="Bootstrap" data-entity-2="Infrastructure" data-source-line="92" data-uid="lnk49" id="link_Bootstrap_Infrastructure"><path d="M947.5104,438.575 C947.2682,442.5751 947.0262,446.5812 946.7846,450.5906 C945.8182,466.6281 944.8587,482.7169 943.9192,498.6757 C942.0402,530.5934 940.2412,561.9913 938.627,591.4189 C935.3988,650.2743 932.91,701.2486 932,732.7386 C931.6,746.5086 931.81,749.9586 932,763.7386 C932.055,767.6886 932.1184,771.6993 932.1888,775.7481 C932.2241,777.7725 932.2611,779.8065 932.2998,781.8472 C932.3191,782.8676 932.3388,783.8896 932.3589,784.913 C932.369,785.4247 932.3791,785.9367 932.3894,786.4491 C932.3945,786.7052 932.2786,780.9627 932.2838,781.219" fill="none" id="Bootstrap-to-Infrastructure" style="stroke:#181818;stroke-width:1;"/><polygon fill="#181818" points="932.4048,787.2178,936.2224,778.1389,932.304,782.2188,928.2241,778.3003,932.4048,787.2178" style="stroke:#181818;stroke-width:1;"/><text fill="#000000" font-family="Arial" font-size="13" lengthAdjust="spacing" textLength="65.7617" x="945.85" y="494.1425">instantiates</text></g><!--link Bootstrap to Domain--><g class="link" data-entity-1="Bootstrap" data-entity-2="Domain" data-source-line="93" data-uid="lnk50" id="link_Bootstrap_Domain"><path d="M973.3013,162.3515 C973.6196,162.3592 973.9465,162.3672 974.2821,162.3754 C979.6517,162.5061 987.2372,162.6958 996.7393,162.9465 C1015.7437,163.4477 1042.4148,164.1925 1074.3597,165.195 C1138.2494,167.2002 1223.2338,170.2368 1310.1675,174.4199 C1484.035,182.7861 1665.7,195.7386 1702,214.1986 C1981.16,356.1986 2017.64,480.5586 2133,771.7386 C2134.3888,775.2436 2135.6823,778.8338 2136.8871,782.4852 C2137.1883,783.3981 2137.484,784.3148 2137.7742,785.235 C2137.9193,785.6951 2138.063,786.156 2138.2054,786.6178 C2138.2766,786.8487 2136.5975,781.3407 2136.668,781.572" fill="none" id="Bootstrap-to-Domain" style="stroke:#181818;stroke-width:1;"/><polygon fill="#181818" points="2138.418,787.3111,2139.6191,777.5357,2136.9597,782.5285,2131.967,779.869,2138.418,787.3111" style="stroke:#181818;stroke-width:1;"/><text fill="#000000" font-family="Arial" font-size="13" lengthAdjust="spacing" textLength="65.7617" x="2015.24" y="494.1425">instantiates</text></g><!--link Presentation to Application--><g class="link" data-entity-1="Presentation" data-entity-2="Application" data-source-line="95" data-uid="lnk51" id="link_Presentation_Application"><path d="M1663,457.416 C1663,459.1681 1663,460.9409 1663,462.7323 C1663,466.3152 1663,469.973 1663,473.6907 C1663,488.5615 1663,498.3908 1663,514.2199" fill="none" id="Presentation-to-Application" style="stroke:#181818;stroke-width:1;"/><polygon fill="#181818" points="1663,520.2199,1667,511.2199,1663,515.2199,1659,511.2199,1663,520.2199" style="stroke:#181818;stroke-width:1;"/><text fill="#000000" font-family="Arial" font-size="13" lengthAdjust="spacing" textLength="71.5381" x="1664" y="494.1425">generic over</text></g><!--link Presentation to Domain--><g class="link" data-entity-1="Presentation" data-entity-2="Domain" data-source-line="96" data-uid="lnk52" id="link_Presentation_Domain"><path d="M1671.0779,399.2253 C1671.1552,399.2998 1671.233,399.3748 1671.3112,399.4502 C1671.4677,399.6011 1671.626,399.7539 1671.7862,399.9087 C1672.1066,400.2181 1672.4343,400.5353 1672.7692,400.8599 C1678.1272,406.0536 1685.3094,413.1636 1693.3438,421.5086 C1709.4125,438.1986 1728.89,459.8286 1744,480.9486 C1816.07,581.6786 1793.26,635.3586 1879,724.7386 C1902.06,748.7786 1911.13,754.0686 1943,763.7386 C1963.22,769.8786 2117.31,757.5886 2133,771.7386 C2135.8,774.263 2138.3312,776.9932 2140.616,779.8942 C2141.7584,781.3448 2142.8392,782.838 2143.8613,784.3696 C2144.3723,785.1355 2144.8686,785.9109 2145.3506,786.6953 C2145.4711,786.8914 2142.4967,781.9474 2142.6154,782.1446" fill="none" id="Presentation-to-Domain" style="stroke:#181818;stroke-width:1;stroke-dasharray:7,7;"/><polygon fill="#181818" points="2145.7094,787.2853,2144.4955,777.5116,2143.1311,783.0014,2137.6412,781.6369,2145.7094,787.2853" style="stroke:#181818;stroke-width:1;"/><text fill="#000000" font-family="Arial" font-size="13" lengthAdjust="spacing" textLength="62.1436" x="1880" y="655.0325">uses types</text></g><!--link Application to Domain--><g class="link" data-entity-1="Application" data-entity-2="Domain" data-source-line="98" data-uid="lnk53" id="link_Application_Domain"><path d="M1646.4474,709.1321 C1646.4284,709.3241 1646.4098,709.5162 1646.3916,709.7084 C1646.3552,710.0928 1646.3205,710.4776 1646.2877,710.8625 C1646.222,711.6324 1646.1634,712.4033 1646.1124,713.1748 C1645.7043,719.3466 1645.7795,725.5546 1646.5422,731.578 C1648.0675,743.6249 1652.3425,754.9336 1661,763.7386 C1679.39,782.4386 2113.3,754.4286 2133,771.7386 C2135.8319,774.228 2138.391,776.9275 2140.7003,779.8017 C2141.8549,781.2388 2142.947,782.7197 2143.9796,784.2398 C2144.4958,784.9999 2144.9972,785.7697 2145.484,786.5489 C2145.7274,786.9385 2142.8832,782.1836 2143.1194,782.5778" fill="none" id="Application-to-Domain" style="stroke:#181818;stroke-width:1;"/><polygon fill="#181818" points="2146.2034,787.7245,2145.0085,777.9484,2143.6334,783.4356,2138.1462,782.0604,2146.2034,787.7245" style="stroke:#181818;stroke-width:1;"/><text fill="#000000" font-family="Arial" font-size="13" lengthAdjust="spacing" textLength="71.5381" x="1662" y="753.4325">generic over</text></g><!--link Application to Infrastructure--><g class="link" data-entity-1="Application" data-entity-2="Infrastructure" data-source-line="99" data-uid="lnk54" id="link_Application_Infrastructure"><path d="M1655.4353,709.0034 C1655.3786,709.1182 1655.3215,709.2327 1655.2641,709.3471 C1655.0344,709.8044 1654.7988,710.2582 1654.5572,710.7081 C1653.5906,712.508 1652.5271,714.2465 1651.3579,715.9046 C1649.0194,719.221 1646.2575,722.2161 1643,724.7386 C1628.04,736.3286 976.59,720.6986 962,732.7386 C947.0425,745.0861 937.8725,761.9805 932.5473,780.436 C931.8817,782.7429 932.6418,779.2317 932.0925,781.5816" fill="none" id="Application-to-Infrastructure" style="stroke:#181818;stroke-width:1;stroke-dasharray:7,7;"/><polygon fill="#181818" points="930.7268,787.4241,936.6704,779.5708,931.8649,782.5554,928.8804,777.7499,930.7268,787.4241" style="stroke:#181818;stroke-width:1;"/><text fill="#000000" font-family="Arial" font-size="13" lengthAdjust="spacing" textLength="150.3062" x="963" y="753.4325">defines port signatures for</text></g><!--reverse link Application to Infrastructure--><g class="link" data-entity-1="Application" data-entity-2="Infrastructure" data-source-line="101" data-uid="lnk56" id="link_Application_Infrastructure"><path d="M1652.7624,714.3604 C1652.533,714.8181 1654.78,710.2347 1654.5386,710.685 C1653.5731,712.4863 1652.5111,714.2266 1651.3435,715.887 C1649.0084,719.2077 1646.2513,722.2086 1643,724.7386 C1621.56,741.4286 1179.39,723.0786 1154,732.7386 C1134.27,740.2486 1137.61,755.9086 1118,763.7386 C1101.06,770.5086 967.42,759.3786 954,771.7386 C951.2319,774.2874 948.7362,777.0389 946.49,779.9586 C945.3668,781.4185 944.3061,782.9203 943.3048,784.46 C942.8041,785.2298 942.3183,786.009 941.8471,786.7971 C941.7292,786.9942 941.6123,787.1918 941.4963,787.3899" fill="none" id="Application-backto-Infrastructure" style="stroke:#181818;stroke-width:1;"/><polygon fill="#181818" points="1655.4158,708.9789,1647.8482,715.2822,1653.2047,713.4635,1655.0234,718.82,1655.4158,708.9789" style="stroke:#181818;stroke-width:1;"/><text fill="#000000" font-family="Arial" font-size="13" lengthAdjust="spacing" textLength="156.0698" x="1155" y="753.4325">implements port signatures</text></g><!--link Infrastructure to Domain--><g class="link" data-entity-1="Infrastructure" data-entity-2="Domain" data-source-line="102" data-uid="lnk57" id="link_Infrastructure_Domain"><path d="M944.1509,789.691 C944.273,789.5177 944.396,789.3449 944.5198,789.1728 C944.7674,788.8285 945.0185,788.4865 945.2731,788.1468 C945.7823,787.4676 946.3055,786.7978 946.843,786.138 C948.993,783.4987 951.3719,781.0186 954,778.7286 C1003.38,735.6986 2083.3,736.0686 2133,778.7286 C2135.6513,781.0043 2138.0576,783.4716 2140.2389,786.0999 C2140.5115,786.4284 2140.7807,786.7594 2141.0463,787.0929 C2141.1792,787.2597 2137.6195,782.6971 2137.7506,782.8651" fill="none" id="Infrastructure-to-Domain" style="stroke:#181818;stroke-width:1;"/><polygon fill="#181818" points="2141.4422,787.595,2139.058,778.0391,2138.3658,783.6534,2132.7515,782.9612,2141.4422,787.595" style="stroke:#181818;stroke-width:1;"/><text fill="#000000" font-family="Arial" font-size="13" lengthAdjust="spacing" textLength="62.1436" x="1504" y="753.4325">uses types</text></g><!--link Domain to Infrastructure--><g class="link" data-entity-1="Domain" data-entity-2="Infrastructure" data-source-line="105" data-uid="lnk59" id="link_Domain_Infrastructure"><path d="M2146.0322,787.1793 C2145.7974,786.7986 2145.5591,786.4201 2145.3174,786.0438 C2144.8339,785.2913 2144.3365,784.5477 2143.8248,783.8137 C2142.8013,782.3457 2141.7208,780.9157 2140.5804,779.5278 C2138.2998,776.7521 2135.78,774.1449 2133,771.7386 C2064.7,712.6186 1410.33,771.1686 1320,771.2286 C1238.67,771.2886 1015.09,718.0486 954,771.7386 C951.2438,774.1611 948.752,776.7827 946.503,779.571 C945.3785,780.9652 944.3147,782.401 943.3089,783.8745 C942.8059,784.6112 942.3175,785.3574 941.8432,786.1125 C941.6061,786.49 944.4689,781.7304 944.2388,782.1123" fill="none" id="Domain-to-Infrastructure" style="stroke:#181818;stroke-width:1;stroke-dasharray:7,7;"/><polygon fill="#181818" points="941.1424,787.2517,949.2131,781.6069,943.7227,782.9689,942.3607,777.4785,941.1424,787.2517" style="stroke:#181818;stroke-width:1;"/><text fill="#000000" font-family="Arial" font-size="13" lengthAdjust="spacing" textLength="127.9053" x="1345.1973" y="745.9325">defines port interfaces</text><text fill="#000000" font-family="Arial" font-size="13" lengthAdjust="spacing" textLength="176.2998" x="1321" y="760.8812">(via Domain.Foundation.Ports)</text></g><!--link Infrastructure to Functional--><g class="link" data-entity-1="Infrastructure" data-entity-2="Functional" data-source-line="103" data-uid="lnk58" id="link_Infrastructure_Functional"><path d="M944.1509,789.691 C944.273,789.5177 944.396,789.3449 944.5198,789.1728 C944.7674,788.8285 945.0185,788.4865 945.2731,788.1468 C945.7823,787.4676 946.3055,786.7978 946.843,786.138 C948.993,783.4987 951.3719,781.0186 954,778.7286 C994,743.8686 2823.87,744.0186 2864,778.7286 C2874.5575,787.8611 2881.1625,800.0474 2885.0992,813.3135 C2885.5913,814.9717 2886.0417,816.6469 2886.4529,818.335 C2886.5557,818.7571 2885.3044,813.3341 2885.4024,813.7577" fill="none" id="Infrastructure-to-Functional" style="stroke:#181818;stroke-width:1;"/><polygon fill="#181818" points="2886.754,819.6035,2888.6237,809.9338,2885.6277,814.732,2880.8294,811.736,2886.754,819.6035" style="stroke:#181818;stroke-width:1;"/><text fill="#000000" font-family="Arial" font-size="13" lengthAdjust="spacing" textLength="85.979" x="1742.5" y="753.4325">wraps (adapts)</text></g><!--link Bootstrap to GMN60--><g class="link" data-entity-1="Bootstrap" data-entity-2="GMN60" data-source-line="108" data-uid="lnk62" id="link_Bootstrap_GMN60"><path d="M974.1389,162.1554 C974.9358,162.1565 975.7826,162.1577 976.6786,162.1591 C983.8465,162.1704 994.1618,162.1938 1007.201,162.2421 C1033.2795,162.3387 1070.2541,162.535 1114.7381,162.9338 C1203.7063,163.7314 1322.7125,165.3393 1444.665,168.5799 C1688.57,175.0611 1944.26,188.0736 1995,214.1986 C2054.41,244.7986 2096.73,313.4386 2118.11,355.1986" fill="none" id="Bootstrap-GMN60" style="stroke:#181818;stroke-width:1;stroke-dasharray:7,7;"/></g><!--link Domain to GMN63--><g class="link" data-entity-1="Domain" data-entity-2="GMN63" data-source-line="115" data-uid="lnk65" id="link_Domain_GMN63"><path d="M2153,960.8466 C2153,961.1954 2153,961.5448 2153,961.8948 C2153,963.2948 2153,964.7037 2153,966.1189 C2153,971.7797 2153,977.5409 2153,983.2304 C2153,994.6093 2153,1005.7011 2153,1015.1286" fill="none" id="Domain-GMN63" style="stroke:#181818;stroke-width:1;stroke-dasharray:7,7;"/></g><!--link Application to GMN66--><g class="link" data-entity-1="Application" data-entity-2="GMN66" data-source-line="121" data-uid="lnk68" id="link_Application_GMN66"><path d="M1652.3679,709.0013 C1652.3148,709.1215 1652.2615,709.2416 1652.2078,709.3616 C1652.1006,709.6015 1651.9923,709.841 1651.8829,710.0798 C1651.6642,710.5576 1651.4411,711.0332 1651.2137,711.5064 C1650.759,712.4527 1650.2867,713.3893 1649.7964,714.3144 C1647.835,718.0147 1645.5838,721.5299 1643,724.7386 C1619.44,754.0086 1604.38,754.3686 1568,763.7386 C1533.24,772.6986 1278.39,758.5386 1245,771.7386 C1192.05,792.6786 1145.52,840.7286 1118.07,873.8286" fill="none" id="Application-GMN66" style="stroke:#181818;stroke-width:1;stroke-dasharray:7,7;"/></g><g class="legend" data-source-line="127"><rect fill="#DDDDDD" height="90.4932" rx="7.5" ry="7.5" style="stroke:#000000;stroke-width:1;" width="394.3711" x="2485.2526" y="1107.0586"/><text fill="#000000" font-family="Arial" font-size="14" font-weight="bold" lengthAdjust="spacing" textLength="172.71" x="2490.2526" y="1125.1905">Key Difference from OOP:</text><text fill="#000000" font-family="Arial" font-size="14" lengthAdjust="spacing" textLength="115.1445" x="2490.2526" y="1141.2891">- Arrows represent</text><text fill="#000000" font-family="Arial" font-size="14" font-weight="bold" lengthAdjust="spacing" textLength="136.9102" x="2609.2868" y="1141.2891">generic instantiation</text><text fill="#000000" font-family="Arial" font-size="14" lengthAdjust="spacing" textLength="91.8408" x="2750.0866" y="1141.2891">not inheritance</text><text fill="#000000" font-family="Arial" font-size="14" lengthAdjust="spacing" textLength="156.4473" x="2490.2526" y="1157.3877">- Dependencies bound at</text><text fill="#000000" font-family="Arial" font-size="14" font-weight="bold" lengthAdjust="spacing" textLength="85.5791" x="2650.5896" y="1157.3877">compile time</text><text fill="#000000" font-family="Arial" font-size="14" lengthAdjust="spacing" textLength="70.0342" x="2740.0583" y="1157.3877">not runtime</text><text fill="#000000" font-family="Arial" font-size="14" lengthAdjust="spacing" textLength="126.834" x="2490.2526" y="1173.4864">- Port signatures are</text><text fill="#000000" font-family="Arial" font-size="14" font-weight="bold" lengthAdjust="spacing" textLength="104.2617" x="2620.9763" y="1173.4864">generic formals</text><text fill="#000000" font-family="Arial" font-size="14" lengthAdjust="spacing" textLength="84.0479" x="2729.1276" y="1173.4864">not interfaces</text><text fill="#000000" font-family="Arial" font-size="14" lengthAdjust="spacing" textLength="129.1924" x="2490.2526" y="1189.585">- Adapters bound via</text><text fill="#000000" font-family="Arial" font-size="14" font-weight="bold" lengthAdjust="spacing" textLength="136.9102" x="2623.3347" y="1189.585">generic instantiation</text><text fill="#000000" font-family="Arial" font-size="14" lengthAdjust="spacing" textLength="110.4893" x="2764.1345" y="1189.585">not polymorphism</text></g><!--SRC=[XLTjRzis4FwkNt5DWItsQYDBkvTaGG2_o8atBpQSP4NN3GKjqpPRcHH8AebGxB_l-2APbfK6-H8TZyTxddlkIBzQqXNZ52RZg-kx_kG-XjVnsz7fQ1YzyYlEUFhZsS-ZjvNnQXx7D_3wtQ0t-kcaiaxdlPihT1wDpduzsPbdz_FP1CrdWzDV-YTXZ0zeZCrVPHnyw67SavF-OFWkYjGNnZCYoHOoadmXQtghYvI2f8acV9tIm45jo58yChw65KbLk8AHIPxgaU3wXcmfz2GZQHHffZ7KTR6GR8csPCCqXiqbXGvSKKubIrIdJnHTmeGKLCAGPfGlAKyOLL7a4uAZsmsHfSy__7Y6Nrp3p2shrX4G1Tx78luQ0NnqntRR_-875neXiVL6umT0kssoL1YV8ceRp9-bscthSIE0RREKRd6DQ2Ou9699xTBlkQhSGMcPMqIuX9dRWwB_WjJxGcXq8XdcFH3RJ2XcmytHxXAlF0A1M01_4iOXvbeMC1ECQmFaewSDnbnXVJHpoGqsw6lNAmOBUCyarifQRzcQanIk2L-crXQcE9DKLJ1BZiSyopNqbYJJL7gAznoTF6sYWyaOZjSkiPOzBtvY6WR8c6falmGX7gWyzunte9Tbds8fXGHTPDGRvrIXi4g-lV6MoWU6jLlbF379UFCqroRfmDfO4ZmdPSa-t7k5VO52LF0TaYsrHnowxWhZZrSrq6OVMAQD86gh1npiUqFyH8pUIZRyLli_m2FJcmeMekVBuswtsy8cnRtSS_IRTIvHEYwwlTaOc0BqVewDCLz9Kicu8iHpkI-0cg-VHKu3WYkHbkVMc9c8zHgxUz_eA-jFg2sEF5WKxOGj9C4Uw6CthsaZbsMMWBqCUaEtYgOFM04VyfKdTTSpE2WifmtgweiSQT82CbCWLPNpEVw6OclwjEIjdokSiKe1OaOmbZRlucUqfUilakP8rk8ppiEwZhpxjrGsvWXtHP8NLVOtbGAdyswgUYh23YnPC5sdxEhCL7TH8aaDakVWnq-O2PRf70vBPi47PdlnVDtL_kBkJNnfGKqput9nvxvYB0sL5vCtyyj6K7SR9fST7Dows64hFBBtE4aphE-YgCdLptKDkRblbipSS6a1oBGZl8RmUtybXUHLPAlEmjnQhMWtl3juDVBEPNaFdMFWIcsgmMzlcBxe7GwY5vrhRVgYlnTSpI_Qox0vaNKWett_hl7l1h5pCroTnA8mo44IUp53pswt0PfxqwXwjy9Ao2YgUNVox93AyfO_276mkvveWAZkQjMAle7up-4HEKS94JEiL2kAVA2NOR6gst70F33YK-YEpAYoGBhkpeeYsoiBeRNOWbZjtXQHwPifHxsdLjLs-f4qFPmDCpnAoAsogsKjMFZQC3C2tnQO7IddhX-NPiKySbXAEvhXEt3NdHZ2p3fpBLTTLi-swaDydmauCZaUGP8IHxG0OSQ20-1o7JQp1CTkldmohBIYnda6FzZIXVL-Dgz0CJQvuJEQ8zMDuzAh9hYvba9PLsGXp4Jm1EznMdjlAWklOc_CSPioaZNrBqy9KaxfsdoKOxBT_eCMC6Ih5SNdhNagISGodSxS0mCVM_ZGUbJuWiXSr-AEncAts-O0j27r3Cq9jTl3XpeoPQvCOc8ahlfWgk-tofoRBxjjLcSCYTaTR7I7Foog8yjwkeHBhRdJ30tVJZaJQR4LCjimjJL4EOQY_m40]--></g></svg>