<svg xmlns="http://www.w3.org/2000/svg" xmlns:xlink="http://www.w3.org/1999/xlink" contentStyleType="text/css" data-diagram-type="DESCRIPTION" height="1759px" preserveAspectRatio="none" style="width:1958px;height:1759px;background:#FFFFFF;" version="1.1" viewBox="0 0 1958 1759" width="1958px" zoomAndPan="magnify"><title>Component View - Generic Instantiation &amp; Port Binding</title><defs/><g><g class="title" data-source-line="16"><text fill="#000000" font-family="sans-serif" font-size="14" font-weight="bold" lengthAdjust="spacing" textLength="399.7246" x="772.1377" y="23.5352">Component View - Generic Instantiation &amp; Port Binding</text></g><!--cluster Bootstrap--><g class="cluster" data-entity="Bootstrap" data-source-line="18" data-uid="ent0002" id="cluster_Bootstrap"><path d="M598.5,43.4883 L813.6973,43.4883 A3.75,3.75 0 0 1 816.1973,45.9883 L823.1973,65.9766 L1060.5,65.9766 A2.5,2.5 0 0 1 1063,68.4766 L1063,363.2683 A2.5,2.5 0 0 1 1060.5,365.7683 L598.5,365.7683 A2.5,2.5 0 0 1 596,363.2683 L596,45.9883 A2.5,2.5 0 0 1 598.5,43.4883" fill="none" style="stroke:#000000;stroke-width:1.5;"/><line style="stroke:#000000;stroke-width:1.5;" x1="596" x2="823.1973" y1="65.9766" y2="65.9766"/><text fill="#000000" font-family="sans-serif" font-size="14" font-weight="bold" lengthAdjust="spacing" textLength="214.1973" x="600" y="59.0234">Bootstrap (Composition Root)</text></g><!--cluster Presentation Layer--><g class="cluster" data-entity="Presentation Layer" data-source-line="34" data-uid="ent0008" id="cluster_Presentation Layer"><path d="M8.5,197.5983 L143.9492,197.5983 A3.75,3.75 0 0 1 146.4492,200.0983 L153.4492,220.0866 L470.5,220.0866 A2.5,2.5 0 0 1 473,222.5866 L473,505.2483 A2.5,2.5 0 0 1 470.5,507.7483 L8.5,507.7483 A2.5,2.5 0 0 1 6,505.2483 L6,200.0983 A2.5,2.5 0 0 1 8.5,197.5983" fill="none" style="stroke:#000000;stroke-width:1.5;"/><line style="stroke:#000000;stroke-width:1.5;" x1="6" x2="153.4492" y1="220.0866" y2="220.0866"/><text fill="#000000" font-family="sans-serif" font-size="14" font-weight="bold" lengthAdjust="spacing" textLength="134.4492" x="10" y="213.1334">Presentation Layer</text></g><!--cluster Application Layer--><g class="cluster" data-entity="Application Layer" data-source-line="47" data-uid="ent0014" id="cluster_Application Layer"><path d="M351.5,571.7483 L478.2266,571.7483 A3.75,3.75 0 0 1 480.7266,574.2483 L487.7266,594.2366 L880.5,594.2366 A2.5,2.5 0 0 1 883,596.7366 L883,881.1483 A2.5,2.5 0 0 1 880.5,883.6483 L351.5,883.6483 A2.5,2.5 0 0 1 349,881.1483 L349,574.2483 A2.5,2.5 0 0 1 351.5,571.7483" fill="none" style="stroke:#000000;stroke-width:1.5;"/><line style="stroke:#000000;stroke-width:1.5;" x1="349" x2="487.7266" y1="594.2366" y2="594.2366"/><text fill="#000000" font-family="sans-serif" font-size="14" font-weight="bold" lengthAdjust="spacing" textLength="125.7266" x="353" y="587.2834">Application Layer</text></g><!--cluster OutputPort--><g class="cluster" data-entity="OutputPort" data-source-line="50" data-uid="ent0016" id="cluster_OutputPort"><rect fill="none" height="217.47" rx="2.5" ry="2.5" style="stroke:#181818;stroke-width:1;" width="152" x="373" y="640.7483"/><text fill="#000000" font-family="sans-serif" font-size="14" font-weight="bold" lengthAdjust="spacing" textLength="84.7178" x="406.6411" y="656.2834">Output Port</text><text fill="#000000" font-family="sans-serif" font-size="14" font-weight="bold" lengthAdjust="spacing" textLength="142.3242" x="377.8379" y="672.7717">&#171;generic signature&#187;</text></g><!--cluster Infrastructure Layer--><g class="cluster" data-entity="Infrastructure Layer" data-source-line="64" data-uid="ent0021" id="cluster_Infrastructure Layer"><path d="M1300.5,1102.6283 L1445.4854,1102.6283 A3.75,3.75 0 0 1 1447.9854,1105.1283 L1454.9854,1125.1166 L1948.5,1125.1166 A2.5,2.5 0 0 1 1951,1127.6166 L1951,1347.8583 A2.5,2.5 0 0 1 1948.5,1350.3583 L1300.5,1350.3583 A2.5,2.5 0 0 1 1298,1347.8583 L1298,1105.1283 A2.5,2.5 0 0 1 1300.5,1102.6283" fill="none" style="stroke:#000000;stroke-width:1.5;"/><line style="stroke:#000000;stroke-width:1.5;" x1="1298" x2="1454.9854" y1="1125.1166" y2="1125.1166"/><text fill="#000000" font-family="sans-serif" font-size="14" font-weight="bold" lengthAdjust="spacing" textLength="143.9854" x="1302" y="1118.1634">Infrastructure Layer</text></g><!--cluster Domain Layer--><g class="cluster" data-entity="Domain Layer" data-source-line="77" data-uid="ent0028" id="cluster_Domain Layer"><path d="M909.5,750.2283 L1009.8125,750.2283 A3.75,3.75 0 0 1 1012.3125,752.7283 L1019.3125,772.7166 L1271.5,772.7166 A2.5,2.5 0 0 1 1274,775.2166 L1274,1222.3683 A2.5,2.5 0 0 1 1271.5,1224.8683 L909.5,1224.8683 A2.5,2.5 0 0 1 907,1222.3683 L907,752.7283 A2.5,2.5 0 0 1 909.5,750.2283" fill="none" style="stroke:#000000;stroke-width:1.5;"/><line style="stroke:#000000;stroke-width:1.5;" x1="907" x2="1019.3125" y1="772.7166" y2="772.7166"/><text fill="#000000" font-family="sans-serif" font-size="14" font-weight="bold" lengthAdjust="spacing" textLength="99.3125" x="911" y="765.7634">Domain Layer</text></g><!--cluster External: Functional Library--><g class="cluster" data-entity="External. Functional Library" data-source-line="90" data-uid="ent0035" id="cluster_External. Functional Library"><path d="M1233.5,1399.3583 L1432.2021,1399.3583 A3.75,3.75 0 0 1 1434.7021,1401.8583 L1441.7021,1421.8466 L1537.5,1421.8466 A2.5,2.5 0 0 1 1540,1424.3466 L1540,1494.3483 A2.5,2.5 0 0 1 1537.5,1496.8483 L1233.5,1496.8483 A2.5,2.5 0 0 1 1231,1494.3483 L1231,1401.8583 A2.5,2.5 0 0 1 1233.5,1399.3583" fill="none" style="stroke:#000000;stroke-width:1.5;"/><line style="stroke:#000000;stroke-width:1.5;" x1="1231" x2="1441.7021" y1="1421.8466" y2="1421.8466"/><text fill="#000000" font-family="sans-serif" font-size="14" font-weight="bold" lengthAdjust="spacing" textLength="197.7021" x="1235" y="1414.8934">External: Functional Library</text></g><!--entity Main--><g class="entity" data-entity="Main" data-source-line="19" data-uid="ent0003" id="entity_Main"><rect fill="#E3F2FD" height="46.4883" rx="2.5" ry="2.5" style="stroke:#2196F3;stroke-width:0.5;" width="150.25" x="626.87" y="78.4883"/><rect fill="#E3F2FD" height="10" style="stroke:#2196F3;stroke-width:0.5;" width="15" x="757.12" y="83.4883"/><rect fill="#E3F2FD" height="2" style="stroke:#2196F3;stroke-width:0.5;" width="4" x="755.12" y="85.4883"/><rect fill="#E3F2FD" height="2" style="stroke:#2196F3;stroke-width:0.5;" width="4" x="755.12" y="89.4883"/><text fill="#000000" font-family="sans-serif" font-size="14" lengthAdjust="spacing" textLength="110.25" x="641.87" y="112.0234">Main Entry Point</text></g><!--entity Wiring--><g class="entity" data-entity="Wiring" data-source-line="20" data-uid="ent0004" id="entity_Wiring"><rect fill="#E3F2FD" height="62.9766" rx="2.5" ry="2.5" style="stroke:#2196F3;stroke-width:0.5;" width="180.8818" x="611.56" y="244.3783"/><rect fill="#E3F2FD" height="10" style="stroke:#2196F3;stroke-width:0.5;" width="15" x="772.4418" y="249.3783"/><rect fill="#E3F2FD" height="2" style="stroke:#2196F3;stroke-width:0.5;" width="4" x="770.4418" y="251.3783"/><rect fill="#E3F2FD" height="2" style="stroke:#2196F3;stroke-width:0.5;" width="4" x="770.4418" y="255.3783"/><text fill="#000000" font-family="sans-serif" font-size="14" lengthAdjust="spacing" textLength="140.8818" x="626.56" y="277.9134">Generic Instantiation</text><text fill="#000000" font-family="sans-serif" font-size="14" lengthAdjust="spacing" textLength="38.8418" x="626.56" y="294.4017">Chain</text></g><g class="entity" data-entity="GMN5" data-source-line="22" data-uid="ent0006" id="entity_GMN5"><path d="M826.99,201.9783 L826.99,271.8683 L792.88,275.8683 L826.99,279.8683 L826.99,349.7732 A0,0 0 0 0 826.99,349.7732 L1047.0017,349.7732 A0,0 0 0 0 1047.0017,349.7732 L1047.0017,211.9783 L1037.0017,201.9783 L826.99,201.9783 A0,0 0 0 0 826.99,201.9783" fill="#FEFFDD" style="stroke:#181818;stroke-width:0.5;"/><path d="M1037.0017,201.9783 L1037.0017,211.9783 L1047.0017,211.9783 L1037.0017,201.9783" fill="#FEFFDD" style="stroke:#181818;stroke-width:0.5;"/><text fill="#000000" font-family="sans-serif" font-size="13" font-weight="bold" lengthAdjust="spacing" textLength="138.2646" x="832.99" y="219.5466">8-step instantiation:</text><text fill="#000000" font-family="sans-serif" font-size="13" lengthAdjust="spacing" textLength="155.4033" x="832.99" y="234.8572">1. Define App_Error type</text><text fill="#000000" font-family="sans-serif" font-size="13" lengthAdjust="spacing" textLength="184.6787" x="832.99" y="250.1677">2. Instantiate Result adapters</text><text fill="#000000" font-family="sans-serif" font-size="13" lengthAdjust="spacing" textLength="199.0117" x="832.99" y="265.4783">3. Instantiate Person_Name ops</text><text fill="#000000" font-family="sans-serif" font-size="13" lengthAdjust="spacing" textLength="189.9346" x="832.99" y="280.7888">4. Instantiate Console adapter</text><text fill="#000000" font-family="sans-serif" font-size="13" lengthAdjust="spacing" textLength="139.6104" x="832.99" y="296.0994">5. Bind to Output port</text><text fill="#000000" font-family="sans-serif" font-size="13" lengthAdjust="spacing" textLength="136.354" x="832.99" y="311.4099">6. Map domain errors</text><text fill="#000000" font-family="sans-serif" font-size="13" lengthAdjust="spacing" textLength="130.5903" x="832.99" y="326.7205">7. Instantiate service</text><text fill="#000000" font-family="sans-serif" font-size="13" lengthAdjust="spacing" textLength="106.6851" x="832.99" y="342.031">8. Instantiate CLI</text></g><!--entity CLI--><g class="entity" data-entity="CLI" data-source-line="35" data-uid="ent0009" id="entity_CLI"><rect fill="#E3F2FD" height="62.9766" rx="2.5" ry="2.5" style="stroke:#2196F3;stroke-width:0.5;" width="104.6338" x="348.68" y="428.7683"/><rect fill="#E3F2FD" height="10" style="stroke:#2196F3;stroke-width:0.5;" width="15" x="433.3138" y="433.7683"/><rect fill="#E3F2FD" height="2" style="stroke:#2196F3;stroke-width:0.5;" width="4" x="431.3138" y="435.7683"/><rect fill="#E3F2FD" height="2" style="stroke:#2196F3;stroke-width:0.5;" width="4" x="431.3138" y="439.7683"/><text fill="#000000" font-family="sans-serif" font-size="14" lengthAdjust="spacing" textLength="21.1846" x="363.68" y="462.3034">CLI</text><text fill="#000000" font-family="sans-serif" font-size="14" lengthAdjust="spacing" textLength="64.6338" x="363.68" y="478.7917">&#171;generic&#187;</text></g><!--entity ExitCode--><g class="entity" data-entity="ExitCode" data-source-line="36" data-uid="ent0010" id="entity_ExitCode"><rect fill="#E3F2FD" height="46.4883" rx="2.5" ry="2.5" style="stroke:#2196F3;stroke-width:0.5;" width="160.1553" x="21.92" y="252.6283"/><rect fill="#E3F2FD" height="10" style="stroke:#2196F3;stroke-width:0.5;" width="15" x="162.0753" y="257.6283"/><rect fill="#E3F2FD" height="2" style="stroke:#2196F3;stroke-width:0.5;" width="4" x="160.0753" y="259.6283"/><rect fill="#E3F2FD" height="2" style="stroke:#2196F3;stroke-width:0.5;" width="4" x="160.0753" y="263.6283"/><text fill="#000000" font-family="sans-serif" font-size="14" lengthAdjust="spacing" textLength="120.1553" x="36.92" y="286.1634">Exit Code Mapper</text></g><g class="entity" data-entity="GMN11" data-source-line="39" data-uid="ent0012" id="entity_GMN11"><path d="M217.45,232.5983 L217.45,319.151 L456.5428,319.151 L456.5428,242.5983 L446.5428,232.5983 L217.45,232.5983" fill="#FEFFDD" style="stroke:#181818;stroke-width:0.5;"/><path d="M446.5428,232.5983 L446.5428,242.5983 L456.5428,242.5983 L446.5428,232.5983" fill="#FEFFDD" style="stroke:#181818;stroke-width:1;"/><text fill="#000000" font-family="sans-serif" font-size="13" font-weight="bold" lengthAdjust="spacing" textLength="133.5547" x="223.45" y="250.1666">Generic Parameters:</text><text fill="#000000" font-family="sans-serif" font-size="13" lengthAdjust="spacing" textLength="160.0117" x="223.45" y="265.4772">type App_Error is private;</text><text fill="#000000" font-family="sans-serif" font-size="13" lengthAdjust="spacing" textLength="218.0928" x="223.45" y="280.7877">with package R is new Result_Port;</text><text fill="#000000" font-family="sans-serif" font-size="13" lengthAdjust="spacing" textLength="166.0991" x="223.45" y="296.0983">with function Run_Service;</text><text fill="#000000" font-family="sans-serif" font-size="13" lengthAdjust="spacing" textLength="172.4277" x="223.45" y="311.4088">with function Send_Output;</text></g><!--entity UseCase--><g class="entity" data-entity="UseCase" data-source-line="48" data-uid="ent0015" id="entity_UseCase"><rect fill="#E3F2FD" height="62.9766" rx="2.5" ry="2.5" style="stroke:#2196F3;stroke-width:0.5;" width="149.1289" x="616.44" y="609.2583"/><rect fill="#E3F2FD" height="10" style="stroke:#2196F3;stroke-width:0.5;" width="15" x="745.5689" y="614.2583"/><rect fill="#E3F2FD" height="2" style="stroke:#2196F3;stroke-width:0.5;" width="4" x="743.5689" y="616.2583"/><rect fill="#E3F2FD" height="2" style="stroke:#2196F3;stroke-width:0.5;" width="4" x="743.5689" y="620.2583"/><text fill="#000000" font-family="sans-serif" font-size="14" lengthAdjust="spacing" textLength="109.1289" x="631.44" y="642.7934">Create_Greeting</text><text fill="#000000" font-family="sans-serif" font-size="14" lengthAdjust="spacing" textLength="64.6338" x="631.44" y="659.2817">&#171;generic&#187;</text></g><g class="entity" data-entity="GMN18" data-source-line="55" data-uid="ent0019" id="entity_GMN18"><path d="M595.36,765.7883 L595.36,867.6516 L866.6417,867.6516 L866.6417,775.7883 L856.6417,765.7883 L595.36,765.7883" fill="#FEFFDD" style="stroke:#181818;stroke-width:0.5;"/><path d="M856.6417,765.7883 L856.6417,775.7883 L866.6417,775.7883 L856.6417,765.7883" fill="#FEFFDD" style="stroke:#181818;stroke-width:1;"/><text fill="#000000" font-family="sans-serif" font-size="13" font-weight="bold" lengthAdjust="spacing" textLength="134.3037" x="601.36" y="783.3566">Not a concrete type!</text><text fill="#000000" font-family="sans-serif" font-size="13" lengthAdjust="spacing" textLength="152.3564" x="601.36" y="798.6672">This is a generic formal:</text><text fill="#000000" font-family="sans-serif" font-size="13" lengthAdjust="spacing" textLength="4.1133" x="601.36" y="813.9777">&#160;</text><text fill="#000000" font-family="sans-serif" font-size="13" lengthAdjust="spacing" textLength="46.395" x="601.36" y="829.2883">generic</text><text fill="#000000" font-family="sans-serif" font-size="13" lengthAdjust="spacing" textLength="242.0552" x="609.5866" y="844.5988">with function Send(Msg) return Result;</text><text fill="#000000" font-family="sans-serif" font-size="13" lengthAdjust="spacing" textLength="155.3652" x="601.36" y="859.9094">package Output.API is ...</text></g><g class="entity" data-entity="SendPort" data-source-line="51" data-uid="ent0017" id="entity_SendPort"><text fill="#000000" font-family="sans-serif" font-size="14" lengthAdjust="spacing" textLength="134.4902" x="435.0849" y="619.7952">Send(Msg) &#8594; Result</text><rect fill="#F1F1F1" height="12" style="stroke:#181818;stroke-width:1.5;" width="12" x="496.33" y="634.7483"/></g><!--entity ConsoleAdapter--><g class="entity" data-entity="ConsoleAdapter" data-source-line="65" data-uid="ent0022" id="entity_ConsoleAdapter"><rect fill="#E3F2FD" height="62.9766" rx="2.5" ry="2.5" style="stroke:#2196F3;stroke-width:0.5;" width="160.9141" x="1513.54" y="1141.7583"/><rect fill="#E3F2FD" height="10" style="stroke:#2196F3;stroke-width:0.5;" width="15" x="1654.4541" y="1146.7583"/><rect fill="#E3F2FD" height="2" style="stroke:#2196F3;stroke-width:0.5;" width="4" x="1652.4541" y="1148.7583"/><rect fill="#E3F2FD" height="2" style="stroke:#2196F3;stroke-width:0.5;" width="4" x="1652.4541" y="1152.7583"/><text fill="#000000" font-family="sans-serif" font-size="14" lengthAdjust="spacing" textLength="109.0947" x="1528.54" y="1175.2934">Console_Output</text><text fill="#000000" font-family="sans-serif" font-size="14" lengthAdjust="spacing" textLength="120.9141" x="1528.54" y="1191.7817">&#171;generic adapter&#187;</text></g><!--entity ResultAdapter--><g class="entity" data-entity="ResultAdapter" data-source-line="66" data-uid="ent0023" id="entity_ResultAdapter"><rect fill="#E3F2FD" height="62.9766" rx="2.5" ry="2.5" style="stroke:#2196F3;stroke-width:0.5;" width="164.4619" x="1313.77" y="1141.7583"/><rect fill="#E3F2FD" height="10" style="stroke:#2196F3;stroke-width:0.5;" width="15" x="1458.2319" y="1146.7583"/><rect fill="#E3F2FD" height="2" style="stroke:#2196F3;stroke-width:0.5;" width="4" x="1456.2319" y="1148.7583"/><rect fill="#E3F2FD" height="2" style="stroke:#2196F3;stroke-width:0.5;" width="4" x="1456.2319" y="1152.7583"/><text fill="#000000" font-family="sans-serif" font-size="14" lengthAdjust="spacing" textLength="70.1914" x="1328.77" y="1175.2934">Result_API</text><text fill="#000000" font-family="sans-serif" font-size="14" lengthAdjust="spacing" textLength="124.4619" x="1328.77" y="1191.7817">&#171;generic wrapper&#187;</text></g><!--entity FuncBridge--><g class="entity" data-entity="FuncBridge" data-source-line="67" data-uid="ent0024" id="entity_FuncBridge"><rect fill="#E3F2FD" height="46.4883" rx="2.5" ry="2.5" style="stroke:#2196F3;stroke-width:0.5;" width="158.002" x="1317" y="1287.8683"/><rect fill="#E3F2FD" height="10" style="stroke:#2196F3;stroke-width:0.5;" width="15" x="1455.002" y="1292.8683"/><rect fill="#E3F2FD" height="2" style="stroke:#2196F3;stroke-width:0.5;" width="4" x="1453.002" y="1294.8683"/><rect fill="#E3F2FD" height="2" style="stroke:#2196F3;stroke-width:0.5;" width="4" x="1453.002" y="1298.8683"/><text fill="#000000" font-family="sans-serif" font-size="14" lengthAdjust="spacing" textLength="118.002" x="1332" y="1321.4034">Functional Bridge</text></g><g class="entity" data-entity="GMN25" data-source-line="70" data-uid="ent0026" id="entity_GMN25"><path d="M1709.2,1137.6283 L1709.2,1169.2483 L1674.6,1173.2483 L1709.2,1177.2483 L1709.2,1208.8705 A0,0 0 0 0 1709.2,1208.8705 L1934.804,1208.8705 A0,0 0 0 0 1934.804,1208.8705 L1934.804,1147.6283 L1924.804,1137.6283 L1709.2,1137.6283 A0,0 0 0 0 1709.2,1137.6283" fill="#FEFFDD" style="stroke:#181818;stroke-width:0.5;"/><path d="M1924.804,1137.6283 L1924.804,1147.6283 L1934.804,1147.6283 L1924.804,1137.6283" fill="#FEFFDD" style="stroke:#181818;stroke-width:0.5;"/><text fill="#000000" font-family="sans-serif" font-size="13" font-weight="bold" lengthAdjust="spacing" textLength="103.854" x="1715.2" y="1155.1966">Itself a generic!</text><text fill="#000000" font-family="sans-serif" font-size="13" lengthAdjust="spacing" textLength="204.604" x="1715.2" y="1170.5072">Instantiated with Result package</text><text fill="#000000" font-family="sans-serif" font-size="13" lengthAdjust="spacing" textLength="143.9966" x="1715.2" y="1185.8177">Provides Send function</text><text fill="#000000" font-family="sans-serif" font-size="13" lengthAdjust="spacing" textLength="150.5474" x="1715.2" y="1201.1283">Bound to port signature</text></g><!--entity PersonName--><g class="entity" data-entity="PersonName" data-source-line="78" data-uid="ent0029" id="entity_PersonName"><rect fill="#E3F2FD" height="62.9766" rx="2.5" ry="2.5" style="stroke:#2196F3;stroke-width:0.5;" width="131.6357" x="923.18" y="961.6483"/><rect fill="#E3F2FD" height="10" style="stroke:#2196F3;stroke-width:0.5;" width="15" x="1034.8157" y="966.6483"/><rect fill="#E3F2FD" height="2" style="stroke:#2196F3;stroke-width:0.5;" width="4" x="1032.8157" y="968.6483"/><rect fill="#E3F2FD" height="2" style="stroke:#2196F3;stroke-width:0.5;" width="4" x="1032.8157" y="972.6483"/><text fill="#000000" font-family="sans-serif" font-size="14" lengthAdjust="spacing" textLength="91.6357" x="938.18" y="995.1834">Person_Name</text><text fill="#000000" font-family="sans-serif" font-size="14" lengthAdjust="spacing" textLength="64.6338" x="938.18" y="1011.6717">&#171;generic&#187;</text></g><!--entity PersonNameOps--><g class="entity" data-entity="PersonNameOps" data-source-line="79" data-uid="ent0030" id="entity_PersonNameOps"><rect fill="#E3F2FD" height="62.9766" rx="2.5" ry="2.5" style="stroke:#2196F3;stroke-width:0.5;" width="210.7207" x="922.64" y="785.2283"/><rect fill="#E3F2FD" height="10" style="stroke:#2196F3;stroke-width:0.5;" width="15" x="1113.3607" y="790.2283"/><rect fill="#E3F2FD" height="2" style="stroke:#2196F3;stroke-width:0.5;" width="4" x="1111.3607" y="792.2283"/><rect fill="#E3F2FD" height="2" style="stroke:#2196F3;stroke-width:0.5;" width="4" x="1111.3607" y="796.2283"/><text fill="#000000" font-family="sans-serif" font-size="14" lengthAdjust="spacing" textLength="170.7207" x="937.64" y="818.7634">Person_Name.Operations</text><text fill="#000000" font-family="sans-serif" font-size="14" lengthAdjust="spacing" textLength="64.6338" x="937.64" y="835.2517">&#171;generic&#187;</text></g><!--entity ResultPort--><g class="entity" data-entity="ResultPort" data-source-line="80" data-uid="ent0031" id="entity_ResultPort"><rect fill="#E3F2FD" height="62.9766" rx="2.5" ry="2.5" style="stroke:#2196F3;stroke-width:0.5;" width="168.4131" x="1089.79" y="961.6483"/><rect fill="#E3F2FD" height="10" style="stroke:#2196F3;stroke-width:0.5;" width="15" x="1238.2031" y="966.6483"/><rect fill="#E3F2FD" height="2" style="stroke:#2196F3;stroke-width:0.5;" width="4" x="1236.2031" y="968.6483"/><rect fill="#E3F2FD" height="2" style="stroke:#2196F3;stroke-width:0.5;" width="4" x="1236.2031" y="972.6483"/><text fill="#000000" font-family="sans-serif" font-size="14" lengthAdjust="spacing" textLength="76.0635" x="1104.79" y="995.1834">Result_Port</text><text fill="#000000" font-family="sans-serif" font-size="14" lengthAdjust="spacing" textLength="128.4131" x="1104.79" y="1011.6717">&#171;generic interface&#187;</text></g><g class="entity" data-entity="GMN32" data-source-line="83" data-uid="ent0033" id="entity_GMN32"><path d="M1015.65,1137.6283 L1015.65,1208.8705 L1250.3565,1208.8705 L1250.3565,1147.6283 L1240.3565,1137.6283 L1015.65,1137.6283" fill="#FEFFDD" style="stroke:#181818;stroke-width:0.5;"/><path d="M1240.3565,1137.6283 L1240.3565,1147.6283 L1250.3565,1147.6283 L1240.3565,1137.6283" fill="#FEFFDD" style="stroke:#181818;stroke-width:1;"/><text fill="#000000" font-family="sans-serif" font-size="13" font-weight="bold" lengthAdjust="spacing" textLength="160.1006" x="1021.65" y="1155.1966">Port interface definition</text><text fill="#000000" font-family="sans-serif" font-size="13" lengthAdjust="spacing" textLength="211.5356" x="1021.65" y="1170.5072">Lives in Domain.Foundation.Ports</text><text fill="#000000" font-family="sans-serif" font-size="13" lengthAdjust="spacing" textLength="213.7065" x="1021.65" y="1185.8177">Defines signature for Result types</text><text fill="#000000" font-family="sans-serif" font-size="13" lengthAdjust="spacing" textLength="192.1182" x="1021.65" y="1201.1283">Implemented by Infrastructure</text></g><!--entity FuncResult--><g class="entity" data-entity="FuncResult" data-source-line="91" data-uid="ent0036" id="entity_FuncResult"><rect fill="#E3F2FD" height="46.4883" rx="2.5" ry="2.5" style="stroke:#2196F3;stroke-width:0.5;" width="124.8887" x="1246.56" y="1434.3583"/><rect fill="#E3F2FD" height="10" style="stroke:#2196F3;stroke-width:0.5;" width="15" x="1351.4487" y="1439.3583"/><rect fill="#E3F2FD" height="2" style="stroke:#2196F3;stroke-width:0.5;" width="4" x="1349.4487" y="1441.3583"/><rect fill="#E3F2FD" height="2" style="stroke:#2196F3;stroke-width:0.5;" width="4" x="1349.4487" y="1445.3583"/><text fill="#000000" font-family="sans-serif" font-size="14" lengthAdjust="spacing" textLength="84.8887" x="1261.56" y="1467.8934">Result&lt;T,E&gt;</text></g><!--entity FuncOption--><g class="entity" data-entity="FuncOption" data-source-line="92" data-uid="ent0037" id="entity_FuncOption"><rect fill="#E3F2FD" height="46.4883" rx="2.5" ry="2.5" style="stroke:#2196F3;stroke-width:0.5;" width="117.3691" x="1406.32" y="1434.3583"/><rect fill="#E3F2FD" height="10" style="stroke:#2196F3;stroke-width:0.5;" width="15" x="1503.6891" y="1439.3583"/><rect fill="#E3F2FD" height="2" style="stroke:#2196F3;stroke-width:0.5;" width="4" x="1501.6891" y="1441.3583"/><rect fill="#E3F2FD" height="2" style="stroke:#2196F3;stroke-width:0.5;" width="4" x="1501.6891" y="1445.3583"/><text fill="#000000" font-family="sans-serif" font-size="14" lengthAdjust="spacing" textLength="77.3691" x="1421.32" y="1467.8934">Option&lt;T&gt;</text></g><!--link GMN11 to CLI--><g class="link" data-entity-1="GMN11" data-entity-2="CLI" data-source-line="39" data-uid="lnk13" id="link_GMN11_CLI"><path d="M339.12,319.3883 C341.5,343.4383 346.5,373.6383 357,398.7683 C361.31,409.0683 367.68,419.2783 374.26,428.2883" fill="none" id="GMN11-CLI" style="stroke:#2196F3;stroke-width:1;stroke-dasharray:7,7;"/></g><!--link OutputPort to GMN18--><g class="link" data-entity-1="OutputPort" data-entity-2="GMN18" data-source-line="55" data-uid="lnk20" id="link_OutputPort_GMN18"><path d="M555.19,816.7183 C568.47,816.7183 581.74,816.7183 595.02,816.7183" fill="none" id="OutputPort-GMN18" style="stroke:#2196F3;stroke-width:1;stroke-dasharray:7,7;"/></g><!--link ResultPort to GMN32--><g class="link" data-entity-1="ResultPort" data-entity-2="GMN32" data-source-line="83" data-uid="lnk34" id="link_ResultPort_GMN32"><path d="M1151.62,1025.0983 C1146.17,1034.1883 1141.04,1044.4383 1138,1054.6283 C1129.97,1081.5583 1129.13,1113.4983 1130.06,1137.2883" fill="none" id="ResultPort-GMN32" style="stroke:#2196F3;stroke-width:1;stroke-dasharray:7,7;"/></g><!--link Main to Wiring--><g class="link" data-entity-1="Main" data-entity-2="Wiring" data-source-line="96" data-uid="lnk38" id="link_Main_Wiring"><path d="M702,125.2383 C702,155.5783 702,203.7483 702,237.9183" fill="none" id="Main-to-Wiring" style="stroke:#2196F3;stroke-width:1;"/><polygon fill="#2196F3" points="702,243.9183,706,234.9183,702,238.9183,698,234.9183,702,243.9183" style="stroke:#2196F3;stroke-width:1;"/><text fill="#000000" font-family="sans-serif" font-size="13" lengthAdjust="spacing" textLength="49.3403" x="703" y="168.5466">triggers</text></g><!--link Wiring to ResultAdapter--><g class="link" data-entity-1="Wiring" data-entity-2="ResultAdapter" data-source-line="97" data-uid="lnk39" id="link_Wiring_ResultAdapter"><path d="M727.23,307.8383 C747.05,329.9283 776.64,358.3583 809,373.7683 C921.46,427.3283 1363,334.6883 1363,459.2583 C1363,459.2583 1363,459.2583 1363,994.1383 C1363,1046.4983 1375.3594,1100.3157 1385.1194,1135.5757" fill="none" id="Wiring-to-ResultAdapter" style="stroke:#2196F3;stroke-width:1;stroke-dasharray:7,7;"/><polygon fill="#2196F3" points="1386.72,1141.3583,1388.1741,1131.6174,1385.3862,1136.5395,1380.464,1133.7515,1386.72,1141.3583" style="stroke:#2196F3;stroke-width:1;"/><text fill="#000000" font-family="sans-serif" font-size="13" lengthAdjust="spacing" textLength="82.9131" x="1364" y="723.2966">1. instantiate</text></g><!--link Wiring to ConsoleAdapter--><g class="link" data-entity-1="Wiring" data-entity-2="ConsoleAdapter" data-source-line="98" data-uid="lnk40" id="link_Wiring_ConsoleAdapter"><path d="M725.49,307.5983 C745.03,330.5083 775.06,360.1083 809,373.7683 C836.95,385.0183 1049.95,379.6283 1080,381.7683 C1156.4,387.2083 1765,382.6583 1765,459.2583 C1765,459.2583 1765,459.2583 1765,994.1383 C1765,1031.6483 1689.7868,1097.3746 1639.2168,1137.5746" fill="none" id="Wiring-to-ConsoleAdapter" style="stroke:#2196F3;stroke-width:1;stroke-dasharray:7,7;"/><polygon fill="#2196F3" points="1634.52,1141.3083,1644.0543,1138.839,1638.434,1138.1969,1639.0761,1132.5766,1634.52,1141.3083" style="stroke:#2196F3;stroke-width:1;"/><text fill="#000000" font-family="sans-serif" font-size="13" lengthAdjust="spacing" textLength="82.9131" x="1766" y="723.2966">2. instantiate</text></g><!--link Wiring to OutputPort--><g class="link" data-entity-1="Wiring" data-entity-2="OutputPort" data-source-line="99" data-uid="lnk41" id="link_Wiring_OutputPort"><path d="M683.16,307.5183 C648.78,360.3883 570.36,467.6783 473,515.7483 C458.56,522.8683 411.74,511.7483 401,523.7483 C382.675,544.2208 375.0206,568.5758 374.4309,594.3598 C374.1361,607.2519 375.6074,620.5012 378.3942,633.8011 C378.7425,635.4635 379.1114,637.1268 379.5,638.7903 C379.5971,639.2061 378.2982,633.787 378.3978,634.2029" fill="none" id="Wiring-to-OutputPort" style="stroke:#2196F3;stroke-width:1;stroke-dasharray:7,7;"/><polygon fill="#2196F3" points="379.7951,640.0379,381.5892,630.3538,378.6307,635.1754,373.8092,632.2169,379.7951,640.0379" style="stroke:#2196F3;stroke-width:1;"/><text fill="#000000" font-family="sans-serif" font-size="13" lengthAdjust="spacing" textLength="96.897" x="402" y="544.8166">3. bind adapter</text></g><!--link Wiring to UseCase--><g class="link" data-entity-1="Wiring" data-entity-2="UseCase" data-source-line="100" data-uid="lnk42" id="link_Wiring_UseCase"><path d="M701.06,307.8083 C698.98,376.3683 694.1913,534.401 692.1213,602.891" fill="none" id="Wiring-to-UseCase" style="stroke:#2196F3;stroke-width:1;stroke-dasharray:7,7;"/><polygon fill="#2196F3" points="691.94,608.8883,696.2101,600.0132,692.091,603.8906,688.2137,599.7716,691.94,608.8883" style="stroke:#2196F3;stroke-width:1;"/><text fill="#000000" font-family="sans-serif" font-size="13" lengthAdjust="spacing" textLength="82.9131" x="698.23" y="465.3266">4. instantiate</text></g><!--link Wiring to CLI--><g class="link" data-entity-1="Wiring" data-entity-2="CLI" data-source-line="101" data-uid="lnk43" id="link_Wiring_CLI"><path d="M642.47,307.8283 C597.22,329.9183 532.77,358.3383 473,373.7683 C456.56,378.0083 408.36,369.1483 397,381.7683 C385.82,394.1783 385.0881,406.8957 388.6681,422.7457" fill="none" id="Wiring-to-CLI" style="stroke:#2196F3;stroke-width:1;stroke-dasharray:7,7;"/><polygon fill="#2196F3" points="389.99,428.5983,391.9089,418.9382,388.8884,423.7211,384.1054,420.7007,389.99,428.5983" style="stroke:#2196F3;stroke-width:1;"/><text fill="#000000" font-family="sans-serif" font-size="13" lengthAdjust="spacing" textLength="82.9131" x="398" y="395.3366">5. instantiate</text></g><!--link CLI to UseCase--><g class="link" data-entity-1="CLI" data-entity-2="UseCase" data-source-line="104" data-uid="lnk44" id="link_CLI_UseCase"><path d="M453.77,489.6683 C471.18,499.7383 490.34,511.6083 507,523.7483 C524.3,536.3483 523.75,546.3683 543,555.7483 C560.87,564.4483 568.74,555.9083 587,563.7483 C612.69,574.7683 633.4544,589.3268 652.7244,605.2468" fill="none" id="CLI-to-UseCase" style="stroke:#2196F3;stroke-width:1;"/><polygon fill="#2196F3" points="657.35,609.0683,652.9592,600.2523,653.4953,605.8837,647.8639,606.4198,657.35,609.0683" style="stroke:#2196F3;stroke-width:1;"/><text fill="#000000" font-family="sans-serif" font-size="13" lengthAdjust="spacing" textLength="77.7842" x="570.6919" y="537.3166">generic over</text><text fill="#000000" font-family="sans-serif" font-size="13" lengthAdjust="spacing" textLength="131.168" x="544" y="552.6272">Run_Service function</text></g><!--link CLI to ConsoleAdapter--><g class="link" data-entity-1="CLI" data-entity-2="ConsoleAdapter" data-source-line="105" data-uid="lnk45" id="link_CLI_ConsoleAdapter"><path d="M453.57,472.0783 C510.84,483.6783 605.21,502.2383 687,515.7483 C785.08,531.9383 1573,540.3383 1573,639.7483 C1573,639.7483 1573,639.7483 1573,994.1383 C1573,1046.1383 1580.9033,1100.1785 1587.1133,1135.5785" fill="none" id="CLI-to-ConsoleAdapter" style="stroke:#2196F3;stroke-width:1;stroke-dasharray:7,7;"/><polygon fill="#2196F3" points="1588.15,1141.4883,1590.5348,1131.9325,1587.2861,1136.5635,1582.6551,1133.3148,1588.15,1141.4883" style="stroke:#2196F3;stroke-width:1;"/><text fill="#000000" font-family="sans-serif" font-size="13" lengthAdjust="spacing" textLength="77.7842" x="1603.8562" y="814.2866">generic over</text><text fill="#000000" font-family="sans-serif" font-size="13" lengthAdjust="spacing" textLength="137.4966" x="1574" y="829.5972">Send_Output function</text></g><!--link UseCase to OutputPort--><g class="link" data-entity-1="UseCase" data-entity-2="OutputPort" data-source-line="107" data-uid="lnk46" id="link_UseCase_OutputPort"><path d="M648.77,672.6483 C622.55,692.1383 588.38,718.0983 559,742.2283 C553.275,746.9333 547.3944,751.8852 541.5345,756.9033 C538.6046,759.4123 535.6799,761.938 532.7824,764.4576 C531.3337,765.7174 529.8917,766.9757 528.4594,768.2297 C527.7432,768.8566 527.0294,769.4826 526.3184,770.107 C525.9628,770.4193 530.1132,766.7684 529.7591,767.0799" fill="none" id="UseCase-to-OutputPort" style="stroke:#2196F3;stroke-width:1;"/><polygon fill="#2196F3" points="525.2539,771.0426,534.6535,768.102,529.0082,767.7403,529.3699,762.0951,525.2539,771.0426" style="stroke:#2196F3;stroke-width:1;"/><text fill="#000000" font-family="sans-serif" font-size="13" lengthAdjust="spacing" textLength="77.7842" x="616.0141" y="715.7966">generic over</text><text fill="#000000" font-family="sans-serif" font-size="13" lengthAdjust="spacing" textLength="89.6924" x="610.06" y="731.1072">port signature</text></g><!--link UseCase to PersonNameOps--><g class="link" data-entity-1="UseCase" data-entity-2="PersonNameOps" data-source-line="108" data-uid="lnk47" id="link_UseCase_PersonNameOps"><path d="M750.86,672.6483 C812.14,704.2883 901.5187,750.4256 962.7987,782.0656" fill="none" id="UseCase-to-PersonNameOps" style="stroke:#2196F3;stroke-width:1;"/><polygon fill="#2196F3" points="968.13,784.8183,961.9681,777.1351,963.6872,782.5244,958.2979,784.2435,968.13,784.8183" style="stroke:#2196F3;stroke-width:1;"/><text fill="#000000" font-family="sans-serif" font-size="13" lengthAdjust="spacing" textLength="77.7842" x="893.6229" y="715.7966">generic over</text><text fill="#000000" font-family="sans-serif" font-size="13" lengthAdjust="spacing" textLength="123.8301" x="870.6" y="731.1072">Name_Ops package</text></g><!--reverse link SendPort to ConsoleAdapter--><g class="link" data-entity-1="SendPort" data-entity-2="ConsoleAdapter" data-source-line="110" data-uid="lnk49" id="link_SendPort_ConsoleAdapter"><path d="M527.8184,649.9521 C538.4084,657.1221 554.7,666.9283 575,672.2283 C621.95,684.5083 1412.87,668.7583 1448,702.2283 C1522.07,772.8083 1438.77,833.3083 1467,931.6483 C1490.2,1012.4583 1542.54,1097.2183 1572.28,1141.3583" fill="none" id="SendPort-backto-ConsoleAdapter" style="stroke:#2196F3;stroke-width:1;stroke-dasharray:7,7;"/><polygon fill="#2196F3" points="522.85,646.5883,528.06,654.9463,526.9903,649.3915,532.5451,648.3218,522.85,646.5883" style="stroke:#2196F3;stroke-width:1;"/><text fill="#000000" font-family="sans-serif" font-size="13" lengthAdjust="spacing" textLength="74.0137" x="1470.1709" y="913.2166">implements</text><text fill="#000000" font-family="sans-serif" font-size="13" lengthAdjust="spacing" textLength="78.3555" x="1468" y="928.5272">(via binding)</text></g><!--link PersonNameOps to PersonName--><g class="link" data-entity-1="PersonNameOps" data-entity-2="PersonName" data-source-line="112" data-uid="lnk50" id="link_PersonNameOps_PersonName"><path d="M1013.45,848.5483 C1006.99,863.6183 999.97,882.2283 996,899.6483 C991.39,919.9083 989.8482,937.2416 989.2482,955.3916" fill="none" id="PersonNameOps-to-PersonName" style="stroke:#2196F3;stroke-width:1;"/><polygon fill="#2196F3" points="989.05,961.3883,993.3452,952.5254,989.2152,956.391,985.3495,952.261,989.05,961.3883" style="stroke:#2196F3;stroke-width:1;"/><text fill="#000000" font-family="sans-serif" font-size="13" lengthAdjust="spacing" textLength="77.7842" x="1016.2493" y="913.2166">generic over</text><text fill="#000000" font-family="sans-serif" font-size="13" lengthAdjust="spacing" textLength="116.2827" x="997" y="928.5272">Person_Name type</text></g><!--link PersonNameOps to ResultPort--><g class="link" data-entity-1="PersonNameOps" data-entity-2="ResultPort" data-source-line="113" data-uid="lnk51" id="link_PersonNameOps_ResultPort"><path d="M1066.68,848.5983 C1083.52,863.0883 1102.83,881.2183 1118,899.6483 C1133.74,918.7883 1145.262,937.5136 1155.512,956.2636" fill="none" id="PersonNameOps-to-ResultPort" style="stroke:#2196F3;stroke-width:1;"/><polygon fill="#2196F3" points="1158.39,961.5283,1157.5827,951.7126,1155.9916,957.141,1150.5632,955.5499,1158.39,961.5283" style="stroke:#2196F3;stroke-width:1;"/><text fill="#000000" font-family="sans-serif" font-size="13" lengthAdjust="spacing" textLength="77.7842" x="1150.0565" y="913.2166">generic over</text><text fill="#000000" font-family="sans-serif" font-size="13" lengthAdjust="spacing" textLength="95.0371" x="1141.43" y="928.5272">Result package</text></g><!--link ResultAdapter to FuncBridge--><g class="link" data-entity-1="ResultAdapter" data-entity-2="FuncBridge" data-source-line="115" data-uid="lnk52" id="link_ResultAdapter_FuncBridge"><path d="M1396,1205.0783 C1396,1230.1383 1396,1258.8983 1396,1281.4483" fill="none" id="ResultAdapter-to-FuncBridge" style="stroke:#2196F3;stroke-width:1;"/><polygon fill="#2196F3" points="1396,1287.4483,1400,1278.4483,1396,1282.4483,1392,1278.4483,1396,1287.4483" style="stroke:#2196F3;stroke-width:1;"/><text fill="#000000" font-family="sans-serif" font-size="13" lengthAdjust="spacing" textLength="28.5645" x="1397" y="1254.4366">uses</text></g><!--link FuncBridge to FuncResult--><g class="link" data-entity-1="FuncBridge" data-entity-2="FuncResult" data-source-line="116" data-uid="lnk53" id="link_FuncBridge_FuncResult"><path d="M1382.41,1334.6883 C1366.06,1361.8383 1341.8942,1401.9677 1325.5942,1429.0477" fill="none" id="FuncBridge-to-FuncResult" style="stroke:#2196F3;stroke-width:1;"/><polygon fill="#2196F3" points="1322.5,1434.1883,1330.5684,1428.5402,1325.0785,1429.9044,1323.7143,1424.4146,1322.5,1434.1883" style="stroke:#2196F3;stroke-width:1;"/><text fill="#000000" font-family="sans-serif" font-size="13" lengthAdjust="spacing" textLength="37.3242" x="1363.85" y="1379.9266">wraps</text></g><!--link FuncBridge to FuncOption--><g class="link" data-entity-1="FuncBridge" data-entity-2="FuncOption" data-source-line="117" data-uid="lnk54" id="link_FuncBridge_FuncOption"><path d="M1406.78,1334.6883 C1419.74,1361.8383 1438.7864,1401.693 1451.7064,1428.773" fill="none" id="FuncBridge-to-FuncOption" style="stroke:#2196F3;stroke-width:1;stroke-dasharray:7,7;"/><polygon fill="#2196F3" points="1454.29,1434.1883,1454.0247,1424.343,1452.137,1429.6756,1446.8044,1427.7878,1454.29,1434.1883" style="stroke:#2196F3;stroke-width:1;"/><text fill="#000000" font-family="sans-serif" font-size="13" lengthAdjust="spacing" textLength="37.3242" x="1429.43" y="1379.9266">wraps</text></g><!--reverse link ResultPort to ResultAdapter--><g class="link" data-entity-1="ResultPort" data-entity-2="ResultAdapter" data-source-line="120" data-uid="lnk55" id="link_ResultPort_ResultAdapter"><path d="M1161.5168,1030.8696 C1156.5068,1050.9396 1156.05,1070.4783 1171,1086.6283 C1178.8,1095.0583 1263.11,1090.9983 1274,1094.6283 C1304.6,1104.8383 1335.22,1124.3583 1358.13,1141.2683" fill="none" id="ResultPort-backto-ResultAdapter" style="stroke:#2196F3;stroke-width:1;stroke-dasharray:7,7;"/><polygon fill="#2196F3" points="1162.97,1025.0483,1156.9093,1032.8116,1161.759,1029.8994,1164.6712,1034.7491,1162.97,1025.0483" style="stroke:#2196F3;stroke-width:1;"/><text fill="#000000" font-family="sans-serif" font-size="13" lengthAdjust="spacing" textLength="164.2456" x="1172" y="1068.1966">Infrastructure implements</text><text fill="#000000" font-family="sans-serif" font-size="13" lengthAdjust="spacing" textLength="108.0879" x="1200.0789" y="1083.5072">Domain interface</text></g><g class="legend" data-source-line="122"><rect fill="#DDDDDD" height="224.3477" rx="7.5" ry="7.5" style="stroke:#000000;stroke-width:1;" width="370.999" x="1561.001" y="1514.8483"/><text fill="#000000" font-family="sans-serif" font-size="14" font-weight="bold" lengthAdjust="spacing" textLength="273.1504" x="1566.001" y="1533.3834">Generic Instantiation (Compile-Time):</text><text fill="#000000" font-family="sans-serif" font-size="14" lengthAdjust="spacing" textLength="249.7578" x="1566.001" y="1549.8717">- Solid arrows = direct function calls</text><text fill="#000000" font-family="sans-serif" font-size="14" lengthAdjust="spacing" textLength="268.3379" x="1566.001" y="1566.36">- Dotted arrows = generic instantiation</text><text fill="#000000" font-family="sans-serif" font-size="14" lengthAdjust="spacing" textLength="235.3613" x="1566.001" y="1582.8483">- All binding happens in Bootstrap</text><text fill="#000000" font-family="sans-serif" font-size="14" lengthAdjust="spacing" textLength="191.5156" x="1566.001" y="1599.3366">- No runtime polymorphism</text><text fill="#000000" font-family="sans-serif" font-size="14" lengthAdjust="spacing" textLength="138.8379" x="1566.001" y="1615.8248">- No vtable dispatch</text><text fill="#000000" font-family="sans-serif" font-size="14" lengthAdjust="spacing" textLength="190.0732" x="1566.001" y="1632.3131">- Fully inlined calls possible</text><text fill="#000000" font-family="sans-serif" font-size="14" lengthAdjust="spacing" textLength="4.4297" x="1566.001" y="1648.8014">&#160;</text><text fill="#000000" font-family="sans-serif" font-size="14" font-weight="bold" lengthAdjust="spacing" textLength="192.6162" x="1566.001" y="1665.2897">Port Pattern with Generics:</text><text fill="#000000" font-family="sans-serif" font-size="14" lengthAdjust="spacing" textLength="356.5146" x="1566.001" y="1681.778">- Application defines port signature (generic formal)</text><text fill="#000000" font-family="sans-serif" font-size="14" lengthAdjust="spacing" textLength="356.5898" x="1566.001" y="1698.2663">- Infrastructure provides adapter (concrete function)</text><text fill="#000000" font-family="sans-serif" font-size="14" lengthAdjust="spacing" textLength="360.999" x="1566.001" y="1714.7545">- Bootstrap binds adapter to signature (instantiation)</text><text fill="#000000" font-family="sans-serif" font-size="14" lengthAdjust="spacing" textLength="210.0957" x="1566.001" y="1731.2428">- Result: zero-cost abstraction</text></g><!--SRC=[XLVRRXit47tVhvWeG6iRrSAndPlZ6f1aoHMWs8BZj2YQGg2rb4HaHIv8IeuQvBKVq4_ibtI6vEvo9Ii5yk0CpmndpvaBzIpZCo4vZ8RNlzntHn_xyBn_EZWPN2NFmeatdhnu-sfmMXclx_hz6tX-rkiCNXvNrjkxpiqrWWU3js-EQ_FuuzruXEQtlPFNtThS-xs38OwFkxshioGnduKic6PBcAfbeIIN5huc05qs_JpNQYMpdigLhXEbCwKphhqzc3fQgyU6nInOfXw5dCECvOQZ1UzdgzmEbBGtRCdHHx0y-POaLjWSywhk_rNmHsZ3DPTSYoaCfR5CMi6iK19-WB7I5hf2PXWyIGfCbCqvjBfAMMCrA-30XJB2uU_GVDW2Pg06q0VMd_l7UoOazANL6umjfFsJq6HimfxCvvFiBH3fN7uJcb82aCfoq6A-iA1cjHdWwEXDsrXUW8XZd1yTkTCNALnvZJf5CUaZfHhifk3ky2IDBkPmnmro2InZXUNQECXf4p96kv8JnxKgFEIi2UafQHHo7y8uoClKaGjMmUtA5YiB1HBkZbwbI4i1cLeIOvmIz65VDyCQhjTYwlD-itNZQ8XcZl6995A_4d2ikK6YlSmZjk6wjQLK2xq_oOkBkLVYyjBfwaD6GlM_28kVbd7Ajk3QYKD6iYMbFbOLf8xt9cbAVSVK3fnOBOKX4I9DX852YpL-pZjt_2Zi0ihFkADZYGNi5PfGjKQmsKfEVLskvEI3v-cfumz8qSJp_suVOPXHBgRVvKjpp79ohJctM8Ext7qqlCUC8qNpAQeqnsfe1TqfzSW5Z9XBPbUQ1sSFS-turNq25GeMHekIFtXlveVmxz__12AS1nsCVJLzItOQfOuN5BbHME7uFNAgEIc6CZmBajmla6Rynw3CRgRqakNdYJiEHlVtKzJwx33gIikGe5UX9DVdadR6GxebJTDz8WpbJ3CSAwifCRDF1zzdGT2Oqz1vPIbxNATgnoX6g2VCAFP_rAx4Wx_7FEa-29_FSkXgaSsvSo2h_- -k73l9a2H3QtW-gsalzOXwFFDyXmaLY7AWiLPhaN5V1vKWxgXBguPc3jLGNMdxMB_o8-XfjgF1jrln_f3EzZgbjyYeQolpFVzRDrDt5Tfk6zmeNC_Ob3T4ScLUSlwWh5LB8Zqwz8Ixzgf2W5lYRhC5uaTYZOGY5vwIT414kkHJSlNpsQyLK_DAtL8gH6tbOSDbaVCbVWjg-B21PcdlawB_1NF3iZg7gCH6ua4plTcHnbzvSVzJ_xAgFszhucuB2dHnNwEyXMx-SUj5CClL8noGiyXvsmfSTm_-TN2OkDNUneU8R5-6HGpdOB76vxGrWoKbG7hPR1_4jN0ZrvkQjxRnpGuXXvFlEqGJ4y6uhodHSWRieCDm9kZP_oGo6XBgvHOAgIgNckQvh-Y5mB8bVCbAT4jPiMhDzISPRQYgLrlETV_tDoD4IooAa9GtbXaqMMc6Q8w3revlenrttUbWGYUXNF7shQJJLO5VKYucYY3ABi3kFrWBLbKJEZUlsqrYDuFu5KQTrjeJesxy9vHeZ59CercePOXwc6E8bS6cZYmnACGxTzkZWIgLhJkkGc4ntTCxYDejYRAzIDFTnjdQYZ6bONHN8mq_9-Tp6YrkyoJnKwpPwEvTJpr-Zpr-w1zdRVYWSe4zH3z03FmCcQ27JBtjfopFZGDUuP3b4RAUpz4b3jd9yr9qMD1-bMx2LZyW7EX6WLv9DsuAbM-MIXVu9bcMPslB7l0jbGbJC3jTEFDWbUSRZ9JZCCvyPkXhZ41aabJJVimiZLI_HWCLflpS-D6NXR7UR18uQ3w93ftVbY95kOh3yA416fvP9NNUh_xLH8pKU5pLqOqD3hsZhubp-8jhrPugWq-v1mhaTpxgxLLF_WC0]--></g></svg>