<svg xmlns="http://www.w3.org/2000/svg" xmlns:xlink="http://www.w3.org/1999/xlink" contentStyleType="text/css" data-diagram-type="CLASS" height="1013px" preserveAspectRatio="none" style="width:1347px;height:1013px;background:#FFFFFF;" version="1.1" viewBox="0 0 1347 1013" width="1347px" zoomAndPan="magnify"><title>Domain Model - Functional Patterns</title><defs/><g><g class="title" data-source-line="8"><text fill="#000000" font-family="Arial" font-size="14" font-weight="bold" lengthAdjust="spacing" textLength="238.793" x="547.1035" y="23.1318">Domain Model - Functional Patterns</text></g><!--cluster Hybrid--><g class="cluster" data-entity="Hybrid" data-source-line="12" data-uid="ent0004" id="cluster_Hybrid"><path d="M8.5,43.0986 L53.8379,43.0986 A3.75,3.75 0 0 1 56.3379,45.5986 L63.3379,65.1973 L1337.5,65.1973 A2.5,2.5 0 0 1 1340,67.6973 L1340,1004.0686 A2.5,2.5 0 0 1 1337.5,1006.5686 L8.5,1006.5686 A2.5,2.5 0 0 1 6,1004.0686 L6,45.5986 A2.5,2.5 0 0 1 8.5,43.0986" fill="none" style="stroke:#000000;stroke-width:1.5;"/><line style="stroke:#000000;stroke-width:1.5;" x1="6" x2="63.3379" y1="65.1973" y2="65.1973"/><text fill="#000000" font-family="Arial" font-size="14" font-weight="bold" lengthAdjust="spacing" textLength="44.3379" x="10" y="58.2305">Hybrid</text></g><!--cluster Domain--><g class="cluster" data-entity="Domain" data-source-line="12" data-uid="ent0005" id="cluster_Domain"><path d="M32.5,86.0986 L84.8379,86.0986 A3.75,3.75 0 0 1 87.3379,88.5986 L94.3379,108.1973 L1313.5,108.1973 A2.5,2.5 0 0 1 1316,110.6973 L1316,980.0686 A2.5,2.5 0 0 1 1313.5,982.5686 L32.5,982.5686 A2.5,2.5 0 0 1 30,980.0686 L30,88.5986 A2.5,2.5 0 0 1 32.5,86.0986" fill="none" style="stroke:#000000;stroke-width:1.5;"/><line style="stroke:#000000;stroke-width:1.5;" x1="30" x2="94.3379" y1="108.1973" y2="108.1973"/><text fill="#000000" font-family="Arial" font-size="14" font-weight="bold" lengthAdjust="spacing" textLength="51.3379" x="34" y="101.2305">Domain</text></g><!--cluster Model--><g class="cluster" data-entity="Model" data-source-line="10" data-uid="ent0002" id="cluster_Model"><rect fill="#E1BEE7" height="243.88" rx="2.5" ry="2.5" style="stroke:#181818;stroke-width:1;" width="1238" x="54" y="519.3886"/><text fill="#000000" font-family="Arial" font-size="14" font-weight="bold" lengthAdjust="spacing" textLength="40.4414" x="652.7793" y="534.5205">Model</text></g><!--cluster Value--><g class="cluster" data-entity="Value" data-source-line="53" data-uid="ent0013" id="cluster_Value"><rect fill="#E1BEE7" height="171.3" rx="2.5" ry="2.5" style="stroke:#181818;stroke-width:1;" width="591" x="690" y="300.0886"/><text fill="#000000" font-family="Arial" font-size="14" font-weight="bold" lengthAdjust="spacing" textLength="37.3516" x="966.8242" y="315.2205">Value</text></g><!--cluster Service--><g class="cluster" data-entity="Service" data-source-line="70" data-uid="ent0018" id="cluster_Service"><rect fill="#E1BEE7" height="122.99" rx="2.5" ry="2.5" style="stroke:#181818;stroke-width:1;" width="667" x="492" y="129.0986"/><text fill="#000000" font-family="Arial" font-size="14" font-weight="bold" lengthAdjust="spacing" textLength="49.8203" x="800.5898" y="144.2305">Service</text></g><!--cluster Error--><g class="cluster" data-entity="Error" data-source-line="82" data-uid="ent0023" id="cluster_Error"><rect fill="#E1BEE7" height="147.3" rx="2.5" ry="2.5" style="stroke:#181818;stroke-width:1;" width="487" x="732" y="811.2686"/><text fill="#000000" font-family="Arial" font-size="14" font-weight="bold" lengthAdjust="spacing" textLength="34.2344" x="958.3828" y="826.4005">Error</text></g><!--class Either--><g class="entity" data-entity="Either" data-source-line="12" data-uid="ent0003" id="entity_Either"><rect fill="#F1F1F1" height="192.8877" rx="2.5" ry="2.5" style="stroke:#181818;stroke-width:0.5;" width="262.9473" x="69.53" y="554.3886"/><ellipse cx="149.1189" cy="570.3886" fill="#ADD1B2" rx="11" ry="11" style="stroke:#181818;stroke-width:1;"/><path d="M151.592,576.5317 Q151.011,576.8305 150.3718,576.9799 Q149.7326,577.1294 149.0271,577.1294 Q146.5202,577.1294 145.2004,575.4775 Q143.8806,573.8256 143.8806,570.7046 Q143.8806,567.5752 145.2004,565.9233 Q146.5202,564.2714 149.0271,564.2714 Q149.7326,564.2714 150.3801,564.4209 Q151.0276,564.5703 151.592,564.8691 L151.592,567.5918 Q150.9612,567.0107 150.3676,566.7409 Q149.7741,566.4712 149.1433,566.4712 Q147.7986,566.4712 147.1137,567.5378 Q146.4289,568.6045 146.4289,570.7046 Q146.4289,572.7963 147.1137,573.863 Q147.7986,574.9296 149.1433,574.9296 Q149.7741,574.9296 150.3676,574.6599 Q150.9612,574.3901 151.592,573.809 Z " fill="#000000"/><text fill="#000000" font-family="Arial" font-size="14" lengthAdjust="spacing" textLength="36.5723" x="169.6189" y="575.4712">Either</text><rect fill="#FFFFFF" height="15.7988" style="stroke:#181818;stroke-width:1;stroke-dasharray:2,2;" width="56.6973" x="278.78" y="551.3886"/><text fill="#000000" font-family="Arial" font-size="12" font-style="italic" lengthAdjust="spacing" textLength="54.6973" x="279.78" y="563.6445">Left, Right</text><line style="stroke:#181818;stroke-width:0.5;" x1="70.53" x2="331.4773" y1="586.3886" y2="586.3886"/><text fill="#000000" font-family="Arial" font-size="14" lengthAdjust="spacing" textLength="113.251" x="75.53" y="603.5205">+Is_Left : Boolean</text><text fill="#000000" font-family="Arial" font-size="14" lengthAdjust="spacing" textLength="122.582" x="75.53" y="619.6191">+Is_Right : Boolean</text><line style="stroke:#181818;stroke-width:1;" x1="70.53" x2="331.4773" y1="626.5859" y2="626.5859"/><text fill="#000000" font-family="Arial" font-size="14" lengthAdjust="spacing" textLength="163.8096" x="75.53" y="643.7177">+Left (Value : Left) : Either</text><text fill="#000000" font-family="Arial" font-size="14" lengthAdjust="spacing" textLength="182.4717" x="75.53" y="659.8164">+Right (Value : Right) : Either</text><text fill="#000000" font-family="Arial" font-size="14" lengthAdjust="spacing" textLength="201.9199" x="75.53" y="675.915">+Map_Left (F : Function) : Either</text><text fill="#000000" font-family="Arial" font-size="14" lengthAdjust="spacing" textLength="211.251" x="75.53" y="692.0136">+Map_Right (F : Function) : Either</text><text fill="#000000" font-family="Arial" font-size="14" lengthAdjust="spacing" textLength="250.9473" x="75.53" y="708.1123">+Fold (On_Left, On_Right : Function) : T</text><text fill="#000000" font-family="Arial" font-size="14" lengthAdjust="spacing" textLength="96.8994" x="75.53" y="724.2109">+Get_Left : Left</text><text fill="#000000" font-family="Arial" font-size="14" lengthAdjust="spacing" textLength="115.5615" x="75.53" y="740.3095">+Get_Right : Right</text></g><!--class Result--><g class="entity" data-entity="Result" data-source-line="25" data-uid="ent0006" id="entity_Result"><rect fill="#F1F1F1" height="192.8877" rx="2.5" ry="2.5" style="stroke:#181818;stroke-width:0.5;" width="313.5059" x="677.25" y="554.3886"/><ellipse cx="775.8901" cy="570.3886" fill="#ADD1B2" rx="11" ry="11" style="stroke:#181818;stroke-width:1;"/><path d="M778.3633,576.5317 Q777.7822,576.8305 777.1431,576.9799 Q776.5039,577.1294 775.7983,577.1294 Q773.2915,577.1294 771.9717,575.4775 Q770.6519,573.8256 770.6519,570.7046 Q770.6519,567.5752 771.9717,565.9233 Q773.2915,564.2714 775.7983,564.2714 Q776.5039,564.2714 777.1514,564.4209 Q777.7988,564.5703 778.3633,564.8691 L778.3633,567.5918 Q777.7324,567.0107 777.1389,566.7409 Q776.5454,566.4712 775.9146,566.4712 Q774.5698,566.4712 773.885,567.5378 Q773.2002,568.6045 773.2002,570.7046 Q773.2002,572.7963 773.885,573.863 Q774.5698,574.9296 775.9146,574.9296 Q776.5454,574.9296 777.1389,574.6599 Q777.7324,574.3901 778.3633,573.809 Z " fill="#000000"/><text fill="#000000" font-family="Arial" font-size="14" lengthAdjust="spacing" textLength="39.6826" x="796.3901" y="575.4712">Result</text><rect fill="#FFFFFF" height="15.7988" style="stroke:#181818;stroke-width:1;stroke-dasharray:2,2;" width="66.043" x="927.7129" y="551.3886"/><text fill="#000000" font-family="Arial" font-size="12" font-style="italic" lengthAdjust="spacing" textLength="64.043" x="928.7129" y="563.6445">Value_Type</text><line style="stroke:#181818;stroke-width:0.5;" x1="678.25" x2="989.7559" y1="586.3886" y2="586.3886"/><text fill="#000000" font-family="Arial" font-size="14" lengthAdjust="spacing" textLength="142.8096" x="683.25" y="603.5205">+Is_Success : Boolean</text><text fill="#000000" font-family="Arial" font-size="14" lengthAdjust="spacing" textLength="132.6924" x="683.25" y="619.6191">+Is_Failure : Boolean</text><line style="stroke:#181818;stroke-width:1;" x1="678.25" x2="989.7559" y1="626.5859" y2="626.5859"/><text fill="#000000" font-family="Arial" font-size="14" lengthAdjust="spacing" textLength="247.8438" x="683.25" y="643.7177">+Success (Value : Value_Type) : Result</text><text fill="#000000" font-family="Arial" font-size="14" lengthAdjust="spacing" textLength="245.4512" x="683.25" y="659.8164">+Failure (Error : Domain_Error) : Result</text><text fill="#000000" font-family="Arial" font-size="14" lengthAdjust="spacing" textLength="173.8926" x="683.25" y="675.915">+Map (F : Function) : Result</text><text fill="#000000" font-family="Arial" font-size="14" lengthAdjust="spacing" textLength="174.6787" x="683.25" y="692.0136">+Bind (F : Function) : Result</text><text fill="#000000" font-family="Arial" font-size="14" lengthAdjust="spacing" textLength="301.5059" x="683.25" y="708.1123">+Match (On_Success, On_Failure : Function) : T</text><text fill="#000000" font-family="Arial" font-size="14" lengthAdjust="spacing" textLength="160.7197" x="683.25" y="724.2109">+Get_Value : Value_Type</text><text fill="#000000" font-family="Arial" font-size="14" lengthAdjust="spacing" textLength="168.4443" x="683.25" y="740.3095">+Get_Error : Domain_Error</text></g><g class="entity" data-entity="GMN7" data-source-line="39" data-uid="ent0008" id="entity_GMN7"><path d="M367.33,615.9286 L367.33,646.8286 L332.81,650.8286 L367.33,654.8286 L367.33,685.7236 A0,0 0 0 0 367.33,685.7236 L642.6742,685.7236 A0,0 0 0 0 642.6742,685.7236 L642.6742,625.9286 L632.6742,615.9286 L367.33,615.9286 A0,0 0 0 0 367.33,615.9286" fill="#FEFFDD" style="stroke:#181818;stroke-width:0.5;"/><path d="M632.6742,615.9286 L632.6742,625.9286 L642.6742,625.9286 L632.6742,615.9286" fill="#FEFFDD" style="stroke:#181818;stroke-width:0.5;"/><text fill="#000000" font-family="Arial" font-size="13" font-weight="bold" lengthAdjust="spacing" textLength="239.8398" x="373.33" y="633.1225">Represents one of two possible values</text><text fill="#000000" font-family="Arial" font-size="13" lengthAdjust="spacing" textLength="254.3442" x="373.33" y="648.0712">Used for operations with two valid outcomes</text><text fill="#000000" font-family="Arial" font-size="13" lengthAdjust="spacing" textLength="220.397" x="373.33" y="663.0199">Example: Validation that returns either</text><text fill="#000000" font-family="Arial" font-size="13" lengthAdjust="spacing" textLength="208.8379" x="373.33" y="677.9687">a validated value or validation errors</text></g><g class="entity" data-entity="GMN10" data-source-line="46" data-uid="ent0011" id="entity_GMN10"><path d="M1025.97,615.9286 L1025.97,646.8286 L990.95,650.8286 L1025.97,654.8286 L1025.97,685.7236 A0,0 0 0 0 1025.97,685.7236 L1276.0379,685.7236 A0,0 0 0 0 1276.0379,685.7236 L1276.0379,625.9286 L1266.0379,615.9286 L1025.97,615.9286 A0,0 0 0 0 1025.97,615.9286" fill="#FEFFDD" style="stroke:#181818;stroke-width:0.5;"/><path d="M1266.0379,615.9286 L1266.0379,625.9286 L1276.0379,625.9286 L1266.0379,615.9286" fill="#FEFFDD" style="stroke:#181818;stroke-width:0.5;"/><text fill="#000000" font-family="Arial" font-size="13" font-weight="bold" lengthAdjust="spacing" textLength="184.9771" x="1031.97" y="633.1225">Represents success or failure</text><text fill="#000000" font-family="Arial" font-size="13" lengthAdjust="spacing" textLength="219.667" x="1031.97" y="648.0712">Encapsulates Domain_Error on failure</text><text fill="#000000" font-family="Arial" font-size="13" lengthAdjust="spacing" textLength="229.0679" x="1031.97" y="663.0199">Composable via Map and Bind (Monad)</text><text fill="#000000" font-family="Arial" font-size="13" lengthAdjust="spacing" textLength="166.9053" x="1031.97" y="677.9687">Forces explicit error handling</text></g><!--class Person_Name--><g class="entity" data-entity="Person_Name" data-source-line="54" data-uid="ent0014" id="entity_Person_Name"><rect fill="#F1F1F1" height="120.292" rx="2.5" ry="2.5" style="stroke:#181818;stroke-width:0.5;" width="318.1885" x="705.91" y="335.0886"/><ellipse cx="816.0096" cy="355.0374" fill="#ADD1B2" rx="11" ry="11" style="stroke:#181818;stroke-width:1;"/><path d="M818.4828,361.1804 Q817.9017,361.4793 817.2625,361.6287 Q816.6234,361.7781 815.9178,361.7781 Q813.411,361.7781 812.0912,360.1262 Q810.7713,358.4744 810.7713,355.3533 Q810.7713,352.2239 812.0912,350.572 Q813.411,348.9202 815.9178,348.9202 Q816.6234,348.9202 817.2708,349.0696 Q817.9183,349.219 818.4828,349.5178 L818.4828,352.2405 Q817.8519,351.6594 817.2584,351.3897 Q816.6649,351.1199 816.034,351.1199 Q814.6893,351.1199 814.0045,352.1865 Q813.3197,353.2532 813.3197,355.3533 Q813.3197,357.4451 814.0045,358.5117 Q814.6893,359.5784 816.034,359.5784 Q816.6649,359.5784 817.2584,359.3086 Q817.8519,359.0388 818.4828,358.4578 Z " fill="#000000"/><text fill="#000000" font-family="Arial" font-size="12" font-style="italic" lengthAdjust="spacing" textLength="82.0547" x="840.2269" y="351.3445">&#171;Value Object&#187;</text><text fill="#000000" font-family="Arial" font-size="14" lengthAdjust="spacing" textLength="89.4893" x="836.5096" y="367.0193">Person_Name</text><line style="stroke:#181818;stroke-width:0.5;" x1="706.91" x2="1023.0985" y1="374.9861" y2="374.9861"/><text fill="#000000" font-family="Arial" font-size="14" lengthAdjust="spacing" textLength="86.3721" x="711.91" y="392.1179">-value : String</text><line style="stroke:#181818;stroke-width:1;" x1="706.91" x2="1023.0985" y1="399.0847" y2="399.0847"/><text fill="#000000" font-family="Arial" font-size="14" lengthAdjust="spacing" textLength="306.1885" x="711.91" y="416.2166">+Create (Name : String) : Result&lt;Person_Name&gt;</text><text fill="#000000" font-family="Arial" font-size="14" lengthAdjust="spacing" textLength="117.1133" x="711.91" y="432.3152">+To_String : String</text><text fill="#000000" font-family="Arial" font-size="14" lengthAdjust="spacing" textLength="267.5244" x="711.91" y="448.4138">+"=" (Left, Right : Person_Name) : Boolean</text></g><g class="entity" data-entity="GMN15" data-source-line="63" data-uid="ent0016" id="entity_GMN15"><path d="M1059.37,360.3386 L1059.37,391.2386 L1024.52,395.2386 L1059.37,399.2386 L1059.37,430.1336 A0,0 0 0 0 1059.37,430.1336 L1264.6298,430.1336 A0,0 0 0 0 1264.6298,430.1336 L1264.6298,370.3386 L1254.6298,360.3386 L1059.37,360.3386 A0,0 0 0 0 1059.37,360.3386" fill="#FEFFDD" style="stroke:#181818;stroke-width:0.5;"/><path d="M1254.6298,360.3386 L1254.6298,370.3386 L1264.6298,370.3386 L1254.6298,360.3386" fill="#FEFFDD" style="stroke:#181818;stroke-width:0.5;"/><text fill="#000000" font-family="Arial" font-size="13" font-weight="bold" lengthAdjust="spacing" textLength="147.3735" x="1065.37" y="377.5325">Immutable Value Object</text><text fill="#000000" font-family="Arial" font-size="13" lengthAdjust="spacing" textLength="145.9834" x="1065.37" y="392.4812">Validated on construction</text><text fill="#000000" font-family="Arial" font-size="13" lengthAdjust="spacing" textLength="184.2598" x="1065.37" y="407.4299">Returns Result&lt;Person_Name&gt;</text><text fill="#000000" font-family="Arial" font-size="13" lengthAdjust="spacing" textLength="138.7407" x="1065.37" y="422.3787">Business rules enforced</text></g><!--class Greeting--><g class="entity" data-entity="Greeting" data-source-line="71" data-uid="ent0019" id="entity_Greeting"><rect fill="#F1F1F1" height="71.9961" rx="2.5" ry="2.5" style="stroke:#181818;stroke-width:0.5;" width="379.6709" x="508.16" y="164.0986"/><ellipse cx="646.723" cy="184.0474" fill="#ADD1B2" rx="11" ry="11" style="stroke:#181818;stroke-width:1;"/><path d="M649.1961,190.1904 Q648.6151,190.4893 647.9759,190.6387 Q647.3368,190.7881 646.6312,190.7881 Q644.1244,190.7881 642.8045,189.1362 Q641.4847,187.4844 641.4847,184.3633 Q641.4847,181.2339 642.8045,179.582 Q644.1244,177.9302 646.6312,177.9302 Q647.3368,177.9302 647.9842,178.0796 Q648.6317,178.229 649.1961,178.5278 L649.1961,181.2505 Q648.5653,180.6694 647.9718,180.3997 Q647.3783,180.1299 646.7474,180.1299 Q645.4027,180.1299 644.7179,181.1965 Q644.033,182.2632 644.033,184.3633 Q644.033,186.4551 644.7179,187.5217 Q645.4027,188.5884 646.7474,188.5884 Q647.3783,188.5884 647.9718,188.3186 Q648.5653,188.0488 649.1961,187.4678 Z " fill="#000000"/><text fill="#000000" font-family="Arial" font-size="12" font-style="italic" lengthAdjust="spacing" textLength="98.0449" x="665.223" y="180.3545">&#171;Domain Service&#187;</text><text fill="#000000" font-family="Arial" font-size="14" lengthAdjust="spacing" textLength="53.6963" x="687.3973" y="196.0293">Greeting</text><line style="stroke:#181818;stroke-width:0.5;" x1="509.16" x2="886.8309" y1="203.9961" y2="203.9961"/><line style="stroke:#181818;stroke-width:0.5;" x1="509.16" x2="886.8309" y1="211.9961" y2="211.9961"/><text fill="#000000" font-family="Arial" font-size="14" lengthAdjust="spacing" textLength="367.6709" x="514.16" y="229.1279">+Create_Greeting (Name : Person_Name) : Result&lt;String&gt;</text></g><g class="entity" data-entity="GMN20" data-source-line="76" data-uid="ent0021" id="entity_GMN20"><path d="M923.13,172.6686 L923.13,196.0986 L888.07,200.0986 L923.13,204.0986 L923.13,227.5148 A0,0 0 0 0 923.13,227.5148 L1142.8624,227.5148 A0,0 0 0 0 1142.8624,227.5148 L1142.8624,182.6686 L1132.8624,172.6686 L923.13,172.6686 A0,0 0 0 0 923.13,172.6686" fill="#FEFFDD" style="stroke:#181818;stroke-width:0.5;"/><path d="M1132.8624,172.6686 L1132.8624,182.6686 L1142.8624,182.6686 L1132.8624,172.6686" fill="#FEFFDD" style="stroke:#181818;stroke-width:0.5;"/><text fill="#000000" font-family="Arial" font-size="13" font-weight="bold" lengthAdjust="spacing" textLength="122.8145" x="929.13" y="189.8625">Pure business logic</text><text fill="#000000" font-family="Arial" font-size="13" lengthAdjust="spacing" textLength="198.7324" x="929.13" y="204.8112">No dependencies on infrastructure</text><text fill="#000000" font-family="Arial" font-size="13" lengthAdjust="spacing" textLength="180.6416" x="929.13" y="219.7599">Returns Result to handle errors</text></g><!--class Domain_Error--><g class="entity" data-entity="Domain_Error" data-source-line="83" data-uid="ent0024" id="entity_Domain_Error"><rect fill="#F1F1F1" height="96.2959" rx="2.5" ry="2.5" style="stroke:#181818;stroke-width:0.5;" width="172.3301" x="747.83" y="846.2686"/><ellipse cx="786.7666" cy="862.2686" fill="#EB937F" rx="11" ry="11" style="stroke:#181818;stroke-width:1;"/><path d="M790.3808,868.7686 L782.6611,868.7686 L782.6611,856.3756 L790.3808,856.3756 L790.3808,858.5338 L785.1098,858.5338 L785.1098,861.2066 L789.8828,861.2066 L789.8828,863.3648 L785.1098,863.3648 L785.1098,866.6104 L790.3808,866.6104 Z " fill="#000000"/><text fill="#000000" font-family="Arial" font-size="14" lengthAdjust="spacing" textLength="87.1377" x="806.0858" y="867.3512">Domain_Error</text><line style="stroke:#181818;stroke-width:0.5;" x1="748.83" x2="919.1601" y1="878.2686" y2="878.2686"/><text fill="#000000" font-family="Arial" font-size="14" lengthAdjust="spacing" textLength="137.7441" x="753.83" y="895.4005">Invalid_Person_Name</text><text fill="#000000" font-family="Arial" font-size="14" lengthAdjust="spacing" textLength="136.9512" x="753.83" y="911.4991">Empty_Person_Name</text><text fill="#000000" font-family="Arial" font-size="14" lengthAdjust="spacing" textLength="160.3301" x="753.83" y="927.5977">Person_Name_Too_Long</text><line style="stroke:#181818;stroke-width:0.5;" x1="748.83" x2="919.1601" y1="934.5645" y2="934.5645"/></g><g class="entity" data-entity="GMN25" data-source-line="90" data-uid="ent0026" id="entity_GMN25"><path d="M955.41,866.9986 L955.41,890.4186 L920.61,894.4186 L955.41,898.4186 L955.41,921.8448 A0,0 0 0 0 955.41,921.8448 L1202.5897,921.8448 A0,0 0 0 0 1202.5897,921.8448 L1202.5897,876.9986 L1192.5897,866.9986 L955.41,866.9986 A0,0 0 0 0 955.41,866.9986" fill="#FEFFDD" style="stroke:#181818;stroke-width:0.5;"/><path d="M1192.5897,866.9986 L1192.5897,876.9986 L1202.5897,876.9986 L1192.5897,866.9986" fill="#FEFFDD" style="stroke:#181818;stroke-width:0.5;"/><text fill="#000000" font-family="Arial" font-size="13" font-weight="bold" lengthAdjust="spacing" textLength="141.6035" x="961.41" y="884.1925">Domain-specific errors</text><text fill="#000000" font-family="Arial" font-size="13" lengthAdjust="spacing" textLength="226.1797" x="961.41" y="899.1412">Enumeration of business rule violations</text><text fill="#000000" font-family="Arial" font-size="13" lengthAdjust="spacing" textLength="171.9644" x="961.41" y="914.0899">Used in Result&lt;T&gt; for failures</text></g><!--link Result to Domain_Error--><g class="link" data-entity-1="Result" data-entity-2="Domain_Error" data-source-line="96" data-uid="lnk28" id="link_Result_Domain_Error"><path codeLine="96" d="M834,747.6586 C834,781.3886 834,811.8286 834,839.8386" fill="none" id="Result-to-Domain_Error" style="stroke:#181818;stroke-width:1;stroke-dasharray:7,7;"/><polygon fill="#181818" points="834,845.8386,838,836.8386,834,840.8386,830,836.8386,834,845.8386" style="stroke:#181818;stroke-width:1;"/><text fill="#000000" font-family="Arial" font-size="13" lengthAdjust="spacing" textLength="105.5107" x="835" y="792.4625">contains on failure</text></g><!--link Greeting to Person_Name--><g class="link" data-entity-1="Greeting" data-entity-2="Person_Name" data-source-line="97" data-uid="lnk29" id="link_Greeting_Person_Name"><path codeLine="97" d="M728.63,236.5186 C752.36,263.9686 781.8462,298.0595 809.6462,330.2195" fill="none" id="Greeting-to-Person_Name" style="stroke:#181818;stroke-width:1;stroke-dasharray:7,7;"/><polygon fill="#181818" points="813.57,334.7586,810.7104,325.334,810.3002,330.976,804.6582,330.5657,813.57,334.7586" style="stroke:#181818;stroke-width:1;"/><text fill="#000000" font-family="Arial" font-size="13" lengthAdjust="spacing" textLength="27.46" x="767.54" y="281.2825">uses</text></g><!--link Greeting to Result--><g class="link" data-entity-1="Greeting" data-entity-2="Result" data-source-line="98" data-uid="lnk30" id="link_Greeting_Result"><path codeLine="98" d="M673.1,236.5186 C663.22,252.6786 653.02,272.5386 648,292.0886 C627.31,372.7186 614.48,403.1886 648,479.3886 C660.17,507.0486 675.0975,527.8864 696.5475,549.8464" fill="none" id="Greeting-to-Result" style="stroke:#181818;stroke-width:1;stroke-dasharray:7,7;"/><polygon fill="#181818" points="700.74,554.1386,697.3127,544.9053,697.2462,550.5618,691.5898,550.4954,700.74,554.1386" style="stroke:#181818;stroke-width:1;"/><text fill="#000000" font-family="Arial" font-size="13" lengthAdjust="spacing" textLength="40.46" x="649" y="400.4325">returns</text></g><!--link Person_Name to Result--><g class="link" data-entity-1="Person_Name" data-entity-2="Result" data-source-line="99" data-uid="lnk31" id="link_Person_Name_Result"><path codeLine="99" d="M857.73,455.6986 C854.15,484.9686 850.4782,515.043 846.4382,548.083" fill="none" id="Person_Name-to-Result" style="stroke:#181818;stroke-width:1;stroke-dasharray:7,7;"/><polygon fill="#181818" points="845.71,554.0386,850.7728,545.5907,846.3169,549.0756,842.8319,544.6197,845.71,554.0386" style="stroke:#181818;stroke-width:1;"/><text fill="#000000" font-family="Arial" font-size="13" lengthAdjust="spacing" textLength="112.7026" x="854.19" y="500.5825">returns from Create</text></g><!--SRC=[ZLNBRjiu5DthAsuz6oST1vtP56Du3DGPEJMGj8RZTYlGqfNDAKKA99Kq7VJVvugaRCgFjjx88izzd7CVUbLWoIN2yjDgUP_2Rt_T_lbszYPv5Oxl5tVlrzrT-iSiJTycYVd2PSqqgo0Np9Xtrcg-QImkSYKV-JU4Dn74x5YXdhdSGic4mUY6Gh16sBcIzWEh4DvfpaIIM6u5mZ-gObp2WofGm0ZcZSmjLv89M39hKKkJ93NBlx0jmk3zoqRpuiRRt3YR0KmcAymjark1qscFo7z90Zvr6AJSxb1Fxh6qlyEARtTsEW1cm9yJ5EZt6XOcQo4mXfbI0fayd3kZeulHADmxe-5d9XeaIFjsHK_lF42y_HxZNaz03wps2GpdTDMfSHOM_FqGDrUYWE57cNdUzATZ4Pki0_eERSU-VKIddPLxqldtIDaL6ghknF7ArYyrUc7zSIpiOvFdI1Pdj9qpBXgDbzJjBFVY7OAr-VjG7UNWQfXghJJT-cx9tEi9ceGybR27c75P_0Jom6o-SpA7H9tI1qwNj3vb4rsUIxzJNYgBe5rDL1bN_FfwXRL6Wz8QK3JNT6sV5TJA6BwXSNjgGvdhQuV-PB20agAe6ZLhCpJmJCwS2I5v0QgnkQhGE7pwbLMrG9SmBvm1s1speD4sDAc0XqoOTy0iXN11WU8y7UomvTEwHPAtvNFAAzAunyk4RY27fTSuy4bbpcgoeQ2cfnj9qK4Ty5PLf0XpWd3cce1H6hxK3xHzYYk7cojDaG2_reBdtFgaOKTOGOikJlxxnItbYllZBTMDqXArKJ9pItBY1me-RlubEpBnWpGAOexXaPQnoo6QarkDn1s6paC7ERJh90em3IPhbNbOt-Lh6FmzW66qBka-Ch_gZUgPfeomeOABgcgiqpnc5ahtUTyiL2hwl1Yh6pSpxdOL-kiIZLbZw2D62kf6jFMIPLkuujSAz8ZwYUU_MA8xZMXRjIQJyEKAvliATLN8zj2k74Vo1J9UzEbv5JiVGS9bkqys7LcXjZmF-drGz9cjYItAd6Cx-y1bgPdNiUlxlevWbUzbF3EDb_Lo4_KpjL0sLNy4lJeBwNP0TjmUQLNRbvFJw3rRAvNTAoV56Q6EjcGhbZyQcHfpNl8ySDolYgOAEwyrtyGDH3j12RyE3skIAXqAjfwwdHdsoR5eGTgRcscV_hZjQall9bv6-nvfyV7uZw4nvBjt7roFktMRn0Rd051gLOLsJFu7]--></g></svg>