<svg xmlns="http://www.w3.org/2000/svg" xmlns:xlink="http://www.w3.org/1999/xlink" contentStyleType="text/css" data-diagram-type="CLASS" height="564px" preserveAspectRatio="none" style="width:914px;height:564px;background:#FFFFFF;" version="1.1" viewBox="0 0 914 564" width="914px" zoomAndPan="magnify"><title>Error Handling Strategy - Result Pattern</title><defs/><g><g class="title" data-source-line="11"><text fill="#000000" font-family="Arial" font-size="14" font-weight="bold" lengthAdjust="spacing" textLength="265.2686" x="317.6024" y="23.1318">Error Handling Strategy - Result Pattern</text></g><!--cluster Error Types--><g class="cluster" data-entity="Error Types" data-source-line="13" data-uid="ent0002" id="cluster_Error Types"><path d="M46.5,402.3386 L126.0859,402.3386 A3.75,3.75 0 0 1 128.5859,404.8386 L135.5859,424.4373 L633.5,424.4373 A2.5,2.5 0 0 1 636,426.9373 L636,555.0286 A2.5,2.5 0 0 1 633.5,557.5286 L46.5,557.5286 A2.5,2.5 0 0 1 44,555.0286 L44,404.8386 A2.5,2.5 0 0 1 46.5,402.3386" fill="none" style="stroke:#000000;stroke-width:1.5;"/><line style="stroke:#000000;stroke-width:1.5;" x1="44" x2="135.5859" y1="424.4373" y2="424.4373"/><text fill="#000000" font-family="Arial" font-size="14" font-weight="bold" lengthAdjust="spacing" textLength="78.5859" x="48" y="417.4705">Error Types</text></g><!--cluster Error Handling--><g class="cluster" data-entity="Error Handling" data-source-line="32" data-uid="ent0006" id="cluster_Error Handling"><path d="M8.5,174.8386 L107.5068,174.8386 A3.75,3.75 0 0 1 110.0068,177.3386 L117.0068,196.9373 L690.5,196.9373 A2.5,2.5 0 0 1 693,199.4373 L693,351.8386 A2.5,2.5 0 0 1 690.5,354.3386 L8.5,354.3386 A2.5,2.5 0 0 1 6,351.8386 L6,177.3386 A2.5,2.5 0 0 1 8.5,174.8386" fill="none" style="stroke:#000000;stroke-width:1.5;"/><line style="stroke:#000000;stroke-width:1.5;" x1="6" x2="117.0068" y1="196.9373" y2="196.9373"/><text fill="#000000" font-family="Arial" font-size="14" font-weight="bold" lengthAdjust="spacing" textLength="98.0068" x="10" y="189.9705">Error Handling</text></g><!--class Domain_Error--><g class="entity" data-entity="Domain_Error" data-source-line="14" data-uid="ent0003" id="entity_Domain_Error"><rect fill="#9C27B0" height="104.1934" rx="2.5" ry="2.5" style="stroke:#181818;stroke-width:0.5;" width="172.3301" x="59.83" y="437.3386"/><ellipse cx="98.7666" cy="457.2874" fill="#EB937F" rx="11" ry="11" style="stroke:#181818;stroke-width:1;"/><path d="M102.3808,463.7874 L94.6611,463.7874 L94.6611,451.3943 L102.3808,451.3943 L102.3808,453.5525 L97.1098,453.5525 L97.1098,456.2254 L101.8828,456.2254 L101.8828,458.3836 L97.1098,458.3836 L97.1098,461.6292 L102.3808,461.6292 Z " fill="#000000"/><text fill="#000000" font-family="Arial" font-size="12" font-style="italic" lengthAdjust="spacing" textLength="54.6973" x="134.306" y="453.5945">&#171;Domain&#187;</text><text fill="#000000" font-family="Arial" font-size="14" lengthAdjust="spacing" textLength="87.1377" x="118.0858" y="469.2693">Domain_Error</text><line style="stroke:#181818;stroke-width:0.5;" x1="60.83" x2="231.1601" y1="477.2361" y2="477.2361"/><text fill="#000000" font-family="Arial" font-size="14" lengthAdjust="spacing" textLength="137.7441" x="65.83" y="494.3679">Invalid_Person_Name</text><text fill="#000000" font-family="Arial" font-size="14" lengthAdjust="spacing" textLength="136.9512" x="65.83" y="510.4666">Empty_Person_Name</text><text fill="#000000" font-family="Arial" font-size="14" lengthAdjust="spacing" textLength="160.3301" x="65.83" y="526.5652">Person_Name_Too_Long</text><line style="stroke:#181818;stroke-width:0.5;" x1="60.83" x2="231.1601" y1="533.532" y2="533.532"/></g><!--class Application_Error--><g class="entity" data-entity="Application_Error" data-source-line="20" data-uid="ent0004" id="entity_Application_Error"><rect fill="#2196F3" height="104.1934" rx="2.5" ry="2.5" style="stroke:#181818;stroke-width:0.5;" width="164.4961" x="266.75" y="437.3386"/><ellipse cx="293.0497" cy="457.2874" fill="#EB937F" rx="11" ry="11" style="stroke:#181818;stroke-width:1;"/><path d="M296.6639,463.7874 L288.9442,463.7874 L288.9442,451.3943 L296.6639,451.3943 L296.6639,453.5525 L291.3929,453.5525 L291.3929,456.2254 L296.1659,456.2254 L296.1659,458.3836 L291.3929,458.3836 L291.3929,461.6292 L296.6639,461.6292 Z " fill="#000000"/><text fill="#000000" font-family="Arial" font-size="12" font-style="italic" lengthAdjust="spacing" textLength="72.0527" x="327.2272" y="453.5945">&#171;Application&#187;</text><text fill="#000000" font-family="Arial" font-size="14" lengthAdjust="spacing" textLength="107.3857" x="309.5607" y="469.2693">Application_Error</text><line style="stroke:#181818;stroke-width:0.5;" x1="267.75" x2="430.2461" y1="477.2361" y2="477.2361"/><text fill="#000000" font-family="Arial" font-size="14" lengthAdjust="spacing" textLength="152.4961" x="272.75" y="494.3679">Domain_Error_Occurred</text><text fill="#000000" font-family="Arial" font-size="14" lengthAdjust="spacing" textLength="121.4063" x="272.75" y="510.4666">Output_Port_Failed</text><text fill="#000000" font-family="Arial" font-size="14" lengthAdjust="spacing" textLength="79.3926" x="272.75" y="526.5652">Invalid_Input</text><line style="stroke:#181818;stroke-width:0.5;" x1="267.75" x2="430.2461" y1="533.532" y2="533.532"/></g><!--class Infrastructure_Error--><g class="entity" data-entity="Infrastructure_Error" data-source-line="26" data-uid="ent0005" id="entity_Infrastructure_Error"><rect fill="#FF9800" height="88.0947" rx="2.5" ry="2.5" style="stroke:#181818;stroke-width:0.5;" width="153.3721" x="466.31" y="445.3886"/><ellipse cx="481.31" cy="465.3374" fill="#EB937F" rx="11" ry="11" style="stroke:#181818;stroke-width:1;"/><path d="M484.9243,471.8374 L477.2045,471.8374 L477.2045,459.4443 L484.9243,459.4443 L484.9243,461.6025 L479.6533,461.6025 L479.6533,464.2754 L484.4262,464.2754 L484.4262,466.4336 L479.6533,466.4336 L479.6533,469.6792 L484.9243,469.6792 Z " fill="#000000"/><text fill="#000000" font-family="Arial" font-size="12" font-style="italic" lengthAdjust="spacing" textLength="84.041" x="513.9755" y="461.6445">&#171;Infrastructure&#187;</text><text fill="#000000" font-family="Arial" font-size="14" lengthAdjust="spacing" textLength="121.3721" x="495.31" y="477.3193">Infrastructure_Error</text><line style="stroke:#181818;stroke-width:0.5;" x1="467.31" x2="618.6821" y1="485.2861" y2="485.2861"/><text fill="#000000" font-family="Arial" font-size="14" lengthAdjust="spacing" textLength="53.6758" x="472.31" y="502.4179">IO_Error</text><text fill="#000000" font-family="Arial" font-size="14" lengthAdjust="spacing" textLength="85.5723" x="472.31" y="518.5166">System_Error</text><line style="stroke:#181818;stroke-width:0.5;" x1="467.31" x2="618.6821" y1="525.4834" y2="525.4834"/></g><!--class Result--><g class="entity" data-entity="Result" data-source-line="33" data-uid="ent0007" id="entity_Result"><rect fill="#FFEBEE" height="128.4932" rx="2.5" ry="2.5" style="stroke:#181818;stroke-width:0.5;" width="248.1406" x="21.93" y="209.8386"/><ellipse cx="116.244" cy="225.8386" fill="#ADD1B2" rx="11" ry="11" style="stroke:#181818;stroke-width:1;"/><path d="M118.7171,231.9817 Q118.1361,232.2805 117.4969,232.4299 Q116.8577,232.5794 116.1522,232.5794 Q113.6453,232.5794 112.3255,230.9275 Q111.0057,229.2756 111.0057,226.1546 Q111.0057,223.0252 112.3255,221.3733 Q113.6453,219.7214 116.1522,219.7214 Q116.8577,219.7214 117.5052,219.8709 Q118.1527,220.0203 118.7171,220.3191 L118.7171,223.0418 Q118.0863,222.4607 117.4927,222.1909 Q116.8992,221.9212 116.2684,221.9212 Q114.9237,221.9212 114.2388,222.9878 Q113.554,224.0545 113.554,226.1546 Q113.554,228.2463 114.2388,229.313 Q114.9237,230.3796 116.2684,230.3796 Q116.8992,230.3796 117.4927,230.1099 Q118.0863,229.8401 118.7171,229.259 Z " fill="#000000"/><text fill="#000000" font-family="Arial" font-size="14" lengthAdjust="spacing" textLength="39.6826" x="136.744" y="230.9212">Result</text><rect fill="#FFFFFF" height="15.7988" style="stroke:#181818;stroke-width:1;stroke-dasharray:2,2;" width="9.3301" x="263.7405" y="206.8386"/><text fill="#000000" font-family="Arial" font-size="12" font-style="italic" lengthAdjust="spacing" textLength="7.3301" x="264.7405" y="219.0945">T</text><line style="stroke:#181818;stroke-width:0.5;" x1="22.93" x2="269.0706" y1="241.8386" y2="241.8386"/><text fill="#000000" font-family="Arial" font-size="14" lengthAdjust="spacing" textLength="142.8096" x="27.93" y="258.9705">+Is_Success : Boolean</text><text fill="#000000" font-family="Arial" font-size="14" lengthAdjust="spacing" textLength="132.6924" x="27.93" y="275.0691">+Is_Failure : Boolean</text><line style="stroke:#181818;stroke-width:1;" x1="22.93" x2="269.0706" y1="282.0359" y2="282.0359"/><text fill="#000000" font-family="Arial" font-size="14" lengthAdjust="spacing" textLength="200.3545" x="27.93" y="299.1677">+Map (F : Function) : Result&lt;U&gt;</text><text fill="#000000" font-family="Arial" font-size="14" lengthAdjust="spacing" textLength="201.1406" x="27.93" y="315.2664">+Bind (F : Function) : Result&lt;U&gt;</text><text fill="#000000" font-family="Arial" font-size="14" lengthAdjust="spacing" textLength="236.1406" x="27.93" y="331.365">+Match (On_Success, On_Failure) : T</text></g><!--class Error_Transform--><g class="entity" data-entity="Error_Transform" data-source-line="42" data-uid="ent0008" id="entity_Error_Transform"><rect fill="#F1F1F1" height="88.0947" rx="2.5" ry="2.5" style="stroke:#181818;stroke-width:0.5;" width="371.0918" x="305.45" y="230.0386"/><ellipse cx="435.4046" cy="249.9874" fill="#ADD1B2" rx="11" ry="11" style="stroke:#181818;stroke-width:1;"/><path d="M437.8777,256.1304 Q437.2967,256.4293 436.6575,256.5787 Q436.0184,256.7281 435.3128,256.7281 Q432.806,256.7281 431.4861,255.0762 Q430.1663,253.4244 430.1663,250.3033 Q430.1663,247.1739 431.4861,245.522 Q432.806,243.8702 435.3128,243.8702 Q436.0184,243.8702 436.6658,244.0196 Q437.3133,244.169 437.8777,244.4678 L437.8777,247.1905 Q437.2469,246.6094 436.6534,246.3397 Q436.0599,246.0699 435.429,246.0699 Q434.0843,246.0699 433.3995,247.1365 Q432.7146,248.2032 432.7146,250.3033 Q432.7146,252.3951 433.3995,253.4617 Q434.0843,254.5284 435.429,254.5284 Q436.0599,254.5284 436.6534,254.2586 Q437.2469,253.9888 437.8777,253.4078 Z " fill="#000000"/><text fill="#000000" font-family="Arial" font-size="12" font-style="italic" lengthAdjust="spacing" textLength="84.041" x="465.2254" y="246.2945">&#171;Infrastructure&#187;</text><text fill="#000000" font-family="Arial" font-size="14" lengthAdjust="spacing" textLength="102.6826" x="455.9046" y="261.9693">Error_Transform</text><line style="stroke:#181818;stroke-width:0.5;" x1="306.45" x2="675.5418" y1="269.9361" y2="269.9361"/><line style="stroke:#181818;stroke-width:0.5;" x1="306.45" x2="675.5418" y1="277.9361" y2="277.9361"/><text fill="#000000" font-family="Arial" font-size="14" lengthAdjust="spacing" textLength="359.0918" x="311.45" y="295.0679">+To_Application_Error (Domain_Error) : Application_Error</text><text fill="#000000" font-family="Arial" font-size="14" lengthAdjust="spacing" textLength="293.7539" x="311.45" y="311.1666">+To_Exit_Code (Application_Error) : Exit_Code</text></g><g class="entity" data-entity="GMN9" data-source-line="49" data-uid="ent0010" id="entity_GMN9"><path d="M44.81,43.0986 L44.81,127.8423 A0,0 0 0 0 44.81,127.8423 L142,127.8423 L146,209.4186 L150,127.8423 L247.1879,127.8423 A0,0 0 0 0 247.1879,127.8423 L247.1879,53.0986 L237.1879,43.0986 L44.81,43.0986 A0,0 0 0 0 44.81,43.0986" fill="#FEFFDD" style="stroke:#181818;stroke-width:0.5;"/><path d="M237.1879,43.0986 L237.1879,53.0986 L247.1879,53.0986 L237.1879,43.0986" fill="#FEFFDD" style="stroke:#181818;stroke-width:0.5;"/><text fill="#000000" font-family="Arial" font-size="13" font-weight="bold" lengthAdjust="spacing" textLength="140.8545" x="50.81" y="60.2925">Explicit Error Handling</text><text fill="#000000" font-family="Arial" font-size="13" lengthAdjust="spacing" textLength="181.3779" x="50.81" y="75.2412">No exceptions in business logic</text><text fill="#000000" font-family="Arial" font-size="13" lengthAdjust="spacing" textLength="98.979" x="50.81" y="90.1899">Errors are values</text><text fill="#000000" font-family="Arial" font-size="13" lengthAdjust="spacing" textLength="158.2471" x="50.81" y="105.1387">Composable with Map/Bind</text><text fill="#000000" font-family="Arial" font-size="13" lengthAdjust="spacing" textLength="174.8906" x="50.81" y="120.0874">Forces handling at boundaries</text></g><g class="entity" data-entity="GMN12" data-source-line="57" data-uid="ent0013" id="entity_GMN12"><path d="M654.53,454.5386 L654.53,524.3336 A0,0 0 0 0 654.53,524.3336 L907.4734,524.3336 A0,0 0 0 0 907.4734,524.3336 L907.4734,464.5386 L897.4734,454.5386 L738.46,454.5386 L550.04,318.5186 L730.46,454.5386 L654.53,454.5386 A0,0 0 0 0 654.53,454.5386" fill="#FEFFDD" style="stroke:#181818;stroke-width:0.5;"/><path d="M897.4734,454.5386 L897.4734,464.5386 L907.4734,464.5386 L897.4734,454.5386" fill="#FEFFDD" style="stroke:#181818;stroke-width:0.5;"/><text fill="#000000" font-family="Arial" font-size="13" font-weight="bold" lengthAdjust="spacing" textLength="209.5361" x="660.53" y="471.7325">Transforms errors between layers</text><text fill="#000000" font-family="Arial" font-size="13" lengthAdjust="spacing" textLength="225.4243" x="660.53" y="486.6812">Domain &#8594; Application &#8594; Infrastructure</text><text fill="#000000" font-family="Arial" font-size="13" lengthAdjust="spacing" textLength="231.9434" x="660.53" y="501.6299">Application &#8594; Presentation (Exit Codes)</text><text fill="#000000" font-family="Arial" font-size="13" lengthAdjust="spacing" textLength="157.498" x="660.53" y="516.5787">Preserves error information</text></g><!--link Result to Domain_Error--><g class="link" data-entity-1="Result" data-entity-2="Domain_Error" data-source-line="64" data-uid="lnk15" id="link_Result_Domain_Error"><path codeLine="64" d="M146,338.8086 C146,370.1186 146,401.3586 146,430.8486" fill="none" id="Result-to-Domain_Error" style="stroke:#181818;stroke-width:1;stroke-dasharray:7,7;"/><polygon fill="#181818" points="146,436.8486,150,427.8486,146,431.8486,142,427.8486,146,436.8486" style="stroke:#181818;stroke-width:1;"/><text fill="#000000" font-family="Arial" font-size="13" lengthAdjust="spacing" textLength="70.0908" x="147" y="383.5325">may contain</text></g><!--link Result to Application_Error--><g class="link" data-entity-1="Result" data-entity-2="Application_Error" data-source-line="65" data-uid="lnk16" id="link_Result_Application_Error"><path codeLine="65" d="M206.63,338.8086 C236.42,370.1186 267.7133,403.0126 295.7833,432.5026" fill="none" id="Result-to-Application_Error" style="stroke:#181818;stroke-width:1;stroke-dasharray:7,7;"/><polygon fill="#181818" points="299.92,436.8486,296.6122,427.5718,296.4727,433.227,290.8176,433.0875,299.92,436.8486" style="stroke:#181818;stroke-width:1;"/><text fill="#000000" font-family="Arial" font-size="13" lengthAdjust="spacing" textLength="70.0908" x="248.5" y="383.5325">may contain</text></g><!--link Error_Transform to Domain_Error--><g class="link" data-entity-1="Error_Transform" data-entity-2="Domain_Error" data-source-line="66" data-uid="lnk17" id="link_Error_Transform_Domain_Error"><path codeLine="66" d="M441.46,318.5886 C410.9,342.8386 369.68,371.1286 328,386.3386 C294.85,398.4286 281.22,379.9286 249,394.3386 C227,404.1786 210.8348,416.3888 194.0448,432.7688" fill="none" id="Error_Transform-to-Domain_Error" style="stroke:#181818;stroke-width:1;stroke-dasharray:7,7;"/><polygon fill="#181818" points="189.75,436.9586,198.9854,433.537,193.329,433.4671,193.3989,427.8106,189.75,436.9586" style="stroke:#181818;stroke-width:1;"/><text fill="#000000" font-family="Arial" font-size="13" lengthAdjust="spacing" textLength="61.4009" x="363.28" y="383.5325">transforms</text></g><!--link Error_Transform to Application_Error--><g class="link" data-entity-1="Error_Transform" data-entity-2="Application_Error" data-source-line="67" data-uid="lnk18" id="link_Error_Transform_Application_Error"><path codeLine="67" d="M476.18,318.5286 C467.96,339.8286 456.63,365.3386 443,386.3386 C431.52,404.0186 420.9867,417.1363 406.7167,432.5463" fill="none" id="Error_Transform-to-Application_Error" style="stroke:#181818;stroke-width:1;stroke-dasharray:7,7;"/><polygon fill="#181818" points="402.64,436.9486,411.6899,433.0629,406.0372,433.28,405.8201,427.6273,402.64,436.9486" style="stroke:#181818;stroke-width:1;"/><text fill="#000000" font-family="Arial" font-size="13" lengthAdjust="spacing" textLength="61.4009" x="452.47" y="383.5325">transforms</text></g><!--SRC=[XLJRJjj047ttLqpfGqDQA0L42qAH4h0XKY1H4fwjZJD9LjYxrkuOI2jU-m7zn7v9Ptr9d8lKD-yvPtPcpipwmnHdKY4CdeQ3dWyVBszEltTEl0ybtEazCNZwxV8YE5k1_M7xyOxX8BZySRBM3lrRnixFpyukLbYlUtS_BeZ0x_Y-vzbdgL9XH09HBAnj4navoGYxaLOZ-HFXf2Qn2p7LhrBDOIPYYpM6xnTPJ85Mz2WIXBQH8lOyaXGZ-CPe0_T2JMCNEo8Z2ETBE88XMew2WI12epml5T6pc2CS527ZPOhs07vv0AYo16vr8gGA2_BwkZYsMfLRJWVGLIyYbjDmWCPg5RfoSjnFKbhkeBLpEDOwx6arP-BTgtAsqpIMaI2frubh66VFXrBahXSOzgCeCmQdETFFACqe76X3OI1aNC9LiLt5x4RUhfePOSba4MK6LwatOSvUJh_ilLy8yyDeQGcJ5V3klUyONCsay3ZV03WeXd8zRXs0iDM8LfjJ9FeCNHkEiYX2ZhY2ZjOn2hMcN8jStnPrT5Gg7aGAZO3P85EHi_6GlykyJwrIr95g-d_LWw1e0Os-gihv0lnTvdS1uyhMehrYDcCZb9rfa-opj6fnhCFTwJVgCtRtxqZMqVwRfF16Jn4QEoeNkkAhyIXD2AHJqBEoKMQQJV_D1KlQUadD9hEF6l0jmjJTR44gc6IMdpft6kkvZ5YH1raGF0vUjWmjOpSwIRKL4twThv8MRY1VdTzC1TgmZR2edgiWcEXCJOMH78ey4rTbMUj44-d4bRlbQrxtwcG1Yo8cIA-82cAnv8UNDr3u2Nz__wbRcPyt9yFQRS70e4L51T1mTeApqnwoDkVC2vQvsHfNIIwjTV69VOvpq2vaQhrotO-FMvj_coj8n1BufqYCrLMx6x8ftTwtFJVJogQzwdqPQY7_0000]--></g></svg>