<svg xmlns="http://www.w3.org/2000/svg" xmlns:xlink="http://www.w3.org/1999/xlink" contentStyleType="text/css" data-diagram-type="CLASS" height="874.8px" preserveAspectRatio="none" style="width:1600px;height:874px;background:#FFFFFF;" version="1.1" viewBox="0 0 1600 874" width="1600.8px" zoomAndPan="magnify"><defs/><g><!--cluster Domain Layer--><g class="cluster" data-entity="Domain Layer" data-source-line="4" data-uid="ent0002" id="cluster_Domain Layer"><path d="M899.4,13.2 L1030.8984,13.2 A4.5,4.5 0 0 1 1033.8984,16.2 L1042.2984,40.8176 L1589.4,40.8176 A3,3 0 0 1 1592.4,43.8176 L1592.4,352.272 A3,3 0 0 1 1589.4,355.272 L899.4,355.272 A3,3 0 0 1 896.4,352.272 L896.4,16.2 A3,3 0 0 1 899.4,13.2" fill="#FFFFFF" style="stroke:#000000;stroke-width:1.2;"/><line style="stroke:#000000;stroke-width:1.2;" x1="896.4" x2="1042.2984" y1="40.8176" y2="40.8176"/><text fill="#000000" font-family="Verdana" font-size="16.8" font-weight="bold" lengthAdjust="spacing" textLength="130.2984" x="901.2" y="32.4902">Domain Layer</text></g><!--cluster Application Layer--><g class="cluster" data-entity="Application Layer" data-source-line="23" data-uid="ent0008" id="cluster_Application Layer"><path d="M921,414.072 L1086.3363,414.072 A4.5,4.5 0 0 1 1089.3363,417.072 L1097.7363,441.6896 L1554.6,441.6896 A3,3 0 0 1 1557.6,444.6896 L1557.6,607.944 A3,3 0 0 1 1554.6,610.944 L921,610.944 A3,3 0 0 1 918,607.944 L918,417.072 A3,3 0 0 1 921,414.072" fill="#FFFFFF" style="stroke:#000000;stroke-width:1.2;"/><line style="stroke:#000000;stroke-width:1.2;" x1="918" x2="1097.7363" y1="441.6896" y2="441.6896"/><text fill="#000000" font-family="Verdana" font-size="16.8" font-weight="bold" lengthAdjust="spacing" textLength="164.1363" x="922.8" y="433.3622">Application Layer</text></g><!--cluster Infrastructure Layer--><g class="cluster" data-entity="Infrastructure Layer" data-source-line="39" data-uid="ent0013" id="cluster_Infrastructure Layer"><path d="M16.2,434.496 L210.2719,434.496 A4.5,4.5 0 0 1 213.2719,437.496 L221.6719,462.1136 L886.2,462.1136 A3,3 0 0 1 889.2,465.1136 L889.2,587.532 A3,3 0 0 1 886.2,590.532 L16.2,590.532 A3,3 0 0 1 13.2,587.532 L13.2,437.496 A3,3 0 0 1 16.2,434.496" fill="#FFFFFF" style="stroke:#000000;stroke-width:1.2;"/><line style="stroke:#000000;stroke-width:1.2;" x1="13.2" x2="221.6719" y1="462.1136" y2="462.1136"/><text fill="#000000" font-family="Verdana" font-size="16.8" font-weight="bold" lengthAdjust="spacing" textLength="192.8719" x="18" y="453.7862">Infrastructure Layer</text></g><!--cluster Bootstrap (Composition Root)--><g class="cluster" data-entity="Bootstrap .Composition Root." data-source-line="56" data-uid="ent0019" id="cluster_Bootstrap .Composition Root."><path d="M388.2,669.744 L672.818,669.744 A4.5,4.5 0 0 1 675.818,672.744 L684.218,697.3616 L1350.6,697.3616 A3,3 0 0 1 1353.6,700.3616 L1353.6,863.616 A3,3 0 0 1 1350.6,866.616 L388.2,866.616 A3,3 0 0 1 385.2,863.616 L385.2,672.744 A3,3 0 0 1 388.2,669.744" fill="#FFFFFF" style="stroke:#000000;stroke-width:1.2;"/><line style="stroke:#000000;stroke-width:1.2;" x1="385.2" x2="684.218" y1="697.3616" y2="697.3616"/><text fill="#000000" font-family="Verdana" font-size="16.8" font-weight="bold" lengthAdjust="spacing" textLength="283.418" x="390" y="689.0342">Bootstrap (Composition Root)</text></g><!--class PersonName--><g class="entity" data-entity="PersonName" data-source-line="5" data-uid="ent0003" id="entity_PersonName"><rect fill="#FFFFFF" height="73.2176" rx="3" ry="3" style="stroke:#000000;stroke-width:1.2;" width="448.7836" x="915.612" y="56.4"/><ellipse cx="1082.5567" cy="73.2" fill="#FFFFFF" rx="10.8" ry="10.8" style="stroke:#000000;stroke-width:1.2;"/><path d="M1085.5245,80.5717 Q1084.8272,80.9303 1084.0602,81.1096 Q1083.2933,81.2889 1082.4466,81.2889 Q1079.4384,81.2889 1077.8546,79.3066 Q1076.2708,77.3244 1076.2708,73.5791 Q1076.2708,69.8238 1077.8546,67.8416 Q1079.4384,65.8594 1082.4466,65.8594 Q1083.2933,65.8594 1084.0702,66.0387 Q1084.8472,66.218 1085.5245,66.5766 L1085.5245,69.8438 Q1084.7675,69.1465 1084.0553,68.8228 Q1083.3431,68.499 1082.586,68.499 Q1080.9724,68.499 1080.1506,69.779 Q1079.3288,71.059 1079.3288,73.5791 Q1079.3288,76.0893 1080.1506,77.3692 Q1080.9724,78.6492 1082.586,78.6492 Q1083.3431,78.6492 1084.0553,78.3255 Q1084.7675,78.0018 1085.5245,77.3045 Z " fill="#000000"/><text fill="#000000" font-family="Verdana" font-size="16.8" lengthAdjust="spacing" textLength="105.8941" x="1103.5567" y="79.8814">PersonName</text><line style="stroke:#000000;stroke-width:1.2;" x1="916.812" x2="1363.1956" y1="90" y2="90"/><line style="stroke:#000000;stroke-width:1.2;" x1="916.812" x2="1363.1956" y1="99.6" y2="99.6"/><ellipse cx="928.812" cy="116.4088" fill="#FFFFFF" rx="3.6" ry="3.6" style="stroke:#000000;stroke-width:1.2;"/><text fill="#000000" font-family="Verdana" font-size="16.8" lengthAdjust="spacing" textLength="419.9836" x="937.212" y="121.2902">Create(raw: String): Result&lt;PersonName, Error&gt;</text></g><!--class DomainService--><g class="entity" data-entity="DomainService" data-source-line="9" data-uid="ent0004" id="entity_DomainService"><rect fill="#FFFFFF" height="114.0527" rx="3" ry="3" style="stroke:#000000;stroke-width:1.2;" width="344.6168" x="916.092" y="222.024"/><ellipse cx="985.6065" cy="238.824" fill="#FFFFFF" rx="10.8" ry="10.8" style="stroke:#000000;stroke-width:1.2;"/><path d="M988.5742,246.1957 Q987.877,246.5543 987.11,246.7336 Q986.343,246.9129 985.4963,246.9129 Q982.4881,246.9129 980.9043,244.9306 Q979.3205,242.9484 979.3205,239.2031 Q979.3205,235.4478 980.9043,233.4656 Q982.4881,231.4834 985.4963,231.4834 Q986.343,231.4834 987.1199,231.6627 Q987.8969,231.842 988.5742,232.2006 L988.5742,235.4677 Q987.8172,234.7705 987.105,234.4468 Q986.3928,234.123 985.6357,234.123 Q984.0221,234.123 983.2003,235.403 Q982.3785,236.683 982.3785,239.2031 Q982.3785,241.7133 983.2003,242.9932 Q984.0221,244.2732 985.6357,244.2732 Q986.3928,244.2732 987.105,243.9495 Q987.8172,243.6258 988.5742,242.9285 Z " fill="#000000"/><text fill="#000000" font-family="Verdana" font-size="16.8" lengthAdjust="spacing" textLength="196.5879" x="1006.6065" y="245.5054">Greeting_Service_Spec</text><line style="stroke:#000000;stroke-width:1.2;" x1="917.292" x2="1259.5088" y1="255.624" y2="255.624"/><text fill="#000000" font-family="Verdana" font-size="16.8" font-weight="bold" lengthAdjust="spacing" textLength="70.0055" x="923.292" y="277.3142">generic</text><text fill="#000000" font-family="Verdana" font-size="16.8" lengthAdjust="spacing" textLength="266.257" x="923.292" y="297.7318">with package PersonName_Ops</text><line style="stroke:#000000;stroke-width:1.2;" x1="917.292" x2="1259.5088" y1="306.0592" y2="306.0592"/><text fill="#000000" font-family="Verdana" font-size="16.8" lengthAdjust="spacing" textLength="330.2168" x="923.292" y="327.7494">function CreateGreeting(name): Result</text></g><g class="entity" data-entity="GMN5" data-source-line="17" data-uid="ent0006" id="entity_GMN5"><path d="M1302.36,244.608 L1302.36,274.248 L1261.296,279.048 L1302.36,283.848 L1302.36,313.4855 A0,0 0 0 0 1302.36,313.4855 L1572.8411,313.4855 A0,0 0 0 0 1572.8411,313.4855 L1572.8411,256.608 L1560.8411,244.608 L1302.36,244.608 A0,0 0 0 0 1302.36,244.608" fill="#FFFFFF" style="stroke:#000000;stroke-width:1.2;"/><path d="M1560.8411,244.608 L1560.8411,256.608 L1572.8411,256.608 L1560.8411,244.608" fill="#FFFFFF" style="stroke:#000000;stroke-width:1.2;"/><text fill="#000000" font-family="Verdana" font-size="15.6" lengthAdjust="spacing" textLength="149.4949" x="1309.56" y="266.2918">Pure business logic</text><text fill="#000000" font-family="Verdana" font-size="15.6" lengthAdjust="spacing" textLength="245.2811" x="1309.56" y="285.251">No infrastructure dependencies</text><text fill="#000000" font-family="Verdana" font-size="15.6" lengthAdjust="spacing" textLength="235.173" x="1309.56" y="304.2101">Generic over value operations</text></g><!--class AppService--><g class="entity" data-entity="AppService" data-source-line="24" data-uid="ent0009" id="entity_AppService"><rect fill="#FFFFFF" height="134.4703" rx="3" ry="3" style="stroke:#000000;stroke-width:1.2;" width="302.2395" x="937.284" y="457.272"/><ellipse cx="994.1246" cy="474.072" fill="#FFFFFF" rx="10.8" ry="10.8" style="stroke:#000000;stroke-width:1.2;"/><path d="M997.0924,481.4437 Q996.3951,481.8023 995.6281,481.9816 Q994.8611,482.1609 994.0145,482.1609 Q991.0063,482.1609 989.4225,480.1786 Q987.8387,478.1964 987.8387,474.4511 Q987.8387,470.6958 989.4225,468.7136 Q991.0063,466.7314 994.0145,466.7314 Q994.8611,466.7314 995.6381,466.9107 Q996.4151,467.09 997.0924,467.4486 L997.0924,470.7157 Q996.3354,470.0185 995.6232,469.6948 Q994.911,469.371 994.1539,469.371 Q992.5403,469.371 991.7185,470.651 Q990.8967,471.931 990.8967,474.4511 Q990.8967,476.9613 991.7185,478.2412 Q992.5403,479.5212 994.1539,479.5212 Q994.911,479.5212 995.6232,479.1975 Q996.3354,478.8738 997.0924,478.1765 Z " fill="#000000"/><text fill="#000000" font-family="Verdana" font-size="16.8" lengthAdjust="spacing" textLength="179.5582" x="1015.1246" y="480.7534">CreateGreeting_Spec</text><line style="stroke:#000000;stroke-width:1.2;" x1="938.484" x2="1238.3235" y1="490.872" y2="490.872"/><text fill="#000000" font-family="Verdana" font-size="16.8" font-weight="bold" lengthAdjust="spacing" textLength="70.0055" x="944.484" y="512.5622">generic</text><text fill="#000000" font-family="Verdana" font-size="16.8" lengthAdjust="spacing" textLength="287.8395" x="944.484" y="532.9798">with function Create_Greeting(...)</text><text fill="#000000" font-family="Verdana" font-size="16.8" lengthAdjust="spacing" textLength="262.8855" x="944.484" y="553.3974">with function Write_Output(...)</text><line style="stroke:#000000;stroke-width:1.2;" x1="938.484" x2="1238.3235" y1="561.7247" y2="561.7247"/><text fill="#000000" font-family="Verdana" font-size="16.8" lengthAdjust="spacing" textLength="284.2055" x="944.484" y="583.415">procedure Execute(name: String)</text></g><g class="entity" data-entity="GMN10" data-source-line="33" data-uid="ent0011" id="entity_GMN10"><path d="M1281.528,490.068 L1281.528,519.708 L1240.092,524.508 L1281.528,529.308 L1281.528,558.9455 A0,0 0 0 0 1281.528,558.9455 L1538.4733,558.9455 A0,0 0 0 0 1538.4733,558.9455 L1538.4733,502.068 L1526.4733,490.068 L1281.528,490.068 A0,0 0 0 0 1281.528,490.068" fill="#FFFFFF" style="stroke:#000000;stroke-width:1.2;"/><path d="M1526.4733,490.068 L1526.4733,502.068 L1538.4733,502.068 L1526.4733,490.068" fill="#FFFFFF" style="stroke:#000000;stroke-width:1.2;"/><text fill="#000000" font-family="Verdana" font-size="15.6" lengthAdjust="spacing" textLength="178.2117" x="1288.728" y="511.7518">Use case orchestration</text><text fill="#000000" font-family="Verdana" font-size="15.6" lengthAdjust="spacing" textLength="231.7453" x="1288.728" y="530.711">Generic over domain services</text><text fill="#000000" font-family="Verdana" font-size="15.6" lengthAdjust="spacing" textLength="202.0688" x="1288.728" y="549.6701">Generic over output ports</text></g><!--class ConsoleAdapter--><g class="entity" data-entity="ConsoleAdapter" data-source-line="40" data-uid="ent0014" id="entity_ConsoleAdapter"><rect fill="#FFFFFF" height="73.2176" rx="3" ry="3" style="stroke:#000000;stroke-width:1.2;" width="249.9609" x="32.22" y="487.896"/><ellipse cx="86.4848" cy="504.696" fill="#FFFFFF" rx="10.8" ry="10.8" style="stroke:#000000;stroke-width:1.2;"/><path d="M89.4526,512.0677 Q88.7554,512.4263 87.9884,512.6056 Q87.2214,512.7849 86.3747,512.7849 Q83.3665,512.7849 81.7827,510.8026 Q80.1989,508.8204 80.1989,505.0751 Q80.1989,501.3198 81.7827,499.3376 Q83.3665,497.3554 86.3747,497.3554 Q87.2214,497.3554 87.9983,497.5347 Q88.7753,497.714 89.4526,498.0726 L89.4526,501.3397 Q88.6956,500.6425 87.9834,500.3188 Q87.2712,499.995 86.5141,499.995 Q84.9005,499.995 84.0787,501.275 Q83.2569,502.555 83.2569,505.0751 Q83.2569,507.5853 84.0787,508.8652 Q84.9005,510.1452 86.5141,510.1452 Q87.2712,510.1452 87.9834,509.8215 Q88.6956,509.4978 89.4526,508.8005 Z " fill="#000000"/><text fill="#000000" font-family="Verdana" font-size="16.8" lengthAdjust="spacing" textLength="132.4313" x="107.4848" y="511.3774">ConsoleAdapter</text><line style="stroke:#000000;stroke-width:1.2;" x1="33.42" x2="280.9809" y1="521.496" y2="521.496"/><line style="stroke:#000000;stroke-width:1.2;" x1="33.42" x2="280.9809" y1="531.096" y2="531.096"/><text fill="#000000" font-family="Verdana" font-size="16.8" lengthAdjust="spacing" textLength="235.5609" x="39.42" y="552.7862">function Write(msg): Result</text></g><!--class PersonName_Operations--><g class="entity" data-entity="PersonName_Operations" data-source-line="44" data-uid="ent0015" id="entity_PersonName_Operations"><rect fill="#FFFFFF" height="93.6352" rx="3" ry="3" style="stroke:#000000;stroke-width:1.2;" width="273.4055" x="596.496" y="477.696"/><ellipse cx="626.2541" cy="494.496" fill="#FFFFFF" rx="10.8" ry="10.8" style="stroke:#000000;stroke-width:1.2;"/><path d="M629.2219,501.8677 Q628.5246,502.2263 627.7576,502.4056 Q626.9906,502.5849 626.144,502.5849 Q623.1358,502.5849 621.552,500.6026 Q619.9682,498.6204 619.9682,494.8751 Q619.9682,491.1198 621.552,489.1376 Q623.1358,487.1554 626.144,487.1554 Q626.9906,487.1554 627.7676,487.3347 Q628.5446,487.514 629.2219,487.8726 L629.2219,491.1397 Q628.4649,490.4425 627.7527,490.1188 Q627.0405,489.795 626.2834,489.795 Q624.6698,489.795 623.848,491.075 Q623.0262,492.355 623.0262,494.8751 Q623.0262,497.3853 623.848,498.6652 Q624.6698,499.9452 626.2834,499.9452 Q627.0405,499.9452 627.7527,499.6215 Q628.4649,499.2978 629.2219,498.6005 Z " fill="#000000"/><text fill="#000000" font-family="Verdana" font-size="16.8" lengthAdjust="spacing" textLength="208.343" x="643.8004" y="501.1774">PersonName_Operations</text><line style="stroke:#000000;stroke-width:1.2;" x1="597.696" x2="868.7015" y1="511.296" y2="511.296"/><line style="stroke:#000000;stroke-width:1.2;" x1="597.696" x2="868.7015" y1="520.896" y2="520.896"/><text fill="#000000" font-family="Verdana" font-size="16.8" lengthAdjust="spacing" textLength="241.6148" x="603.696" y="542.5862">function Create(raw): Result</text><text fill="#000000" font-family="Verdana" font-size="16.8" lengthAdjust="spacing" textLength="259.0055" x="603.696" y="563.0038">function Validate(pn): Boolean</text></g><g class="entity" data-entity="GMN16" data-source-line="50" data-uid="ent0017" id="entity_GMN16"><path d="M323.736,490.068 L323.736,519.708 L282.78,524.508 L323.736,529.308 L323.736,558.9455 A0,0 0 0 0 323.736,558.9455 L554.6686,558.9455 A0,0 0 0 0 554.6686,558.9455 L554.6686,502.068 L542.6686,490.068 L323.736,490.068 A0,0 0 0 0 323.736,490.068" fill="#FFFFFF" style="stroke:#000000;stroke-width:1.2;"/><path d="M542.6686,490.068 L542.6686,502.068 L554.6686,502.068 L542.6686,490.068" fill="#FFFFFF" style="stroke:#000000;stroke-width:1.2;"/><text fill="#000000" font-family="Verdana" font-size="15.6" lengthAdjust="spacing" textLength="205.7326" x="330.936" y="511.7518">Concrete implementations</text><text fill="#000000" font-family="Verdana" font-size="15.6" lengthAdjust="spacing" textLength="167.7609" x="330.936" y="530.711">Actual I/O operations</text><text fill="#000000" font-family="Verdana" font-size="15.6" lengthAdjust="spacing" textLength="132.5924" x="330.936" y="549.6701">No generics here</text></g><!--class Bootstrap--><g class="entity" data-entity="Bootstrap" data-source-line="57" data-uid="ent0020" id="entity_Bootstrap"><rect fill="#FFFFFF" height="134.4703" rx="3" ry="3" style="stroke:#000000;stroke-width:1.2;" width="656.8441" x="404.772" y="712.944"/><ellipse cx="634.5386" cy="729.744" fill="#FFFFFF" rx="10.8" ry="10.8" style="stroke:#000000;stroke-width:1.2;"/><path d="M637.5064,737.1157 Q636.8091,737.4743 636.0421,737.6536 Q635.2751,737.8329 634.4284,737.8329 Q631.4202,737.8329 629.8365,735.8506 Q628.2527,733.8684 628.2527,730.1231 Q628.2527,726.3678 629.8365,724.3856 Q631.4202,722.4034 634.4284,722.4034 Q635.2751,722.4034 636.0521,722.5827 Q636.829,722.762 637.5064,723.1206 L637.5064,726.3878 Q636.7493,725.6905 636.0371,725.3668 Q635.3249,725.043 634.5679,725.043 Q632.9542,725.043 632.1324,726.323 Q631.3107,727.603 631.3107,730.1231 Q631.3107,732.6333 632.1324,733.9132 Q632.9542,735.1932 634.5679,735.1932 Q635.3249,735.1932 636.0371,734.8695 Q636.7493,734.5458 637.5064,733.8485 Z " fill="#000000"/><text fill="#000000" font-family="Verdana" font-size="16.8" lengthAdjust="spacing" textLength="188.3109" x="655.5386" y="736.4254">App_Service_Instance</text><line style="stroke:#000000;stroke-width:1.2;" x1="405.972" x2="1060.4161" y1="746.544" y2="746.544"/><text fill="#000000" font-family="Verdana" font-size="16.8" font-weight="bold" lengthAdjust="spacing" textLength="130.0031" x="411.972" y="768.2342">instantiations</text><text fill="#000000" font-family="Verdana" font-size="16.8" lengthAdjust="spacing" textLength="418.2609" x="411.972" y="788.6518">PersonName_Ops is new PersonName.Operations</text><line style="stroke:#000000;stroke-width:1.2;" x1="405.972" x2="1060.4161" y1="796.9792" y2="796.9792"/><text fill="#000000" font-family="Verdana" font-size="16.8" lengthAdjust="spacing" textLength="512.4082" x="411.972" y="818.6694">Domain_Service is new Greeting_Service(PersonName_Ops)</text><text fill="#000000" font-family="Verdana" font-size="16.8" lengthAdjust="spacing" textLength="642.4441" x="411.972" y="839.087">App_Service is new CreateGreeting(Domain_Service.Create, Console.Write)</text></g><g class="entity" data-entity="GMN21" data-source-line="65" data-uid="ent0022" id="entity_GMN21"><path d="M1104.12,736.26 L1104.12,775.38 L1062.108,780.18 L1104.12,784.98 L1104.12,824.0967 A0,0 0 0 0 1104.12,824.0967 L1334.268,824.0967 A0,0 0 0 0 1334.268,824.0967 L1334.268,748.26 L1322.268,736.26 L1104.12,736.26 A0,0 0 0 0 1104.12,736.26" fill="#FFFFFF" style="stroke:#000000;stroke-width:1.2;"/><path d="M1322.268,736.26 L1322.268,748.26 L1334.268,748.26 L1322.268,736.26" fill="#FFFFFF" style="stroke:#000000;stroke-width:1.2;"/><text fill="#000000" font-family="Verdana" font-size="15.6" lengthAdjust="spacing" textLength="204.948" x="1111.32" y="757.9438">Wires everything together</text><text fill="#000000" font-family="Verdana" font-size="15.6" lengthAdjust="spacing" textLength="187.5885" x="1111.32" y="776.903">Instantiates all generics</text><text fill="#000000" font-family="Verdana" font-size="15.6" lengthAdjust="spacing" textLength="186.6592" x="1111.32" y="795.8621">Provides concrete types</text><text fill="#000000" font-family="Verdana" font-size="15.6" lengthAdjust="spacing" textLength="196.0588" x="1111.32" y="814.8213">Dependency composition</text></g><!--link PersonName to DomainService--><g class="link" data-entity-1="PersonName" data-entity-2="DomainService" data-source-line="72" data-uid="lnk24" id="link_PersonName_DomainService"><path codeLine="72" d="M1129.932,130.056 C1122.624,156.048 1114.5506,184.7801 1106.1866,214.5641" fill="none" id="PersonName-to-DomainService" style="stroke:#000000;stroke-width:1.2;stroke-dasharray:8.4,8.4;"/><polygon fill="#000000" points="1104.24,221.496,1111.7812,212.396,1105.8622,215.7195,1102.5387,209.8005,1104.24,221.496" style="stroke:#000000;stroke-width:1.2;"/><text fill="#000000" font-family="Verdana" font-size="15.6" lengthAdjust="spacing" textLength="61.4479" x="1120.02" y="182.5078">used by</text></g><!--link DomainService to AppService--><g class="link" data-entity-1="DomainService" data-entity-2="AppService" data-source-line="73" data-uid="lnk25" id="link_DomainService_AppService"><path codeLine="73" d="M1088.4,336.624 C1088.4,372.528 1088.4,411.996 1088.4,449.688" fill="none" id="DomainService-to-AppService" style="stroke:#000000;stroke-width:1.2;stroke-dasharray:8.4,8.4;"/><polygon fill="#000000" points="1088.4,456.888,1093.2,446.088,1088.4,450.888,1083.6,446.088,1088.4,456.888" style="stroke:#000000;stroke-width:1.2;"/><text fill="#000000" font-family="Verdana" font-size="15.6" lengthAdjust="spacing" textLength="112.2621" x="1089.6" y="391.3558">instantiated in</text></g><!--link ConsoleAdapter to Bootstrap--><g class="link" data-entity-1="ConsoleAdapter" data-entity-2="Bootstrap" data-source-line="74" data-uid="lnk26" id="link_ConsoleAdapter_Bootstrap"><path codeLine="74" d="M205.932,561.528 C233.364,580.644 268.764,603.648 302.4,620.544 C372.192,655.596 444.8845,684.6227 516.4285,710.0747" fill="none" id="ConsoleAdapter-to-Bootstrap" style="stroke:#000000;stroke-width:1.2;stroke-dasharray:8.4,8.4;"/><polygon fill="#000000" points="523.212,712.488,514.6456,704.3458,517.5591,710.477,511.4279,713.3905,523.212,712.488" style="stroke:#000000;stroke-width:1.2;"/><text fill="#000000" font-family="Verdana" font-size="15.6" lengthAdjust="spacing" textLength="113.7855" x="359.964" y="647.0278">provides Write</text></g><!--link PersonName_Operations to Bootstrap--><g class="link" data-entity-1="PersonName_Operations" data-entity-2="Bootstrap" data-source-line="75" data-uid="lnk27" id="link_PersonName_Operations_Bootstrap"><path codeLine="75" d="M733.2,571.572 C733.2,610.92 733.2,660.912 733.2,705.288" fill="none" id="PersonName_Operations-to-Bootstrap" style="stroke:#000000;stroke-width:1.2;stroke-dasharray:8.4,8.4;"/><polygon fill="#000000" points="733.2,712.488,738,701.688,733.2,706.488,728.4,701.688,733.2,712.488" style="stroke:#000000;stroke-width:1.2;"/><text fill="#000000" font-family="Verdana" font-size="15.6" lengthAdjust="spacing" textLength="123.6346" x="734.4" y="647.0278">provides Create</text></g><!--link AppService to Bootstrap--><g class="link" data-entity-1="AppService" data-entity-2="Bootstrap" data-source-line="76" data-uid="lnk28" id="link_AppService_Bootstrap"><path codeLine="76" d="M995.076,592.26 C943.068,629.34 884.3825,671.1802 832.3745,708.2602" fill="none" id="AppService-to-Bootstrap" style="stroke:#000000;stroke-width:1.2;stroke-dasharray:8.4,8.4;"/><polygon fill="#000000" points="826.512,712.44,838.0923,710.0787,831.3974,708.9568,832.5193,702.262,826.512,712.44" style="stroke:#000000;stroke-width:1.2;"/><text fill="#000000" font-family="Verdana" font-size="15.6" lengthAdjust="spacing" textLength="133.2246" x="933.264" y="647.0278">instantiated here</text></g><!--SRC=[ZLLDRnen4BtlhvXo0ffirHvH5OcIA4AgGfIepH4vtc6nQcpBzfAYAF-zipRxuGMaNa2CdyTlthmPFlajxX2CP49bZZE9y3N_bcM6yJ-iH1ZTwXqTmKzsG3k2zmo0I-OSFA9rMZqmkbm70JulB3AFOylUPl3ihL3bP0PFw2hfltVeAxYpLjiRklEHjTb6znRHqvNrCzgzuBX-DiX7m1n40iVmyQtfj4I5Ll3fDFn-4tuB3UNkhVNAk71-VHs-DfNYNcW5aMhpvbWHjkNQ45FQ8rXHRZteJSeY97kiBC9hvOH2Aa3gKl0GVz0WrCOovst5VGqgqA0gK761aSvz90zwZnRsJ5O8sg1bDRSQGUZmVFRHQyJS62bum9nsOvHMrAb7j_v3ke4mwrQPFCydPs0lLX1gLNbJ-GvpLDbOpR6e2x_xYxmYIzJwjfuuhs_7C-JuvH0uemzj-HP9ob3tgNX5TAUBLy-egmD7CDhwYyekqtQTYBkWhcY9yu8PJodVKoy5BSOxLvuuQ3WePCUcoSCatUpqi_G0lvaKHGqnYX0_DF5XwhoKATsGXaBS8e74paYQT-LRhm7CgMmcOVbbbRemMFbe5WTRj7X9GABZwnuP62_qpcWd0kSd2ayIbrANsm5VAkUPuXXiscLeN2h2iHUHpj6iwMY3SA3mhHVDLsa1SMgR9nlySDUCqxJHp3sgpRt1raYJv_7qgf4_3xwuuFQstF3KYx3e0Cck1x-bpE1rYRINO- -MhH04ObAsBOcAMBqN1PtmfiN-O8w3SDlidGETjcqPDB6tn_FyPh1jPr0vBE3raANn6jdRB3FekaLm-YSPZ4oDxreygrT4P1r4oiwFoCLBKUciHs08JUW4v_u3]--></g></svg>