<svg xmlns="http://www.w3.org/2000/svg" xmlns:xlink="http://www.w3.org/1999/xlink" contentStyleType="text/css" data-diagram-type="CLASS" height="586.8px" preserveAspectRatio="none" style="width:2907px;height:586px;background:#FFFFFF;" version="1.1" viewBox="0 0 2907 586" width="2907.6px" zoomAndPan="magnify"><defs/><g><!--cluster OOP Approach (Dynamic Dispatch)--><g class="cluster" data-entity="OOP Approach .Dynamic Dispatch." data-source-line="4" data-uid="ent0002" id="cluster_OOP Approach .Dynamic Dispatch."><path d="M16.2,128.412 L346.8621,128.412 A4.5,4.5 0 0 1 349.8621,131.412 L358.2621,156.0296 L1007.4,156.0296 A3,3 0 0 1 1010.4,159.0296 L1010.4,524.016 A3,3 0 0 1 1007.4,527.016 L16.2,527.016 A3,3 0 0 1 13.2,524.016 L13.2,131.412 A3,3 0 0 1 16.2,128.412" fill="#FFFFFF" style="stroke:#000000;stroke-width:1.2;"/><line style="stroke:#000000;stroke-width:1.2;" x1="13.2" x2="358.2621" y1="156.0296" y2="156.0296"/><text fill="#000000" font-family="Verdana" font-size="16.8" font-weight="bold" lengthAdjust="spacing" textLength="329.4621" x="18" y="147.7022">OOP Approach (Dynamic Dispatch)</text></g><!--cluster Generic Approach (Static Dispatch)--><g class="cluster" data-entity="Generic Approach .Static Dispatch." data-source-line="34" data-uid="ent0013" id="cluster_Generic Approach .Static Dispatch."><path d="M1042.2,65.412 L1376.4879,65.412 A4.5,4.5 0 0 1 1379.4879,68.412 L1387.8879,93.0296 L2459.4,93.0296 A3,3 0 0 1 2462.4,96.0296 L2462.4,576.132 A3,3 0 0 1 2459.4,579.132 L1042.2,579.132 A3,3 0 0 1 1039.2,576.132 L1039.2,68.412 A3,3 0 0 1 1042.2,65.412" fill="#FFFFFF" style="stroke:#000000;stroke-width:1.2;"/><line style="stroke:#000000;stroke-width:1.2;" x1="1039.2" x2="1387.8879" y1="93.0296" y2="93.0296"/><text fill="#000000" font-family="Verdana" font-size="16.8" font-weight="bold" lengthAdjust="spacing" textLength="333.0879" x="1044" y="84.7022">Generic Approach (Static Dispatch)</text></g><!--cluster Application (Generic Port)--><g class="cluster" data-entity="Application .Generic Port." data-source-line="35" data-uid="ent0014" id="cluster_Application .Generic Port."><path d="M1071,118.212 L1319.7047,118.212 A4.5,4.5 0 0 1 1322.7047,121.212 L1331.1047,145.8296 L1453.8,145.8296 A3,3 0 0 1 1456.8,148.8296 L1456.8,291.66 A3,3 0 0 1 1453.8,294.66 L1071,294.66 A3,3 0 0 1 1068,291.66 L1068,121.212 A3,3 0 0 1 1071,118.212" fill="#FFFFFF" style="stroke:#000000;stroke-width:1.2;"/><line style="stroke:#000000;stroke-width:1.2;" x1="1068" x2="1331.1047" y1="145.8296" y2="145.8296"/><text fill="#000000" font-family="Verdana" font-size="16.8" font-weight="bold" lengthAdjust="spacing" textLength="247.5047" x="1072.8" y="137.5022">Application (Generic Port)</text></g><!--cluster Infrastructure (Adapter)--><g class="cluster" data-entity="Infrastructure .Adapter." data-source-line="44" data-uid="ent0016" id="cluster_Infrastructure .Adapter."><path d="M1488.6,138.624 L1723.4824,138.624 A4.5,4.5 0 0 1 1726.4824,141.624 L1734.8824,166.2416 L2163,166.2416 A3,3 0 0 1 2166,169.2416 L2166,271.248 A3,3 0 0 1 2163,274.248 L1488.6,274.248 A3,3 0 0 1 1485.6,271.248 L1485.6,141.624 A3,3 0 0 1 1488.6,138.624" fill="#FFFFFF" style="stroke:#000000;stroke-width:1.2;"/><line style="stroke:#000000;stroke-width:1.2;" x1="1485.6" x2="1734.8824" y1="166.2416" y2="166.2416"/><text fill="#000000" font-family="Verdana" font-size="16.8" font-weight="bold" lengthAdjust="spacing" textLength="233.6824" x="1490.4" y="157.9142">Infrastructure (Adapter)</text></g><!--cluster Bootstrap (Instantiation)--><g class="cluster" data-entity="Bootstrap .Instantiation." data-source-line="54" data-uid="ent0019" id="cluster_Bootstrap .Instantiation."><path d="M1327.8,353.46 L1568.925,353.46 A4.5,4.5 0 0 1 1571.925,356.46 L1580.325,381.0776 L1887,381.0776 A3,3 0 0 1 1890,384.0776 L1890,547.332 A3,3 0 0 1 1887,550.332 L1327.8,550.332 A3,3 0 0 1 1324.8,547.332 L1324.8,356.46 A3,3 0 0 1 1327.8,353.46" fill="#FFFFFF" style="stroke:#000000;stroke-width:1.2;"/><line style="stroke:#000000;stroke-width:1.2;" x1="1324.8" x2="1580.325" y1="381.0776" y2="381.0776"/><text fill="#000000" font-family="Verdana" font-size="16.8" font-weight="bold" lengthAdjust="spacing" textLength="239.925" x="1329.6" y="372.7502">Bootstrap (Instantiation)</text></g><!--class IOutputPort--><g class="entity" data-entity="IOutputPort" data-source-line="5" data-uid="ent0003" id="entity_IOutputPort"><rect fill="#FFFFFF" height="73.2176" rx="3" ry="3" style="stroke:#000000;stroke-width:1.2;" width="293.8512" x="367.872" y="427.284"/><ellipse cx="460.6072" cy="444.084" fill="#FFFFFF" rx="10.8" ry="10.8" style="stroke:#000000;stroke-width:1.2;"/><path d="M456.3204,439.6022 L456.3204,437.0123 L465.1757,437.0123 L465.1757,439.6022 L462.2173,439.6022 L462.2173,449.2942 L465.1757,449.2942 L465.1757,451.884 L456.3204,451.884 L456.3204,449.2942 L459.2788,449.2942 L459.2788,439.6022 Z " fill="#000000"/><text fill="#000000" font-family="Verdana" font-size="16.8" font-style="italic" lengthAdjust="spacing" textLength="99.3809" x="481.6072" y="450.7654">IOutputPort</text><line style="stroke:#000000;stroke-width:1.2;" x1="369.072" x2="660.5232" y1="460.884" y2="460.884"/><line style="stroke:#000000;stroke-width:1.2;" x1="369.072" x2="660.5232" y1="470.484" y2="470.484"/><ellipse cx="381.072" cy="487.2928" fill="#FFFFFF" rx="3.6" ry="3.6" style="stroke:#000000;stroke-width:1.2;"/><text fill="#000000" font-family="Verdana" font-size="16.8" lengthAdjust="spacing" textLength="265.0512" x="389.472" y="492.1742">Write(message: String): Result</text></g><!--class CreateGreetingService--><g class="entity" data-entity="CreateGreetingService" data-source-line="9" data-uid="ent0004" id="entity_CreateGreetingService"><rect fill="#FFFFFF" height="93.6352" rx="3" ry="3" style="stroke:#000000;stroke-width:1.2;" width="288.068" x="703.164" y="171.612"/><ellipse cx="747.7115" cy="188.412" fill="#FFFFFF" rx="10.8" ry="10.8" style="stroke:#000000;stroke-width:1.2;"/><path d="M750.6793,195.7837 Q749.982,196.1423 749.215,196.3216 Q748.448,196.5009 747.6013,196.5009 Q744.5931,196.5009 743.0093,194.5186 Q741.4255,192.5364 741.4255,188.7911 Q741.4255,185.0358 743.0093,183.0536 Q744.5931,181.0714 747.6013,181.0714 Q748.448,181.0714 749.225,181.2507 Q750.0019,181.43 750.6793,181.7886 L750.6793,185.0558 Q749.9222,184.3585 749.21,184.0348 Q748.4978,183.711 747.7408,183.711 Q746.1271,183.711 745.3053,184.991 Q744.4836,186.271 744.4836,188.7911 Q744.4836,191.3013 745.3053,192.5812 Q746.1271,193.8612 747.7408,193.8612 Q748.4978,193.8612 749.21,193.5375 Q749.9222,193.2138 750.6793,192.5165 Z " fill="#000000"/><text fill="#000000" font-family="Verdana" font-size="16.8" lengthAdjust="spacing" textLength="190.1402" x="768.5443" y="195.0934">CreateGreetingService</text><line style="stroke:#000000;stroke-width:1.2;" x1="704.364" x2="990.032" y1="205.212" y2="205.212"/><rect fill="none" height="7.2" style="stroke:#000000;stroke-width:1.2;" width="7.2" x="712.764" y="218.4208"/><text fill="#000000" font-family="Verdana" font-size="16.8" lengthAdjust="spacing" textLength="202.1988" x="724.764" y="226.9022">outputPort: IOutputPort</text><line style="stroke:#000000;stroke-width:1.2;" x1="704.364" x2="990.032" y1="235.2296" y2="235.2296"/><ellipse cx="716.364" cy="252.0384" fill="#FFFFFF" rx="3.6" ry="3.6" style="stroke:#000000;stroke-width:1.2;"/><text fill="#000000" font-family="Verdana" font-size="16.8" lengthAdjust="spacing" textLength="259.268" x="724.764" y="256.9198">Execute(name: String): Result</text></g><!--class ConsoleAdapter--><g class="entity" data-entity="ConsoleAdapter" data-source-line="14" data-uid="ent0005" id="entity_ConsoleAdapter"><rect fill="#FFFFFF" height="73.2176" rx="3" ry="3" style="stroke:#000000;stroke-width:1.2;" width="293.8512" x="31.872" y="181.824"/><ellipse cx="108.082" cy="198.624" fill="#FFFFFF" rx="10.8" ry="10.8" style="stroke:#000000;stroke-width:1.2;"/><path d="M111.0497,205.9957 Q110.3525,206.3543 109.5855,206.5336 Q108.8185,206.7129 107.9718,206.7129 Q104.9636,206.7129 103.3798,204.7306 Q101.796,202.7484 101.796,199.0031 Q101.796,195.2478 103.3798,193.2656 Q104.9636,191.2834 107.9718,191.2834 Q108.8185,191.2834 109.5954,191.4627 Q110.3724,191.642 111.0497,192.0006 L111.0497,195.2678 Q110.2927,194.5705 109.5805,194.2468 Q108.8683,193.923 108.1113,193.923 Q106.4976,193.923 105.6758,195.203 Q104.854,196.483 104.854,199.0031 Q104.854,201.5133 105.6758,202.7932 Q106.4976,204.0732 108.1113,204.0732 Q108.8683,204.0732 109.5805,203.7495 Q110.2927,203.4258 111.0497,202.7285 Z " fill="#000000"/><text fill="#000000" font-family="Verdana" font-size="16.8" lengthAdjust="spacing" textLength="132.4313" x="129.082" y="205.3054">ConsoleAdapter</text><line style="stroke:#000000;stroke-width:1.2;" x1="33.072" x2="324.5232" y1="215.424" y2="215.424"/><line style="stroke:#000000;stroke-width:1.2;" x1="33.072" x2="324.5232" y1="225.024" y2="225.024"/><ellipse cx="45.072" cy="241.8328" fill="#FFFFFF" rx="3.6" ry="3.6" style="stroke:#000000;stroke-width:1.2;"/><text fill="#000000" font-family="Verdana" font-size="16.8" lengthAdjust="spacing" textLength="265.0512" x="53.472" y="246.7142">Write(message: String): Result</text></g><!--class FileAdapter--><g class="entity" data-entity="FileAdapter" data-source-line="18" data-uid="ent0006" id="entity_FileAdapter"><rect fill="#FFFFFF" height="73.2176" rx="3" ry="3" style="stroke:#000000;stroke-width:1.2;" width="293.8512" x="367.872" y="181.824"/><ellipse cx="462.7031" cy="198.624" fill="#FFFFFF" rx="10.8" ry="10.8" style="stroke:#000000;stroke-width:1.2;"/><path d="M465.6708,205.9957 Q464.9736,206.3543 464.2066,206.5336 Q463.4396,206.7129 462.5929,206.7129 Q459.5847,206.7129 458.0009,204.7306 Q456.4171,202.7484 456.4171,199.0031 Q456.4171,195.2478 458.0009,193.2656 Q459.5847,191.2834 462.5929,191.2834 Q463.4396,191.2834 464.2165,191.4627 Q464.9935,191.642 465.6708,192.0006 L465.6708,195.2678 Q464.9138,194.5705 464.2016,194.2468 Q463.4894,193.923 462.7324,193.923 Q461.1187,193.923 460.2969,195.203 Q459.4751,196.483 459.4751,199.0031 Q459.4751,201.5133 460.2969,202.7932 Q461.1187,204.0732 462.7324,204.0732 Q463.4894,204.0732 464.2016,203.7495 Q464.9138,203.4258 465.6708,202.7285 Z " fill="#000000"/><text fill="#000000" font-family="Verdana" font-size="16.8" lengthAdjust="spacing" textLength="95.1891" x="483.7031" y="205.3054">FileAdapter</text><line style="stroke:#000000;stroke-width:1.2;" x1="369.072" x2="660.5232" y1="215.424" y2="215.424"/><line style="stroke:#000000;stroke-width:1.2;" x1="369.072" x2="660.5232" y1="225.024" y2="225.024"/><ellipse cx="381.072" cy="241.8328" fill="#FFFFFF" rx="3.6" ry="3.6" style="stroke:#000000;stroke-width:1.2;"/><text fill="#000000" font-family="Verdana" font-size="16.8" lengthAdjust="spacing" textLength="265.0512" x="389.472" y="246.7142">Write(message: String): Result</text></g><g class="entity" data-entity="GMN10" data-source-line="27" data-uid="ent0011" id="entity_GMN10"><path d="M703.992,419.976 L703.992,459.096 L661.848,463.896 L703.992,468.696 L703.992,507.8127 A0,0 0 0 0 703.992,507.8127 L918.4182,507.8127 A0,0 0 0 0 918.4182,507.8127 L918.4182,431.976 L906.4182,419.976 L703.992,419.976 A0,0 0 0 0 703.992,419.976" fill="#FFFFFF" style="stroke:#000000;stroke-width:1.2;"/><path d="M906.4182,419.976 L906.4182,431.976 L918.4182,431.976 L906.4182,419.976" fill="#FFFFFF" style="stroke:#000000;stroke-width:1.2;"/><text fill="#000000" font-family="Verdana" font-size="15.6" lengthAdjust="spacing" textLength="189.2262" x="711.192" y="441.6598">Runtime polymorphism:</text><text fill="#000000" font-family="Verdana" font-size="15.6" lengthAdjust="spacing" textLength="168.6674" x="711.192" y="460.619">- Virtual method calls</text><text fill="#000000" font-family="Verdana" font-size="15.6" lengthAdjust="spacing" textLength="151.4906" x="711.192" y="479.5781">- Dynamic dispatch</text><text fill="#000000" font-family="Verdana" font-size="15.6" lengthAdjust="spacing" textLength="141.0018" x="711.192" y="498.5373">- Runtime binding</text></g><g class="entity" data-entity="GMN26" data-source-line="76" data-uid="ent0027" id="entity_GMN26"><path d="M2188.992,165.036 L2188.992,271.8319 L2443.0199,271.8319 L2443.0199,177.036 L2431.0199,165.036 L2188.992,165.036" fill="#FFFFFF" style="stroke:#000000;stroke-width:1.2;"/><path d="M2431.0199,165.036 L2431.0199,177.036 L2443.0199,177.036 L2431.0199,165.036" fill="#FFFFFF" style="stroke:#000000;stroke-width:1.2;"/><text fill="#000000" font-family="Verdana" font-size="15.6" lengthAdjust="spacing" textLength="228.8279" x="2196.192" y="186.7198">Compile-time polymorphism:</text><text fill="#000000" font-family="Verdana" font-size="15.6" lengthAdjust="spacing" textLength="167.3725" x="2196.192" y="205.679">- Direct function calls</text><text fill="#000000" font-family="Verdana" font-size="15.6" lengthAdjust="spacing" textLength="128.1516" x="2196.192" y="224.6381">- Static dispatch</text><text fill="#000000" font-family="Verdana" font-size="15.6" lengthAdjust="spacing" textLength="180.6035" x="2196.192" y="243.5973">- Compile-time binding</text><text fill="#000000" font-family="Verdana" font-size="15.6" lengthAdjust="spacing" textLength="193.8422" x="2196.192" y="262.5565">- Zero runtime overhead</text></g><!--class GenericPort--><g class="entity" data-entity="GenericPort" data-source-line="36" data-uid="ent0015" id="entity_GenericPort"><rect fill="#FFFFFF" height="114.0527" rx="3" ry="3" style="stroke:#000000;stroke-width:1.2;" width="349.6125" x="1087.596" y="161.412"/><ellipse cx="1168.1231" cy="178.212" fill="#FFFFFF" rx="10.8" ry="10.8" style="stroke:#000000;stroke-width:1.2;"/><path d="M1171.0909,185.5837 Q1170.3937,185.9423 1169.6267,186.1216 Q1168.8597,186.3009 1168.013,186.3009 Q1165.0048,186.3009 1163.421,184.3186 Q1161.8372,182.3364 1161.8372,178.5911 Q1161.8372,174.8358 1163.421,172.8536 Q1165.0048,170.8714 1168.013,170.8714 Q1168.8597,170.8714 1169.6366,171.0507 Q1170.4136,171.23 1171.0909,171.5886 L1171.0909,174.8557 Q1170.3339,174.1585 1169.6217,173.8348 Q1168.9095,173.511 1168.1524,173.511 Q1166.5388,173.511 1165.717,174.791 Q1164.8952,176.071 1164.8952,178.5911 Q1164.8952,181.1013 1165.717,182.3812 Q1166.5388,183.6612 1168.1524,183.6612 Q1168.9095,183.6612 1169.6217,183.3375 Q1170.3339,183.0138 1171.0909,182.3165 Z " fill="#000000"/><text fill="#000000" font-family="Verdana" font-size="16.8" lengthAdjust="spacing" textLength="179.5582" x="1189.1231" y="184.8934">CreateGreeting_Spec</text><line style="stroke:#000000;stroke-width:1.2;" x1="1088.796" x2="1436.0085" y1="195.012" y2="195.012"/><text fill="#000000" font-family="Verdana" font-size="16.8" font-weight="bold" lengthAdjust="spacing" textLength="70.0055" x="1094.796" y="216.7022">generic</text><text fill="#000000" font-family="Verdana" font-size="16.8" lengthAdjust="spacing" textLength="335.2125" x="1094.796" y="237.1198">with function Write(msg) return Result;</text><line style="stroke:#000000;stroke-width:1.2;" x1="1088.796" x2="1436.0085" y1="245.4472" y2="245.4472"/><text fill="#000000" font-family="Verdana" font-size="16.8" lengthAdjust="spacing" textLength="284.2055" x="1094.796" y="267.1374">procedure Execute(name: String)</text></g><!--class ConsoleAdapter_Impl--><g class="entity" data-entity="ConsoleAdapter_Impl" data-source-line="45" data-uid="ent0017" id="entity_ConsoleAdapter_Impl"><rect fill="#FFFFFF" height="73.2176" rx="3" ry="3" style="stroke:#000000;stroke-width:1.2;" width="300.4676" x="1504.572" y="181.824"/><ellipse cx="1559.5054" cy="198.624" fill="#FFFFFF" rx="10.8" ry="10.8" style="stroke:#000000;stroke-width:1.2;"/><path d="M1562.4732,205.9957 Q1561.7759,206.3543 1561.0089,206.5336 Q1560.2419,206.7129 1559.3952,206.7129 Q1556.387,206.7129 1554.8033,204.7306 Q1553.2195,202.7484 1553.2195,199.0031 Q1553.2195,195.2478 1554.8033,193.2656 Q1556.387,191.2834 1559.3952,191.2834 Q1560.2419,191.2834 1561.0189,191.4627 Q1561.7958,191.642 1562.4732,192.0006 L1562.4732,195.2678 Q1561.7161,194.5705 1561.0039,194.2468 Q1560.2917,193.923 1559.5347,193.923 Q1557.921,193.923 1557.0992,195.203 Q1556.2775,196.483 1556.2775,199.0031 Q1556.2775,201.5133 1557.0992,202.7932 Q1557.921,204.0732 1559.5347,204.0732 Q1560.2917,204.0732 1561.0039,203.7495 Q1561.7161,203.4258 1562.4732,202.7285 Z " fill="#000000"/><text fill="#000000" font-family="Verdana" font-size="16.8" lengthAdjust="spacing" textLength="181.6008" x="1580.5054" y="205.3054">ConsoleAdapter_Impl</text><line style="stroke:#000000;stroke-width:1.2;" x1="1505.772" x2="1803.8396" y1="215.424" y2="215.424"/><line style="stroke:#000000;stroke-width:1.2;" x1="1505.772" x2="1803.8396" y1="225.024" y2="225.024"/><text fill="#000000" font-family="Verdana" font-size="16.8" lengthAdjust="spacing" textLength="286.0676" x="1511.772" y="246.7142">function Write(msg) return Result</text></g><!--class FileAdapter_Impl--><g class="entity" data-entity="FileAdapter_Impl" data-source-line="49" data-uid="ent0018" id="entity_FileAdapter_Impl"><rect fill="#FFFFFF" height="73.2176" rx="3" ry="3" style="stroke:#000000;stroke-width:1.2;" width="300.4676" x="1846.572" y="181.824"/><ellipse cx="1920.1265" cy="198.624" fill="#FFFFFF" rx="10.8" ry="10.8" style="stroke:#000000;stroke-width:1.2;"/><path d="M1923.0943,205.9957 Q1922.397,206.3543 1921.63,206.5336 Q1920.863,206.7129 1920.0163,206.7129 Q1917.0081,206.7129 1915.4243,204.7306 Q1913.8406,202.7484 1913.8406,199.0031 Q1913.8406,195.2478 1915.4243,193.2656 Q1917.0081,191.2834 1920.0163,191.2834 Q1920.863,191.2834 1921.64,191.4627 Q1922.4169,191.642 1923.0943,192.0006 L1923.0943,195.2678 Q1922.3372,194.5705 1921.625,194.2468 Q1920.9128,193.923 1920.1558,193.923 Q1918.5421,193.923 1917.7203,195.203 Q1916.8986,196.483 1916.8986,199.0031 Q1916.8986,201.5133 1917.7203,202.7932 Q1918.5421,204.0732 1920.1558,204.0732 Q1920.9128,204.0732 1921.625,203.7495 Q1922.3372,203.4258 1923.0943,202.7285 Z " fill="#000000"/><text fill="#000000" font-family="Verdana" font-size="16.8" lengthAdjust="spacing" textLength="144.3586" x="1941.1265" y="205.3054">FileAdapter_Impl</text><line style="stroke:#000000;stroke-width:1.2;" x1="1847.772" x2="2145.8396" y1="215.424" y2="215.424"/><line style="stroke:#000000;stroke-width:1.2;" x1="1847.772" x2="2145.8396" y1="225.024" y2="225.024"/><text fill="#000000" font-family="Verdana" font-size="16.8" lengthAdjust="spacing" textLength="286.0676" x="1853.772" y="246.7142">function Write(msg) return Result</text></g><!--class Inst1--><g class="entity" data-entity="Inst1" data-source-line="55" data-uid="ent0020" id="entity_Inst1"><rect fill="#FFFFFF" height="134.4703" rx="3" ry="3" style="stroke:#000000;stroke-width:1.2;" width="241.8809" x="1344.264" y="396.66"/><ellipse cx="1361.3532" cy="413.46" fill="#FFFFFF" rx="10.8" ry="10.8" style="stroke:#000000;stroke-width:1.2;"/><path d="M1364.321,420.8317 Q1363.6237,421.1903 1362.8567,421.3696 Q1362.0897,421.5489 1361.2431,421.5489 Q1358.2349,421.5489 1356.6511,419.5666 Q1355.0673,417.5844 1355.0673,413.8391 Q1355.0673,410.0838 1356.6511,408.1016 Q1358.2349,406.1194 1361.2431,406.1194 Q1362.0897,406.1194 1362.8667,406.2987 Q1363.6436,406.478 1364.321,406.8366 L1364.321,410.1038 Q1363.564,409.4065 1362.8518,409.0828 Q1362.1395,408.759 1361.3825,408.759 Q1359.7688,408.759 1358.9471,410.039 Q1358.1253,411.319 1358.1253,413.8391 Q1358.1253,416.3493 1358.9471,417.6292 Q1359.7688,418.9092 1361.3825,418.9092 Q1362.1395,418.9092 1362.8518,418.5855 Q1363.564,418.2618 1364.321,417.5645 Z " fill="#000000"/><text fill="#000000" font-family="Verdana" font-size="16.8" lengthAdjust="spacing" textLength="204.9715" x="1376.0842" y="420.1414">CreateGreeting_Console</text><line style="stroke:#000000;stroke-width:1.2;" x1="1345.464" x2="1584.9449" y1="430.26" y2="430.26"/><text fill="#000000" font-family="Verdana" font-size="16.8" font-weight="bold" lengthAdjust="spacing" textLength="120.0363" x="1351.464" y="451.9502">instantiation</text><text fill="#000000" font-family="Verdana" font-size="16.8" lengthAdjust="spacing" textLength="201.5836" x="1351.464" y="472.3678">Write =&gt; Console.Write</text><line style="stroke:#000000;stroke-width:1.2;" x1="1345.464" x2="1584.9449" y1="480.6952" y2="480.6952"/><text fill="#000000" font-family="Verdana" font-size="16.8" lengthAdjust="spacing" textLength="227.4809" x="1351.464" y="502.3854">new CreateGreeting_Spec(</text><text fill="#000000" font-family="Verdana" font-size="16.8" lengthAdjust="spacing" textLength="7.6289" x="1351.464" y="522.803">)</text></g><!--class Inst2--><g class="entity" data-entity="Inst2" data-source-line="62" data-uid="ent0021" id="entity_Inst2"><rect fill="#FFFFFF" height="134.4703" rx="3" ry="3" style="stroke:#000000;stroke-width:1.2;" width="241.8809" x="1628.664" y="396.66"/><ellipse cx="1662.5122" cy="413.46" fill="#FFFFFF" rx="10.8" ry="10.8" style="stroke:#000000;stroke-width:1.2;"/><path d="M1665.48,420.8317 Q1664.7827,421.1903 1664.0157,421.3696 Q1663.2487,421.5489 1662.402,421.5489 Q1659.3938,421.5489 1657.8101,419.5666 Q1656.2263,417.5844 1656.2263,413.8391 Q1656.2263,410.0838 1657.8101,408.1016 Q1659.3938,406.1194 1662.402,406.1194 Q1663.2487,406.1194 1664.0257,406.2987 Q1664.8026,406.478 1665.48,406.8366 L1665.48,410.1038 Q1664.7229,409.4065 1664.0107,409.0828 Q1663.2985,408.759 1662.5415,408.759 Q1660.9278,408.759 1660.1061,410.039 Q1659.2843,411.319 1659.2843,413.8391 Q1659.2843,416.3493 1660.1061,417.6292 Q1660.9278,418.9092 1662.5415,418.9092 Q1663.2985,418.9092 1664.0107,418.5855 Q1664.7229,418.2618 1665.48,417.5645 Z " fill="#000000"/><text fill="#000000" font-family="Verdana" font-size="16.8" lengthAdjust="spacing" textLength="167.7293" x="1680.9674" y="420.1414">CreateGreeting_File</text><line style="stroke:#000000;stroke-width:1.2;" x1="1629.864" x2="1869.3449" y1="430.26" y2="430.26"/><text fill="#000000" font-family="Verdana" font-size="16.8" font-weight="bold" lengthAdjust="spacing" textLength="120.0363" x="1635.864" y="451.9502">instantiation</text><text fill="#000000" font-family="Verdana" font-size="16.8" lengthAdjust="spacing" textLength="164.3414" x="1635.864" y="472.3678">Write =&gt; File.Write</text><line style="stroke:#000000;stroke-width:1.2;" x1="1629.864" x2="1869.3449" y1="480.6952" y2="480.6952"/><text fill="#000000" font-family="Verdana" font-size="16.8" lengthAdjust="spacing" textLength="227.4809" x="1635.864" y="502.3854">new CreateGreeting_Spec(</text><text fill="#000000" font-family="Verdana" font-size="16.8" lengthAdjust="spacing" textLength="7.6289" x="1635.864" y="522.803">)</text></g><g class="entity" data-entity="GMN29" data-source-line="85" data-uid="ent0030" id="entity_GMN29"><path d="M2481.036,410.496 L2481.036,517.2919 L2899.7628,517.2919 L2899.7628,422.496 L2887.7628,410.496 L2481.036,410.496" fill="#FFFFFF" style="stroke:#000000;stroke-width:1.2;"/><path d="M2887.7628,410.496 L2887.7628,422.496 L2899.7628,422.496 L2887.7628,410.496" fill="#FFFFFF" style="stroke:#000000;stroke-width:1.2;"/><text fill="#000000" font-family="Verdana" font-size="15.6" font-weight="bold" lengthAdjust="spacing" textLength="143.3402" x="2488.236" y="432.1798">Key Translation:</text><text fill="#000000" font-family="Verdana" font-size="15.6" lengthAdjust="spacing" textLength="300.0791" x="2488.236" y="451.139">Interface &#8594; Generic formal parameter</text><text fill="#000000" font-family="Verdana" font-size="15.6" lengthAdjust="spacing" textLength="393.5268" x="2488.236" y="470.0981">implements &#8594; instantiation with actual parameter</text><text fill="#000000" font-family="Verdana" font-size="15.6" lengthAdjust="spacing" textLength="357.5432" x="2488.236" y="489.0573">Dependency injection &#8594; Generic instantiation</text><text fill="#000000" font-family="Verdana" font-size="15.6" lengthAdjust="spacing" textLength="323.0373" x="2488.236" y="508.0165">Runtime binding &#8594; Compile-time binding</text></g><!--link CreateGreetingService to IOutputPort--><g class="link" data-entity-1="CreateGreetingService" data-entity-2="IOutputPort" data-source-line="22" data-uid="lnk7" id="link_CreateGreetingService_IOutputPort"><path codeLine="22" d="M772.6602,274.1438 C708.6762,320.9318 628.2636,379.7257 569.7516,422.5177" fill="none" id="CreateGreetingService-IOutputPort" style="stroke:#000000;stroke-width:1.2;"/><polygon fill="none" points="784.284,265.644,775.6388,266.0193,772.6602,274.1438,781.3054,273.7685,784.284,265.644" style="stroke:#000000;stroke-width:1.2;"/><polygon fill="#000000" points="563.94,426.768,575.491,424.267,568.783,423.2261,569.824,416.5182,563.94,426.768" style="stroke:#000000;stroke-width:1.2;"/><text fill="#000000" font-family="Verdana" font-size="15.6" lengthAdjust="spacing" textLength="164.577" x="711.972" y="330.7438">depends on interface</text></g><!--link ConsoleAdapter to IOutputPort--><g class="link" data-entity-1="ConsoleAdapter" data-entity-2="IOutputPort" data-source-line="23" data-uid="lnk8" id="link_ConsoleAdapter_IOutputPort"><path codeLine="23" d="M228.372,255.504 C292.092,301.584 384.5225,368.4607 448.0625,414.4207" fill="none" id="ConsoleAdapter-to-IOutputPort" style="stroke:#000000;stroke-width:1.2;stroke-dasharray:8.4,8.4;"/><polygon fill="none" points="465.564,427.08,452.2822,408.5869,443.8427,420.2546,465.564,427.08" style="stroke:#000000;stroke-width:1.2;"/><text fill="#000000" font-family="Verdana" font-size="15.6" lengthAdjust="spacing" textLength="91.3605" x="337.92" y="330.7438">implements</text></g><!--link FileAdapter to IOutputPort--><g class="link" data-entity-1="FileAdapter" data-entity-2="IOutputPort" data-source-line="24" data-uid="lnk9" id="link_FileAdapter_IOutputPort"><path codeLine="24" d="M514.8,255.504 C514.8,301.584 514.8,359.52 514.8,405.48" fill="none" id="FileAdapter-to-IOutputPort" style="stroke:#000000;stroke-width:1.2;stroke-dasharray:8.4,8.4;"/><polygon fill="none" points="514.8,427.08,522,405.48,507.6,405.48,514.8,427.08" style="stroke:#000000;stroke-width:1.2;"/><text fill="#000000" font-family="Verdana" font-size="15.6" lengthAdjust="spacing" textLength="91.3605" x="516" y="330.7438">implements</text></g><!--link GenericPort to Inst1--><g class="link" data-entity-1="GenericPort" data-entity-2="Inst1" data-source-line="70" data-uid="lnk22" id="link_GenericPort_Inst1"><path codeLine="70" d="M1258.824,275.76 C1259.928,295.452 1263.984,316.944 1274.4,334.26 C1291.272,362.328 1310.9895,381.4954 1338.0375,400.1554" fill="none" id="GenericPort-to-Inst1" style="stroke:#000000;stroke-width:1.2;stroke-dasharray:8.4,8.4;"/><polygon fill="#000000" points="1343.964,404.244,1337.8,394.1601,1339.0253,400.8368,1332.3485,402.0621,1343.964,404.244" style="stroke:#000000;stroke-width:1.2;"/><text fill="#000000" font-family="Verdana" font-size="15.6" lengthAdjust="spacing" textLength="115.6061" x="1275.6" y="330.7438">instantiated as</text></g><!--link GenericPort to Inst2--><g class="link" data-entity-1="GenericPort" data-entity-2="Inst2" data-source-line="71" data-uid="lnk23" id="link_GenericPort_Inst2"><path codeLine="71" d="M1342.536,275.892 C1380.504,301.38 1422.168,327.36 1443.6,334.26 C1478.184,345.396 1573.02,330.504 1606.8,343.86 C1636.344,355.536 1658.8994,371.0572 1682.1074,391.5892" fill="none" id="GenericPort-to-Inst2" style="stroke:#000000;stroke-width:1.2;stroke-dasharray:8.4,8.4;"/><polygon fill="#000000" points="1687.5,396.36,1682.5917,385.6088,1683.0062,392.3844,1676.2306,392.7989,1687.5,396.36" style="stroke:#000000;stroke-width:1.2;"/><text fill="#000000" font-family="Verdana" font-size="15.6" lengthAdjust="spacing" textLength="115.6061" x="1444.8" y="330.7438">instantiated as</text></g><!--link ConsoleAdapter_Impl to Inst1--><g class="link" data-entity-1="ConsoleAdapter_Impl" data-entity-2="Inst1" data-source-line="72" data-uid="lnk24" id="link_ConsoleAdapter_Impl_Inst1"><path codeLine="72" d="M1629.192,255.648 C1612.812,278.424 1590.924,308.34 1570.8,334.26 C1554.948,354.672 1541.8607,370.9418 1525.5767,390.7178" fill="none" id="ConsoleAdapter_Impl-to-Inst1" style="stroke:#000000;stroke-width:1.2;stroke-dasharray:8.4,8.4;"/><polygon fill="#000000" points="1521,396.276,1531.5706,390.9899,1524.8139,391.6442,1524.1596,384.8876,1521,396.276" style="stroke:#000000;stroke-width:1.2;"/><text fill="#000000" font-family="Verdana" font-size="15.6" lengthAdjust="spacing" textLength="113.7855" x="1586.136" y="330.7438">provides Write</text></g><!--link FileAdapter_Impl to Inst2--><g class="link" data-entity-1="FileAdapter_Impl" data-entity-2="Inst2" data-source-line="73" data-uid="lnk25" id="link_FileAdapter_Impl_Inst2"><path codeLine="73" d="M1960.32,255.504 C1922.724,292.476 1868.3623,345.9284 1822.1623,391.3484" fill="none" id="FileAdapter_Impl-to-Inst2" style="stroke:#000000;stroke-width:1.2;stroke-dasharray:8.4,8.4;"/><polygon fill="#000000" points="1817.028,396.396,1828.0946,392.2474,1821.3066,392.1896,1821.3644,385.4017,1817.028,396.396" style="stroke:#000000;stroke-width:1.2;"/><text fill="#000000" font-family="Verdana" font-size="15.6" lengthAdjust="spacing" textLength="113.7855" x="1896.54" y="330.7438">provides Write</text></g><!--link GenericPort to GMN26--><g class="link" data-entity-1="GenericPort" data-entity-2="GMN26" data-source-line="76" data-uid="lnk28" id="link_GenericPort_GMN26"><path d="M1317.948,160.836 C1363.86,117.648 1433.232,61.992 1506.6,37.812 C1573.968,15.6 2078.472,13.2 2145,37.812 C2206.56,60.576 2255.304,119.988 2284.74,164.496" fill="none" id="GenericPort-GMN26" style="stroke:#000000;stroke-width:1.2;stroke-dasharray:8.4,8.4;"/></g><!--link GMN26 to GMN29--><g class="link" data-entity-1="GMN26" data-entity-2="GMN29" data-source-line="85" data-uid="lnk31" id="link_GMN26_GMN29"><path d="M2397.24,272.376 C2460.036,313.14 2546.556,369.312 2609.316,410.064" fill="none" id="GMN26-GMN29" style="stroke:#000000;stroke-width:1.2;stroke-dasharray:8.4,8.4;"/></g><!--SRC=[hLN1RXCn4BtlLmmv9K69r1w3g5GQg28EhGW2YKlbUYTPmwwzicTR8kYL3-0J-H9clTwDTvDIgU8IHVQRyNlpNYOlACC2eSo5qecJ8aSucPycIIdaDx5565rTNSDvMLeZP0RZvKwBGabOAbSAajba13yI0AK9xKP8XDLLHML5ryQIlm5u-Tagmd61pd731Qp9AhsTBE03kYednZma_25puHnSM1I4bnQH6BH6UwUuQTDePhhMY_YTvfMttr5M_0xpU_8Hevt9yJmL9TD-3irtwfdbn_MPsUoiDxa5f5YYJXqOlHzkNT-dFf__71QgeipPKKsEuJ7FVsCPh0qXMBND2CpcOC0VAasgJeh9TuMnPQPSiMXyWK_AKYLoA90oamAdA7VXgWrC6W8JZjjkjqgdF0W-PRMUGV8GXUyIDLgktWTmJO8EyzSLC31NaY4yjt5RNMi8mDR0KT-8ctM9SWJ2GQY9yWimdMwRq-aqdDmhoc1JQUaV2jQxxGGiKcLrCFrLGCzcuGkBa9XM5k5eMZtgeOrAfscbDrOuifMakdGS31qewYVZPiNMTWAUP1fUZjf5oNbUhw6ADyOGYn0bZ5VQaM3_lKrF61DaUM_gkfF85HNtwRpHU0z7t1s7QsY8m-kpTcHpVn2k9uUZ65AgHzFnEVsFVEh6Hya4Gd4sv_EpC0_-6NVlOigy7a6U7aKUYqtScoDxfr9qqF8w24RSVu0-M2eHBo_jmXGbzvizkbcMogAaVUZYrH9MmM2pz5hkrqjzzGMj0HisZxb3cw581wl7yxqrHAP8fjFtk8EFLcYNUqyNREgg-wlxy-jtAmWsnXQy04jX-GVDW6I_MZsk5urcVGZfT-Q-PEbNFcgvO_XNR0J7Z_IQ98CLwf57nNVo_W80]--></g></svg>