<svg xmlns="http://www.w3.org/2000/svg" xmlns:xlink="http://www.w3.org/1999/xlink" contentStyleType="text/css" data-diagram-type="CLASS" height="1117.2px" preserveAspectRatio="none" style="width:1443px;height:1117px;background:#FFFFFF;" version="1.1" viewBox="0 0 1443 1117" width="1443.6px" zoomAndPan="magnify"><defs/><g><!--cluster OOP--><g class="cluster" data-entity="OOP" data-source-line="4" data-uid="ent0002" id="cluster_OOP"><path d="M16.2,13.2 L189.5262,13.2 A4.5,4.5 0 0 1 192.5262,16.2 L200.9262,40.8176 L480.6,40.8176 A3,3 0 0 1 483.6,43.8176 L483.6,638.196 A3,3 0 0 1 480.6,641.196 L16.2,641.196 A3,3 0 0 1 13.2,638.196 L13.2,16.2 A3,3 0 0 1 16.2,13.2" fill="#FFFFFF" style="stroke:#000000;stroke-width:1.2;"/><line style="stroke:#000000;stroke-width:1.2;" x1="13.2" x2="200.9262" y1="40.8176" y2="40.8176"/><text fill="#000000" font-family="Verdana" font-size="16.8" font-weight="bold" lengthAdjust="spacing" textLength="172.1262" x="18" y="32.4902">OOP Mental Model</text></g><!--cluster Generic--><g class="cluster" data-entity="Generic" data-source-line="27" data-uid="ent0011" id="cluster_Generic"><path d="M534.6,424.836 L720.2473,424.836 A4.5,4.5 0 0 1 723.2473,427.836 L731.6473,452.4536 L1432.2,452.4536 A3,3 0 0 1 1435.2,455.4536 L1435.2,1106.748 A3,3 0 0 1 1432.2,1109.748 L534.6,1109.748 A3,3 0 0 1 531.6,1106.748 L531.6,427.836 A3,3 0 0 1 534.6,424.836" fill="#FFFFFF" style="stroke:#000000;stroke-width:1.2;"/><line style="stroke:#000000;stroke-width:1.2;" x1="531.6" x2="731.6473" y1="452.4536" y2="452.4536"/><text fill="#000000" font-family="Verdana" font-size="16.8" font-weight="bold" lengthAdjust="spacing" textLength="184.4473" x="536.4" y="444.1262">Generic Translation</text></g><!--cluster AppLayer--><g class="cluster" data-entity="AppLayer" data-source-line="28" data-uid="ent0012" id="cluster_AppLayer"><path d="M573,709.596 L709.084,709.596 A4.5,4.5 0 0 1 712.084,712.596 L720.484,757.6312 L955.8,757.6312 A3,3 0 0 1 958.8,760.6312 L958.8,923.868 A3,3 0 0 1 955.8,926.868 L573,926.868 A3,3 0 0 1 570,923.868 L570,712.596 A3,3 0 0 1 573,709.596" fill="#FFFFFF" style="stroke:#000000;stroke-width:1.2;"/><line style="stroke:#000000;stroke-width:1.2;" x1="570" x2="720.484" y1="757.6312" y2="757.6312"/><text fill="#000000" font-family="Verdana" font-size="16.8" font-weight="bold" lengthAdjust="spacing" textLength="106.0254" x="589.2293" y="728.8862">Application</text><text fill="#000000" font-family="Verdana" font-size="16.8" font-weight="bold" lengthAdjust="spacing" textLength="134.884" x="574.8" y="749.3038">(Defines Port)</text></g><!--cluster InfraLayer--><g class="cluster" data-entity="InfraLayer" data-source-line="38" data-uid="ent0014" id="cluster_InfraLayer"><path d="M762.6,487.236 L941.7668,487.236 A4.5,4.5 0 0 1 944.7668,490.236 L953.1668,535.2712 L1384.2,535.2712 A3,3 0 0 1 1387.2,538.2712 L1387.2,640.248 A3,3 0 0 1 1384.2,643.248 L762.6,643.248 A3,3 0 0 1 759.6,640.248 L759.6,490.236 A3,3 0 0 1 762.6,487.236" fill="#FFFFFF" style="stroke:#000000;stroke-width:1.2;"/><line style="stroke:#000000;stroke-width:1.2;" x1="759.6" x2="953.1668" y1="535.2712" y2="535.2712"/><text fill="#000000" font-family="Verdana" font-size="16.8" font-weight="bold" lengthAdjust="spacing" textLength="134.7609" x="786.0029" y="506.5262">Infrastructure</text><text fill="#000000" font-family="Verdana" font-size="16.8" font-weight="bold" lengthAdjust="spacing" textLength="177.9668" x="764.4" y="526.9438">(Implements Port)</text></g><!--cluster BootLayer--><g class="cluster" data-entity="BootLayer" data-source-line="50" data-uid="ent0019" id="cluster_BootLayer"><path d="M1042.2,719.808 L1299.1324,719.808 A4.5,4.5 0 0 1 1302.1324,722.808 L1310.5324,767.8432 L1384.2,767.8432 A3,3 0 0 1 1387.2,770.8432 L1387.2,1068.348 A3,3 0 0 1 1384.2,1071.348 L1042.2,1071.348 A3,3 0 0 1 1039.2,1068.348 L1039.2,722.808 A3,3 0 0 1 1042.2,719.808" fill="#FFFFFF" style="stroke:#000000;stroke-width:1.2;"/><line style="stroke:#000000;stroke-width:1.2;" x1="1039.2" x2="1310.5324" y1="767.8432" y2="767.8432"/><text fill="#000000" font-family="Verdana" font-size="16.8" font-weight="bold" lengthAdjust="spacing" textLength="92.4574" x="1125.6375" y="739.0982">Bootstrap</text><text fill="#000000" font-family="Verdana" font-size="16.8" font-weight="bold" lengthAdjust="spacing" textLength="255.7324" x="1044" y="759.5158">(Connects Port to Adapter)</text></g><!--class IPort--><g class="entity" data-entity="IPort" data-source-line="5" data-uid="ent0003" id="entity_IPort"><rect fill="#FFFFFF" height="92.4527" rx="3" ry="3" style="stroke:#000000;stroke-width:1.2;" width="229.3336" x="118.128" y="259.212"/><ellipse cx="179.1868" cy="285.6296" fill="#FFFFFF" rx="10.8" ry="10.8" style="stroke:#000000;stroke-width:1.2;"/><path d="M174.9001,281.1477 L174.9001,278.5579 L183.7553,278.5579 L183.7553,281.1477 L180.7969,281.1477 L180.7969,290.8397 L183.7553,290.8397 L183.7553,293.4296 L174.9001,293.4296 L174.9001,290.8397 L177.8585,290.8397 L177.8585,281.1477 Z " fill="#000000"/><text fill="#000000" font-family="Verdana" font-size="16.8" font-style="italic" lengthAdjust="spacing" textLength="98.216" x="200.1868" y="282.1022">Output Port</text><text fill="#000000" font-family="Verdana" font-size="16.8" font-style="italic" lengthAdjust="spacing" textLength="91.5141" x="203.5378" y="302.5198">(Interface)</text><line style="stroke:#000000;stroke-width:1.2;" x1="119.328" x2="346.2616" y1="312.0472" y2="312.0472"/><line style="stroke:#000000;stroke-width:1.2;" x1="119.328" x2="346.2616" y1="321.6472" y2="321.6472"/><ellipse cx="131.328" cy="338.4559" fill="#FFFFFF" rx="3.6" ry="3.6" style="stroke:#000000;stroke-width:1.2;"/><text fill="#000000" font-family="Verdana" font-size="16.8" lengthAdjust="spacing" textLength="200.5336" x="139.728" y="343.3374">Write(message): Result</text></g><!--class UC--><g class="entity" data-entity="UC" data-source-line="9" data-uid="ent0004" id="entity_UC"><rect fill="#FFFFFF" height="93.6352" rx="3" ry="3" style="stroke:#000000;stroke-width:1.2;" width="117.9762" x="41.808" y="66"/><ellipse cx="60.4824" cy="82.8" fill="#FFFFFF" rx="10.8" ry="10.8" style="stroke:#000000;stroke-width:1.2;"/><path d="M63.4502,90.1717 Q62.7529,90.5303 61.9859,90.7096 Q61.2189,90.8889 60.3723,90.8889 Q57.3641,90.8889 55.7803,88.9066 Q54.1965,86.9244 54.1965,83.1791 Q54.1965,79.4238 55.7803,77.4416 Q57.3641,75.4594 60.3723,75.4594 Q61.2189,75.4594 61.9959,75.6387 Q62.7728,75.818 63.4502,76.1766 L63.4502,79.4438 Q62.6932,78.7465 61.9809,78.4228 Q61.2687,78.099 60.5117,78.099 Q58.898,78.099 58.0763,79.379 Q57.2545,80.659 57.2545,83.1791 Q57.2545,85.6893 58.0763,86.9692 Q58.898,88.2492 60.5117,88.2492 Q61.2687,88.2492 61.9809,87.9255 Q62.6932,87.6018 63.4502,86.9045 Z " fill="#000000"/><text fill="#000000" font-family="Verdana" font-size="16.8" lengthAdjust="spacing" textLength="77.5441" x="75.5656" y="89.4814">Use Case</text><line style="stroke:#000000;stroke-width:1.2;" x1="43.008" x2="158.5842" y1="99.6" y2="99.6"/><rect fill="none" height="7.2" style="stroke:#000000;stroke-width:1.2;" width="7.2" x="51.408" y="112.8088"/><text fill="#000000" font-family="Verdana" font-size="16.8" lengthAdjust="spacing" textLength="89.1762" x="63.408" y="121.2902">port: IPort</text><line style="stroke:#000000;stroke-width:1.2;" x1="43.008" x2="158.5842" y1="129.6176" y2="129.6176"/><ellipse cx="55.008" cy="146.4264" fill="#FFFFFF" rx="3.6" ry="3.6" style="stroke:#000000;stroke-width:1.2;"/><text fill="#000000" font-family="Verdana" font-size="16.8" lengthAdjust="spacing" textLength="81.8426" x="63.408" y="151.3078">Execute()</text></g><!--class Adapter--><g class="entity" data-entity="Adapter" data-source-line="14" data-uid="ent0005" id="entity_Adapter"><rect fill="#FFFFFF" height="73.2176" rx="3" ry="3" style="stroke:#000000;stroke-width:1.2;" width="229.3336" x="202.128" y="76.212"/><ellipse cx="279.1419" cy="93.012" fill="#FFFFFF" rx="10.8" ry="10.8" style="stroke:#000000;stroke-width:1.2;"/><path d="M282.1096,100.3837 Q281.4124,100.7423 280.6454,100.9216 Q279.8784,101.1009 279.0317,101.1009 Q276.0235,101.1009 274.4397,99.1186 Q272.8559,97.1364 272.8559,93.3911 Q272.8559,89.6358 274.4397,87.6536 Q276.0235,85.6714 279.0317,85.6714 Q279.8784,85.6714 280.6553,85.8507 Q281.4323,86.03 282.1096,86.3886 L282.1096,89.6557 Q281.3526,88.9585 280.6404,88.6348 Q279.9282,88.311 279.1712,88.311 Q277.5575,88.311 276.7357,89.591 Q275.9139,90.871 275.9139,93.3911 Q275.9139,95.9013 276.7357,97.1812 Q277.5575,98.4612 279.1712,98.4612 Q279.9282,98.4612 280.6404,98.1375 Q281.3526,97.8138 282.1096,97.1165 Z " fill="#000000"/><text fill="#000000" font-family="Verdana" font-size="16.8" lengthAdjust="spacing" textLength="66.3059" x="300.1419" y="99.6934">Adapter</text><line style="stroke:#000000;stroke-width:1.2;" x1="203.328" x2="430.2616" y1="109.812" y2="109.812"/><line style="stroke:#000000;stroke-width:1.2;" x1="203.328" x2="430.2616" y1="119.412" y2="119.412"/><ellipse cx="215.328" cy="136.2208" fill="#FFFFFF" rx="3.6" ry="3.6" style="stroke:#000000;stroke-width:1.2;"/><text fill="#000000" font-family="Verdana" font-size="16.8" lengthAdjust="spacing" textLength="200.5336" x="223.728" y="141.1022">Write(message): Result</text></g><g class="entity" data-entity="GMN8" data-source-line="22" data-uid="ent0009" id="entity_GMN8"><path d="M86.652,562.476 L86.652,612.3944 A0,0 0 0 0 86.652,612.3944 L378.9411,612.3944 A0,0 0 0 0 378.9411,612.3944 L378.9411,574.476 L366.9411,562.476 L237.6,562.476 L232.8,352.176 L228,562.476 L86.652,562.476 A0,0 0 0 0 86.652,562.476" fill="#FFFFFF" style="stroke:#000000;stroke-width:1.2;"/><path d="M366.9411,562.476 L366.9411,574.476 L378.9411,574.476 L366.9411,562.476" fill="#FFFFFF" style="stroke:#000000;stroke-width:1.2;"/><text fill="#000000" font-family="Verdana" font-size="15.6" lengthAdjust="spacing" textLength="244.3898" x="93.852" y="584.1598">Runtime dependency injection:</text><text fill="#000000" font-family="Verdana" font-size="15.6" lengthAdjust="spacing" textLength="267.0891" x="93.852" y="603.119">useCase = new UseCase(adapter)</text></g><!--class GenUC--><g class="entity" data-entity="GenUC" data-source-line="29" data-uid="ent0013" id="entity_GenUC"><rect fill="#FFFFFF" height="134.4703" rx="3" ry="3" style="stroke:#000000;stroke-width:1.2;" width="349.6125" x="589.596" y="773.196"/><ellipse cx="698.387" cy="789.996" fill="#FFFFFF" rx="10.8" ry="10.8" style="stroke:#000000;stroke-width:1.2;"/><path d="M701.3548,797.3677 Q700.6575,797.7263 699.8905,797.9056 Q699.1235,798.0849 698.2769,798.0849 Q695.2687,798.0849 693.6849,796.1026 Q692.1011,794.1204 692.1011,790.3751 Q692.1011,786.6198 693.6849,784.6376 Q695.2687,782.6554 698.2769,782.6554 Q699.1235,782.6554 699.9005,782.8347 Q700.6774,783.014 701.3548,783.3726 L701.3548,786.6397 Q700.5978,785.9425 699.8856,785.6188 Q699.1733,785.295 698.4163,785.295 Q696.8026,785.295 695.9809,786.575 Q695.1591,787.855 695.1591,790.3751 Q695.1591,792.8853 695.9809,794.1652 Q696.8026,795.4452 698.4163,795.4452 Q699.1733,795.4452 699.8856,795.1215 Q700.5978,794.7978 701.3548,794.1005 Z " fill="#000000"/><text fill="#000000" font-family="Verdana" font-size="16.8" lengthAdjust="spacing" textLength="123.0305" x="719.387" y="796.6774">UseCase_Spec</text><line style="stroke:#000000;stroke-width:1.2;" x1="590.796" x2="938.0085" y1="806.796" y2="806.796"/><text fill="#000000" font-family="Verdana" font-size="16.8" font-weight="bold" lengthAdjust="spacing" textLength="70.0055" x="596.796" y="828.4862">generic</text><text fill="#000000" font-family="Verdana" font-size="16.8" lengthAdjust="spacing" textLength="335.2125" x="596.796" y="848.9038">with function Write(msg) return Result;</text><text fill="#000000" font-family="Verdana" font-size="16.8" font-weight="bold" lengthAdjust="spacing" textLength="314.9754" x="596.796" y="869.3214">Port defined as formal parameter</text><line style="stroke:#000000;stroke-width:1.2;" x1="590.796" x2="938.0085" y1="877.6487" y2="877.6487"/><text fill="#000000" font-family="Verdana" font-size="16.8" lengthAdjust="spacing" textLength="172.6184" x="596.796" y="899.339">procedure Execute()</text></g><!--class GenAdapter--><g class="entity" data-entity="GenAdapter" data-source-line="39" data-uid="ent0015" id="entity_GenAdapter"><rect fill="#FFFFFF" height="73.2176" rx="3" ry="3" style="stroke:#000000;stroke-width:1.2;" width="300.4676" x="778.572" y="550.836"/><ellipse cx="852.7499" cy="567.636" fill="#FFFFFF" rx="10.8" ry="10.8" style="stroke:#000000;stroke-width:1.2;"/><path d="M855.7177,575.0077 Q855.0204,575.3663 854.2534,575.5456 Q853.4865,575.7249 852.6398,575.7249 Q849.6316,575.7249 848.0478,573.7426 Q846.464,571.7604 846.464,568.0151 Q846.464,564.2598 848.0478,562.2776 Q849.6316,560.2954 852.6398,560.2954 Q853.4865,560.2954 854.2634,560.4747 Q855.0404,560.654 855.7177,561.0126 L855.7177,564.2797 Q854.9607,563.5825 854.2485,563.2588 Q853.5363,562.935 852.7792,562.935 Q851.1656,562.935 850.3438,564.215 Q849.522,565.495 849.522,568.0151 Q849.522,570.5253 850.3438,571.8052 Q851.1656,573.0852 852.7792,573.0852 Q853.5363,573.0852 854.2485,572.7615 Q854.9607,572.4378 855.7177,571.7405 Z " fill="#000000"/><text fill="#000000" font-family="Verdana" font-size="16.8" lengthAdjust="spacing" textLength="143.1117" x="873.7499" y="574.3174">Console_Adapter</text><line style="stroke:#000000;stroke-width:1.2;" x1="779.772" x2="1077.8396" y1="584.436" y2="584.436"/><line style="stroke:#000000;stroke-width:1.2;" x1="779.772" x2="1077.8396" y1="594.036" y2="594.036"/><text fill="#000000" font-family="Verdana" font-size="16.8" lengthAdjust="spacing" textLength="286.0676" x="785.772" y="615.7262">function Write(msg) return Result</text></g><g class="entity" data-entity="GMN16" data-source-line="44" data-uid="ent0017" id="entity_GMN16"><path d="M1120.548,553.008 L1120.548,582.636 L1079.508,587.436 L1120.548,592.236 L1120.548,621.8855 A0,0 0 0 0 1120.548,621.8855 L1368.2613,621.8855 A0,0 0 0 0 1368.2613,621.8855 L1368.2613,565.008 L1356.2613,553.008 L1120.548,553.008 A0,0 0 0 0 1120.548,553.008" fill="#FFFFFF" style="stroke:#000000;stroke-width:1.2;"/><path d="M1356.2613,553.008 L1356.2613,565.008 L1368.2613,565.008 L1356.2613,553.008" fill="#FFFFFF" style="stroke:#000000;stroke-width:1.2;"/><text fill="#000000" font-family="Verdana" font-size="15.6" lengthAdjust="spacing" textLength="211.1789" x="1127.748" y="574.6918">Matches the port signature</text><text fill="#000000" font-family="Verdana" font-size="15.6" lengthAdjust="spacing" textLength="193.149" x="1127.748" y="593.651">No explicit "implements"</text><text fill="#000000" font-family="Verdana" font-size="15.6" lengthAdjust="spacing" textLength="222.5133" x="1127.748" y="612.6101">Duck typing at compile-time</text></g><!--class Instance--><g class="entity" data-entity="Instance" data-source-line="51" data-uid="ent0020" id="entity_Instance"><rect fill="#FFFFFF" height="114.0527" rx="3" ry="3" style="stroke:#000000;stroke-width:1.2;" width="292.9699" x="1075.116" y="783.408"/><ellipse cx="1139.6635" cy="800.208" fill="#FFFFFF" rx="10.8" ry="10.8" style="stroke:#000000;stroke-width:1.2;"/><path d="M1142.6312,807.5797 Q1141.934,807.9383 1141.167,808.1176 Q1140.4,808.2969 1139.5533,808.2969 Q1136.5451,808.2969 1134.9613,806.3146 Q1133.3775,804.3324 1133.3775,800.5871 Q1133.3775,796.8318 1134.9613,794.8496 Q1136.5451,792.8674 1139.5533,792.8674 Q1140.4,792.8674 1141.1769,793.0467 Q1141.9539,793.226 1142.6312,793.5846 L1142.6312,796.8517 Q1141.8742,796.1545 1141.162,795.8308 Q1140.4498,795.507 1139.6928,795.507 Q1138.0791,795.507 1137.2573,796.787 Q1136.4355,798.067 1136.4355,800.5871 Q1136.4355,803.0973 1137.2573,804.3772 Q1138.0791,805.6572 1139.6928,805.6572 Q1140.4498,805.6572 1141.162,805.3335 Q1141.8742,805.0098 1142.6312,804.3125 Z " fill="#000000"/><text fill="#000000" font-family="Verdana" font-size="16.8" lengthAdjust="spacing" textLength="154.875" x="1160.6635" y="806.8894">UseCase_Instance</text><line style="stroke:#000000;stroke-width:1.2;" x1="1076.316" x2="1366.8859" y1="817.008" y2="817.008"/><text fill="#000000" font-family="Verdana" font-size="16.8" lengthAdjust="spacing" textLength="278.5699" x="1082.316" y="838.6982">Write =&gt; Console_Adapter.Write</text><line style="stroke:#000000;stroke-width:1.2;" x1="1076.316" x2="1366.8859" y1="847.0256" y2="847.0256"/><text fill="#000000" font-family="Verdana" font-size="16.8" font-weight="bold" lengthAdjust="spacing" textLength="190.3863" x="1082.316" y="868.7158">new UseCase_Spec(</text><text fill="#000000" font-family="Verdana" font-size="16.8" font-weight="bold" lengthAdjust="spacing" textLength="9.1301" x="1082.316" y="889.1334">)</text></g><g class="entity" data-entity="GMN21" data-source-line="58" data-uid="ent0022" id="entity_GMN21"><path d="M1058.604,983.268 L1058.604,1052.1455 A0,0 0 0 0 1058.604,1052.1455 L1367.7956,1052.1455 A0,0 0 0 0 1367.7956,1052.1455 L1367.7956,995.268 L1355.7956,983.268 L1219.62,983.268 L1218.9,897.924 L1210.02,983.268 L1058.604,983.268 A0,0 0 0 0 1058.604,983.268" fill="#FFFFFF" style="stroke:#000000;stroke-width:1.2;"/><path d="M1355.7956,983.268 L1355.7956,995.268 L1367.7956,995.268 L1355.7956,983.268" fill="#FFFFFF" style="stroke:#000000;stroke-width:1.2;"/><text fill="#000000" font-family="Verdana" font-size="15.6" lengthAdjust="spacing" textLength="283.9916" x="1065.804" y="1004.9518">Compile-time dependency injection:</text><text fill="#000000" font-family="Verdana" font-size="15.6" lengthAdjust="spacing" textLength="247.8557" x="1065.804" y="1023.911">Port signature matches adapter</text><text fill="#000000" font-family="Verdana" font-size="15.6" lengthAdjust="spacing" textLength="156.5941" x="1065.804" y="1042.8701">Verified by compiler</text></g><g class="entity" data-entity="Translation" data-source-line="69" data-uid="ent0027" id="entity_Translation"><path d="M874.332,252.036 L874.332,358.8319 L1252.0707,358.8319 L1252.0707,264.036 L1240.0707,252.036 L874.332,252.036" fill="#FFFFFF" style="stroke:#000000;stroke-width:1.2;"/><path d="M1240.0707,252.036 L1240.0707,264.036 L1252.0707,264.036 L1240.0707,252.036" fill="#FFFFFF" style="stroke:#000000;stroke-width:1.2;"/><text fill="#000000" font-family="Verdana" font-size="15.6" font-weight="bold" lengthAdjust="spacing" textLength="161.1645" x="881.532" y="273.7198">Translation Guide:</text><text fill="#000000" font-family="Verdana" font-size="15.6" lengthAdjust="spacing" textLength="346.6811" x="881.532" y="292.679">Interface method &#8594; Generic formal function</text><text fill="#000000" font-family="Verdana" font-size="15.6" lengthAdjust="spacing" textLength="273.7693" x="881.532" y="311.6381">implements &#8594; Structural matching</text><text fill="#000000" font-family="Verdana" font-size="15.6" lengthAdjust="spacing" textLength="352.5387" x="881.532" y="330.5973">Constructor injection &#8594; Generic instantiation</text><text fill="#000000" font-family="Verdana" font-size="15.6" lengthAdjust="spacing" textLength="292.1344" x="881.532" y="349.5565">vtable dispatch &#8594; Direct function call</text></g><!--link UC to IPort--><g class="link" data-entity-1="UC" data-entity-2="IPort" data-source-line="18" data-uid="lnk6" id="link_UC_IPort"><path codeLine="18" d="M139.9215,171.7449 C151.9095,189.3609 157.68,197.724 170.4,216.036 C180.144,230.052 186.6724,239.3819 196.4284,253.1459" fill="none" id="UC-IPort" style="stroke:#000000;stroke-width:1.2;"/><polygon fill="none" points="131.82,159.84,131.9024,168.4929,139.9215,171.7449,139.839,163.0919,131.82,159.84" style="stroke:#000000;stroke-width:1.2;"/><polygon fill="#000000" points="200.592,259.02,198.2627,247.4332,197.1224,254.1249,190.4306,252.9846,200.592,259.02" style="stroke:#000000;stroke-width:1.2;"/><text fill="#000000" font-family="Verdana" font-size="15.6" lengthAdjust="spacing" textLength="90.5684" x="171.6" y="212.5198">depends on</text></g><!--link Adapter to IPort--><g class="link" data-entity-1="Adapter" data-entity-2="IPort" data-source-line="19" data-uid="lnk7" id="link_Adapter_IPort"><path codeLine="19" d="M300.996,149.796 C287.364,180.684 276.3138,205.7089 261.5658,239.1049" fill="none" id="Adapter-to-IPort" style="stroke:#000000;stroke-width:1.2;stroke-dasharray:8.4,8.4;"/><polygon fill="none" points="252.84,258.864,268.1521,242.0135,254.9794,236.1963,252.84,258.864" style="stroke:#000000;stroke-width:1.2;"/><text fill="#000000" font-family="Verdana" font-size="15.6" lengthAdjust="spacing" textLength="91.3605" x="281.028" y="212.5198">implements</text></g><!--reverse link Instance to GenUC--><g class="link" data-entity-1="Instance" data-entity-2="GenUC" data-source-line="64" data-uid="lnk25" id="link_Instance_GenUC"><path codeLine="64" d="M1067.424,840.432 C1024.404,840.432 984.132,840.432 939.528,840.432" fill="none" id="Instance-backto-GenUC" style="stroke:#000000;stroke-width:1.2;stroke-dasharray:8.4,8.4;"/><polygon fill="#000000" points="1074.624,840.432,1063.824,835.632,1068.624,840.432,1063.824,845.232,1074.624,840.432" style="stroke:#000000;stroke-width:1.2;"/><text fill="#000000" font-family="Verdana" font-size="15.6" lengthAdjust="spacing" textLength="92.625" x="960.96" y="833.3158">instantiated</text></g><!--link GenAdapter to Instance--><g class="link" data-entity-1="GenAdapter" data-entity-2="Instance" data-source-line="65" data-uid="lnk26" id="link_GenAdapter_Instance"><path codeLine="65" d="M970.752,624.54 C1019.136,665.952 1093.8137,729.8746 1150.4777,778.3666" fill="none" id="GenAdapter-to-Instance" style="stroke:#000000;stroke-width:1.2;stroke-dasharray:8.4,8.4;"/><polygon fill="#000000" points="1155.948,783.048,1150.8634,772.379,1151.3894,779.1468,1144.6216,779.6728,1155.948,783.048" style="stroke:#000000;stroke-width:1.2;"/><text fill="#000000" font-family="Verdana" font-size="15.6" lengthAdjust="spacing" textLength="113.7855" x="1041.564" y="686.8798">provides Write</text></g><!--link OOP to Translation--><!--link Translation to Generic--><!--SRC=[ZLLDRnCn4BtlhnXoIe8s4Xo3Mgcag8f4QTLIE02gNEziOhfhMxQtRGIzyWFuYVmInX_PTQAgS4bsxPddUM_UU5-uDRO8kc525fQp1k7Lx7LHQCPlsGfXT7Ps3gSe7MlWL5NOZ81Py8i_2W0X7PgQSH_NETqvE5V6VPNZvNPZ4kANVZba0BpyR8J3SOlMqW6JELoWxHf7Uuy5_V26MGkZAukmO1P3-jKYvPQQSEOHBeAzUq3U4TnaB_-eOffA2Edf-V_EfxDKMHwcakTGeKPPML2IDhT8izdF8KAqkY4DfRC-Nog7SAESKoseEYlrefDEaDGH42NVa7pVaJkXv3n4T1OzPJW0YVTm5T_6B9xf2L9Um2yUimQTe4GZE7mqJDg6URZ0UhlkMVV1HretWeSWwj8nraAY3KsBZQBzzspJQpKqmvToVQcHRx7xdW1CfwjurdIQLkw5MqFToK0Eak1sDG63hZCoIVwcpmzALg6QokFNohHaECqCQv78zy1bcHwqKHohpY3a3l0zJ7tiAIzbRPXrfkDqD7flzltAY8Ue9wWlbBIgmUlSJyH-rrBmRwwfkF0NB6B4QksyGmQqX7NA75zJLsWomViTh5X9vejF0HyKu8Flet0m6jmtIjl77Ry5jz52he0vuAhLei7Icoz4z2xQL-gjKew4Off48jwIl1ab0gUsrezg-SXdVBAKrZ79CIaRNpAxPFOEdXht_OKe81mSmfxoix3HGqnIIYvfDdNfp1I-o2HuPluWaktbXZPrWktqvnDPlHPar9lDLbppfB1nIcODrcvsEEX0DqPuT88vh6BSSB7i19BBxqH55KJoX1g8aghPj1VJQVO69nrbp4cU_Wu6cg6rgk3Fhz_zhP0cRElROh1H2BjCyq8XGGJoKk4R4fQL6PJR0HruUSWxnsxeSr89gpr4Y3mMXlA6SQ4FJbFqkXN-kr9-MOkA-lEjKlUIBkASQSvpFouLKVm5]--></g></svg>