<svg xmlns="http://www.w3.org/2000/svg" xmlns:xlink="http://www.w3.org/1999/xlink" contentStyleType="text/css" data-diagram-type="SEQUENCE" height="1041px" preserveAspectRatio="none" style="width:1230px;height:1041px;background:#FFFFFF;" version="1.1" viewBox="0 0 1230 1041" width="1230px" zoomAndPan="magnify"><title>Create Greeting Use Case - Sequence Flow</title><defs/><g><text fill="#000000" font-family="sans-serif" font-size="14" font-weight="bold" lengthAdjust="spacing" textLength="307.2275" x="468.6948" y="28.5352">Create Greeting Use Case - Sequence Flow</text><g><title>CLI</title><rect fill="#FFFFFF" height="637.8105" style="stroke:#181818;stroke-width:1;" width="10" x="223.2905" y="150.2871"/></g><g><title>Create_Greeting</title><rect fill="#FFFFFF" height="358.3711" style="stroke:#181818;stroke-width:1;" width="10" x="477.4927" y="378.416"/></g><g><title>Output_Port</title><rect fill="#FFFFFF" height="100.9316" style="stroke:#181818;stroke-width:1;" width="10" x="650.5972" y="606.5449"/></g><g><title>Console_Output</title><rect fill="#FFFFFF" height="35.3105" style="stroke:#181818;stroke-width:1;" width="10" x="823.7017" y="635.8555"/></g><g><title>Greeting Service</title><rect fill="#FFFFFF" height="71.6211" style="stroke:#181818;stroke-width:1;" width="10" x="957.2031" y="407.7266"/></g><g><title>Person_Name</title><rect fill="#FFFFFF" height="771.9844" style="stroke:#181818;stroke-width:1;" width="10" x="1118.9878" y="179.5977"/></g><rect fill="none" height="544.1895" style="stroke:#000000;stroke-width:1.5;" width="1178.542" x="10" y="236.9082"/><rect fill="none" height="279.75" style="stroke:#000000;stroke-width:1.5;" width="934.5522" x="20" y="494.3477"/><g><title>User</title><rect fill="#000000" fill-opacity="0.00000" height="841.6055" width="8" x="44.1826" y="118.9766"/><line style="stroke:#2196F3;stroke-width:0.5;stroke-dasharray:5,5;" x1="48" x2="48" y1="118.9766" y2="960.582"/></g><g><title>CLI</title><rect fill="#000000" fill-opacity="0.00000" height="841.6055" width="8" x="224.2905" y="118.9766"/><line style="stroke:#2196F3;stroke-width:0.5;stroke-dasharray:5,5;" x1="227.5225" x2="227.5225" y1="118.9766" y2="960.582"/></g><g><title>Create_Greeting</title><rect fill="#000000" fill-opacity="0.00000" height="841.6055" width="8" x="478.4927" y="118.9766"/><line style="stroke:#2196F3;stroke-width:0.5;stroke-dasharray:5,5;" x1="481.9282" x2="481.9282" y1="118.9766" y2="960.582"/></g><g><title>Output_Port</title><rect fill="#000000" fill-opacity="0.00000" height="841.6055" width="8" x="651.5972" y="118.9766"/><line style="stroke:#2196F3;stroke-width:0.5;stroke-dasharray:5,5;" x1="654.6772" x2="654.6772" y1="118.9766" y2="960.582"/></g><g><title>Console_Output</title><rect fill="#000000" fill-opacity="0.00000" height="841.6055" width="8" x="824.7017" y="118.9766"/><line style="stroke:#2196F3;stroke-width:0.5;stroke-dasharray:5,5;" x1="828.1543" x2="828.1543" y1="118.9766" y2="960.582"/></g><g><title>Greeting Service</title><rect fill="#000000" fill-opacity="0.00000" height="841.6055" width="8" x="958.2031" y="118.9766"/><line style="stroke:#2196F3;stroke-width:0.5;stroke-dasharray:5,5;" x1="961.249" x2="961.249" y1="118.9766" y2="960.582"/></g><g><title>Person_Name</title><rect fill="#000000" fill-opacity="0.00000" height="841.6055" width="8" x="1119.9878" y="118.9766"/><line style="stroke:#2196F3;stroke-width:0.5;stroke-dasharray:5,5;" x1="1123.4336" x2="1123.4336" y1="118.9766" y2="960.582"/></g><g class="participant participant-head" data-participant="User"><text fill="#000000" font-family="sans-serif" font-size="14" lengthAdjust="spacing" textLength="30.3652" x="30" y="116.0234">User</text><ellipse cx="48.1826" cy="50.9883" fill="#4CAF50" rx="8" ry="8" style="stroke:#181818;stroke-width:0.5;"/><path d="M48.1826,58.9883 L48.1826,85.9883 M35.1826,66.9883 L61.1826,66.9883 M48.1826,85.9883 L35.1826,100.9883 M48.1826,85.9883 L61.1826,100.9883" fill="none" style="stroke:#181818;stroke-width:0.5;"/></g><g class="participant participant-tail" data-participant="User"><text fill="#000000" font-family="sans-serif" font-size="14" lengthAdjust="spacing" textLength="30.3652" x="30" y="973.1172">User</text><ellipse cx="48.1826" cy="984.5703" fill="#4CAF50" rx="8" ry="8" style="stroke:#181818;stroke-width:0.5;"/><path d="M48.1826,992.5703 L48.1826,1019.5703 M35.1826,1000.5703 L61.1826,1000.5703 M48.1826,1019.5703 L35.1826,1034.5703 M48.1826,1019.5703 L61.1826,1034.5703" fill="none" style="stroke:#181818;stroke-width:0.5;"/></g><g class="participant participant-head" data-participant="CLI"><rect fill="#4CAF50" height="46.9766" rx="2.5" ry="2.5" style="stroke:#181818;stroke-width:0.5;" width="107.5361" x="174.5225" y="71"/><text fill="#000000" font-family="sans-serif" font-size="14" lengthAdjust="spacing" textLength="21.1846" x="217.6982" y="91.5352">CLI</text><text fill="#000000" font-family="sans-serif" font-size="14" lengthAdjust="spacing" textLength="93.5361" x="181.5225" y="108.0234">(Presentation)</text></g><g class="participant participant-tail" data-participant="CLI"><rect fill="#4CAF50" height="46.9766" rx="2.5" ry="2.5" style="stroke:#181818;stroke-width:0.5;" width="107.5361" x="174.5225" y="959.582"/><text fill="#000000" font-family="sans-serif" font-size="14" lengthAdjust="spacing" textLength="21.1846" x="217.6982" y="980.1172">CLI</text><text fill="#000000" font-family="sans-serif" font-size="14" lengthAdjust="spacing" textLength="93.5361" x="181.5225" y="996.6055">(Presentation)</text></g><g class="participant participant-head" data-participant="App"><rect fill="#2196F3" height="46.9766" rx="2.5" ry="2.5" style="stroke:#181818;stroke-width:0.5;" width="123.1289" x="420.9282" y="71"/><text fill="#000000" font-family="sans-serif" font-size="14" lengthAdjust="spacing" textLength="109.1289" x="427.9282" y="91.5352">Create_Greeting</text><text fill="#000000" font-family="sans-serif" font-size="14" lengthAdjust="spacing" textLength="85.9551" x="439.5151" y="108.0234">(Application)</text></g><g class="participant participant-tail" data-participant="App"><rect fill="#2196F3" height="46.9766" rx="2.5" ry="2.5" style="stroke:#181818;stroke-width:0.5;" width="123.1289" x="420.9282" y="959.582"/><text fill="#000000" font-family="sans-serif" font-size="14" lengthAdjust="spacing" textLength="109.1289" x="427.9282" y="980.1172">Create_Greeting</text><text fill="#000000" font-family="sans-serif" font-size="14" lengthAdjust="spacing" textLength="85.9551" x="439.5151" y="996.6055">(Application)</text></g><g class="participant participant-head" data-participant="Port"><rect fill="#2196F3" height="46.9766" rx="2.5" ry="2.5" style="stroke:#181818;stroke-width:0.5;" width="95.8398" x="607.6772" y="71"/><text fill="#000000" font-family="sans-serif" font-size="14" lengthAdjust="spacing" textLength="81.8398" x="614.6772" y="91.5352">Output_Port</text><text fill="#000000" font-family="sans-serif" font-size="14" lengthAdjust="spacing" textLength="68.4414" x="621.3765" y="108.0234">(Interface)</text></g><g class="participant participant-tail" data-participant="Port"><rect fill="#2196F3" height="46.9766" rx="2.5" ry="2.5" style="stroke:#181818;stroke-width:0.5;" width="95.8398" x="607.6772" y="959.582"/><text fill="#000000" font-family="sans-serif" font-size="14" lengthAdjust="spacing" textLength="81.8398" x="614.6772" y="980.1172">Output_Port</text><text fill="#000000" font-family="sans-serif" font-size="14" lengthAdjust="spacing" textLength="68.4414" x="621.3765" y="996.6055">(Interface)</text></g><g class="participant participant-head" data-participant="Console"><rect fill="#FF9800" height="46.9766" rx="2.5" ry="2.5" style="stroke:#181818;stroke-width:0.5;" width="123.0947" x="767.1543" y="71"/><text fill="#000000" font-family="sans-serif" font-size="14" lengthAdjust="spacing" textLength="109.0947" x="774.1543" y="91.5352">Console_Output</text><text fill="#000000" font-family="sans-serif" font-size="14" lengthAdjust="spacing" textLength="101.8486" x="777.7773" y="108.0234">(Infrastructure)</text></g><g class="participant participant-tail" data-participant="Console"><rect fill="#FF9800" height="46.9766" rx="2.5" ry="2.5" style="stroke:#181818;stroke-width:0.5;" width="123.0947" x="767.1543" y="959.582"/><text fill="#000000" font-family="sans-serif" font-size="14" lengthAdjust="spacing" textLength="109.0947" x="774.1543" y="980.1172">Console_Output</text><text fill="#000000" font-family="sans-serif" font-size="14" lengthAdjust="spacing" textLength="101.8486" x="777.7773" y="996.6055">(Infrastructure)</text></g><g class="participant participant-head" data-participant="Domain"><rect fill="#9C27B0" height="46.9766" rx="2.5" ry="2.5" style="stroke:#181818;stroke-width:0.5;" width="123.9082" x="900.249" y="71"/><text fill="#000000" font-family="sans-serif" font-size="14" lengthAdjust="spacing" textLength="109.9082" x="907.249" y="91.5352">Greeting Service</text><text fill="#000000" font-family="sans-serif" font-size="14" lengthAdjust="spacing" textLength="61.7285" x="931.3389" y="108.0234">(Domain)</text></g><g class="participant participant-tail" data-participant="Domain"><rect fill="#9C27B0" height="46.9766" rx="2.5" ry="2.5" style="stroke:#181818;stroke-width:0.5;" width="123.9082" x="900.249" y="959.582"/><text fill="#000000" font-family="sans-serif" font-size="14" lengthAdjust="spacing" textLength="109.9082" x="907.249" y="980.1172">Greeting Service</text><text fill="#000000" font-family="sans-serif" font-size="14" lengthAdjust="spacing" textLength="61.7285" x="931.3389" y="996.6055">(Domain)</text></g><g class="participant participant-head" data-participant="PersonName"><rect fill="#9C27B0" height="46.9766" rx="2.5" ry="2.5" style="stroke:#181818;stroke-width:0.5;" width="109.1084" x="1069.4336" y="71"/><text fill="#000000" font-family="sans-serif" font-size="14" lengthAdjust="spacing" textLength="91.6357" x="1078.1699" y="91.5352">Person_Name</text><text fill="#000000" font-family="sans-serif" font-size="14" lengthAdjust="spacing" textLength="95.1084" x="1076.4336" y="108.0234">(Value Object)</text></g><g class="participant participant-tail" data-participant="PersonName"><rect fill="#9C27B0" height="46.9766" rx="2.5" ry="2.5" style="stroke:#181818;stroke-width:0.5;" width="109.1084" x="1069.4336" y="959.582"/><text fill="#000000" font-family="sans-serif" font-size="14" lengthAdjust="spacing" textLength="91.6357" x="1078.1699" y="980.1172">Person_Name</text><text fill="#000000" font-family="sans-serif" font-size="14" lengthAdjust="spacing" textLength="95.1084" x="1076.4336" y="996.6055">(Value Object)</text></g><g><title>CLI</title><rect fill="#FFFFFF" height="637.8105" style="stroke:#181818;stroke-width:1;" width="10" x="223.2905" y="150.2871"/></g><g><title>Create_Greeting</title><rect fill="#FFFFFF" height="358.3711" style="stroke:#181818;stroke-width:1;" width="10" x="477.4927" y="378.416"/></g><g><title>Output_Port</title><rect fill="#FFFFFF" height="100.9316" style="stroke:#181818;stroke-width:1;" width="10" x="650.5972" y="606.5449"/></g><g><title>Console_Output</title><rect fill="#FFFFFF" height="35.3105" style="stroke:#181818;stroke-width:1;" width="10" x="823.7017" y="635.8555"/></g><g><title>Greeting Service</title><rect fill="#FFFFFF" height="71.6211" style="stroke:#181818;stroke-width:1;" width="10" x="957.2031" y="407.7266"/></g><g><title>Person_Name</title><rect fill="#FFFFFF" height="771.9844" style="stroke:#181818;stroke-width:1;" width="10" x="1118.9878" y="179.5977"/></g><g class="message" data-participant-1="User" data-participant-2="CLI"><polygon fill="#2196F3" points="211.2905,146.2871,221.2905,150.2871,211.2905,154.2871,215.2905,150.2871" style="stroke:#2196F3;stroke-width:1;"/><line style="stroke:#2196F3;stroke-width:1;" x1="48.1826" x2="217.2905" y1="150.2871" y2="150.2871"/><text fill="#000000" font-family="sans-serif" font-size="13" lengthAdjust="spacing" textLength="156.1079" x="55.1826" y="145.5449">run with name argument</text></g><g class="message" data-participant-1="CLI" data-participant-2="PersonName"><polygon fill="#2196F3" points="1106.9878,175.5977,1116.9878,179.5977,1106.9878,183.5977,1110.9878,179.5977" style="stroke:#2196F3;stroke-width:1;"/><line style="stroke:#2196F3;stroke-width:1;" x1="233.2905" x2="1112.9878" y1="179.5977" y2="179.5977"/><text fill="#000000" font-family="sans-serif" font-size="13" lengthAdjust="spacing" textLength="83.9224" x="240.2905" y="174.8555">Create(name)</text></g><g class="message" data-participant-1="PersonName" data-participant-2="PersonName"><line style="stroke:#2196F3;stroke-width:1;" x1="1128.9878" x2="1170.9878" y1="208.9082" y2="208.9082"/><line style="stroke:#2196F3;stroke-width:1;" x1="1170.9878" x2="1170.9878" y1="208.9082" y2="221.9082"/><line style="stroke:#2196F3;stroke-width:1;" x1="1129.9878" x2="1170.9878" y1="221.9082" y2="221.9082"/><polygon fill="#2196F3" points="1139.9878,217.9082,1129.9878,221.9082,1139.9878,225.9082,1135.9878,221.9082" style="stroke:#2196F3;stroke-width:1;"/><text fill="#000000" font-family="sans-serif" font-size="13" lengthAdjust="spacing" textLength="87.6294" x="1135.9878" y="204.166">validate name</text></g><path d="M10,236.9082 L72.1387,236.9082 L72.1387,244.2188 L62.1387,254.2188 L10,254.2188 L10,236.9082" fill="#EEEEEE" style="stroke:#000000;stroke-width:1.5;"/><rect fill="none" height="544.1895" style="stroke:#000000;stroke-width:1.5;" width="1178.542" x="10" y="236.9082"/><text fill="#000000" font-family="sans-serif" font-size="13" font-weight="bold" lengthAdjust="spacing" textLength="17.1387" x="25" y="250.4766">alt</text><text fill="#000000" font-family="sans-serif" font-size="11" font-weight="bold" lengthAdjust="spacing" textLength="92.3667" x="87.1387" y="249.543">[validation fails]</text><g class="message" data-participant-1="PersonName" data-participant-2="CLI"><polygon fill="#2196F3" points="244.2905,271.5293,234.2905,275.5293,244.2905,279.5293,240.2905,275.5293" style="stroke:#2196F3;stroke-width:1;"/><line style="stroke:#2196F3;stroke-width:1;stroke-dasharray:2,2;" x1="238.2905" x2="1117.9878" y1="275.5293" y2="275.5293"/><text fill="#000000" font-family="sans-serif" font-size="13" lengthAdjust="spacing" textLength="134.8306" x="250.2905" y="270.7871">Failure(Invalid_Name)</text></g><g class="message" data-participant-1="CLI" data-participant-2="User"><polygon fill="#2196F3" points="59.1826,300.8398,49.1826,304.8398,59.1826,308.8398,55.1826,304.8398" style="stroke:#2196F3;stroke-width:1;"/><line style="stroke:#2196F3;stroke-width:1;stroke-dasharray:2,2;" x1="53.1826" x2="222.2905" y1="304.8398" y2="304.8398"/><text fill="#000000" font-family="sans-serif" font-size="13" lengthAdjust="spacing" textLength="101.9878" x="65.1826" y="300.0977">Exit(Error_Code)</text></g><line style="stroke:#000000;stroke-width:1;stroke-dasharray:2,2;" x1="10" x2="1188.542" y1="313.8398" y2="313.8398"/><text fill="#000000" font-family="sans-serif" font-size="11" font-weight="bold" lengthAdjust="spacing" textLength="119.5176" x="15" y="324.4746">[validation succeeds]</text><g class="message" data-participant-1="PersonName" data-participant-2="CLI"><polygon fill="#2196F3" points="244.2905,345.1055,234.2905,349.1055,244.2905,353.1055,240.2905,349.1055" style="stroke:#2196F3;stroke-width:1;"/><line style="stroke:#2196F3;stroke-width:1;stroke-dasharray:2,2;" x1="238.2905" x2="1117.9878" y1="349.1055" y2="349.1055"/><text fill="#000000" font-family="sans-serif" font-size="13" lengthAdjust="spacing" textLength="142.4287" x="250.2905" y="344.3633">Success(Person_Name)</text></g><g class="message" data-participant-1="CLI" data-participant-2="App"><polygon fill="#2196F3" points="465.4927,374.416,475.4927,378.416,465.4927,382.416,469.4927,378.416" style="stroke:#2196F3;stroke-width:1;"/><line style="stroke:#2196F3;stroke-width:1;" x1="233.2905" x2="471.4927" y1="378.416" y2="378.416"/><text fill="#000000" font-family="sans-serif" font-size="13" lengthAdjust="spacing" textLength="225.2021" x="240.2905" y="373.6738">Execute(person_name, output_port)</text></g><g class="message" data-participant-1="App" data-participant-2="Domain"><polygon fill="#2196F3" points="945.2031,403.7266,955.2031,407.7266,945.2031,411.7266,949.2031,407.7266" style="stroke:#2196F3;stroke-width:1;"/><line style="stroke:#2196F3;stroke-width:1;" x1="487.4927" x2="951.2031" y1="407.7266" y2="407.7266"/><text fill="#000000" font-family="sans-serif" font-size="13" lengthAdjust="spacing" textLength="194.3398" x="494.4927" y="402.9844">Create_Greeting(person_name)</text></g><g class="message" data-participant-1="Domain" data-participant-2="Domain"><line style="stroke:#2196F3;stroke-width:1;" x1="967.2031" x2="1009.2031" y1="437.0371" y2="437.0371"/><line style="stroke:#2196F3;stroke-width:1;" x1="1009.2031" x2="1009.2031" y1="437.0371" y2="450.0371"/><line style="stroke:#2196F3;stroke-width:1;" x1="968.2031" x2="1009.2031" y1="450.0371" y2="450.0371"/><polygon fill="#2196F3" points="978.2031,446.0371,968.2031,450.0371,978.2031,454.0371,974.2031,450.0371" style="stroke:#2196F3;stroke-width:1;"/><text fill="#000000" font-family="sans-serif" font-size="13" lengthAdjust="spacing" textLength="127.7847" x="974.2031" y="432.2949">apply business logic</text></g><g class="message" data-participant-1="Domain" data-participant-2="App"><polygon fill="#2196F3" points="498.4927,475.3477,488.4927,479.3477,498.4927,483.3477,494.4927,479.3477" style="stroke:#2196F3;stroke-width:1;"/><line style="stroke:#2196F3;stroke-width:1;stroke-dasharray:2,2;" x1="492.4927" x2="961.2031" y1="479.3477" y2="479.3477"/><text fill="#000000" font-family="sans-serif" font-size="13" lengthAdjust="spacing" textLength="96.5605" x="504.4927" y="474.6055">Result&lt;String&gt;</text></g><path d="M20,494.3477 L82.1387,494.3477 L82.1387,501.6582 L72.1387,511.6582 L20,511.6582 L20,494.3477" fill="#EEEEEE" style="stroke:#000000;stroke-width:1.5;"/><rect fill="none" height="279.75" style="stroke:#000000;stroke-width:1.5;" width="934.5522" x="20" y="494.3477"/><text fill="#000000" font-family="sans-serif" font-size="13" font-weight="bold" lengthAdjust="spacing" textLength="17.1387" x="35" y="507.916">alt</text><text fill="#000000" font-family="sans-serif" font-size="11" font-weight="bold" lengthAdjust="spacing" textLength="141.0342" x="97.1387" y="506.9824">[greeting creation failed]</text><g class="message" data-participant-1="App" data-participant-2="CLI"><polygon fill="#2196F3" points="244.2905,528.9688,234.2905,532.9688,244.2905,536.9688,240.2905,532.9688" style="stroke:#2196F3;stroke-width:1;"/><line style="stroke:#2196F3;stroke-width:1;stroke-dasharray:2,2;" x1="238.2905" x2="476.4927" y1="532.9688" y2="532.9688"/><text fill="#000000" font-family="sans-serif" font-size="13" lengthAdjust="spacing" textLength="81.9355" x="250.2905" y="528.2266">Failure(error)</text></g><g class="message" data-participant-1="CLI" data-participant-2="User"><polygon fill="#2196F3" points="59.1826,558.2793,49.1826,562.2793,59.1826,566.2793,55.1826,562.2793" style="stroke:#2196F3;stroke-width:1;"/><line style="stroke:#2196F3;stroke-width:1;stroke-dasharray:2,2;" x1="53.1826" x2="222.2905" y1="562.2793" y2="562.2793"/><text fill="#000000" font-family="sans-serif" font-size="13" lengthAdjust="spacing" textLength="101.9878" x="65.1826" y="557.5371">Exit(Error_Code)</text></g><line style="stroke:#000000;stroke-width:1;stroke-dasharray:2,2;" x1="20" x2="954.5522" y1="571.2793" y2="571.2793"/><text fill="#000000" font-family="sans-serif" font-size="11" font-weight="bold" lengthAdjust="spacing" textLength="168.1851" x="25" y="581.9141">[greeting creation succeeded]</text><g class="message" data-participant-1="App" data-participant-2="Port"><polygon fill="#2196F3" points="638.5972,602.5449,648.5972,606.5449,638.5972,610.5449,642.5972,606.5449" style="stroke:#2196F3;stroke-width:1;"/><line style="stroke:#2196F3;stroke-width:1;" x1="487.4927" x2="644.5972" y1="606.5449" y2="606.5449"/><text fill="#000000" font-family="sans-serif" font-size="13" lengthAdjust="spacing" textLength="144.1045" x="494.4927" y="601.8027">Write_Output(greeting)</text></g><g class="message" data-participant-1="Port" data-participant-2="Console"><polygon fill="#2196F3" points="811.7017,631.8555,821.7017,635.8555,811.7017,639.8555,815.7017,635.8555" style="stroke:#2196F3;stroke-width:1;"/><line style="stroke:#2196F3;stroke-width:1;" x1="660.5972" x2="817.7017" y1="635.8555" y2="635.8555"/><text fill="#000000" font-family="sans-serif" font-size="13" lengthAdjust="spacing" textLength="144.1045" x="667.5972" y="631.1133">Write_Output(greeting)</text></g><g class="message" data-participant-1="Console" data-participant-2="Console"><line style="stroke:#2196F3;stroke-width:1;" x1="833.7017" x2="875.7017" y1="670.166" y2="670.166"/><line style="stroke:#2196F3;stroke-width:1;" x1="875.7017" x2="875.7017" y1="670.166" y2="683.166"/><line style="stroke:#2196F3;stroke-width:1;" x1="828.7017" x2="875.7017" y1="683.166" y2="683.166"/><polygon fill="#2196F3" points="838.7017,679.166,828.7017,683.166,838.7017,687.166,834.7017,683.166" style="stroke:#2196F3;stroke-width:1;"/><text fill="#000000" font-family="sans-serif" font-size="13" lengthAdjust="spacing" textLength="91.8506" x="840.7017" y="665.4238">print to stdout</text></g><g class="message" data-participant-1="Port" data-participant-2="App"><polygon fill="#2196F3" points="498.4927,703.4766,488.4927,707.4766,498.4927,711.4766,494.4927,707.4766" style="stroke:#2196F3;stroke-width:1;"/><line style="stroke:#2196F3;stroke-width:1;stroke-dasharray:2,2;" x1="492.4927" x2="654.5972" y1="707.4766" y2="707.4766"/><text fill="#000000" font-family="sans-serif" font-size="13" lengthAdjust="spacing" textLength="48.8833" x="504.4927" y="702.7344">Success</text></g><g class="message" data-participant-1="App" data-participant-2="CLI"><polygon fill="#2196F3" points="244.2905,732.7871,234.2905,736.7871,244.2905,740.7871,240.2905,736.7871" style="stroke:#2196F3;stroke-width:1;"/><line style="stroke:#2196F3;stroke-width:1;stroke-dasharray:2,2;" x1="238.2905" x2="481.4927" y1="736.7871" y2="736.7871"/><text fill="#000000" font-family="sans-serif" font-size="13" lengthAdjust="spacing" textLength="48.8833" x="250.2905" y="732.0449">Success</text></g><g class="message" data-participant-1="CLI" data-participant-2="User"><polygon fill="#2196F3" points="59.1826,762.0977,49.1826,766.0977,59.1826,770.0977,55.1826,766.0977" style="stroke:#2196F3;stroke-width:1;"/><line style="stroke:#2196F3;stroke-width:1;stroke-dasharray:2,2;" x1="53.1826" x2="222.2905" y1="766.0977" y2="766.0977"/><text fill="#000000" font-family="sans-serif" font-size="13" lengthAdjust="spacing" textLength="119.8818" x="65.1826" y="761.3555">Exit(Success_Code)</text></g><path d="M660,793.0977 L660,864.0977 L872,864.0977 L872,803.0977 L862,793.0977 L660,793.0977" fill="#FEFFDD" style="stroke:#181818;stroke-width:0.5;"/><path d="M862,793.0977 L862,803.0977 L872,803.0977 L862,793.0977" fill="#FEFFDD" style="stroke:#181818;stroke-width:0.5;"/><text fill="#000000" font-family="sans-serif" font-size="13" font-weight="bold" lengthAdjust="spacing" textLength="148.751" x="666" y="810.666">Dependency Inversion</text><text fill="#000000" font-family="sans-serif" font-size="13" lengthAdjust="spacing" textLength="176.1221" x="666" y="825.9766">Application defines the port</text><text fill="#000000" font-family="sans-serif" font-size="13" lengthAdjust="spacing" textLength="176.979" x="666" y="841.2871">Infrastructure implements it</text><text fill="#000000" font-family="sans-serif" font-size="13" lengthAdjust="spacing" textLength="191.7817" x="666" y="856.5977">Bootstrap wires them together</text><path d="M967,874.3398 L967,945.3398 L1153,945.3398 L1153,884.3398 L1143,874.3398 L967,874.3398" fill="#FEFFDD" style="stroke:#181818;stroke-width:0.5;"/><path d="M1143,874.3398 L1143,884.3398 L1153,884.3398 L1143,874.3398" fill="#FEFFDD" style="stroke:#181818;stroke-width:0.5;"/><text fill="#000000" font-family="sans-serif" font-size="13" font-weight="bold" lengthAdjust="spacing" textLength="133.3516" x="973" y="891.9082">Pure Business Logic</text><text fill="#000000" font-family="sans-serif" font-size="13" lengthAdjust="spacing" textLength="165.6548" x="973" y="907.2188">No dependencies on ports</text><text fill="#000000" font-family="sans-serif" font-size="13" lengthAdjust="spacing" textLength="120.1865" x="973" y="922.5293">Returns Result&lt;T&gt;</text><text fill="#000000" font-family="sans-serif" font-size="13" lengthAdjust="spacing" textLength="127.3467" x="973" y="937.8398">Testable in isolation</text><!--SRC=[ZLLTJnin47pthrZQboGg4eL-WIea4d8KAO8eGFjIAJ9tc-3sObzj7nHL_U_TjNsNImfg7q2dzSpkxEpQsIbmeJJ2vFpiq_LmSZE6b-E3R3yx5Jlf90RtNn- -omxQuDbiFBw0bsz69zdRlJPwEJkvE2DmbXr-s5k7fpUpwOJ2XwFzzyCz8TntfIjfvGeS_gXHvmY_1C1KMgzoLKdjXpB_lhIcriN8bCQkrH7i9FV6RWE27ZwqrZp4K89Fr08df69eR85suyZToS8yABs4XImTKeG4oxhqcT7-GgwGqYbPYjz2UELBX955wQbvY-YPTkCe9kdVBbmrdMIbUH12iaW-jw9QjmKlHfFphxetjUXGU-cLqVqN81rGFFMm2Gy5vqr1efvKLQdo3fC2iPyDucNjgzhFfyPw8frhZtOXSumKZZx16HdjJ8dpo0sqXPNEsphtjKtS14gZtapG-dA5zbxbI2bEpKggf3H-fstOP4xHEgFdx3cHFikofWgttp3tIN4u3oD9TC7UmkvnSEu8RAtXGVaxq8oHTbclo60UWxhdaH5A28OIevFiA8sqnxJ-6hw6Y0vwctilIrKmdDb2bhw9q71efLJfUAix_5PkHeTaAJaS6A7nFe63GaA5vevW_5FvtfXMsiv7fY04qffsYxWwpn6BP-jSyRbplOw_VT7KEGwxmrKmhyc3AeAucLTWuW9Lj2eih7M6A9o0cPGWZRIniLtKRguDUYHG936xEIIjzYFSrevkgtDGcgNAEyXMxmmTtT6FLzvIfUDmQxVpSqaQnx9Po9pbDLF1WevJ2tzD1DdjVW3yQnW0OHn_5qbJwTOvZfVk2BvOvPihrckeiTvw-mWQ8e734jEb-pzwGiSU4dCZIKN6UV06d2zepW7OyR3BZmfQwzC-RJE2u2TCVGREE_ISmOcojbWNWlz4Lo1VPcteowhbdGUpQ2mR34wn8ZYzn8z0buksa0Oo6CIDRHvEYBzB3lmTGXMPcsyTg5LL8ZyX3XGV3utnT2ehUcLiPAx8mINIXsM1m7gsLRNRFXXCEUkmsUq9xtQGTM58JPAiA36fOqNisGn9YdRDlb_pgb-Zy_AMfaWtGj6KGZ_h-dy0]--></g></svg>